<?xml version="1.0" encoding="utf-8"?>
<mlt LC_NUMERIC="zh_TW" version="6.5.0" title="Shotcut version 17.05.03" producer="main bin">
  <profile description="HD 1080p 25 fps" width="1600" height="900" progressive="1" sample_aspect_num="1" sample_aspect_den="1" display_aspect_num="16" display_aspect_den="9" frame_rate_num="60000" frame_rate_den="1000" colorspace="709"/>
  <producer id="producer0" title="Anonymous Submission" in="00:00:00.000" out="00:19:59.983">
    <property name="length">00:20:00.000</property>
    <property name="eof">pause</property>
    <property name="resource">C:\Users\mandy.DOM-PC\lmms\projects\NLHS 16th/Final Output/Transparent Background.png</property>
    <property name="ttl">1</property>
    <property name="aspect_ratio">1</property>
    <property name="progressive">1</property>
    <property name="seekable">1</property>
    <property name="loop">1</property>
    <property name="mlt_service">pixbuf</property>
    <property name="global_feed">1</property>
    <property name="xml">was here</property>
    <property name="shotcut:hash">f8d356a56b67d1c42b86a91a1ec9134f</property>
  </producer>
  <producer id="producer1" title="Anonymous Submission" in="00:00:00.000" out="00:09:59.983">
    <property name="length">00:10:00.000</property>
    <property name="eof">pause</property>
    <property name="resource">C:\Users\mandy.DOM-PC\lmms\projects\NLHS 16th/Final Output/Black Background.png</property>
    <property name="ttl">1</property>
    <property name="aspect_ratio">1</property>
    <property name="progressive">1</property>
    <property name="seekable">1</property>
    <property name="loop">1</property>
    <property name="mlt_service">pixbuf</property>
    <property name="global_feed">1</property>
    <property name="xml">was here</property>
    <property name="shotcut:hash">605abc65015ebdd78d41bda10f30c57a</property>
  </producer>
  <producer id="producer2" title="Anonymous Submission" in="00:00:00.000" out="00:04:39.367">
    <property name="length">00:04:39.383</property>
    <property name="eof">pause</property>
    <property name="resource">C:\Users\mandy.DOM-PC\lmms\projects\NLHS 16th/Final Output/[Final Mix 005] 夢想集散地.wav</property>
    <property name="audio_index">0</property>
    <property name="video_index">-1</property>
    <property name="mute_on_pause">0</property>
    <property name="mlt_service">avformat-novalidate</property>
    <property name="seekable">1</property>
    <property name="global_feed">1</property>
    <property name="xml">was here</property>
    <property name="shotcut:hash">56de026cd91c842e4d11a88dcdf6502f</property>
  </producer>
  <playlist id="main bin">
    <property name="xml_retain">1</property>
    <entry producer="producer0" in="00:00:00.000" out="00:00:07.983"/>
    <entry producer="producer1" in="00:00:00.000" out="00:00:03.983"/>
    <entry producer="producer2" in="00:00:00.000" out="00:04:39.367"/>
  </playlist>
  <producer id="black" in="00:00:00.000" out="00:04:39.367">
    <property name="length">00:04:39.383</property>
    <property name="eof">pause</property>
    <property name="resource">C:\Users\mandy.DOM-PC\lmms\projects\NLHS 16th/black</property>
    <property name="aspect_ratio">0.995</property>
    <property name="mlt_service">color</property>
    <property name="set.test_audio">0</property>
  </producer>
  <playlist id="background">
    <entry producer="black" in="00:00:00.000" out="00:04:39.367"/>
  </playlist>
  <producer id="producer3" title="Anonymous Submission" in="00:00:00.000" out="00:04:39.350">
    <property name="length">00:10:00.000</property>
    <property name="eof">pause</property>
    <property name="resource">C:\Users\mandy.DOM-PC\lmms\projects\NLHS 16th/Final Output/Black Background.png</property>
    <property name="ttl">1</property>
    <property name="aspect_ratio">1</property>
    <property name="progressive">1</property>
    <property name="seekable">1</property>
    <property name="loop">1</property>
    <property name="mlt_service">pixbuf</property>
    <property name="global_feed">1</property>
    <property name="xml">was here</property>
    <property name="shotcut:hash">605abc65015ebdd78d41bda10f30c57a</property>
  </producer>
  <playlist id="playlist0">
    <property name="shotcut:video">1</property>
    <property name="shotcut:name">V1</property>
    <entry producer="producer3" in="00:00:00.000" out="00:04:39.350"/>
  </playlist>
  <producer id="producer4" title="Anonymous Submission" in="00:00:00.000" out="00:04:39.367">
    <property name="length">00:04:39.383</property>
    <property name="eof">pause</property>
    <property name="resource">C:\Users\mandy.DOM-PC\lmms\projects\NLHS 16th/Final Output/[Final Mix 005] 夢想集散地.wav</property>
    <property name="audio_index">0</property>
    <property name="video_index">-1</property>
    <property name="mute_on_pause">0</property>
    <property name="mlt_service">avformat-novalidate</property>
    <property name="seekable">1</property>
    <property name="shotcut:hash">56de026cd91c842e4d11a88dcdf6502f</property>
    <property name="ignore_points">0</property>
    <property name="shotcut:caption">[Final Mix 005] 夢想集散地.wav</property>
    <property name="shotcut:detail">Final Output/[Final Mix 005] 夢想集散地.wav</property>
    <property name="shotcut:comment"></property>
    <property name="global_feed">1</property>
    <property name="xml">was here</property>
  </producer>
  <playlist id="playlist2">
    <property name="shotcut:audio">1</property>
    <property name="shotcut:name">A1</property>
    <property name="shotcut:lock">0</property>
    <entry producer="producer4" in="00:00:00.000" out="00:04:39.367"/>
  </playlist>
  <producer id="producer12" title="Anonymous Submission" in="00:00:00.000" out="00:00:05.650">
    <property name="length">00:20:00.000</property>
    <property name="eof">pause</property>
    <property name="resource">C:\Users\mandy.DOM-PC\lmms\projects\NLHS 16th/Final Output/Transparent Background.png</property>
    <property name="ttl">1</property>
    <property name="aspect_ratio">1</property>
    <property name="progressive">1</property>
    <property name="seekable">1</property>
    <property name="loop">1</property>
    <property name="mlt_service">pixbuf</property>
    <property name="global_feed">1</property>
    <property name="xml">was here</property>
    <property name="shotcut:hash">f8d356a56b67d1c42b86a91a1ec9134f</property>
    <filter id="filter10">
      <property name="argument">夢想集散地</property>
      <property name="geometry">27.69%/35.67%:44.62%x28.67%</property>
      <property name="family">微軟正黑體</property>
      <property name="size">258</property>
      <property name="weight">1200</property>
      <property name="style">bold</property>
      <property name="fgcolour">#ffffffff</property>
      <property name="bgcolour">#00000000</property>
      <property name="olcolour">#ff000000</property>
      <property name="pad">0</property>
      <property name="halign">center</property>
      <property name="valign">middle</property>
      <property name="outline">0</property>
      <property name="mlt_service">dynamictext</property>
      <property name="shotcut:filter">dynamicText</property>
    </filter>
    <filter id="filter11" in="00:00:01.917" out="00:00:02.017">
      <property name="start">1</property>
      <property name="level">1</property>
      <property name="mlt_service">brightness</property>
      <property name="shotcut:filter">fadeInBrightness</property>
      <property name="alpha">0=0; 6=1</property>
    </filter>
    <filter id="filter13" in="00:00:05.550" out="00:00:05.650">
      <property name="start">1</property>
      <property name="level">1</property>
      <property name="mlt_service">brightness</property>
      <property name="shotcut:filter">fadeOutBrightness</property>
      <property name="alpha">0=1; 6=0</property>
    </filter>
  </producer>
  <producer id="producer13" title="Anonymous Submission" in="00:00:00.000" out="00:00:05.600">
    <property name="length">00:20:00.000</property>
    <property name="eof">pause</property>
    <property name="resource">C:\Users\mandy.DOM-PC\lmms\projects\NLHS 16th/Final Output/Transparent Background.png</property>
    <property name="ttl">1</property>
    <property name="aspect_ratio">1</property>
    <property name="progressive">1</property>
    <property name="seekable">1</property>
    <property name="loop">1</property>
    <property name="mlt_service">pixbuf</property>
    <property name="global_feed">1</property>
    <property name="xml">was here</property>
    <property name="shotcut:hash">f8d356a56b67d1c42b86a91a1ec9134f</property>
    <filter id="filter16">
      <property name="argument">詞 / 鄺文揚 &amp; 葉威呈</property>
      <property name="geometry">3.62%/89.11%:28.69%x10.56%</property>
      <property name="family">微軟正黑體</property>
      <property name="size">50</property>
      <property name="weight">1200</property>
      <property name="style">bold</property>
      <property name="fgcolour">#ffffffff</property>
      <property name="bgcolour">#00000000</property>
      <property name="olcolour">#ff000000</property>
      <property name="pad">0</property>
      <property name="halign">center</property>
      <property name="valign">middle</property>
      <property name="outline">0</property>
      <property name="mlt_service">dynamictext</property>
      <property name="shotcut:filter">dynamicText</property>
    </filter>
    <filter id="filter17" in="00:00:01.867" out="00:00:01.967">
      <property name="start">1</property>
      <property name="level">1</property>
      <property name="mlt_service">brightness</property>
      <property name="shotcut:filter">fadeInBrightness</property>
      <property name="alpha">0=0; 6=1</property>
    </filter>
    <filter id="filter19" in="00:00:05.500" out="00:00:05.600">
      <property name="start">1</property>
      <property name="level">1</property>
      <property name="mlt_service">brightness</property>
      <property name="shotcut:filter">fadeOutBrightness</property>
      <property name="alpha">0=1; 6=0</property>
    </filter>
  </producer>
  <producer id="producer14" title="Anonymous Submission" in="00:00:00.000" out="00:00:05.567">
    <property name="length">00:20:00.000</property>
    <property name="eof">pause</property>
    <property name="resource">C:\Users\mandy.DOM-PC\lmms\projects\NLHS 16th/Final Output/Transparent Background.png</property>
    <property name="ttl">1</property>
    <property name="aspect_ratio">1</property>
    <property name="progressive">1</property>
    <property name="seekable">1</property>
    <property name="loop">1</property>
    <property name="mlt_service">pixbuf</property>
    <property name="global_feed">1</property>
    <property name="xml">was here</property>
    <property name="shotcut:hash">f8d356a56b67d1c42b86a91a1ec9134f</property>
    <filter id="filter21">
      <property name="argument">曲 / 葉威呈</property>
      <property name="geometry">81.50%/91.11%:15.06%x7.00%</property>
      <property name="family">微軟正黑體</property>
      <property name="size">50</property>
      <property name="weight">1200</property>
      <property name="style">bold</property>
      <property name="fgcolour">#ffffffff</property>
      <property name="bgcolour">#00000000</property>
      <property name="olcolour">#ff000000</property>
      <property name="pad">0</property>
      <property name="halign">center</property>
      <property name="valign">middle</property>
      <property name="outline">0</property>
      <property name="mlt_service">dynamictext</property>
      <property name="shotcut:filter">dynamicText</property>
    </filter>
    <filter id="filter22" in="00:00:01.817" out="00:00:01.917">
      <property name="start">1</property>
      <property name="level">1</property>
      <property name="mlt_service">brightness</property>
      <property name="shotcut:filter">fadeInBrightness</property>
      <property name="alpha">0=0; 6=1</property>
    </filter>
    <filter id="filter24" in="00:00:05.467" out="00:00:05.567">
      <property name="start">1</property>
      <property name="level">1</property>
      <property name="mlt_service">brightness</property>
      <property name="shotcut:filter">fadeOutBrightness</property>
      <property name="alpha">0=1; 6=0</property>
    </filter>
  </producer>
  <producer id="producer5" title="Anonymous Submission" in="00:00:00.000" out="00:00:05.600">
    <property name="length">00:20:00.000</property>
    <property name="eof">pause</property>
    <property name="resource">C:\Users\mandy.DOM-PC\lmms\projects\NLHS 16th/Final Output/Transparent Background.png</property>
    <property name="ttl">1</property>
    <property name="aspect_ratio">1</property>
    <property name="progressive">1</property>
    <property name="seekable">1</property>
    <property name="loop">1</property>
    <property name="mlt_service">pixbuf</property>
    <property name="global_feed">1</property>
    <property name="xml">was here</property>
    <property name="shotcut:hash">f8d356a56b67d1c42b86a91a1ec9134f</property>
    <filter id="filter0">
      <property name="argument">歌唱 / 三一四</property>
      <property name="geometry">5.75%/90.89%:23.50%x7.00%</property>
      <property name="family">微軟正黑體</property>
      <property name="size">63</property>
      <property name="weight">1200</property>
      <property name="style">bold</property>
      <property name="fgcolour">#ffffffff</property>
      <property name="bgcolour">#00000000</property>
      <property name="olcolour">#ff000000</property>
      <property name="pad">0</property>
      <property name="halign">center</property>
      <property name="valign">middle</property>
      <property name="outline">0</property>
      <property name="mlt_service">dynamictext</property>
      <property name="shotcut:filter">dynamicText</property>
    </filter>
    <filter id="filter1" in="00:00:01.867" out="00:00:01.967">
      <property name="start">1</property>
      <property name="level">1</property>
      <property name="mlt_service">brightness</property>
      <property name="shotcut:filter">fadeInBrightness</property>
      <property name="alpha">0=0; 6=1</property>
    </filter>
    <filter id="filter2" in="00:00:05.500" out="00:00:05.600">
      <property name="start">1</property>
      <property name="level">1</property>
      <property name="mlt_service">brightness</property>
      <property name="shotcut:filter">fadeOutBrightness</property>
      <property name="alpha">0=1; 6=0</property>
    </filter>
  </producer>
  <producer id="producer15" title="Anonymous Submission" in="00:00:00.000" out="00:00:05.617">
    <property name="length">00:20:00.000</property>
    <property name="eof">pause</property>
    <property name="resource">C:\Users\mandy.DOM-PC\lmms\projects\NLHS 16th/Final Output/Transparent Background.png</property>
    <property name="ttl">1</property>
    <property name="aspect_ratio">1</property>
    <property name="progressive">1</property>
    <property name="seekable">1</property>
    <property name="loop">1</property>
    <property name="mlt_service">pixbuf</property>
    <property name="global_feed">1</property>
    <property name="xml">was here</property>
    <property name="shotcut:hash">f8d356a56b67d1c42b86a91a1ec9134f</property>
    <filter id="filter26">
      <property name="argument">圍牆裡 那懷念的風景 </property>
      <property name="geometry">0.12%/87.44%:99.50%x9.22%</property>
      <property name="family">微軟正黑體</property>
      <property name="size">83</property>
      <property name="weight">1200</property>
      <property name="style">bold</property>
      <property name="fgcolour">#ffffffff</property>
      <property name="bgcolour">#00000000</property>
      <property name="olcolour">#000000</property>
      <property name="pad">0</property>
      <property name="halign">right</property>
      <property name="valign">bottom</property>
      <property name="outline">0</property>
      <property name="mlt_service">dynamictext</property>
      <property name="shotcut:filter">dynamicText</property>
    </filter>
    <filter id="filter27" in="00:00:01.917" out="00:00:02.017">
      <property name="start">1</property>
      <property name="level">1</property>
      <property name="mlt_service">brightness</property>
      <property name="shotcut:filter">fadeInBrightness</property>
      <property name="alpha">0=0; 6=1</property>
    </filter>
    <filter id="filter29" in="00:00:05.517" out="00:00:05.617">
      <property name="start">1</property>
      <property name="level">1</property>
      <property name="mlt_service">brightness</property>
      <property name="shotcut:filter">fadeOutBrightness</property>
      <property name="alpha">0=1; 6=0</property>
    </filter>
  </producer>
  <producer id="producer16" title="Anonymous Submission" in="00:00:00.000" out="00:00:05.633">
    <property name="length">00:20:00.000</property>
    <property name="eof">pause</property>
    <property name="resource">C:\Users\mandy.DOM-PC\lmms\projects\NLHS 16th/Final Output/Transparent Background.png</property>
    <property name="ttl">1</property>
    <property name="aspect_ratio">1</property>
    <property name="progressive">1</property>
    <property name="seekable">1</property>
    <property name="loop">1</property>
    <property name="mlt_service">pixbuf</property>
    <property name="global_feed">1</property>
    <property name="xml">was here</property>
    <property name="shotcut:hash">f8d356a56b67d1c42b86a91a1ec9134f</property>
    <filter id="filter31">
      <property name="argument">教室中 那熟悉的聲音 </property>
      <property name="geometry">0.19%/87.44%:99.50%x9.22%</property>
      <property name="family">微軟正黑體</property>
      <property name="size">83</property>
      <property name="weight">1200</property>
      <property name="style">bold</property>
      <property name="fgcolour">#ffffffff</property>
      <property name="bgcolour">#00000000</property>
      <property name="olcolour">#ff000000</property>
      <property name="pad">0</property>
      <property name="halign">right</property>
      <property name="valign">bottom</property>
      <property name="outline">0</property>
      <property name="mlt_service">dynamictext</property>
      <property name="shotcut:filter">dynamicText</property>
    </filter>
    <filter id="filter32" in="00:00:01.917" out="00:00:02.017">
      <property name="start">1</property>
      <property name="level">1</property>
      <property name="mlt_service">brightness</property>
      <property name="shotcut:filter">fadeInBrightness</property>
      <property name="alpha">0=0; 6=1</property>
    </filter>
    <filter id="filter34" in="00:00:05.533" out="00:00:05.633">
      <property name="start">1</property>
      <property name="level">1</property>
      <property name="mlt_service">brightness</property>
      <property name="shotcut:filter">fadeOutBrightness</property>
      <property name="alpha">0=1; 6=0</property>
    </filter>
  </producer>
  <producer id="producer17" title="Anonymous Submission" in="00:00:00.000" out="00:00:05.633">
    <property name="length">00:20:00.000</property>
    <property name="eof">pause</property>
    <property name="resource">C:\Users\mandy.DOM-PC\lmms\projects\NLHS 16th/Final Output/Transparent Background.png</property>
    <property name="ttl">1</property>
    <property name="aspect_ratio">1</property>
    <property name="progressive">1</property>
    <property name="seekable">1</property>
    <property name="loop">1</property>
    <property name="mlt_service">pixbuf</property>
    <property name="global_feed">1</property>
    <property name="xml">was here</property>
    <property name="shotcut:hash">f8d356a56b67d1c42b86a91a1ec9134f</property>
    <filter id="filter36">
      <property name="argument">球場上 那執著的堅定 </property>
      <property name="geometry">0.19%/87.44%:99.50%x9.22%</property>
      <property name="family">微軟正黑體</property>
      <property name="size">83</property>
      <property name="weight">1200</property>
      <property name="style">bold</property>
      <property name="fgcolour">#ffffffff</property>
      <property name="bgcolour">#00000000</property>
      <property name="olcolour">#ff000000</property>
      <property name="pad">0</property>
      <property name="halign">right</property>
      <property name="valign">bottom</property>
      <property name="outline">0</property>
      <property name="mlt_service">dynamictext</property>
      <property name="shotcut:filter">dynamicText</property>
    </filter>
    <filter id="filter37" in="00:00:01.917" out="00:00:02.017">
      <property name="start">1</property>
      <property name="level">1</property>
      <property name="mlt_service">brightness</property>
      <property name="shotcut:filter">fadeInBrightness</property>
      <property name="alpha">0=0; 6=1</property>
    </filter>
    <filter id="filter39" in="00:00:05.533" out="00:00:05.633">
      <property name="start">1</property>
      <property name="level">1</property>
      <property name="mlt_service">brightness</property>
      <property name="shotcut:filter">fadeOutBrightness</property>
      <property name="alpha">0=1; 6=0</property>
    </filter>
  </producer>
  <producer id="producer18" title="Anonymous Submission" in="00:00:00.000" out="00:00:05.617">
    <property name="length">00:20:00.000</property>
    <property name="eof">pause</property>
    <property name="resource">C:\Users\mandy.DOM-PC\lmms\projects\NLHS 16th/Final Output/Transparent Background.png</property>
    <property name="ttl">1</property>
    <property name="aspect_ratio">1</property>
    <property name="progressive">1</property>
    <property name="seekable">1</property>
    <property name="loop">1</property>
    <property name="mlt_service">pixbuf</property>
    <property name="global_feed">1</property>
    <property name="xml">was here</property>
    <property name="shotcut:hash">f8d356a56b67d1c42b86a91a1ec9134f</property>
    <filter id="filter41">
      <property name="argument">龜池裡 那夢想的倒影 </property>
      <property name="geometry">0.19%/87.44%:99.50%x9.22%</property>
      <property name="family">微軟正黑體</property>
      <property name="size">83</property>
      <property name="weight">1200</property>
      <property name="style">bold</property>
      <property name="fgcolour">#ffffffff</property>
      <property name="bgcolour">#00000000</property>
      <property name="olcolour">#ff000000</property>
      <property name="pad">0</property>
      <property name="halign">right</property>
      <property name="valign">bottom</property>
      <property name="outline">0</property>
      <property name="mlt_service">dynamictext</property>
      <property name="shotcut:filter">dynamicText</property>
    </filter>
    <filter id="filter42" in="00:00:01.917" out="00:00:02.017">
      <property name="start">1</property>
      <property name="level">1</property>
      <property name="mlt_service">brightness</property>
      <property name="shotcut:filter">fadeInBrightness</property>
      <property name="alpha">0=0; 6=1</property>
    </filter>
    <filter id="filter44" in="00:00:05.517" out="00:00:05.617">
      <property name="start">1</property>
      <property name="level">1</property>
      <property name="mlt_service">brightness</property>
      <property name="shotcut:filter">fadeOutBrightness</property>
      <property name="alpha">0=1; 6=0</property>
    </filter>
  </producer>
  <producer id="producer19" title="Anonymous Submission" in="00:00:00.000" out="00:00:05.433">
    <property name="length">00:20:00.000</property>
    <property name="eof">pause</property>
    <property name="resource">C:\Users\mandy.DOM-PC\lmms\projects\NLHS 16th/Final Output/Transparent Background.png</property>
    <property name="ttl">1</property>
    <property name="aspect_ratio">1</property>
    <property name="progressive">1</property>
    <property name="seekable">1</property>
    <property name="loop">1</property>
    <property name="mlt_service">pixbuf</property>
    <property name="global_feed">1</property>
    <property name="xml">was here</property>
    <property name="shotcut:hash">f8d356a56b67d1c42b86a91a1ec9134f</property>
    <filter id="filter46">
      <property name="argument">上課就是努力 下課球場佔領</property>
      <property name="geometry">0.19%/87.44%:99.50%x9.22%</property>
      <property name="family">微軟正黑體</property>
      <property name="size">83</property>
      <property name="weight">1200</property>
      <property name="style">bold</property>
      <property name="fgcolour">#ffffffff</property>
      <property name="bgcolour">#00000000</property>
      <property name="olcolour">#ff000000</property>
      <property name="pad">0</property>
      <property name="halign">center</property>
      <property name="valign">bottom</property>
      <property name="outline">0</property>
      <property name="mlt_service">dynamictext</property>
      <property name="shotcut:filter">dynamicText</property>
    </filter>
    <filter id="filter47" in="00:00:01.867" out="00:00:01.967">
      <property name="start">1</property>
      <property name="level">1</property>
      <property name="mlt_service">brightness</property>
      <property name="shotcut:filter">fadeInBrightness</property>
      <property name="alpha">0=0; 6=1</property>
    </filter>
    <filter id="filter49" in="00:00:05.333" out="00:00:05.433">
      <property name="start">1</property>
      <property name="level">1</property>
      <property name="mlt_service">brightness</property>
      <property name="shotcut:filter">fadeOutBrightness</property>
      <property name="alpha">0=1; 6=0</property>
      <property name="disable">0</property>
    </filter>
  </producer>
  <producer id="producer20" title="Anonymous Submission" in="00:00:00.000" out="00:00:05.467">
    <property name="length">00:20:00.000</property>
    <property name="eof">pause</property>
    <property name="resource">C:\Users\mandy.DOM-PC\lmms\projects\NLHS 16th/Final Output/Transparent Background.png</property>
    <property name="ttl">1</property>
    <property name="aspect_ratio">1</property>
    <property name="progressive">1</property>
    <property name="seekable">1</property>
    <property name="loop">1</property>
    <property name="mlt_service">pixbuf</property>
    <property name="global_feed">1</property>
    <property name="xml">was here</property>
    <property name="shotcut:hash">f8d356a56b67d1c42b86a91a1ec9134f</property>
    <filter id="filter51">
      <property name="argument">手中拿著紙筆 探索奇妙課題</property>
      <property name="geometry">0.19%/87.44%:99.50%x9.22%</property>
      <property name="family">微軟正黑體</property>
      <property name="size">83</property>
      <property name="weight">1200</property>
      <property name="style">bold</property>
      <property name="fgcolour">#ffffffff</property>
      <property name="bgcolour">#00000000</property>
      <property name="olcolour">#ff000000</property>
      <property name="pad">0</property>
      <property name="halign">center</property>
      <property name="valign">bottom</property>
      <property name="outline">0</property>
      <property name="mlt_service">dynamictext</property>
      <property name="shotcut:filter">dynamicText</property>
    </filter>
    <filter id="filter52" in="00:00:02.067" out="00:00:02.167">
      <property name="start">1</property>
      <property name="level">1</property>
      <property name="mlt_service">brightness</property>
      <property name="shotcut:filter">fadeInBrightness</property>
      <property name="alpha">0=0; 6=1</property>
      <property name="disable">0</property>
    </filter>
    <filter id="filter54" in="00:00:05.367" out="00:00:05.467">
      <property name="start">1</property>
      <property name="level">1</property>
      <property name="mlt_service">brightness</property>
      <property name="shotcut:filter">fadeOutBrightness</property>
      <property name="alpha">0=1; 6=0</property>
    </filter>
  </producer>
  <producer id="producer21" title="Anonymous Submission" in="00:00:00.000" out="00:00:05.617">
    <property name="length">00:20:00.000</property>
    <property name="eof">pause</property>
    <property name="resource">C:\Users\mandy.DOM-PC\lmms\projects\NLHS 16th/Final Output/Transparent Background.png</property>
    <property name="ttl">1</property>
    <property name="aspect_ratio">1</property>
    <property name="progressive">1</property>
    <property name="seekable">1</property>
    <property name="loop">1</property>
    <property name="mlt_service">pixbuf</property>
    <property name="global_feed">1</property>
    <property name="xml">was here</property>
    <property name="shotcut:hash">f8d356a56b67d1c42b86a91a1ec9134f</property>
    <filter id="filter56">
      <property name="argument">走廊上的話語 操場上的遊戲</property>
      <property name="geometry">0.19%/87.44%:99.50%x9.22%</property>
      <property name="family">微軟正黑體</property>
      <property name="size">83</property>
      <property name="weight">1200</property>
      <property name="style">bold</property>
      <property name="fgcolour">#ffffffff</property>
      <property name="bgcolour">#00000000</property>
      <property name="olcolour">#ff000000</property>
      <property name="pad">0</property>
      <property name="halign">center</property>
      <property name="valign">bottom</property>
      <property name="outline">0</property>
      <property name="mlt_service">dynamictext</property>
      <property name="shotcut:filter">dynamicText</property>
    </filter>
    <filter id="filter57" in="00:00:01.917" out="00:00:02.017">
      <property name="start">1</property>
      <property name="level">1</property>
      <property name="mlt_service">brightness</property>
      <property name="shotcut:filter">fadeInBrightness</property>
      <property name="alpha">0=0; 6=1</property>
    </filter>
    <filter id="filter59" in="00:00:05.517" out="00:00:05.617">
      <property name="start">1</property>
      <property name="level">1</property>
      <property name="mlt_service">brightness</property>
      <property name="shotcut:filter">fadeOutBrightness</property>
      <property name="alpha">0=1; 6=0</property>
    </filter>
  </producer>
  <producer id="producer22" title="Anonymous Submission" in="00:00:00.000" out="00:00:05.500">
    <property name="length">00:20:00.000</property>
    <property name="eof">pause</property>
    <property name="resource">C:\Users\mandy.DOM-PC\lmms\projects\NLHS 16th/Final Output/Transparent Background.png</property>
    <property name="ttl">1</property>
    <property name="aspect_ratio">1</property>
    <property name="progressive">1</property>
    <property name="seekable">1</property>
    <property name="loop">1</property>
    <property name="mlt_service">pixbuf</property>
    <property name="global_feed">1</property>
    <property name="xml">was here</property>
    <property name="shotcut:hash">f8d356a56b67d1c42b86a91a1ec9134f</property>
    <filter id="filter61">
      <property name="argument">那樣充滿能量的年代 那樣充滿美好的年代</property>
      <property name="geometry">0.19%/87.44%:99.50%x9.22%</property>
      <property name="family">微軟正黑體</property>
      <property name="size">83</property>
      <property name="weight">1200</property>
      <property name="style">bold</property>
      <property name="fgcolour">#ffffffff</property>
      <property name="bgcolour">#00000000</property>
      <property name="olcolour">#ff000000</property>
      <property name="pad">0</property>
      <property name="halign">center</property>
      <property name="valign">bottom</property>
      <property name="outline">0</property>
      <property name="mlt_service">dynamictext</property>
      <property name="shotcut:filter">dynamicText</property>
    </filter>
    <filter id="filter62" in="00:00:01.900" out="00:00:02.000">
      <property name="start">1</property>
      <property name="level">1</property>
      <property name="mlt_service">brightness</property>
      <property name="shotcut:filter">fadeInBrightness</property>
      <property name="alpha">0=0; 6=1</property>
    </filter>
    <filter id="filter64" in="00:00:05.400" out="00:00:05.500">
      <property name="start">1</property>
      <property name="level">1</property>
      <property name="mlt_service">brightness</property>
      <property name="shotcut:filter">fadeOutBrightness</property>
      <property name="alpha">0=1; 6=0</property>
    </filter>
  </producer>
  <producer id="producer23" title="Anonymous Submission" in="00:00:00.000" out="00:00:05.250">
    <property name="length">00:20:00.000</property>
    <property name="eof">pause</property>
    <property name="resource">C:\Users\mandy.DOM-PC\lmms\projects\NLHS 16th/Final Output/Transparent Background.png</property>
    <property name="ttl">1</property>
    <property name="aspect_ratio">1</property>
    <property name="progressive">1</property>
    <property name="seekable">1</property>
    <property name="loop">1</property>
    <property name="mlt_service">pixbuf</property>
    <property name="global_feed">1</property>
    <property name="xml">was here</property>
    <property name="shotcut:hash">f8d356a56b67d1c42b86a91a1ec9134f</property>
    <filter id="filter66">
      <property name="argument">與龜池相會的視線 　　　　　　　　　</property>
      <property name="geometry">0.19%/87.44%:99.50%x9.22%</property>
      <property name="family">微軟正黑體</property>
      <property name="size">83</property>
      <property name="weight">1200</property>
      <property name="style">bold</property>
      <property name="fgcolour">#ffffffff</property>
      <property name="bgcolour">#00000000</property>
      <property name="olcolour">#ff000000</property>
      <property name="pad">0</property>
      <property name="halign">center</property>
      <property name="valign">bottom</property>
      <property name="outline">0</property>
      <property name="mlt_service">dynamictext</property>
      <property name="shotcut:filter">dynamicText</property>
    </filter>
    <filter id="filter67" in="00:00:01.900" out="00:00:02.000">
      <property name="start">1</property>
      <property name="level">1</property>
      <property name="mlt_service">brightness</property>
      <property name="shotcut:filter">fadeInBrightness</property>
      <property name="alpha">0=0; 6=1</property>
    </filter>
  </producer>
  <producer id="producer6" title="Anonymous Submission" in="00:00:00.000" out="00:00:05.250">
    <property name="length">00:20:00.000</property>
    <property name="eof">pause</property>
    <property name="resource">C:\Users\mandy.DOM-PC\lmms\projects\NLHS 16th/Final Output/Transparent Background.png</property>
    <property name="ttl">1</property>
    <property name="aspect_ratio">1</property>
    <property name="progressive">1</property>
    <property name="seekable">1</property>
    <property name="loop">1</property>
    <property name="mlt_service">pixbuf</property>
    <property name="global_feed">1</property>
    <property name="xml">was here</property>
    <property name="shotcut:hash">f8d356a56b67d1c42b86a91a1ec9134f</property>
    <filter id="filter3">
      <property name="argument">與龜池相會的視線 　　　　　　　　　</property>
      <property name="geometry">0.19%/87.44%:99.50%x9.22%</property>
      <property name="family">微軟正黑體</property>
      <property name="size">83</property>
      <property name="weight">1200</property>
      <property name="style">bold</property>
      <property name="fgcolour">#ffffffff</property>
      <property name="bgcolour">#00000000</property>
      <property name="olcolour">#ff000000</property>
      <property name="pad">0</property>
      <property name="halign">center</property>
      <property name="valign">bottom</property>
      <property name="outline">0</property>
      <property name="mlt_service">dynamictext</property>
      <property name="shotcut:filter">dynamicText</property>
    </filter>
    <filter id="filter4" in="00:00:01.900" out="00:00:02.000">
      <property name="start">1</property>
      <property name="level">1</property>
      <property name="mlt_service">brightness</property>
      <property name="shotcut:filter">fadeInBrightness</property>
      <property name="alpha">0=0; 6=1</property>
    </filter>
  </producer>
  <producer id="producer24" title="Anonymous Submission" in="00:00:00.000" out="00:00:05.500">
    <property name="length">00:20:00.000</property>
    <property name="eof">pause</property>
    <property name="resource">C:\Users\mandy.DOM-PC\lmms\projects\NLHS 16th/Final Output/Transparent Background.png</property>
    <property name="ttl">1</property>
    <property name="aspect_ratio">1</property>
    <property name="progressive">1</property>
    <property name="seekable">1</property>
    <property name="loop">1</property>
    <property name="mlt_service">pixbuf</property>
    <property name="global_feed">1</property>
    <property name="xml">was here</property>
    <property name="shotcut:hash">f8d356a56b67d1c42b86a91a1ec9134f</property>
    <filter id="filter71">
      <property name="argument">與龜池相會的視線 彷彿映在心中的理想</property>
      <property name="geometry">0.19%/87.44%:99.50%x9.22%</property>
      <property name="family">微軟正黑體</property>
      <property name="size">83</property>
      <property name="weight">1200</property>
      <property name="style">bold</property>
      <property name="fgcolour">#ffffffff</property>
      <property name="bgcolour">#00000000</property>
      <property name="olcolour">#ff000000</property>
      <property name="pad">0</property>
      <property name="halign">center</property>
      <property name="valign">bottom</property>
      <property name="outline">0</property>
      <property name="mlt_service">dynamictext</property>
      <property name="shotcut:filter">dynamicText</property>
    </filter>
    <filter id="filter74" in="00:00:05.400" out="00:00:05.500">
      <property name="start">1</property>
      <property name="level">1</property>
      <property name="mlt_service">brightness</property>
      <property name="shotcut:filter">fadeOutBrightness</property>
      <property name="alpha">0=1; 6=0</property>
    </filter>
  </producer>
  <tractor id="tractor0" title="Anonymous Submission" global_feed="1" in="00:00:00.000" out="00:00:00.100">
    <property name="shotcut:transition">lumaMix</property>
    <track producer="producer6" in="00:00:05.267" out="00:00:05.367"/>
    <track producer="producer24" in="00:00:01.617" out="00:00:01.717"/>
    <transition id="transition0" out="00:00:00.100">
      <property name="a_track">0</property>
      <property name="b_track">1</property>
      <property name="factory">loader</property>
      <property name="mlt_service">luma</property>
    </transition>
    <transition id="transition1" out="00:00:00.100">
      <property name="a_track">0</property>
      <property name="b_track">1</property>
      <property name="mlt_service">mix</property>
      <property name="start">-1</property>
      <property name="accepts_blanks">1</property>
    </transition>
  </tractor>
  <producer id="producer7" title="Anonymous Submission" in="00:00:00.000" out="00:00:05.500">
    <property name="length">00:20:00.000</property>
    <property name="eof">pause</property>
    <property name="resource">C:\Users\mandy.DOM-PC\lmms\projects\NLHS 16th/Final Output/Transparent Background.png</property>
    <property name="ttl">1</property>
    <property name="aspect_ratio">1</property>
    <property name="progressive">1</property>
    <property name="seekable">1</property>
    <property name="loop">1</property>
    <property name="mlt_service">pixbuf</property>
    <property name="global_feed">1</property>
    <property name="xml">was here</property>
    <property name="shotcut:hash">f8d356a56b67d1c42b86a91a1ec9134f</property>
    <filter id="filter5">
      <property name="argument">與龜池相會的視線 彷彿映在心中的理想</property>
      <property name="geometry">0.19%/87.44%:99.50%x9.22%</property>
      <property name="family">微軟正黑體</property>
      <property name="size">83</property>
      <property name="weight">1200</property>
      <property name="style">bold</property>
      <property name="fgcolour">#ffffffff</property>
      <property name="bgcolour">#00000000</property>
      <property name="olcolour">#ff000000</property>
      <property name="pad">0</property>
      <property name="halign">center</property>
      <property name="valign">bottom</property>
      <property name="outline">0</property>
      <property name="mlt_service">dynamictext</property>
      <property name="shotcut:filter">dynamicText</property>
    </filter>
    <filter id="filter6" in="00:00:05.400" out="00:00:05.500">
      <property name="start">1</property>
      <property name="level">1</property>
      <property name="mlt_service">brightness</property>
      <property name="shotcut:filter">fadeOutBrightness</property>
      <property name="alpha">0=1; 6=0</property>
    </filter>
  </producer>
  <producer id="producer25" title="Anonymous Submission" in="00:00:00.000" out="00:00:05.367">
    <property name="length">00:20:00.000</property>
    <property name="eof">pause</property>
    <property name="resource">C:\Users\mandy.DOM-PC\lmms\projects\NLHS 16th/Final Output/Transparent Background.png</property>
    <property name="ttl">1</property>
    <property name="aspect_ratio">1</property>
    <property name="progressive">1</property>
    <property name="seekable">1</property>
    <property name="loop">1</property>
    <property name="mlt_service">pixbuf</property>
    <property name="global_feed">1</property>
    <property name="xml">was here</property>
    <property name="shotcut:hash">f8d356a56b67d1c42b86a91a1ec9134f</property>
    <filter id="filter76">
      <property name="argument">張開雙眼那夢想 　　　　　　 　　　　</property>
      <property name="geometry">0.19%/87.44%:99.50%x9.22%</property>
      <property name="family">微軟正黑體</property>
      <property name="size">83</property>
      <property name="weight">1200</property>
      <property name="style">bold</property>
      <property name="fgcolour">#ffffffff</property>
      <property name="bgcolour">#00000000</property>
      <property name="olcolour">#ff000000</property>
      <property name="pad">0</property>
      <property name="halign">center</property>
      <property name="valign">bottom</property>
      <property name="outline">0</property>
      <property name="mlt_service">dynamictext</property>
      <property name="shotcut:filter">dynamicText</property>
    </filter>
    <filter id="filter77" in="00:00:02.050" out="00:00:02.150">
      <property name="start">1</property>
      <property name="level">1</property>
      <property name="mlt_service">brightness</property>
      <property name="shotcut:filter">fadeInBrightness</property>
      <property name="alpha">0=0; 6=1</property>
    </filter>
  </producer>
  <producer id="producer8" title="Anonymous Submission" in="00:00:00.000" out="00:00:05.367">
    <property name="length">00:20:00.000</property>
    <property name="eof">pause</property>
    <property name="resource">C:\Users\mandy.DOM-PC\lmms\projects\NLHS 16th/Final Output/Transparent Background.png</property>
    <property name="ttl">1</property>
    <property name="aspect_ratio">1</property>
    <property name="progressive">1</property>
    <property name="seekable">1</property>
    <property name="loop">1</property>
    <property name="mlt_service">pixbuf</property>
    <property name="global_feed">1</property>
    <property name="xml">was here</property>
    <property name="shotcut:hash">f8d356a56b67d1c42b86a91a1ec9134f</property>
    <filter id="filter7">
      <property name="argument">張開雙眼那夢想 　　　　　　 　　　　</property>
      <property name="geometry">0.19%/87.44%:99.50%x9.22%</property>
      <property name="family">微軟正黑體</property>
      <property name="size">83</property>
      <property name="weight">1200</property>
      <property name="style">bold</property>
      <property name="fgcolour">#ffffffff</property>
      <property name="bgcolour">#00000000</property>
      <property name="olcolour">#ff000000</property>
      <property name="pad">0</property>
      <property name="halign">center</property>
      <property name="valign">bottom</property>
      <property name="outline">0</property>
      <property name="mlt_service">dynamictext</property>
      <property name="shotcut:filter">dynamicText</property>
    </filter>
    <filter id="filter8" in="00:00:02.050" out="00:00:02.150">
      <property name="start">1</property>
      <property name="level">1</property>
      <property name="mlt_service">brightness</property>
      <property name="shotcut:filter">fadeInBrightness</property>
      <property name="alpha">0=0; 6=1</property>
    </filter>
  </producer>
  <producer id="producer26" title="Anonymous Submission" in="00:00:00.000" out="00:00:04.050">
    <property name="length">00:20:00.000</property>
    <property name="eof">pause</property>
    <property name="resource">C:\Users\mandy.DOM-PC\lmms\projects\NLHS 16th/Final Output/Transparent Background.png</property>
    <property name="ttl">1</property>
    <property name="aspect_ratio">1</property>
    <property name="progressive">1</property>
    <property name="seekable">1</property>
    <property name="loop">1</property>
    <property name="mlt_service">pixbuf</property>
    <property name="global_feed">1</property>
    <property name="xml">was here</property>
    <property name="shotcut:hash">f8d356a56b67d1c42b86a91a1ec9134f</property>
    <filter id="filter81">
      <property name="argument">張開雙眼那夢想 還是如此明亮 　　　　</property>
      <property name="geometry">0.19%/87.44%:99.50%x9.22%</property>
      <property name="family">微軟正黑體</property>
      <property name="size">83</property>
      <property name="weight">1200</property>
      <property name="style">bold</property>
      <property name="fgcolour">#ffffffff</property>
      <property name="bgcolour">#00000000</property>
      <property name="olcolour">#ff000000</property>
      <property name="pad">0</property>
      <property name="halign">center</property>
      <property name="valign">bottom</property>
      <property name="outline">0</property>
      <property name="mlt_service">dynamictext</property>
      <property name="shotcut:filter">dynamicText</property>
    </filter>
  </producer>
  <tractor id="tractor1" title="Anonymous Submission" global_feed="1" in="00:00:00.000" out="00:00:00.100">
    <property name="shotcut:transition">lumaMix</property>
    <track producer="producer8" in="00:00:05.383" out="00:00:05.483"/>
    <track producer="producer26" in="00:00:01.733" out="00:00:01.833"/>
    <transition id="transition2" out="00:00:00.100">
      <property name="a_track">0</property>
      <property name="b_track">1</property>
      <property name="factory">loader</property>
      <property name="mlt_service">luma</property>
    </transition>
    <transition id="transition3" out="00:00:00.100">
      <property name="a_track">0</property>
      <property name="b_track">1</property>
      <property name="mlt_service">mix</property>
      <property name="start">-1</property>
      <property name="accepts_blanks">1</property>
    </transition>
  </tractor>
  <producer id="producer9" title="Anonymous Submission" in="00:00:00.000" out="00:00:04.050">
    <property name="length">00:20:00.000</property>
    <property name="eof">pause</property>
    <property name="resource">C:\Users\mandy.DOM-PC\lmms\projects\NLHS 16th/Final Output/Transparent Background.png</property>
    <property name="ttl">1</property>
    <property name="aspect_ratio">1</property>
    <property name="progressive">1</property>
    <property name="seekable">1</property>
    <property name="loop">1</property>
    <property name="mlt_service">pixbuf</property>
    <property name="global_feed">1</property>
    <property name="xml">was here</property>
    <property name="shotcut:hash">f8d356a56b67d1c42b86a91a1ec9134f</property>
    <filter id="filter9">
      <property name="argument">張開雙眼那夢想 還是如此明亮 　　　　</property>
      <property name="geometry">0.19%/87.44%:99.50%x9.22%</property>
      <property name="family">微軟正黑體</property>
      <property name="size">83</property>
      <property name="weight">1200</property>
      <property name="style">bold</property>
      <property name="fgcolour">#ffffffff</property>
      <property name="bgcolour">#00000000</property>
      <property name="olcolour">#ff000000</property>
      <property name="pad">0</property>
      <property name="halign">center</property>
      <property name="valign">bottom</property>
      <property name="outline">0</property>
      <property name="mlt_service">dynamictext</property>
      <property name="shotcut:filter">dynamicText</property>
    </filter>
  </producer>
  <producer id="producer11" title="Anonymous Submission" in="00:00:00.000" out="00:00:03.367">
    <property name="length">00:20:00.000</property>
    <property name="eof">pause</property>
    <property name="resource">C:\Users\mandy.DOM-PC\lmms\projects\NLHS 16th/Final Output/Transparent Background.png</property>
    <property name="ttl">1</property>
    <property name="aspect_ratio">1</property>
    <property name="progressive">1</property>
    <property name="seekable">1</property>
    <property name="loop">1</property>
    <property name="mlt_service">pixbuf</property>
    <property name="global_feed">1</property>
    <property name="xml">was here</property>
    <property name="shotcut:hash">f8d356a56b67d1c42b86a91a1ec9134f</property>
    <filter id="filter14">
      <property name="argument">張開雙眼那夢想 還是如此明亮 如此清晰</property>
      <property name="geometry">0.19%/87.44%:99.50%x9.22%</property>
      <property name="family">微軟正黑體</property>
      <property name="size">83</property>
      <property name="weight">1200</property>
      <property name="style">bold</property>
      <property name="fgcolour">#ffffffff</property>
      <property name="bgcolour">#00000000</property>
      <property name="olcolour">#ff000000</property>
      <property name="pad">0</property>
      <property name="halign">center</property>
      <property name="valign">bottom</property>
      <property name="outline">0</property>
      <property name="mlt_service">dynamictext</property>
      <property name="shotcut:filter">dynamicText</property>
    </filter>
    <filter id="filter15" in="00:00:03.267" out="00:00:03.367">
      <property name="start">1</property>
      <property name="level">1</property>
      <property name="mlt_service">brightness</property>
      <property name="shotcut:filter">fadeOutBrightness</property>
      <property name="alpha">0=1; 6=0</property>
    </filter>
  </producer>
  <tractor id="tractor2" title="Anonymous Submission" global_feed="1" in="00:00:00.000" out="00:00:00.100">
    <property name="shotcut:transition">lumaMix</property>
    <track producer="producer9" in="00:00:03.950" out="00:00:04.050"/>
    <track producer="producer11" in="00:00:01.500" out="00:00:01.600"/>
    <transition id="transition4" out="00:00:00.100">
      <property name="a_track">0</property>
      <property name="b_track">1</property>
      <property name="factory">loader</property>
      <property name="mlt_service">luma</property>
    </transition>
    <transition id="transition5" out="00:00:00.100">
      <property name="a_track">0</property>
      <property name="b_track">1</property>
      <property name="start">-1</property>
      <property name="accepts_blanks">1</property>
      <property name="mlt_service">mix</property>
    </transition>
  </tractor>
  <producer id="producer28" title="Anonymous Submission" in="00:00:00.000" out="00:00:05.450">
    <property name="length">00:20:00.000</property>
    <property name="eof">pause</property>
    <property name="resource">C:\Users\mandy.DOM-PC\lmms\projects\NLHS 16th/Final Output/Transparent Background.png</property>
    <property name="ttl">1</property>
    <property name="aspect_ratio">1</property>
    <property name="progressive">1</property>
    <property name="seekable">1</property>
    <property name="loop">1</property>
    <property name="mlt_service">pixbuf</property>
    <property name="global_feed">1</property>
    <property name="xml">was here</property>
    <property name="shotcut:hash">f8d356a56b67d1c42b86a91a1ec9134f</property>
    <filter id="filter91">
      <property name="argument">追尋夢想的倔強 　　　　　　　</property>
      <property name="geometry">0.19%/87.44%:99.50%x9.22%</property>
      <property name="family">微軟正黑體</property>
      <property name="size">83</property>
      <property name="weight">1200</property>
      <property name="style">bold</property>
      <property name="fgcolour">#ffffffff</property>
      <property name="bgcolour">#00000000</property>
      <property name="olcolour">#ff000000</property>
      <property name="pad">0</property>
      <property name="halign">center</property>
      <property name="valign">bottom</property>
      <property name="outline">0</property>
      <property name="mlt_service">dynamictext</property>
      <property name="shotcut:filter">dynamicText</property>
    </filter>
    <filter id="filter92" in="00:00:01.733" out="00:00:01.833">
      <property name="start">1</property>
      <property name="level">1</property>
      <property name="mlt_service">brightness</property>
      <property name="shotcut:filter">fadeInBrightness</property>
      <property name="alpha">0=0; 6=1</property>
    </filter>
  </producer>
  <producer id="producer29" title="Anonymous Submission" in="00:00:00.000" out="00:00:05.583">
    <property name="length">00:20:00.000</property>
    <property name="eof">pause</property>
    <property name="resource">C:\Users\mandy.DOM-PC\lmms\projects\NLHS 16th/Final Output/Transparent Background.png</property>
    <property name="ttl">1</property>
    <property name="aspect_ratio">1</property>
    <property name="progressive">1</property>
    <property name="seekable">1</property>
    <property name="loop">1</property>
    <property name="mlt_service">pixbuf</property>
    <property name="global_feed">1</property>
    <property name="xml">was here</property>
    <property name="shotcut:hash">f8d356a56b67d1c42b86a91a1ec9134f</property>
    <filter id="filter96">
      <property name="argument">追尋夢想的倔強 指引著我心所向</property>
      <property name="geometry">0.19%/87.44%:99.50%x9.22%</property>
      <property name="family">微軟正黑體</property>
      <property name="size">83</property>
      <property name="weight">1200</property>
      <property name="style">bold</property>
      <property name="fgcolour">#ffffffff</property>
      <property name="bgcolour">#00000000</property>
      <property name="olcolour">#ff000000</property>
      <property name="pad">0</property>
      <property name="halign">center</property>
      <property name="valign">bottom</property>
      <property name="outline">0</property>
      <property name="mlt_service">dynamictext</property>
      <property name="shotcut:filter">dynamicText</property>
    </filter>
    <filter id="filter99" in="00:00:05.483" out="00:00:05.583">
      <property name="start">1</property>
      <property name="level">1</property>
      <property name="mlt_service">brightness</property>
      <property name="shotcut:filter">fadeOutBrightness</property>
      <property name="alpha">0=1; 6=0</property>
      <property name="disable">0</property>
    </filter>
  </producer>
  <tractor id="tractor3" title="Anonymous Submission" global_feed="1" in="00:00:00.000" out="00:00:00.100">
    <property name="shotcut:transition">lumaMix</property>
    <track producer="producer28" in="00:00:05.467" out="00:00:05.567"/>
    <track producer="producer29" in="00:00:01.967" out="00:00:02.067"/>
    <transition id="transition6" out="00:00:00.100">
      <property name="a_track">0</property>
      <property name="b_track">1</property>
      <property name="factory">loader</property>
      <property name="mlt_service">luma</property>
    </transition>
    <transition id="transition7" out="00:00:00.100">
      <property name="a_track">0</property>
      <property name="b_track">1</property>
      <property name="mlt_service">mix</property>
      <property name="start">-1</property>
      <property name="accepts_blanks">1</property>
    </transition>
  </tractor>
  <producer id="producer30" title="Anonymous Submission" in="00:00:00.000" out="00:00:05.100">
    <property name="length">00:20:00.000</property>
    <property name="eof">pause</property>
    <property name="resource">C:\Users\mandy.DOM-PC\lmms\projects\NLHS 16th/Final Output/Transparent Background.png</property>
    <property name="ttl">1</property>
    <property name="aspect_ratio">1</property>
    <property name="progressive">1</property>
    <property name="seekable">1</property>
    <property name="loop">1</property>
    <property name="mlt_service">pixbuf</property>
    <property name="global_feed">1</property>
    <property name="xml">was here</property>
    <property name="shotcut:hash">f8d356a56b67d1c42b86a91a1ec9134f</property>
    <filter id="filter18">
      <property name="argument">讓不情願的過去雲散煙消 　　　　　　 　　　　　　</property>
      <property name="geometry">0.19%/87.44%:99.50%x9.22%</property>
      <property name="family">微軟正黑體</property>
      <property name="size">83</property>
      <property name="weight">1200</property>
      <property name="style">normal</property>
      <property name="fgcolour">#ffffffff</property>
      <property name="bgcolour">#00000000</property>
      <property name="olcolour">#ff000000</property>
      <property name="pad">0</property>
      <property name="halign">center</property>
      <property name="valign">bottom</property>
      <property name="outline">0</property>
      <property name="mlt_service">dynamictext</property>
      <property name="shotcut:filter">dynamicText</property>
    </filter>
    <filter id="filter102" in="00:00:01.800" out="00:00:01.900">
      <property name="start">1</property>
      <property name="level">1</property>
      <property name="mlt_service">brightness</property>
      <property name="shotcut:filter">fadeInBrightness</property>
      <property name="alpha">0=0; 6=1</property>
    </filter>
  </producer>
  <producer id="producer31" title="Anonymous Submission" in="00:00:00.000" out="00:00:05.100">
    <property name="length">00:20:00.000</property>
    <property name="eof">pause</property>
    <property name="resource">C:\Users\mandy.DOM-PC\lmms\projects\NLHS 16th/Final Output/Transparent Background.png</property>
    <property name="ttl">1</property>
    <property name="aspect_ratio">1</property>
    <property name="progressive">1</property>
    <property name="seekable">1</property>
    <property name="loop">1</property>
    <property name="mlt_service">pixbuf</property>
    <property name="global_feed">1</property>
    <property name="xml">was here</property>
    <property name="shotcut:hash">f8d356a56b67d1c42b86a91a1ec9134f</property>
    <filter id="filter20">
      <property name="argument">讓不情願的過去雲散煙消 　　　　　　 　　　　　　</property>
      <property name="geometry">0.19%/87.44%:99.50%x9.22%</property>
      <property name="family">微軟正黑體</property>
      <property name="size">83</property>
      <property name="weight">1200</property>
      <property name="style">normal</property>
      <property name="fgcolour">#ffffffff</property>
      <property name="bgcolour">#00000000</property>
      <property name="olcolour">#ff000000</property>
      <property name="pad">0</property>
      <property name="halign">center</property>
      <property name="valign">bottom</property>
      <property name="outline">0</property>
      <property name="mlt_service">dynamictext</property>
      <property name="shotcut:filter">dynamicText</property>
    </filter>
    <filter id="filter23" in="00:00:01.800" out="00:00:01.900">
      <property name="start">1</property>
      <property name="level">1</property>
      <property name="mlt_service">brightness</property>
      <property name="shotcut:filter">fadeInBrightness</property>
      <property name="alpha">0=0; 6=1</property>
    </filter>
  </producer>
  <producer id="producer32" title="Anonymous Submission" in="00:00:00.000" out="00:00:03.333">
    <property name="length">00:20:00.000</property>
    <property name="eof">pause</property>
    <property name="resource">C:\Users\mandy.DOM-PC\lmms\projects\NLHS 16th/Final Output/Transparent Background.png</property>
    <property name="ttl">1</property>
    <property name="aspect_ratio">1</property>
    <property name="progressive">1</property>
    <property name="seekable">1</property>
    <property name="loop">1</property>
    <property name="mlt_service">pixbuf</property>
    <property name="global_feed">1</property>
    <property name="xml">was here</property>
    <property name="shotcut:hash">f8d356a56b67d1c42b86a91a1ec9134f</property>
    <filter id="filter104">
      <property name="argument">讓不情願的過去雲散煙消 迎接每個現在 　　　　　　</property>
      <property name="geometry">0.19%/87.44%:99.50%x9.22%</property>
      <property name="family">微軟正黑體</property>
      <property name="size">83</property>
      <property name="weight">1200</property>
      <property name="style">bold</property>
      <property name="fgcolour">#ffffffff</property>
      <property name="bgcolour">#00000000</property>
      <property name="olcolour">#ff000000</property>
      <property name="pad">0</property>
      <property name="halign">center</property>
      <property name="valign">bottom</property>
      <property name="outline">0</property>
      <property name="mlt_service">dynamictext</property>
      <property name="shotcut:filter">dynamicText</property>
    </filter>
  </producer>
  <tractor id="tractor4" title="Anonymous Submission" global_feed="1" in="00:00:00.000" out="00:00:00.100">
    <property name="shotcut:transition">lumaMix</property>
    <track producer="producer31" in="00:00:05.117" out="00:00:05.217"/>
    <track producer="producer32" in="00:00:01.500" out="00:00:01.600"/>
    <transition id="transition8" out="00:00:00.100">
      <property name="a_track">0</property>
      <property name="b_track">1</property>
      <property name="factory">loader</property>
      <property name="mlt_service">luma</property>
    </transition>
    <transition id="transition9" out="00:00:00.100">
      <property name="a_track">0</property>
      <property name="b_track">1</property>
      <property name="mlt_service">mix</property>
      <property name="start">-1</property>
      <property name="accepts_blanks">1</property>
    </transition>
  </tractor>
  <producer id="producer33" title="Anonymous Submission" in="00:00:00.000" out="00:00:03.067">
    <property name="length">00:20:00.000</property>
    <property name="eof">pause</property>
    <property name="resource">C:\Users\mandy.DOM-PC\lmms\projects\NLHS 16th/Final Output/Transparent Background.png</property>
    <property name="ttl">1</property>
    <property name="aspect_ratio">1</property>
    <property name="progressive">1</property>
    <property name="seekable">1</property>
    <property name="loop">1</property>
    <property name="mlt_service">pixbuf</property>
    <property name="global_feed">1</property>
    <property name="xml">was here</property>
    <property name="shotcut:hash">f8d356a56b67d1c42b86a91a1ec9134f</property>
    <filter id="filter25">
      <property name="argument">讓不情願的過去雲散煙消 迎接每個現在 　　　　　　</property>
      <property name="geometry">0.19%/87.44%:99.50%x9.22%</property>
      <property name="family">微軟正黑體</property>
      <property name="size">83</property>
      <property name="weight">1200</property>
      <property name="style">bold</property>
      <property name="fgcolour">#ffffffff</property>
      <property name="bgcolour">#00000000</property>
      <property name="olcolour">#ff000000</property>
      <property name="pad">0</property>
      <property name="halign">center</property>
      <property name="valign">bottom</property>
      <property name="outline">0</property>
      <property name="mlt_service">dynamictext</property>
      <property name="shotcut:filter">dynamicText</property>
    </filter>
  </producer>
  <producer id="producer36" title="Anonymous Submission" in="00:00:00.000" out="00:00:03.967">
    <property name="length">00:20:00.000</property>
    <property name="eof">pause</property>
    <property name="resource">C:\Users\mandy.DOM-PC\lmms\projects\NLHS 16th/Final Output/Transparent Background.png</property>
    <property name="ttl">1</property>
    <property name="aspect_ratio">1</property>
    <property name="progressive">1</property>
    <property name="seekable">1</property>
    <property name="loop">1</property>
    <property name="mlt_service">pixbuf</property>
    <property name="global_feed">1</property>
    <property name="xml">was here</property>
    <property name="shotcut:hash">f8d356a56b67d1c42b86a91a1ec9134f</property>
    <filter id="filter30">
      <property name="argument">讓不情願的過去雲散煙消 迎接每個現在 看見美好未來</property>
      <property name="geometry">0.19%/87.44%:99.50%x9.22%</property>
      <property name="family">微軟正黑體</property>
      <property name="size">83</property>
      <property name="weight">1200</property>
      <property name="style">bold</property>
      <property name="fgcolour">#ffffffff</property>
      <property name="bgcolour">#00000000</property>
      <property name="olcolour">#ff000000</property>
      <property name="pad">0</property>
      <property name="halign">center</property>
      <property name="valign">bottom</property>
      <property name="outline">0</property>
      <property name="mlt_service">dynamictext</property>
      <property name="shotcut:filter">dynamicText</property>
    </filter>
    <filter id="filter33" in="00:00:03.867" out="00:00:03.967">
      <property name="start">1</property>
      <property name="level">1</property>
      <property name="mlt_service">brightness</property>
      <property name="shotcut:filter">fadeOutBrightness</property>
      <property name="alpha">0=1; 6=0</property>
    </filter>
  </producer>
  <tractor id="tractor5" in="00:00:00.000" out="00:00:00.100">
    <property name="shotcut:transition">lumaMix</property>
    <track producer="producer33" in="00:00:03.083" out="00:00:03.183"/>
    <track producer="producer36" in="00:00:01.617" out="00:00:01.717"/>
    <transition id="transition10" out="00:00:00.100">
      <property name="a_track">0</property>
      <property name="b_track">1</property>
      <property name="factory">loader</property>
      <property name="mlt_service">luma</property>
    </transition>
    <transition id="transition11" out="00:00:00.100">
      <property name="a_track">0</property>
      <property name="b_track">1</property>
      <property name="start">-1</property>
      <property name="accepts_blanks">1</property>
      <property name="mlt_service">mix</property>
    </transition>
  </tractor>
  <producer id="producer37" title="Anonymous Submission" in="00:00:00.000" out="00:00:03.733">
    <property name="length">00:20:00.000</property>
    <property name="eof">pause</property>
    <property name="resource">C:\Users\mandy.DOM-PC\lmms\projects\NLHS 16th/Final Output/Transparent Background.png</property>
    <property name="ttl">1</property>
    <property name="aspect_ratio">1</property>
    <property name="progressive">1</property>
    <property name="seekable">1</property>
    <property name="loop">1</property>
    <property name="mlt_service">pixbuf</property>
    <property name="global_feed">1</property>
    <property name="xml">was here</property>
    <property name="shotcut:hash">f8d356a56b67d1c42b86a91a1ec9134f</property>
    <filter id="filter114">
      <property name="argument">　　A dream is like building a castle
　　　　</property>
      <property name="geometry">0.00%/76.56%:100.00%x18.33%</property>
      <property name="family">微軟正黑體</property>
      <property name="size">165</property>
      <property name="weight">1200</property>
      <property name="style">bold</property>
      <property name="fgcolour">#ffffffff</property>
      <property name="bgcolour">#00000000</property>
      <property name="olcolour">#ff000000</property>
      <property name="pad">0</property>
      <property name="halign">left</property>
      <property name="valign">bottom</property>
      <property name="outline">0</property>
      <property name="mlt_service">dynamictext</property>
      <property name="shotcut:filter">dynamicText</property>
    </filter>
    <filter id="filter115" in="00:00:01.850" out="00:00:01.950">
      <property name="start">1</property>
      <property name="level">1</property>
      <property name="mlt_service">brightness</property>
      <property name="shotcut:filter">fadeInBrightness</property>
      <property name="alpha">0=0; 6=1</property>
    </filter>
  </producer>
  <producer id="producer38" title="Anonymous Submission" in="00:00:00.000" out="00:00:03.733">
    <property name="length">00:20:00.000</property>
    <property name="eof">pause</property>
    <property name="resource">C:\Users\mandy.DOM-PC\lmms\projects\NLHS 16th/Final Output/Transparent Background.png</property>
    <property name="ttl">1</property>
    <property name="aspect_ratio">1</property>
    <property name="progressive">1</property>
    <property name="seekable">1</property>
    <property name="loop">1</property>
    <property name="mlt_service">pixbuf</property>
    <property name="global_feed">1</property>
    <property name="xml">was here</property>
    <property name="shotcut:hash">f8d356a56b67d1c42b86a91a1ec9134f</property>
    <filter id="filter35">
      <property name="argument">　　A dream is like building a castle
　　　　</property>
      <property name="geometry">0.00%/76.56%:100.00%x18.33%</property>
      <property name="family">微軟正黑體</property>
      <property name="size">165</property>
      <property name="weight">1200</property>
      <property name="style">bold</property>
      <property name="fgcolour">#ffffffff</property>
      <property name="bgcolour">#00000000</property>
      <property name="olcolour">#ff000000</property>
      <property name="pad">0</property>
      <property name="halign">left</property>
      <property name="valign">bottom</property>
      <property name="outline">0</property>
      <property name="mlt_service">dynamictext</property>
      <property name="shotcut:filter">dynamicText</property>
    </filter>
    <filter id="filter38" in="00:00:01.850" out="00:00:01.950">
      <property name="start">1</property>
      <property name="level">1</property>
      <property name="mlt_service">brightness</property>
      <property name="shotcut:filter">fadeInBrightness</property>
      <property name="alpha">0=0; 6=1</property>
    </filter>
  </producer>
  <producer id="producer39" title="Anonymous Submission" in="00:00:00.000" out="00:00:05.783">
    <property name="length">00:20:00.000</property>
    <property name="eof">pause</property>
    <property name="resource">C:\Users\mandy.DOM-PC\lmms\projects\NLHS 16th/Final Output/Transparent Background.png</property>
    <property name="ttl">1</property>
    <property name="aspect_ratio">1</property>
    <property name="progressive">1</property>
    <property name="seekable">1</property>
    <property name="loop">1</property>
    <property name="mlt_service">pixbuf</property>
    <property name="global_feed">1</property>
    <property name="xml">was here</property>
    <property name="shotcut:hash">f8d356a56b67d1c42b86a91a1ec9134f</property>
    <filter id="filter117">
      <property name="argument">　　A dream is like building a castle
　　　　 that will become a city someday </property>
      <property name="geometry">0.00%/76.56%:100.00%x18.33%</property>
      <property name="family">微軟正黑體</property>
      <property name="size">165</property>
      <property name="weight">1200</property>
      <property name="style">bold</property>
      <property name="fgcolour">#ffffffff</property>
      <property name="bgcolour">#00000000</property>
      <property name="olcolour">#ff000000</property>
      <property name="pad">0</property>
      <property name="halign">left</property>
      <property name="valign">bottom</property>
      <property name="outline">0</property>
      <property name="mlt_service">dynamictext</property>
      <property name="shotcut:filter">dynamicText</property>
    </filter>
    <filter id="filter118" in="00:00:05.683" out="00:00:05.783">
      <property name="start">1</property>
      <property name="level">1</property>
      <property name="mlt_service">brightness</property>
      <property name="shotcut:filter">fadeOutBrightness</property>
      <property name="alpha">0=1; 6=0</property>
    </filter>
  </producer>
  <tractor id="tractor6" title="Anonymous Submission" global_feed="1" in="00:00:00.000" out="00:00:00.100">
    <property name="shotcut:transition">lumaMix</property>
    <track producer="producer38" in="00:00:03.750" out="00:00:03.850"/>
    <track producer="producer39" in="00:00:03.750" out="00:00:03.850"/>
    <transition id="transition12" out="00:00:00.100">
      <property name="a_track">0</property>
      <property name="b_track">1</property>
      <property name="factory">loader</property>
      <property name="mlt_service">luma</property>
    </transition>
    <transition id="transition13" out="00:00:00.100">
      <property name="a_track">0</property>
      <property name="b_track">1</property>
      <property name="mlt_service">mix</property>
      <property name="start">-1</property>
      <property name="accepts_blanks">1</property>
    </transition>
  </tractor>
  <producer id="producer40" title="Anonymous Submission" in="00:00:00.000" out="00:00:05.783">
    <property name="length">00:20:00.000</property>
    <property name="eof">pause</property>
    <property name="resource">C:\Users\mandy.DOM-PC\lmms\projects\NLHS 16th/Final Output/Transparent Background.png</property>
    <property name="ttl">1</property>
    <property name="aspect_ratio">1</property>
    <property name="progressive">1</property>
    <property name="seekable">1</property>
    <property name="loop">1</property>
    <property name="mlt_service">pixbuf</property>
    <property name="global_feed">1</property>
    <property name="xml">was here</property>
    <property name="shotcut:hash">f8d356a56b67d1c42b86a91a1ec9134f</property>
    <filter id="filter40">
      <property name="argument">　　A dream is like building a castle
　　　　 that will become a city someday </property>
      <property name="geometry">0.00%/76.56%:100.00%x18.33%</property>
      <property name="family">微軟正黑體</property>
      <property name="size">165</property>
      <property name="weight">1200</property>
      <property name="style">bold</property>
      <property name="fgcolour">#ffffffff</property>
      <property name="bgcolour">#00000000</property>
      <property name="olcolour">#ff000000</property>
      <property name="pad">0</property>
      <property name="halign">left</property>
      <property name="valign">bottom</property>
      <property name="outline">0</property>
      <property name="mlt_service">dynamictext</property>
      <property name="shotcut:filter">dynamicText</property>
    </filter>
    <filter id="filter43" in="00:00:05.683" out="00:00:05.783">
      <property name="start">1</property>
      <property name="level">1</property>
      <property name="mlt_service">brightness</property>
      <property name="shotcut:filter">fadeOutBrightness</property>
      <property name="alpha">0=1; 6=0</property>
    </filter>
  </producer>
  <producer id="producer41" title="Anonymous Submission" in="00:00:00.000" out="00:00:05.900">
    <property name="length">00:20:00.000</property>
    <property name="eof">pause</property>
    <property name="resource">C:\Users\mandy.DOM-PC\lmms\projects\NLHS 16th/Final Output/Transparent Background.png</property>
    <property name="ttl">1</property>
    <property name="aspect_ratio">1</property>
    <property name="progressive">1</property>
    <property name="seekable">1</property>
    <property name="loop">1</property>
    <property name="mlt_service">pixbuf</property>
    <property name="global_feed">1</property>
    <property name="xml">was here</property>
    <property name="shotcut:hash">f8d356a56b67d1c42b86a91a1ec9134f</property>
    <filter id="filter120">
      <property name="argument">　　We stand side by side
　　　　　　 </property>
      <property name="geometry">0.00%/76.56%:100.00%x18.33%</property>
      <property name="family">微軟正黑體</property>
      <property name="size">165</property>
      <property name="weight">1200</property>
      <property name="style">bold</property>
      <property name="fgcolour">#ffffffff</property>
      <property name="bgcolour">#00000000</property>
      <property name="olcolour">#ff000000</property>
      <property name="pad">0</property>
      <property name="halign">left</property>
      <property name="valign">bottom</property>
      <property name="outline">0</property>
      <property name="mlt_service">dynamictext</property>
      <property name="shotcut:filter">dynamicText</property>
    </filter>
    <filter id="filter121" in="00:00:03.967" out="00:00:04.067">
      <property name="start">1</property>
      <property name="level">1</property>
      <property name="mlt_service">brightness</property>
      <property name="shotcut:filter">fadeInBrightness</property>
      <property name="alpha">0=0; 6=1</property>
    </filter>
  </producer>
  <producer id="producer42" title="Anonymous Submission" in="00:00:00.000" out="00:00:05.900">
    <property name="length">00:20:00.000</property>
    <property name="eof">pause</property>
    <property name="resource">C:\Users\mandy.DOM-PC\lmms\projects\NLHS 16th/Final Output/Transparent Background.png</property>
    <property name="ttl">1</property>
    <property name="aspect_ratio">1</property>
    <property name="progressive">1</property>
    <property name="seekable">1</property>
    <property name="loop">1</property>
    <property name="mlt_service">pixbuf</property>
    <property name="global_feed">1</property>
    <property name="xml">was here</property>
    <property name="shotcut:hash">f8d356a56b67d1c42b86a91a1ec9134f</property>
    <filter id="filter45">
      <property name="argument">　　We stand side by side
　　　　　　 </property>
      <property name="geometry">0.00%/76.56%:100.00%x18.33%</property>
      <property name="family">微軟正黑體</property>
      <property name="size">165</property>
      <property name="weight">1200</property>
      <property name="style">bold</property>
      <property name="fgcolour">#ffffffff</property>
      <property name="bgcolour">#00000000</property>
      <property name="olcolour">#ff000000</property>
      <property name="pad">0</property>
      <property name="halign">left</property>
      <property name="valign">bottom</property>
      <property name="outline">0</property>
      <property name="mlt_service">dynamictext</property>
      <property name="shotcut:filter">dynamicText</property>
    </filter>
    <filter id="filter48" in="00:00:03.967" out="00:00:04.067">
      <property name="start">1</property>
      <property name="level">1</property>
      <property name="mlt_service">brightness</property>
      <property name="shotcut:filter">fadeInBrightness</property>
      <property name="alpha">0=0; 6=1</property>
    </filter>
  </producer>
  <producer id="producer43" title="Anonymous Submission" in="00:00:00.000" out="00:00:07.267">
    <property name="length">00:20:00.000</property>
    <property name="eof">pause</property>
    <property name="resource">C:\Users\mandy.DOM-PC\lmms\projects\NLHS 16th/Final Output/Transparent Background.png</property>
    <property name="ttl">1</property>
    <property name="aspect_ratio">1</property>
    <property name="progressive">1</property>
    <property name="seekable">1</property>
    <property name="loop">1</property>
    <property name="mlt_service">pixbuf</property>
    <property name="global_feed">1</property>
    <property name="xml">was here</property>
    <property name="shotcut:hash">f8d356a56b67d1c42b86a91a1ec9134f</property>
    <filter id="filter123">
      <property name="argument">　　We stand side by side
　　　　　　 And side by side</property>
      <property name="geometry">0.00%/76.56%:100.00%x18.33%</property>
      <property name="family">微軟正黑體</property>
      <property name="size">165</property>
      <property name="weight">1200</property>
      <property name="style">bold</property>
      <property name="fgcolour">#ffffffff</property>
      <property name="bgcolour">#00000000</property>
      <property name="olcolour">#ff000000</property>
      <property name="pad">0</property>
      <property name="halign">left</property>
      <property name="valign">bottom</property>
      <property name="outline">0</property>
      <property name="mlt_service">dynamictext</property>
      <property name="shotcut:filter">dynamicText</property>
    </filter>
    <filter id="filter124" in="00:00:07.167" out="00:00:07.267">
      <property name="start">1</property>
      <property name="level">1</property>
      <property name="mlt_service">brightness</property>
      <property name="shotcut:filter">fadeOutBrightness</property>
      <property name="alpha">0=1; 6=0</property>
    </filter>
  </producer>
  <tractor id="tractor7" title="Anonymous Submission" global_feed="1" in="00:00:00.000" out="00:00:00.100">
    <property name="shotcut:transition">lumaMix</property>
    <track producer="producer42" in="00:00:05.917" out="00:00:06.017"/>
    <track producer="producer43" in="00:00:05.867" out="00:00:05.967"/>
    <transition id="transition14" out="00:00:00.100">
      <property name="a_track">0</property>
      <property name="b_track">1</property>
      <property name="factory">loader</property>
      <property name="mlt_service">luma</property>
    </transition>
    <transition id="transition15" out="00:00:00.100">
      <property name="a_track">0</property>
      <property name="b_track">1</property>
      <property name="mlt_service">mix</property>
      <property name="start">-1</property>
      <property name="accepts_blanks">1</property>
    </transition>
  </tractor>
  <producer id="producer44" title="Anonymous Submission" in="00:00:00.000" out="00:00:07.267">
    <property name="length">00:20:00.000</property>
    <property name="eof">pause</property>
    <property name="resource">C:\Users\mandy.DOM-PC\lmms\projects\NLHS 16th/Final Output/Transparent Background.png</property>
    <property name="ttl">1</property>
    <property name="aspect_ratio">1</property>
    <property name="progressive">1</property>
    <property name="seekable">1</property>
    <property name="loop">1</property>
    <property name="mlt_service">pixbuf</property>
    <property name="global_feed">1</property>
    <property name="xml">was here</property>
    <property name="shotcut:hash">f8d356a56b67d1c42b86a91a1ec9134f</property>
    <filter id="filter50">
      <property name="argument">　　We stand side by side
　　　　　　 And side by side</property>
      <property name="geometry">0.00%/76.56%:100.00%x18.33%</property>
      <property name="family">微軟正黑體</property>
      <property name="size">165</property>
      <property name="weight">1200</property>
      <property name="style">bold</property>
      <property name="fgcolour">#ffffffff</property>
      <property name="bgcolour">#00000000</property>
      <property name="olcolour">#ff000000</property>
      <property name="pad">0</property>
      <property name="halign">left</property>
      <property name="valign">bottom</property>
      <property name="outline">0</property>
      <property name="mlt_service">dynamictext</property>
      <property name="shotcut:filter">dynamicText</property>
    </filter>
    <filter id="filter53" in="00:00:07.167" out="00:00:07.267">
      <property name="start">1</property>
      <property name="level">1</property>
      <property name="mlt_service">brightness</property>
      <property name="shotcut:filter">fadeOutBrightness</property>
      <property name="alpha">0=1; 6=0</property>
    </filter>
  </producer>
  <producer id="producer45" title="Anonymous Submission" in="00:00:00.000" out="00:00:03.983">
    <property name="length">00:20:00.000</property>
    <property name="eof">pause</property>
    <property name="resource">C:\Users\mandy.DOM-PC\lmms\projects\NLHS 16th/Final Output/Transparent Background.png</property>
    <property name="ttl">1</property>
    <property name="aspect_ratio">1</property>
    <property name="progressive">1</property>
    <property name="seekable">1</property>
    <property name="loop">1</property>
    <property name="mlt_service">pixbuf</property>
    <property name="global_feed">1</property>
    <property name="xml">was here</property>
    <property name="shotcut:hash">f8d356a56b67d1c42b86a91a1ec9134f</property>
    <filter id="filter128">
      <property name="argument">　　A dream is like building a castle
　　　　                                 </property>
      <property name="geometry">0.00%/76.56%:100.00%x18.33%</property>
      <property name="family">微軟正黑體</property>
      <property name="size">165</property>
      <property name="weight">1200</property>
      <property name="style">bold</property>
      <property name="fgcolour">#ffffffff</property>
      <property name="bgcolour">#00000000</property>
      <property name="olcolour">#ff000000</property>
      <property name="pad">0</property>
      <property name="halign">left</property>
      <property name="valign">bottom</property>
      <property name="outline">0</property>
      <property name="mlt_service">dynamictext</property>
      <property name="shotcut:filter">dynamicText</property>
    </filter>
    <filter id="filter129" in="00:00:01.800" out="00:00:01.900">
      <property name="start">1</property>
      <property name="level">1</property>
      <property name="mlt_service">brightness</property>
      <property name="shotcut:filter">fadeInBrightness</property>
      <property name="alpha">0=0; 6=1</property>
    </filter>
  </producer>
  <producer id="producer48" title="Anonymous Submission" in="00:00:00.000" out="00:00:05.933">
    <property name="length">00:20:00.000</property>
    <property name="eof">pause</property>
    <property name="resource">C:\Users\mandy.DOM-PC\lmms\projects\NLHS 16th/Final Output/Transparent Background.png</property>
    <property name="ttl">1</property>
    <property name="aspect_ratio">1</property>
    <property name="progressive">1</property>
    <property name="seekable">1</property>
    <property name="loop">1</property>
    <property name="mlt_service">pixbuf</property>
    <property name="global_feed">1</property>
    <property name="xml">was here</property>
    <property name="shotcut:hash">f8d356a56b67d1c42b86a91a1ec9134f</property>
    <filter id="filter60">
      <property name="argument">　　A dream is like building a castle
　　　　 that will become a city someday </property>
      <property name="geometry">0.00%/76.56%:100.00%x18.33%</property>
      <property name="family">微軟正黑體</property>
      <property name="size">165</property>
      <property name="weight">1200</property>
      <property name="style">bold</property>
      <property name="fgcolour">#ffffffff</property>
      <property name="bgcolour">#00000000</property>
      <property name="olcolour">#ff000000</property>
      <property name="pad">0</property>
      <property name="halign">left</property>
      <property name="valign">bottom</property>
      <property name="outline">0</property>
      <property name="mlt_service">dynamictext</property>
      <property name="shotcut:filter">dynamicText</property>
    </filter>
    <filter id="filter63" in="00:00:05.833" out="00:00:05.933">
      <property name="start">1</property>
      <property name="level">1</property>
      <property name="mlt_service">brightness</property>
      <property name="shotcut:filter">fadeOutBrightness</property>
      <property name="alpha">0=1; 6=0</property>
    </filter>
  </producer>
  <tractor id="tractor8" title="Anonymous Submission" global_feed="1" in="00:00:00.000" out="00:00:00.100">
    <property name="shotcut:transition">lumaMix</property>
    <track producer="producer45" in="00:00:04.000" out="00:00:04.100"/>
    <track producer="producer48" in="00:00:04.000" out="00:00:04.100"/>
    <transition id="transition16" out="00:00:00.100">
      <property name="a_track">0</property>
      <property name="b_track">1</property>
      <property name="factory">loader</property>
      <property name="mlt_service">luma</property>
    </transition>
    <transition id="transition17" out="00:00:00.100">
      <property name="a_track">0</property>
      <property name="b_track">1</property>
      <property name="mlt_service">mix</property>
      <property name="start">-1</property>
      <property name="accepts_blanks">1</property>
    </transition>
  </tractor>
  <producer id="producer49" title="Anonymous Submission" in="00:00:00.000" out="00:00:05.933">
    <property name="length">00:20:00.000</property>
    <property name="eof">pause</property>
    <property name="resource">C:\Users\mandy.DOM-PC\lmms\projects\NLHS 16th/Final Output/Transparent Background.png</property>
    <property name="ttl">1</property>
    <property name="aspect_ratio">1</property>
    <property name="progressive">1</property>
    <property name="seekable">1</property>
    <property name="loop">1</property>
    <property name="mlt_service">pixbuf</property>
    <property name="global_feed">1</property>
    <property name="xml">was here</property>
    <property name="shotcut:hash">f8d356a56b67d1c42b86a91a1ec9134f</property>
    <filter id="filter134">
      <property name="argument">　　We stand side by side
　　　　　　 </property>
      <property name="geometry">0.00%/76.56%:100.00%x18.33%</property>
      <property name="family">微軟正黑體</property>
      <property name="size">165</property>
      <property name="weight">1200</property>
      <property name="style">bold</property>
      <property name="fgcolour">#ffffffff</property>
      <property name="bgcolour">#00000000</property>
      <property name="olcolour">#ff000000</property>
      <property name="pad">0</property>
      <property name="halign">left</property>
      <property name="valign">bottom</property>
      <property name="outline">0</property>
      <property name="mlt_service">dynamictext</property>
      <property name="shotcut:filter">dynamicText</property>
    </filter>
    <filter id="filter135" in="00:00:04.050" out="00:00:04.150">
      <property name="start">1</property>
      <property name="level">1</property>
      <property name="mlt_service">brightness</property>
      <property name="shotcut:filter">fadeInBrightness</property>
      <property name="alpha">0=0; 6=1</property>
    </filter>
  </producer>
  <producer id="producer50" title="Anonymous Submission" in="00:00:00.000" out="00:00:05.933">
    <property name="length">00:20:00.000</property>
    <property name="eof">pause</property>
    <property name="resource">C:\Users\mandy.DOM-PC\lmms\projects\NLHS 16th/Final Output/Transparent Background.png</property>
    <property name="ttl">1</property>
    <property name="aspect_ratio">1</property>
    <property name="progressive">1</property>
    <property name="seekable">1</property>
    <property name="loop">1</property>
    <property name="mlt_service">pixbuf</property>
    <property name="global_feed">1</property>
    <property name="xml">was here</property>
    <property name="shotcut:hash">f8d356a56b67d1c42b86a91a1ec9134f</property>
    <filter id="filter65">
      <property name="argument">　　We stand side by side
　　　　　　 </property>
      <property name="geometry">0.00%/76.56%:100.00%x18.33%</property>
      <property name="family">微軟正黑體</property>
      <property name="size">165</property>
      <property name="weight">1200</property>
      <property name="style">bold</property>
      <property name="fgcolour">#ffffffff</property>
      <property name="bgcolour">#00000000</property>
      <property name="olcolour">#ff000000</property>
      <property name="pad">0</property>
      <property name="halign">left</property>
      <property name="valign">bottom</property>
      <property name="outline">0</property>
      <property name="mlt_service">dynamictext</property>
      <property name="shotcut:filter">dynamicText</property>
    </filter>
    <filter id="filter68" in="00:00:04.050" out="00:00:04.150">
      <property name="start">1</property>
      <property name="level">1</property>
      <property name="mlt_service">brightness</property>
      <property name="shotcut:filter">fadeInBrightness</property>
      <property name="alpha">0=0; 6=1</property>
    </filter>
  </producer>
  <producer id="producer51" title="Anonymous Submission" in="00:00:00.000" out="00:00:07.717">
    <property name="length">00:20:00.000</property>
    <property name="eof">pause</property>
    <property name="resource">C:\Users\mandy.DOM-PC\lmms\projects\NLHS 16th/Final Output/Transparent Background.png</property>
    <property name="ttl">1</property>
    <property name="aspect_ratio">1</property>
    <property name="progressive">1</property>
    <property name="seekable">1</property>
    <property name="loop">1</property>
    <property name="mlt_service">pixbuf</property>
    <property name="global_feed">1</property>
    <property name="xml">was here</property>
    <property name="shotcut:hash">f8d356a56b67d1c42b86a91a1ec9134f</property>
    <filter id="filter137">
      <property name="argument">　　We stand side by side
　　　　　　 And side by side</property>
      <property name="geometry">0.00%/76.56%:100.00%x18.33%</property>
      <property name="family">微軟正黑體</property>
      <property name="size">165</property>
      <property name="weight">1200</property>
      <property name="style">bold</property>
      <property name="fgcolour">#ffffffff</property>
      <property name="bgcolour">#00000000</property>
      <property name="olcolour">#ff000000</property>
      <property name="pad">0</property>
      <property name="halign">left</property>
      <property name="valign">bottom</property>
      <property name="outline">0</property>
      <property name="mlt_service">dynamictext</property>
      <property name="shotcut:filter">dynamicText</property>
    </filter>
    <filter id="filter138" in="00:00:07.617" out="00:00:07.717">
      <property name="start">1</property>
      <property name="level">1</property>
      <property name="mlt_service">brightness</property>
      <property name="shotcut:filter">fadeOutBrightness</property>
      <property name="alpha">0=1; 6=0</property>
    </filter>
  </producer>
  <tractor id="tractor9" title="Anonymous Submission" global_feed="1" in="00:00:00.000" out="00:00:00.100">
    <property name="shotcut:transition">lumaMix</property>
    <track producer="producer50" in="00:00:05.950" out="00:00:06.050"/>
    <track producer="producer51" in="00:00:05.950" out="00:00:06.050"/>
    <transition id="transition18" out="00:00:00.100">
      <property name="a_track">0</property>
      <property name="b_track">1</property>
      <property name="factory">loader</property>
      <property name="mlt_service">luma</property>
    </transition>
    <transition id="transition19" out="00:00:00.100">
      <property name="a_track">0</property>
      <property name="b_track">1</property>
      <property name="mlt_service">mix</property>
      <property name="start">-1</property>
      <property name="accepts_blanks">1</property>
    </transition>
  </tractor>
  <producer id="producer52" title="Anonymous Submission" in="00:00:00.000" out="00:00:07.717">
    <property name="length">00:20:00.000</property>
    <property name="eof">pause</property>
    <property name="resource">C:\Users\mandy.DOM-PC\lmms\projects\NLHS 16th/Final Output/Transparent Background.png</property>
    <property name="ttl">1</property>
    <property name="aspect_ratio">1</property>
    <property name="progressive">1</property>
    <property name="seekable">1</property>
    <property name="loop">1</property>
    <property name="mlt_service">pixbuf</property>
    <property name="global_feed">1</property>
    <property name="xml">was here</property>
    <property name="shotcut:hash">f8d356a56b67d1c42b86a91a1ec9134f</property>
    <filter id="filter69">
      <property name="argument">　　We stand side by side
　　　　　　 And side by side</property>
      <property name="geometry">0.00%/76.56%:100.00%x18.33%</property>
      <property name="family">微軟正黑體</property>
      <property name="size">165</property>
      <property name="weight">1200</property>
      <property name="style">bold</property>
      <property name="fgcolour">#ffffffff</property>
      <property name="bgcolour">#00000000</property>
      <property name="olcolour">#ff000000</property>
      <property name="pad">0</property>
      <property name="halign">left</property>
      <property name="valign">bottom</property>
      <property name="outline">0</property>
      <property name="mlt_service">dynamictext</property>
      <property name="shotcut:filter">dynamicText</property>
    </filter>
    <filter id="filter70" in="00:00:07.617" out="00:00:07.717">
      <property name="start">1</property>
      <property name="level">1</property>
      <property name="mlt_service">brightness</property>
      <property name="shotcut:filter">fadeOutBrightness</property>
      <property name="alpha">0=1; 6=0</property>
    </filter>
  </producer>
  <producer id="producer53" title="Anonymous Submission" in="00:00:00.000" out="00:00:05.617">
    <property name="length">00:20:00.000</property>
    <property name="eof">pause</property>
    <property name="resource">C:\Users\mandy.DOM-PC\lmms\projects\NLHS 16th/Final Output/Transparent Background.png</property>
    <property name="ttl">1</property>
    <property name="aspect_ratio">1</property>
    <property name="progressive">1</property>
    <property name="seekable">1</property>
    <property name="loop">1</property>
    <property name="mlt_service">pixbuf</property>
    <property name="global_feed">1</property>
    <property name="xml">was here</property>
    <property name="shotcut:hash">f8d356a56b67d1c42b86a91a1ec9134f</property>
    <filter id="filter142">
      <property name="argument"> 地圖中 那懷念的街景</property>
      <property name="geometry">0.12%/87.44%:99.50%x9.22%</property>
      <property name="family">微軟正黑體</property>
      <property name="size">83</property>
      <property name="weight">1200</property>
      <property name="style">bold</property>
      <property name="fgcolour">#ffffffff</property>
      <property name="bgcolour">#00000000</property>
      <property name="olcolour">#ff000000</property>
      <property name="pad">0</property>
      <property name="halign">left</property>
      <property name="valign">bottom</property>
      <property name="outline">0</property>
      <property name="mlt_service">dynamictext</property>
      <property name="shotcut:filter">dynamicText</property>
    </filter>
    <filter id="filter143" in="00:00:01.917" out="00:00:02.017">
      <property name="start">1</property>
      <property name="level">1</property>
      <property name="mlt_service">brightness</property>
      <property name="shotcut:filter">fadeInBrightness</property>
      <property name="alpha">0=0; 6=1</property>
    </filter>
    <filter id="filter145" in="00:00:05.517" out="00:00:05.617">
      <property name="start">1</property>
      <property name="level">1</property>
      <property name="mlt_service">brightness</property>
      <property name="shotcut:filter">fadeOutBrightness</property>
      <property name="alpha">0=1; 6=0</property>
    </filter>
  </producer>
  <producer id="producer54" title="Anonymous Submission" in="00:00:00.000" out="00:00:05.633">
    <property name="length">00:20:00.000</property>
    <property name="eof">pause</property>
    <property name="resource">C:\Users\mandy.DOM-PC\lmms\projects\NLHS 16th/Final Output/Transparent Background.png</property>
    <property name="ttl">1</property>
    <property name="aspect_ratio">1</property>
    <property name="progressive">1</property>
    <property name="seekable">1</property>
    <property name="loop">1</property>
    <property name="mlt_service">pixbuf</property>
    <property name="global_feed">1</property>
    <property name="xml">was here</property>
    <property name="shotcut:hash">f8d356a56b67d1c42b86a91a1ec9134f</property>
    <filter id="filter147">
      <property name="argument"> 人群裡 那熟悉的上衣</property>
      <property name="geometry">0.19%/87.44%:99.50%x9.22%</property>
      <property name="family">微軟正黑體</property>
      <property name="size">83</property>
      <property name="weight">1200</property>
      <property name="style">bold</property>
      <property name="fgcolour">#ffffffff</property>
      <property name="bgcolour">#00000000</property>
      <property name="olcolour">#ff000000</property>
      <property name="pad">0</property>
      <property name="halign">left</property>
      <property name="valign">bottom</property>
      <property name="outline">0</property>
      <property name="mlt_service">dynamictext</property>
      <property name="shotcut:filter">dynamicText</property>
    </filter>
    <filter id="filter148" in="00:00:01.917" out="00:00:02.017">
      <property name="start">1</property>
      <property name="level">1</property>
      <property name="mlt_service">brightness</property>
      <property name="shotcut:filter">fadeInBrightness</property>
      <property name="alpha">0=0; 6=1</property>
    </filter>
    <filter id="filter150" in="00:00:05.533" out="00:00:05.633">
      <property name="start">1</property>
      <property name="level">1</property>
      <property name="mlt_service">brightness</property>
      <property name="shotcut:filter">fadeOutBrightness</property>
      <property name="alpha">0=1; 6=0</property>
    </filter>
  </producer>
  <producer id="producer55" title="Anonymous Submission" in="00:00:00.000" out="00:00:05.633">
    <property name="length">00:20:00.000</property>
    <property name="eof">pause</property>
    <property name="resource">C:\Users\mandy.DOM-PC\lmms\projects\NLHS 16th/Final Output/Transparent Background.png</property>
    <property name="ttl">1</property>
    <property name="aspect_ratio">1</property>
    <property name="progressive">1</property>
    <property name="seekable">1</property>
    <property name="loop">1</property>
    <property name="mlt_service">pixbuf</property>
    <property name="global_feed">1</property>
    <property name="xml">was here</property>
    <property name="shotcut:hash">f8d356a56b67d1c42b86a91a1ec9134f</property>
    <filter id="filter152">
      <property name="argument"> 一路上 那不變的熱心</property>
      <property name="geometry">0.19%/87.44%:99.50%x9.22%</property>
      <property name="family">微軟正黑體</property>
      <property name="size">83</property>
      <property name="weight">1200</property>
      <property name="style">bold</property>
      <property name="fgcolour">#ffffffff</property>
      <property name="bgcolour">#00000000</property>
      <property name="olcolour">#ff000000</property>
      <property name="pad">0</property>
      <property name="halign">left</property>
      <property name="valign">bottom</property>
      <property name="outline">0</property>
      <property name="mlt_service">dynamictext</property>
      <property name="shotcut:filter">dynamicText</property>
    </filter>
    <filter id="filter153" in="00:00:01.917" out="00:00:02.017">
      <property name="start">1</property>
      <property name="level">1</property>
      <property name="mlt_service">brightness</property>
      <property name="shotcut:filter">fadeInBrightness</property>
      <property name="alpha">0=0; 6=1</property>
    </filter>
    <filter id="filter155" in="00:00:05.533" out="00:00:05.633">
      <property name="start">1</property>
      <property name="level">1</property>
      <property name="mlt_service">brightness</property>
      <property name="shotcut:filter">fadeOutBrightness</property>
      <property name="alpha">0=1; 6=0</property>
    </filter>
  </producer>
  <producer id="producer56" title="Anonymous Submission" in="00:00:00.000" out="00:00:05.600">
    <property name="length">00:20:00.000</property>
    <property name="eof">pause</property>
    <property name="resource">C:\Users\mandy.DOM-PC\lmms\projects\NLHS 16th/Final Output/Transparent Background.png</property>
    <property name="ttl">1</property>
    <property name="aspect_ratio">1</property>
    <property name="progressive">1</property>
    <property name="seekable">1</property>
    <property name="loop">1</property>
    <property name="mlt_service">pixbuf</property>
    <property name="global_feed">1</property>
    <property name="xml">was here</property>
    <property name="shotcut:hash">f8d356a56b67d1c42b86a91a1ec9134f</property>
    <filter id="filter157">
      <property name="argument"> 鏡子裡 那夢中的身影</property>
      <property name="geometry">0.19%/87.44%:99.50%x9.22%</property>
      <property name="family">微軟正黑體</property>
      <property name="size">83</property>
      <property name="weight">1200</property>
      <property name="style">bold</property>
      <property name="fgcolour">#ffffffff</property>
      <property name="bgcolour">#00000000</property>
      <property name="olcolour">#ff000000</property>
      <property name="pad">0</property>
      <property name="halign">left</property>
      <property name="valign">bottom</property>
      <property name="outline">0</property>
      <property name="mlt_service">dynamictext</property>
      <property name="shotcut:filter">dynamicText</property>
    </filter>
    <filter id="filter158" in="00:00:01.917" out="00:00:02.017">
      <property name="start">1</property>
      <property name="level">1</property>
      <property name="mlt_service">brightness</property>
      <property name="shotcut:filter">fadeInBrightness</property>
      <property name="alpha">0=0; 6=1</property>
    </filter>
    <filter id="filter160" in="00:00:05.500" out="00:00:05.600">
      <property name="start">1</property>
      <property name="level">1</property>
      <property name="mlt_service">brightness</property>
      <property name="shotcut:filter">fadeOutBrightness</property>
      <property name="alpha">0=1; 6=0</property>
    </filter>
  </producer>
  <producer id="producer57" title="Anonymous Submission" in="00:00:00.000" out="00:00:05.667">
    <property name="length">00:20:00.000</property>
    <property name="eof">pause</property>
    <property name="resource">C:\Users\mandy.DOM-PC\lmms\projects\NLHS 16th/Final Output/Transparent Background.png</property>
    <property name="ttl">1</property>
    <property name="aspect_ratio">1</property>
    <property name="progressive">1</property>
    <property name="seekable">1</property>
    <property name="loop">1</property>
    <property name="mlt_service">pixbuf</property>
    <property name="global_feed">1</property>
    <property name="xml">was here</property>
    <property name="shotcut:hash">f8d356a56b67d1c42b86a91a1ec9134f</property>
    <filter id="filter162">
      <property name="argument">心中的一分期待 眼中的閃爍火光</property>
      <property name="geometry">0.19%/87.44%:99.50%x9.22%</property>
      <property name="family">微軟正黑體</property>
      <property name="size">83</property>
      <property name="weight">1200</property>
      <property name="style">bold</property>
      <property name="fgcolour">#ffffffff</property>
      <property name="bgcolour">#00000000</property>
      <property name="olcolour">#ff000000</property>
      <property name="pad">0</property>
      <property name="halign">center</property>
      <property name="valign">bottom</property>
      <property name="outline">0</property>
      <property name="mlt_service">dynamictext</property>
      <property name="shotcut:filter">dynamicText</property>
    </filter>
    <filter id="filter163" in="00:00:01.917" out="00:00:02.017">
      <property name="start">1</property>
      <property name="level">1</property>
      <property name="mlt_service">brightness</property>
      <property name="shotcut:filter">fadeInBrightness</property>
      <property name="alpha">0=0; 6=1</property>
    </filter>
    <filter id="filter165" in="00:00:05.567" out="00:00:05.667">
      <property name="start">1</property>
      <property name="level">1</property>
      <property name="mlt_service">brightness</property>
      <property name="shotcut:filter">fadeOutBrightness</property>
      <property name="alpha">0=1; 6=0</property>
    </filter>
  </producer>
  <producer id="producer58" title="Anonymous Submission" in="00:00:00.000" out="00:00:05.650">
    <property name="length">00:20:00.000</property>
    <property name="eof">pause</property>
    <property name="resource">C:\Users\mandy.DOM-PC\lmms\projects\NLHS 16th/Final Output/Transparent Background.png</property>
    <property name="ttl">1</property>
    <property name="aspect_ratio">1</property>
    <property name="progressive">1</property>
    <property name="seekable">1</property>
    <property name="loop">1</property>
    <property name="mlt_service">pixbuf</property>
    <property name="global_feed">1</property>
    <property name="xml">was here</property>
    <property name="shotcut:hash">f8d356a56b67d1c42b86a91a1ec9134f</property>
    <filter id="filter167">
      <property name="argument">即使逆著風也要 飛向那不變方向</property>
      <property name="geometry">0.19%/87.44%:99.50%x9.22%</property>
      <property name="family">微軟正黑體</property>
      <property name="size">83</property>
      <property name="weight">1200</property>
      <property name="style">bold</property>
      <property name="fgcolour">#ffffffff</property>
      <property name="bgcolour">#00000000</property>
      <property name="olcolour">#ff000000</property>
      <property name="pad">0</property>
      <property name="halign">center</property>
      <property name="valign">bottom</property>
      <property name="outline">0</property>
      <property name="mlt_service">dynamictext</property>
      <property name="shotcut:filter">dynamicText</property>
    </filter>
    <filter id="filter168" in="00:00:01.917" out="00:00:02.017">
      <property name="start">1</property>
      <property name="level">1</property>
      <property name="mlt_service">brightness</property>
      <property name="shotcut:filter">fadeInBrightness</property>
      <property name="alpha">0=0; 6=1</property>
    </filter>
    <filter id="filter170" in="00:00:05.550" out="00:00:05.650">
      <property name="start">1</property>
      <property name="level">1</property>
      <property name="mlt_service">brightness</property>
      <property name="shotcut:filter">fadeOutBrightness</property>
      <property name="alpha">0=1; 6=0</property>
    </filter>
  </producer>
  <producer id="producer59" title="Anonymous Submission" in="00:00:00.000" out="00:00:05.650">
    <property name="length">00:20:00.000</property>
    <property name="eof">pause</property>
    <property name="resource">C:\Users\mandy.DOM-PC\lmms\projects\NLHS 16th/Final Output/Transparent Background.png</property>
    <property name="ttl">1</property>
    <property name="aspect_ratio">1</property>
    <property name="progressive">1</property>
    <property name="seekable">1</property>
    <property name="loop">1</property>
    <property name="mlt_service">pixbuf</property>
    <property name="global_feed">1</property>
    <property name="xml">was here</property>
    <property name="shotcut:hash">f8d356a56b67d1c42b86a91a1ec9134f</property>
    <filter id="filter172">
      <property name="argument">不曾熄滅的熱誠 不曾離去的期望</property>
      <property name="geometry">0.19%/87.44%:99.50%x9.22%</property>
      <property name="family">微軟正黑體</property>
      <property name="size">83</property>
      <property name="weight">1200</property>
      <property name="style">bold</property>
      <property name="fgcolour">#ffffffff</property>
      <property name="bgcolour">#00000000</property>
      <property name="olcolour">#ff000000</property>
      <property name="pad">0</property>
      <property name="halign">center</property>
      <property name="valign">bottom</property>
      <property name="outline">0</property>
      <property name="mlt_service">dynamictext</property>
      <property name="shotcut:filter">dynamicText</property>
    </filter>
    <filter id="filter173" in="00:00:01.917" out="00:00:02.017">
      <property name="start">1</property>
      <property name="level">1</property>
      <property name="mlt_service">brightness</property>
      <property name="shotcut:filter">fadeInBrightness</property>
      <property name="alpha">0=0; 6=1</property>
    </filter>
    <filter id="filter175" in="00:00:05.550" out="00:00:05.650">
      <property name="start">1</property>
      <property name="level">1</property>
      <property name="mlt_service">brightness</property>
      <property name="shotcut:filter">fadeOutBrightness</property>
      <property name="alpha">0=1; 6=0</property>
    </filter>
  </producer>
  <producer id="producer60" title="Anonymous Submission" in="00:00:00.000" out="00:00:05.583">
    <property name="length">00:20:00.000</property>
    <property name="eof">pause</property>
    <property name="resource">C:\Users\mandy.DOM-PC\lmms\projects\NLHS 16th/Final Output/Transparent Background.png</property>
    <property name="ttl">1</property>
    <property name="aspect_ratio">1</property>
    <property name="progressive">1</property>
    <property name="seekable">1</property>
    <property name="loop">1</property>
    <property name="mlt_service">pixbuf</property>
    <property name="global_feed">1</property>
    <property name="xml">was here</property>
    <property name="shotcut:hash">f8d356a56b67d1c42b86a91a1ec9134f</property>
    <filter id="filter177">
      <property name="argument">那樣充滿信心的理想 那樣充滿希望的理想</property>
      <property name="geometry">0.19%/87.44%:99.50%x9.22%</property>
      <property name="family">微軟正黑體</property>
      <property name="size">83</property>
      <property name="weight">1200</property>
      <property name="style">bold</property>
      <property name="fgcolour">#ffffffff</property>
      <property name="bgcolour">#00000000</property>
      <property name="olcolour">#ff000000</property>
      <property name="pad">0</property>
      <property name="halign">center</property>
      <property name="valign">bottom</property>
      <property name="outline">0</property>
      <property name="mlt_service">dynamictext</property>
      <property name="shotcut:filter">dynamicText</property>
    </filter>
    <filter id="filter178" in="00:00:01.900" out="00:00:02.000">
      <property name="start">1</property>
      <property name="level">1</property>
      <property name="mlt_service">brightness</property>
      <property name="shotcut:filter">fadeInBrightness</property>
      <property name="alpha">0=0; 6=1</property>
    </filter>
    <filter id="filter180" in="00:00:05.483" out="00:00:05.583">
      <property name="start">1</property>
      <property name="level">1</property>
      <property name="mlt_service">brightness</property>
      <property name="shotcut:filter">fadeOutBrightness</property>
      <property name="alpha">0=1; 6=0</property>
    </filter>
  </producer>
  <producer id="producer61" title="Anonymous Submission" in="00:00:00.000" out="00:00:05.633">
    <property name="length">00:20:00.000</property>
    <property name="eof">pause</property>
    <property name="resource">C:\Users\mandy.DOM-PC\lmms\projects\NLHS 16th/Final Output/Transparent Background.png</property>
    <property name="ttl">1</property>
    <property name="aspect_ratio">1</property>
    <property name="progressive">1</property>
    <property name="seekable">1</property>
    <property name="loop">1</property>
    <property name="mlt_service">pixbuf</property>
    <property name="global_feed">1</property>
    <property name="xml">was here</property>
    <property name="shotcut:hash">f8d356a56b67d1c42b86a91a1ec9134f</property>
    <filter id="filter182">
      <property name="argument">直至永恆 不放棄的決心</property>
      <property name="geometry">0.19%/87.44%:99.50%x9.22%</property>
      <property name="family">微軟正黑體</property>
      <property name="size">83</property>
      <property name="weight">1200</property>
      <property name="style">bold</property>
      <property name="fgcolour">#ffffffff</property>
      <property name="bgcolour">#00000000</property>
      <property name="olcolour">#ff000000</property>
      <property name="pad">0</property>
      <property name="halign">center</property>
      <property name="valign">bottom</property>
      <property name="outline">0</property>
      <property name="mlt_service">dynamictext</property>
      <property name="shotcut:filter">dynamicText</property>
    </filter>
    <filter id="filter183" in="00:00:01.900" out="00:00:02.000">
      <property name="start">1</property>
      <property name="level">1</property>
      <property name="mlt_service">brightness</property>
      <property name="shotcut:filter">fadeInBrightness</property>
      <property name="alpha">0=0; 6=1</property>
    </filter>
    <filter id="filter185" in="00:00:05.533" out="00:00:05.633">
      <property name="start">1</property>
      <property name="level">1</property>
      <property name="mlt_service">brightness</property>
      <property name="shotcut:filter">fadeOutBrightness</property>
      <property name="alpha">0=1; 6=0</property>
    </filter>
  </producer>
  <producer id="producer62" title="Anonymous Submission" in="00:00:00.000" out="00:00:05.650">
    <property name="length">00:20:00.000</property>
    <property name="eof">pause</property>
    <property name="resource">C:\Users\mandy.DOM-PC\lmms\projects\NLHS 16th/Final Output/Transparent Background.png</property>
    <property name="ttl">1</property>
    <property name="aspect_ratio">1</property>
    <property name="progressive">1</property>
    <property name="seekable">1</property>
    <property name="loop">1</property>
    <property name="mlt_service">pixbuf</property>
    <property name="global_feed">1</property>
    <property name="xml">was here</property>
    <property name="shotcut:hash">f8d356a56b67d1c42b86a91a1ec9134f</property>
    <filter id="filter187">
      <property name="argument">累累傷痕 不後悔的堅強</property>
      <property name="geometry">0.19%/87.44%:99.50%x9.22%</property>
      <property name="family">微軟正黑體</property>
      <property name="size">83</property>
      <property name="weight">1200</property>
      <property name="style">bold</property>
      <property name="fgcolour">#ffffffff</property>
      <property name="bgcolour">#00000000</property>
      <property name="olcolour">#ff000000</property>
      <property name="pad">0</property>
      <property name="halign">center</property>
      <property name="valign">bottom</property>
      <property name="outline">0</property>
      <property name="mlt_service">dynamictext</property>
      <property name="shotcut:filter">dynamicText</property>
    </filter>
    <filter id="filter188" in="00:00:01.900" out="00:00:02.000">
      <property name="start">1</property>
      <property name="level">1</property>
      <property name="mlt_service">brightness</property>
      <property name="shotcut:filter">fadeInBrightness</property>
      <property name="alpha">0=0; 6=1</property>
    </filter>
    <filter id="filter190" in="00:00:05.550" out="00:00:05.650">
      <property name="start">1</property>
      <property name="level">1</property>
      <property name="mlt_service">brightness</property>
      <property name="shotcut:filter">fadeOutBrightness</property>
      <property name="alpha">0=1; 6=0</property>
    </filter>
  </producer>
  <producer id="producer63" title="Anonymous Submission" in="00:00:00.000" out="00:00:05.133">
    <property name="length">00:20:00.000</property>
    <property name="eof">pause</property>
    <property name="resource">C:\Users\mandy.DOM-PC\lmms\projects\NLHS 16th/Final Output/Transparent Background.png</property>
    <property name="ttl">1</property>
    <property name="aspect_ratio">1</property>
    <property name="progressive">1</property>
    <property name="seekable">1</property>
    <property name="loop">1</property>
    <property name="mlt_service">pixbuf</property>
    <property name="global_feed">1</property>
    <property name="xml">was here</property>
    <property name="shotcut:hash">f8d356a56b67d1c42b86a91a1ec9134f</property>
    <filter id="filter192">
      <property name="argument">奮力掙扎 為了心中的嚮往</property>
      <property name="geometry">0.19%/87.44%:99.50%x9.22%</property>
      <property name="family">微軟正黑體</property>
      <property name="size">83</property>
      <property name="weight">1200</property>
      <property name="style">bold</property>
      <property name="fgcolour">#ffffffff</property>
      <property name="bgcolour">#00000000</property>
      <property name="olcolour">#ff000000</property>
      <property name="pad">0</property>
      <property name="halign">center</property>
      <property name="valign">bottom</property>
      <property name="outline">0</property>
      <property name="mlt_service">dynamictext</property>
      <property name="shotcut:filter">dynamicText</property>
    </filter>
    <filter id="filter193" in="00:00:01.900" out="00:00:02.000">
      <property name="start">1</property>
      <property name="level">1</property>
      <property name="mlt_service">brightness</property>
      <property name="shotcut:filter">fadeInBrightness</property>
      <property name="alpha">0=0; 6=1</property>
    </filter>
    <filter id="filter195" in="00:00:05.033" out="00:00:05.133">
      <property name="start">1</property>
      <property name="level">1</property>
      <property name="mlt_service">brightness</property>
      <property name="shotcut:filter">fadeOutBrightness</property>
      <property name="alpha">0=1; 6=0</property>
    </filter>
  </producer>
  <producer id="producer64" title="Anonymous Submission" in="00:00:00.000" out="00:00:06.117">
    <property name="length">00:20:00.000</property>
    <property name="eof">pause</property>
    <property name="resource">C:\Users\mandy.DOM-PC\lmms\projects\NLHS 16th/Final Output/Transparent Background.png</property>
    <property name="ttl">1</property>
    <property name="aspect_ratio">1</property>
    <property name="progressive">1</property>
    <property name="seekable">1</property>
    <property name="loop">1</property>
    <property name="mlt_service">pixbuf</property>
    <property name="global_feed">1</property>
    <property name="xml">was here</property>
    <property name="shotcut:hash">f8d356a56b67d1c42b86a91a1ec9134f</property>
    <filter id="filter197">
      <property name="argument">為了璀璨陽光 為了圓滿微笑</property>
      <property name="geometry">0.19%/87.44%:99.50%x9.22%</property>
      <property name="family">微軟正黑體</property>
      <property name="size">83</property>
      <property name="weight">1200</property>
      <property name="style">bold</property>
      <property name="fgcolour">#ffffffff</property>
      <property name="bgcolour">#00000000</property>
      <property name="olcolour">#ff000000</property>
      <property name="pad">0</property>
      <property name="halign">center</property>
      <property name="valign">bottom</property>
      <property name="outline">0</property>
      <property name="mlt_service">dynamictext</property>
      <property name="shotcut:filter">dynamicText</property>
    </filter>
    <filter id="filter198" in="00:00:01.900" out="00:00:02.000">
      <property name="start">1</property>
      <property name="level">1</property>
      <property name="mlt_service">brightness</property>
      <property name="shotcut:filter">fadeInBrightness</property>
      <property name="alpha">0=0; 6=1</property>
    </filter>
    <filter id="filter200" in="00:00:06.017" out="00:00:06.117">
      <property name="start">1</property>
      <property name="level">1</property>
      <property name="mlt_service">brightness</property>
      <property name="shotcut:filter">fadeOutBrightness</property>
      <property name="alpha">0=1; 6=0</property>
    </filter>
  </producer>
  <producer id="producer65" title="Anonymous Submission" in="00:00:00.000" out="00:00:05.233">
    <property name="length">00:20:00.000</property>
    <property name="eof">pause</property>
    <property name="resource">C:\Users\mandy.DOM-PC\lmms\projects\NLHS 16th/Final Output/Transparent Background.png</property>
    <property name="ttl">1</property>
    <property name="aspect_ratio">1</property>
    <property name="progressive">1</property>
    <property name="seekable">1</property>
    <property name="loop">1</property>
    <property name="mlt_service">pixbuf</property>
    <property name="global_feed">1</property>
    <property name="xml">was here</property>
    <property name="shotcut:hash">f8d356a56b67d1c42b86a91a1ec9134f</property>
    <filter id="filter202">
      <property name="argument">與龜池相會的視線 　　　　　　　　　</property>
      <property name="geometry">0.19%/87.44%:99.50%x9.22%</property>
      <property name="family">微軟正黑體</property>
      <property name="size">83</property>
      <property name="weight">1200</property>
      <property name="style">bold</property>
      <property name="fgcolour">#ffffffff</property>
      <property name="bgcolour">#00000000</property>
      <property name="olcolour">#ff000000</property>
      <property name="pad">0</property>
      <property name="halign">center</property>
      <property name="valign">bottom</property>
      <property name="outline">0</property>
      <property name="mlt_service">dynamictext</property>
      <property name="shotcut:filter">dynamicText</property>
    </filter>
    <filter id="filter203" in="00:00:01.900" out="00:00:02.000">
      <property name="start">1</property>
      <property name="level">1</property>
      <property name="mlt_service">brightness</property>
      <property name="shotcut:filter">fadeInBrightness</property>
      <property name="alpha">0=0; 6=1</property>
    </filter>
  </producer>
  <producer id="producer66" title="Anonymous Submission" in="00:00:00.000" out="00:00:05.233">
    <property name="length">00:20:00.000</property>
    <property name="eof">pause</property>
    <property name="resource">C:\Users\mandy.DOM-PC\lmms\projects\NLHS 16th/Final Output/Transparent Background.png</property>
    <property name="ttl">1</property>
    <property name="aspect_ratio">1</property>
    <property name="progressive">1</property>
    <property name="seekable">1</property>
    <property name="loop">1</property>
    <property name="mlt_service">pixbuf</property>
    <property name="global_feed">1</property>
    <property name="xml">was here</property>
    <property name="shotcut:hash">f8d356a56b67d1c42b86a91a1ec9134f</property>
    <filter id="filter72">
      <property name="argument">與龜池相會的視線 　　　　　　　　　</property>
      <property name="geometry">0.19%/87.44%:99.50%x9.22%</property>
      <property name="family">微軟正黑體</property>
      <property name="size">83</property>
      <property name="weight">1200</property>
      <property name="style">bold</property>
      <property name="fgcolour">#ffffffff</property>
      <property name="bgcolour">#00000000</property>
      <property name="olcolour">#ff000000</property>
      <property name="pad">0</property>
      <property name="halign">center</property>
      <property name="valign">bottom</property>
      <property name="outline">0</property>
      <property name="mlt_service">dynamictext</property>
      <property name="shotcut:filter">dynamicText</property>
    </filter>
    <filter id="filter73" in="00:00:01.900" out="00:00:02.000">
      <property name="start">1</property>
      <property name="level">1</property>
      <property name="mlt_service">brightness</property>
      <property name="shotcut:filter">fadeInBrightness</property>
      <property name="alpha">0=0; 6=1</property>
    </filter>
  </producer>
  <producer id="producer67" title="Anonymous Submission" in="00:00:00.000" out="00:00:05.700">
    <property name="length">00:20:00.000</property>
    <property name="eof">pause</property>
    <property name="resource">C:\Users\mandy.DOM-PC\lmms\projects\NLHS 16th/Final Output/Transparent Background.png</property>
    <property name="ttl">1</property>
    <property name="aspect_ratio">1</property>
    <property name="progressive">1</property>
    <property name="seekable">1</property>
    <property name="loop">1</property>
    <property name="mlt_service">pixbuf</property>
    <property name="global_feed">1</property>
    <property name="xml">was here</property>
    <property name="shotcut:hash">f8d356a56b67d1c42b86a91a1ec9134f</property>
    <filter id="filter75">
      <property name="argument">與龜池相會的視線 彷彿映在心中的理想</property>
      <property name="geometry">0.19%/87.44%:99.50%x9.22%</property>
      <property name="family">微軟正黑體</property>
      <property name="size">83</property>
      <property name="weight">1200</property>
      <property name="style">normal</property>
      <property name="fgcolour">#ffffffff</property>
      <property name="bgcolour">#00000000</property>
      <property name="olcolour">#ff000000</property>
      <property name="pad">0</property>
      <property name="halign">center</property>
      <property name="valign">bottom</property>
      <property name="outline">0</property>
      <property name="mlt_service">dynamictext</property>
      <property name="shotcut:filter">dynamicText</property>
    </filter>
    <filter id="filter210" in="00:00:05.600" out="00:00:05.700">
      <property name="start">1</property>
      <property name="level">1</property>
      <property name="mlt_service">brightness</property>
      <property name="shotcut:filter">fadeOutBrightness</property>
      <property name="alpha">0=1; 6=0</property>
    </filter>
  </producer>
  <tractor id="tractor10" title="Anonymous Submission" global_feed="1" in="00:00:00.000" out="00:00:00.100">
    <property name="shotcut:transition">lumaMix</property>
    <track producer="producer66" in="00:00:05.250" out="00:00:05.350"/>
    <track producer="producer67" in="00:00:01.600" out="00:00:01.700"/>
    <transition id="transition20" out="00:00:00.100">
      <property name="a_track">0</property>
      <property name="b_track">1</property>
      <property name="factory">loader</property>
      <property name="mlt_service">luma</property>
    </transition>
    <transition id="transition21" out="00:00:00.100">
      <property name="a_track">0</property>
      <property name="b_track">1</property>
      <property name="mlt_service">mix</property>
      <property name="start">-1</property>
      <property name="accepts_blanks">1</property>
    </transition>
  </tractor>
  <producer id="producer68" title="Anonymous Submission" in="00:00:00.000" out="00:00:05.700">
    <property name="length">00:20:00.000</property>
    <property name="eof">pause</property>
    <property name="resource">C:\Users\mandy.DOM-PC\lmms\projects\NLHS 16th/Final Output/Transparent Background.png</property>
    <property name="ttl">1</property>
    <property name="aspect_ratio">1</property>
    <property name="progressive">1</property>
    <property name="seekable">1</property>
    <property name="loop">1</property>
    <property name="mlt_service">pixbuf</property>
    <property name="global_feed">1</property>
    <property name="xml">was here</property>
    <property name="shotcut:hash">f8d356a56b67d1c42b86a91a1ec9134f</property>
    <filter id="filter78">
      <property name="argument">與龜池相會的視線 彷彿映在心中的理想</property>
      <property name="geometry">0.19%/87.44%:99.50%x9.22%</property>
      <property name="family">微軟正黑體</property>
      <property name="size">83</property>
      <property name="weight">1200</property>
      <property name="style">normal</property>
      <property name="fgcolour">#ffffffff</property>
      <property name="bgcolour">#00000000</property>
      <property name="olcolour">#ff000000</property>
      <property name="pad">0</property>
      <property name="halign">center</property>
      <property name="valign">bottom</property>
      <property name="outline">0</property>
      <property name="mlt_service">dynamictext</property>
      <property name="shotcut:filter">dynamicText</property>
    </filter>
    <filter id="filter79" in="00:00:05.600" out="00:00:05.700">
      <property name="start">1</property>
      <property name="level">1</property>
      <property name="mlt_service">brightness</property>
      <property name="shotcut:filter">fadeOutBrightness</property>
      <property name="alpha">0=1; 6=0</property>
    </filter>
  </producer>
  <producer id="producer69" title="Anonymous Submission" in="00:00:00.000" out="00:00:05.367">
    <property name="length">00:20:00.000</property>
    <property name="eof">pause</property>
    <property name="resource">C:\Users\mandy.DOM-PC\lmms\projects\NLHS 16th/Final Output/Transparent Background.png</property>
    <property name="ttl">1</property>
    <property name="aspect_ratio">1</property>
    <property name="progressive">1</property>
    <property name="seekable">1</property>
    <property name="loop">1</property>
    <property name="mlt_service">pixbuf</property>
    <property name="global_feed">1</property>
    <property name="xml">was here</property>
    <property name="shotcut:hash">f8d356a56b67d1c42b86a91a1ec9134f</property>
    <filter id="filter212">
      <property name="argument">張開雙眼那夢想 　　　　　　 　　　　</property>
      <property name="geometry">0.19%/87.44%:99.50%x9.22%</property>
      <property name="family">微軟正黑體</property>
      <property name="size">83</property>
      <property name="weight">1200</property>
      <property name="style">bold</property>
      <property name="fgcolour">#ffffffff</property>
      <property name="bgcolour">#00000000</property>
      <property name="olcolour">#ff000000</property>
      <property name="pad">0</property>
      <property name="halign">center</property>
      <property name="valign">bottom</property>
      <property name="outline">0</property>
      <property name="mlt_service">dynamictext</property>
      <property name="shotcut:filter">dynamicText</property>
    </filter>
    <filter id="filter213" in="00:00:02.067" out="00:00:02.167">
      <property name="start">1</property>
      <property name="level">1</property>
      <property name="mlt_service">brightness</property>
      <property name="shotcut:filter">fadeInBrightness</property>
      <property name="alpha">0=0; 6=1</property>
    </filter>
  </producer>
  <producer id="producer70" title="Anonymous Submission" in="00:00:00.000" out="00:00:05.367">
    <property name="length">00:20:00.000</property>
    <property name="eof">pause</property>
    <property name="resource">C:\Users\mandy.DOM-PC\lmms\projects\NLHS 16th/Final Output/Transparent Background.png</property>
    <property name="ttl">1</property>
    <property name="aspect_ratio">1</property>
    <property name="progressive">1</property>
    <property name="seekable">1</property>
    <property name="loop">1</property>
    <property name="mlt_service">pixbuf</property>
    <property name="global_feed">1</property>
    <property name="xml">was here</property>
    <property name="shotcut:hash">f8d356a56b67d1c42b86a91a1ec9134f</property>
    <filter id="filter80">
      <property name="argument">張開雙眼那夢想 　　　　　　 　　　　</property>
      <property name="geometry">0.19%/87.44%:99.50%x9.22%</property>
      <property name="family">微軟正黑體</property>
      <property name="size">83</property>
      <property name="weight">1200</property>
      <property name="style">bold</property>
      <property name="fgcolour">#ffffffff</property>
      <property name="bgcolour">#00000000</property>
      <property name="olcolour">#ff000000</property>
      <property name="pad">0</property>
      <property name="halign">center</property>
      <property name="valign">bottom</property>
      <property name="outline">0</property>
      <property name="mlt_service">dynamictext</property>
      <property name="shotcut:filter">dynamicText</property>
    </filter>
    <filter id="filter82" in="00:00:02.067" out="00:00:02.167">
      <property name="start">1</property>
      <property name="level">1</property>
      <property name="mlt_service">brightness</property>
      <property name="shotcut:filter">fadeInBrightness</property>
      <property name="alpha">0=0; 6=1</property>
    </filter>
  </producer>
  <producer id="producer71" title="Anonymous Submission" in="00:00:00.000" out="00:00:04.100">
    <property name="length">00:20:00.000</property>
    <property name="eof">pause</property>
    <property name="resource">C:\Users\mandy.DOM-PC\lmms\projects\NLHS 16th/Final Output/Transparent Background.png</property>
    <property name="ttl">1</property>
    <property name="aspect_ratio">1</property>
    <property name="progressive">1</property>
    <property name="seekable">1</property>
    <property name="loop">1</property>
    <property name="mlt_service">pixbuf</property>
    <property name="global_feed">1</property>
    <property name="xml">was here</property>
    <property name="shotcut:hash">f8d356a56b67d1c42b86a91a1ec9134f</property>
    <filter id="filter217">
      <property name="argument">張開雙眼那夢想 還是如此明亮 　　　　</property>
      <property name="geometry">0.19%/87.44%:99.50%x9.22%</property>
      <property name="family">微軟正黑體</property>
      <property name="size">83</property>
      <property name="weight">1200</property>
      <property name="style">bold</property>
      <property name="fgcolour">#ffffffff</property>
      <property name="bgcolour">#00000000</property>
      <property name="olcolour">#ff000000</property>
      <property name="pad">0</property>
      <property name="halign">center</property>
      <property name="valign">bottom</property>
      <property name="outline">0</property>
      <property name="mlt_service">dynamictext</property>
      <property name="shotcut:filter">dynamicText</property>
    </filter>
  </producer>
  <tractor id="tractor11" title="Anonymous Submission" global_feed="1" in="00:00:00.000" out="00:00:00.100">
    <property name="shotcut:transition">lumaMix</property>
    <track producer="producer70" in="00:00:05.383" out="00:00:05.483"/>
    <track producer="producer71" in="00:00:01.733" out="00:00:01.833"/>
    <transition id="transition22" out="00:00:00.100">
      <property name="a_track">0</property>
      <property name="b_track">1</property>
      <property name="factory">loader</property>
      <property name="mlt_service">luma</property>
    </transition>
    <transition id="transition23" out="00:00:00.100">
      <property name="a_track">0</property>
      <property name="b_track">1</property>
      <property name="mlt_service">mix</property>
      <property name="start">-1</property>
      <property name="accepts_blanks">1</property>
    </transition>
  </tractor>
  <producer id="producer72" title="Anonymous Submission" in="00:00:00.000" out="00:00:04.100">
    <property name="length">00:20:00.000</property>
    <property name="eof">pause</property>
    <property name="resource">C:\Users\mandy.DOM-PC\lmms\projects\NLHS 16th/Final Output/Transparent Background.png</property>
    <property name="ttl">1</property>
    <property name="aspect_ratio">1</property>
    <property name="progressive">1</property>
    <property name="seekable">1</property>
    <property name="loop">1</property>
    <property name="mlt_service">pixbuf</property>
    <property name="global_feed">1</property>
    <property name="xml">was here</property>
    <property name="shotcut:hash">f8d356a56b67d1c42b86a91a1ec9134f</property>
    <filter id="filter83">
      <property name="argument">張開雙眼那夢想 還是如此明亮 　　　　</property>
      <property name="geometry">0.19%/87.44%:99.50%x9.22%</property>
      <property name="family">微軟正黑體</property>
      <property name="size">83</property>
      <property name="weight">1200</property>
      <property name="style">bold</property>
      <property name="fgcolour">#ffffffff</property>
      <property name="bgcolour">#00000000</property>
      <property name="olcolour">#ff000000</property>
      <property name="pad">0</property>
      <property name="halign">center</property>
      <property name="valign">bottom</property>
      <property name="outline">0</property>
      <property name="mlt_service">dynamictext</property>
      <property name="shotcut:filter">dynamicText</property>
    </filter>
  </producer>
  <producer id="producer75" title="Anonymous Submission" in="00:00:00.000" out="00:00:03.417">
    <property name="length">00:20:00.000</property>
    <property name="eof">pause</property>
    <property name="resource">C:\Users\mandy.DOM-PC\lmms\projects\NLHS 16th/Final Output/Transparent Background.png</property>
    <property name="ttl">1</property>
    <property name="aspect_ratio">1</property>
    <property name="progressive">1</property>
    <property name="seekable">1</property>
    <property name="loop">1</property>
    <property name="mlt_service">pixbuf</property>
    <property name="global_feed">1</property>
    <property name="xml">was here</property>
    <property name="shotcut:hash">f8d356a56b67d1c42b86a91a1ec9134f</property>
    <filter id="filter85">
      <property name="argument">張開雙眼那夢想 還是如此明亮 如此清晰</property>
      <property name="geometry">0.19%/87.44%:99.50%x9.22%</property>
      <property name="family">微軟正黑體</property>
      <property name="size">83</property>
      <property name="weight">1200</property>
      <property name="style">bold</property>
      <property name="fgcolour">#ffffffff</property>
      <property name="bgcolour">#00000000</property>
      <property name="olcolour">#ff000000</property>
      <property name="pad">0</property>
      <property name="halign">center</property>
      <property name="valign">bottom</property>
      <property name="outline">0</property>
      <property name="mlt_service">dynamictext</property>
      <property name="shotcut:filter">dynamicText</property>
    </filter>
    <filter id="filter87" in="00:00:03.317" out="00:00:03.417">
      <property name="start">1</property>
      <property name="level">1</property>
      <property name="mlt_service">brightness</property>
      <property name="shotcut:filter">fadeOutBrightness</property>
      <property name="alpha">0=1; 6=0</property>
    </filter>
  </producer>
  <tractor id="tractor12" title="Anonymous Submission" global_feed="1" in="00:00:00.000" out="00:00:00.100">
    <property name="shotcut:transition">lumaMix</property>
    <track producer="producer72" in="00:00:04.000" out="00:00:04.100"/>
    <track producer="producer75" in="00:00:01.500" out="00:00:01.600"/>
    <transition id="transition24" out="00:00:00.100">
      <property name="a_track">0</property>
      <property name="b_track">1</property>
      <property name="factory">loader</property>
      <property name="mlt_service">luma</property>
    </transition>
    <transition id="transition25" out="00:00:00.100">
      <property name="a_track">0</property>
      <property name="b_track">1</property>
      <property name="start">-1</property>
      <property name="accepts_blanks">1</property>
      <property name="mlt_service">mix</property>
    </transition>
  </tractor>
  <producer id="producer76" title="Anonymous Submission" in="00:00:00.000" out="00:00:04.967">
    <property name="length">00:20:00.000</property>
    <property name="eof">pause</property>
    <property name="resource">C:\Users\mandy.DOM-PC\lmms\projects\NLHS 16th/Final Output/Transparent Background.png</property>
    <property name="ttl">1</property>
    <property name="aspect_ratio">1</property>
    <property name="progressive">1</property>
    <property name="seekable">1</property>
    <property name="loop">1</property>
    <property name="mlt_service">pixbuf</property>
    <property name="global_feed">1</property>
    <property name="xml">was here</property>
    <property name="shotcut:hash">f8d356a56b67d1c42b86a91a1ec9134f</property>
    <filter id="filter227">
      <property name="argument">追尋夢想的倔強 　　　　　　　</property>
      <property name="geometry">0.19%/87.44%:99.50%x9.22%</property>
      <property name="family">微軟正黑體</property>
      <property name="size">83</property>
      <property name="weight">1200</property>
      <property name="style">bold</property>
      <property name="fgcolour">#ffffffff</property>
      <property name="bgcolour">#00000000</property>
      <property name="olcolour">#ff000000</property>
      <property name="pad">0</property>
      <property name="halign">center</property>
      <property name="valign">bottom</property>
      <property name="outline">0</property>
      <property name="mlt_service">dynamictext</property>
      <property name="shotcut:filter">dynamicText</property>
    </filter>
    <filter id="filter228" in="00:00:01.700" out="00:00:01.800">
      <property name="start">1</property>
      <property name="level">1</property>
      <property name="mlt_service">brightness</property>
      <property name="shotcut:filter">fadeInBrightness</property>
      <property name="alpha">0=0; 6=1</property>
    </filter>
  </producer>
  <producer id="producer77" title="Anonymous Submission" in="00:00:00.000" out="00:00:05.683">
    <property name="length">00:20:00.000</property>
    <property name="eof">pause</property>
    <property name="resource">C:\Users\mandy.DOM-PC\lmms\projects\NLHS 16th/Final Output/Transparent Background.png</property>
    <property name="ttl">1</property>
    <property name="aspect_ratio">1</property>
    <property name="progressive">1</property>
    <property name="seekable">1</property>
    <property name="loop">1</property>
    <property name="mlt_service">pixbuf</property>
    <property name="global_feed">1</property>
    <property name="xml">was here</property>
    <property name="shotcut:hash">f8d356a56b67d1c42b86a91a1ec9134f</property>
    <filter id="filter232">
      <property name="argument">追尋夢想的倔強 指引著我心所向</property>
      <property name="geometry">0.19%/87.44%:99.50%x9.22%</property>
      <property name="family">微軟正黑體</property>
      <property name="size">83</property>
      <property name="weight">1200</property>
      <property name="style">bold</property>
      <property name="fgcolour">#ffffffff</property>
      <property name="bgcolour">#00000000</property>
      <property name="olcolour">#ff000000</property>
      <property name="pad">0</property>
      <property name="halign">center</property>
      <property name="valign">bottom</property>
      <property name="outline">0</property>
      <property name="mlt_service">dynamictext</property>
      <property name="shotcut:filter">dynamicText</property>
    </filter>
    <filter id="filter235" in="00:00:05.583" out="00:00:05.683">
      <property name="start">1</property>
      <property name="level">1</property>
      <property name="mlt_service">brightness</property>
      <property name="shotcut:filter">fadeOutBrightness</property>
      <property name="alpha">0=1; 6=0</property>
    </filter>
  </producer>
  <tractor id="tractor13" title="Anonymous Submission" global_feed="1" in="00:00:00.000" out="00:00:00.100">
    <property name="shotcut:transition">lumaMix</property>
    <track producer="producer76" in="00:00:04.983" out="00:00:05.083"/>
    <track producer="producer77" in="00:00:01.483" out="00:00:01.583"/>
    <transition id="transition26" out="00:00:00.100">
      <property name="a_track">0</property>
      <property name="b_track">1</property>
      <property name="factory">loader</property>
      <property name="mlt_service">luma</property>
    </transition>
    <transition id="transition27" out="00:00:00.100">
      <property name="a_track">0</property>
      <property name="b_track">1</property>
      <property name="mlt_service">mix</property>
      <property name="start">-1</property>
      <property name="accepts_blanks">1</property>
    </transition>
  </tractor>
  <producer id="producer78" title="Anonymous Submission" in="00:00:00.000" out="00:00:05.050">
    <property name="length">00:20:00.000</property>
    <property name="eof">pause</property>
    <property name="resource">C:\Users\mandy.DOM-PC\lmms\projects\NLHS 16th/Final Output/Transparent Background.png</property>
    <property name="ttl">1</property>
    <property name="aspect_ratio">1</property>
    <property name="progressive">1</property>
    <property name="seekable">1</property>
    <property name="loop">1</property>
    <property name="mlt_service">pixbuf</property>
    <property name="global_feed">1</property>
    <property name="xml">was here</property>
    <property name="shotcut:hash">f8d356a56b67d1c42b86a91a1ec9134f</property>
    <filter id="filter88">
      <property name="argument">讓不情願的過去雲散煙消 　　　　　　 　　　　　　</property>
      <property name="geometry">0.19%/87.44%:99.50%x9.22%</property>
      <property name="family">微軟正黑體</property>
      <property name="size">83</property>
      <property name="weight">1200</property>
      <property name="style">normal</property>
      <property name="fgcolour">#ffffffff</property>
      <property name="bgcolour">#00000000</property>
      <property name="olcolour">#ff000000</property>
      <property name="pad">0</property>
      <property name="halign">center</property>
      <property name="valign">bottom</property>
      <property name="outline">0</property>
      <property name="mlt_service">dynamictext</property>
      <property name="shotcut:filter">dynamicText</property>
    </filter>
    <filter id="filter238" in="00:00:01.767" out="00:00:01.867">
      <property name="start">1</property>
      <property name="level">1</property>
      <property name="mlt_service">brightness</property>
      <property name="shotcut:filter">fadeInBrightness</property>
      <property name="alpha">0=0; 6=1</property>
    </filter>
  </producer>
  <producer id="producer79" title="Anonymous Submission" in="00:00:00.000" out="00:00:05.050">
    <property name="length">00:20:00.000</property>
    <property name="eof">pause</property>
    <property name="resource">C:\Users\mandy.DOM-PC\lmms\projects\NLHS 16th/Final Output/Transparent Background.png</property>
    <property name="ttl">1</property>
    <property name="aspect_ratio">1</property>
    <property name="progressive">1</property>
    <property name="seekable">1</property>
    <property name="loop">1</property>
    <property name="mlt_service">pixbuf</property>
    <property name="global_feed">1</property>
    <property name="xml">was here</property>
    <property name="shotcut:hash">f8d356a56b67d1c42b86a91a1ec9134f</property>
    <filter id="filter90">
      <property name="argument">讓不情願的過去雲散煙消 　　　　　　 　　　　　　</property>
      <property name="geometry">0.19%/87.44%:99.50%x9.22%</property>
      <property name="family">微軟正黑體</property>
      <property name="size">83</property>
      <property name="weight">1200</property>
      <property name="style">normal</property>
      <property name="fgcolour">#ffffffff</property>
      <property name="bgcolour">#00000000</property>
      <property name="olcolour">#ff000000</property>
      <property name="pad">0</property>
      <property name="halign">center</property>
      <property name="valign">bottom</property>
      <property name="outline">0</property>
      <property name="mlt_service">dynamictext</property>
      <property name="shotcut:filter">dynamicText</property>
    </filter>
    <filter id="filter93" in="00:00:01.767" out="00:00:01.867">
      <property name="start">1</property>
      <property name="level">1</property>
      <property name="mlt_service">brightness</property>
      <property name="shotcut:filter">fadeInBrightness</property>
      <property name="alpha">0=0; 6=1</property>
    </filter>
  </producer>
  <producer id="producer80" title="Anonymous Submission" in="00:00:00.000" out="00:00:03.300">
    <property name="length">00:20:00.000</property>
    <property name="eof">pause</property>
    <property name="resource">C:\Users\mandy.DOM-PC\lmms\projects\NLHS 16th/Final Output/Transparent Background.png</property>
    <property name="ttl">1</property>
    <property name="aspect_ratio">1</property>
    <property name="progressive">1</property>
    <property name="seekable">1</property>
    <property name="loop">1</property>
    <property name="mlt_service">pixbuf</property>
    <property name="global_feed">1</property>
    <property name="xml">was here</property>
    <property name="shotcut:hash">f8d356a56b67d1c42b86a91a1ec9134f</property>
    <filter id="filter240">
      <property name="argument">讓不情願的過去雲散煙消 迎接每個現在 　　　　　　</property>
      <property name="geometry">0.19%/87.44%:99.50%x9.22%</property>
      <property name="family">微軟正黑體</property>
      <property name="size">83</property>
      <property name="weight">1200</property>
      <property name="style">bold</property>
      <property name="fgcolour">#ffffffff</property>
      <property name="bgcolour">#00000000</property>
      <property name="olcolour">#ff000000</property>
      <property name="pad">0</property>
      <property name="halign">center</property>
      <property name="valign">bottom</property>
      <property name="outline">0</property>
      <property name="mlt_service">dynamictext</property>
      <property name="shotcut:filter">dynamicText</property>
    </filter>
  </producer>
  <tractor id="tractor14" title="Anonymous Submission" global_feed="1" in="00:00:00.000" out="00:00:00.100">
    <property name="shotcut:transition">lumaMix</property>
    <track producer="producer79" in="00:00:05.067" out="00:00:05.167"/>
    <track producer="producer80" in="00:00:01.450" out="00:00:01.550"/>
    <transition id="transition28" out="00:00:00.100">
      <property name="a_track">0</property>
      <property name="b_track">1</property>
      <property name="factory">loader</property>
      <property name="mlt_service">luma</property>
    </transition>
    <transition id="transition29" out="00:00:00.100">
      <property name="a_track">0</property>
      <property name="b_track">1</property>
      <property name="mlt_service">mix</property>
      <property name="start">-1</property>
      <property name="accepts_blanks">1</property>
    </transition>
  </tractor>
  <producer id="producer81" title="Anonymous Submission" in="00:00:00.000" out="00:00:03.033">
    <property name="length">00:20:00.000</property>
    <property name="eof">pause</property>
    <property name="resource">C:\Users\mandy.DOM-PC\lmms\projects\NLHS 16th/Final Output/Transparent Background.png</property>
    <property name="ttl">1</property>
    <property name="aspect_ratio">1</property>
    <property name="progressive">1</property>
    <property name="seekable">1</property>
    <property name="loop">1</property>
    <property name="mlt_service">pixbuf</property>
    <property name="global_feed">1</property>
    <property name="xml">was here</property>
    <property name="shotcut:hash">f8d356a56b67d1c42b86a91a1ec9134f</property>
    <filter id="filter94">
      <property name="argument">讓不情願的過去雲散煙消 迎接每個現在 　　　　　　</property>
      <property name="geometry">0.19%/87.44%:99.50%x9.22%</property>
      <property name="family">微軟正黑體</property>
      <property name="size">83</property>
      <property name="weight">1200</property>
      <property name="style">bold</property>
      <property name="fgcolour">#ffffffff</property>
      <property name="bgcolour">#00000000</property>
      <property name="olcolour">#ff000000</property>
      <property name="pad">0</property>
      <property name="halign">center</property>
      <property name="valign">bottom</property>
      <property name="outline">0</property>
      <property name="mlt_service">dynamictext</property>
      <property name="shotcut:filter">dynamicText</property>
    </filter>
  </producer>
  <producer id="producer84" title="Anonymous Submission" in="00:00:00.000" out="00:00:03.750">
    <property name="length">00:20:00.000</property>
    <property name="eof">pause</property>
    <property name="resource">C:\Users\mandy.DOM-PC\lmms\projects\NLHS 16th/Final Output/Transparent Background.png</property>
    <property name="ttl">1</property>
    <property name="aspect_ratio">1</property>
    <property name="progressive">1</property>
    <property name="seekable">1</property>
    <property name="loop">1</property>
    <property name="mlt_service">pixbuf</property>
    <property name="global_feed">1</property>
    <property name="xml">was here</property>
    <property name="shotcut:hash">f8d356a56b67d1c42b86a91a1ec9134f</property>
    <filter id="filter97">
      <property name="argument">讓不情願的過去雲散煙消 迎接每個現在 看見美好未來</property>
      <property name="geometry">0.19%/87.44%:99.50%x9.22%</property>
      <property name="family">微軟正黑體</property>
      <property name="size">83</property>
      <property name="weight">1200</property>
      <property name="style">bold</property>
      <property name="fgcolour">#ffffffff</property>
      <property name="bgcolour">#00000000</property>
      <property name="olcolour">#ff000000</property>
      <property name="pad">0</property>
      <property name="halign">center</property>
      <property name="valign">bottom</property>
      <property name="outline">0</property>
      <property name="mlt_service">dynamictext</property>
      <property name="shotcut:filter">dynamicText</property>
    </filter>
    <filter id="filter98" in="00:00:03.650" out="00:00:03.750">
      <property name="start">1</property>
      <property name="level">1</property>
      <property name="mlt_service">brightness</property>
      <property name="shotcut:filter">fadeOutBrightness</property>
      <property name="alpha">0=1; 6=0</property>
    </filter>
  </producer>
  <tractor id="tractor15" title="Anonymous Submission" global_feed="1" in="00:00:00.000" out="00:00:00.100">
    <property name="shotcut:transition">lumaMix</property>
    <track producer="producer81" in="00:00:03.050" out="00:00:03.150"/>
    <track producer="producer84" in="00:00:01.583" out="00:00:01.683"/>
    <transition id="transition30" out="00:00:00.100">
      <property name="a_track">0</property>
      <property name="b_track">1</property>
      <property name="factory">loader</property>
      <property name="mlt_service">luma</property>
    </transition>
    <transition id="transition31" out="00:00:00.100">
      <property name="a_track">0</property>
      <property name="b_track">1</property>
      <property name="start">-1</property>
      <property name="accepts_blanks">1</property>
      <property name="mlt_service">mix</property>
    </transition>
  </tractor>
  <producer id="producer85" title="Anonymous Submission" in="00:00:00.000" out="00:00:03.700">
    <property name="length">00:20:00.000</property>
    <property name="eof">pause</property>
    <property name="resource">C:\Users\mandy.DOM-PC\lmms\projects\NLHS 16th/Final Output/Transparent Background.png</property>
    <property name="ttl">1</property>
    <property name="aspect_ratio">1</property>
    <property name="progressive">1</property>
    <property name="seekable">1</property>
    <property name="loop">1</property>
    <property name="mlt_service">pixbuf</property>
    <property name="global_feed">1</property>
    <property name="xml">was here</property>
    <property name="shotcut:hash">f8d356a56b67d1c42b86a91a1ec9134f</property>
    <filter id="filter250">
      <property name="argument">　　A dream is like building a castle
　　　　</property>
      <property name="geometry">0.00%/76.56%:100.00%x18.33%</property>
      <property name="family">微軟正黑體</property>
      <property name="size">165</property>
      <property name="weight">1200</property>
      <property name="style">bold</property>
      <property name="fgcolour">#ffffffff</property>
      <property name="bgcolour">#00000000</property>
      <property name="olcolour">#ff000000</property>
      <property name="pad">0</property>
      <property name="halign">left</property>
      <property name="valign">bottom</property>
      <property name="outline">0</property>
      <property name="mlt_service">dynamictext</property>
      <property name="shotcut:filter">dynamicText</property>
    </filter>
    <filter id="filter251" in="00:00:01.633" out="00:00:01.733">
      <property name="start">1</property>
      <property name="level">1</property>
      <property name="mlt_service">brightness</property>
      <property name="shotcut:filter">fadeInBrightness</property>
      <property name="alpha">0=0; 6=1</property>
    </filter>
  </producer>
  <producer id="producer88" title="Anonymous Submission" in="00:00:00.000" out="00:00:05.933">
    <property name="length">00:20:00.000</property>
    <property name="eof">pause</property>
    <property name="resource">C:\Users\mandy.DOM-PC\lmms\projects\NLHS 16th/Final Output/Transparent Background.png</property>
    <property name="ttl">1</property>
    <property name="aspect_ratio">1</property>
    <property name="progressive">1</property>
    <property name="seekable">1</property>
    <property name="loop">1</property>
    <property name="mlt_service">pixbuf</property>
    <property name="global_feed">1</property>
    <property name="xml">was here</property>
    <property name="shotcut:hash">f8d356a56b67d1c42b86a91a1ec9134f</property>
    <filter id="filter103">
      <property name="argument">　　A dream is like building a castle
　　　　 that will become a city someday</property>
      <property name="geometry">0.00%/76.56%:100.00%x18.33%</property>
      <property name="family">微軟正黑體</property>
      <property name="size">165</property>
      <property name="weight">1200</property>
      <property name="style">bold</property>
      <property name="fgcolour">#ffffffff</property>
      <property name="bgcolour">#00000000</property>
      <property name="olcolour">#ff000000</property>
      <property name="pad">0</property>
      <property name="halign">left</property>
      <property name="valign">bottom</property>
      <property name="outline">0</property>
      <property name="mlt_service">dynamictext</property>
      <property name="shotcut:filter">dynamicText</property>
    </filter>
    <filter id="filter105" in="00:00:05.833" out="00:00:05.933">
      <property name="start">1</property>
      <property name="level">1</property>
      <property name="mlt_service">brightness</property>
      <property name="shotcut:filter">fadeOutBrightness</property>
      <property name="alpha">0=1; 6=0</property>
    </filter>
  </producer>
  <tractor id="tractor16" title="Anonymous Submission" global_feed="1" in="00:00:00.000" out="00:00:00.100">
    <property name="shotcut:transition">lumaMix</property>
    <track producer="producer85" in="00:00:03.717" out="00:00:03.817"/>
    <track producer="producer88" in="00:00:03.717" out="00:00:03.817"/>
    <transition id="transition32" out="00:00:00.100">
      <property name="a_track">0</property>
      <property name="b_track">1</property>
      <property name="factory">loader</property>
      <property name="mlt_service">luma</property>
    </transition>
    <transition id="transition33" out="00:00:00.100">
      <property name="a_track">0</property>
      <property name="b_track">1</property>
      <property name="mlt_service">mix</property>
      <property name="start">-1</property>
      <property name="accepts_blanks">1</property>
    </transition>
  </tractor>
  <producer id="producer89" title="Anonymous Submission" in="00:00:00.000" out="00:00:05.867">
    <property name="length">00:20:00.000</property>
    <property name="eof">pause</property>
    <property name="resource">C:\Users\mandy.DOM-PC\lmms\projects\NLHS 16th/Final Output/Transparent Background.png</property>
    <property name="ttl">1</property>
    <property name="aspect_ratio">1</property>
    <property name="progressive">1</property>
    <property name="seekable">1</property>
    <property name="loop">1</property>
    <property name="mlt_service">pixbuf</property>
    <property name="global_feed">1</property>
    <property name="xml">was here</property>
    <property name="shotcut:hash">f8d356a56b67d1c42b86a91a1ec9134f</property>
    <filter id="filter256">
      <property name="argument">　　We stand side by side
　　　　　　 </property>
      <property name="geometry">0.00%/76.56%:100.00%x18.33%</property>
      <property name="family">微軟正黑體</property>
      <property name="size">165</property>
      <property name="weight">1200</property>
      <property name="style">bold</property>
      <property name="fgcolour">#ffffffff</property>
      <property name="bgcolour">#00000000</property>
      <property name="olcolour">#ff000000</property>
      <property name="pad">0</property>
      <property name="halign">left</property>
      <property name="valign">bottom</property>
      <property name="outline">0</property>
      <property name="mlt_service">dynamictext</property>
      <property name="shotcut:filter">dynamicText</property>
    </filter>
    <filter id="filter257" in="00:00:04.100" out="00:00:04.200">
      <property name="start">1</property>
      <property name="level">1</property>
      <property name="mlt_service">brightness</property>
      <property name="shotcut:filter">fadeInBrightness</property>
      <property name="alpha">0=0; 6=1</property>
    </filter>
  </producer>
  <producer id="producer90" title="Anonymous Submission" in="00:00:00.000" out="00:00:05.867">
    <property name="length">00:20:00.000</property>
    <property name="eof">pause</property>
    <property name="resource">C:\Users\mandy.DOM-PC\lmms\projects\NLHS 16th/Final Output/Transparent Background.png</property>
    <property name="ttl">1</property>
    <property name="aspect_ratio">1</property>
    <property name="progressive">1</property>
    <property name="seekable">1</property>
    <property name="loop">1</property>
    <property name="mlt_service">pixbuf</property>
    <property name="global_feed">1</property>
    <property name="xml">was here</property>
    <property name="shotcut:hash">f8d356a56b67d1c42b86a91a1ec9134f</property>
    <filter id="filter106">
      <property name="argument">　　We stand side by side
　　　　　　 </property>
      <property name="geometry">0.00%/76.56%:100.00%x18.33%</property>
      <property name="family">微軟正黑體</property>
      <property name="size">165</property>
      <property name="weight">1200</property>
      <property name="style">bold</property>
      <property name="fgcolour">#ffffffff</property>
      <property name="bgcolour">#00000000</property>
      <property name="olcolour">#ff000000</property>
      <property name="pad">0</property>
      <property name="halign">left</property>
      <property name="valign">bottom</property>
      <property name="outline">0</property>
      <property name="mlt_service">dynamictext</property>
      <property name="shotcut:filter">dynamicText</property>
    </filter>
    <filter id="filter107" in="00:00:04.100" out="00:00:04.200">
      <property name="start">1</property>
      <property name="level">1</property>
      <property name="mlt_service">brightness</property>
      <property name="shotcut:filter">fadeInBrightness</property>
      <property name="alpha">0=0; 6=1</property>
    </filter>
  </producer>
  <producer id="producer91" title="Anonymous Submission" in="00:00:00.000" out="00:00:07.267">
    <property name="length">00:20:00.000</property>
    <property name="eof">pause</property>
    <property name="resource">C:\Users\mandy.DOM-PC\lmms\projects\NLHS 16th/Final Output/Transparent Background.png</property>
    <property name="ttl">1</property>
    <property name="aspect_ratio">1</property>
    <property name="progressive">1</property>
    <property name="seekable">1</property>
    <property name="loop">1</property>
    <property name="mlt_service">pixbuf</property>
    <property name="global_feed">1</property>
    <property name="xml">was here</property>
    <property name="shotcut:hash">f8d356a56b67d1c42b86a91a1ec9134f</property>
    <filter id="filter259">
      <property name="argument">　　We stand side by side
　　　　　　 And side by side</property>
      <property name="geometry">0.00%/76.56%:100.00%x18.33%</property>
      <property name="family">微軟正黑體</property>
      <property name="size">165</property>
      <property name="weight">1200</property>
      <property name="style">bold</property>
      <property name="fgcolour">#ffffffff</property>
      <property name="bgcolour">#00000000</property>
      <property name="olcolour">#ff000000</property>
      <property name="pad">0</property>
      <property name="halign">left</property>
      <property name="valign">bottom</property>
      <property name="outline">0</property>
      <property name="mlt_service">dynamictext</property>
      <property name="shotcut:filter">dynamicText</property>
    </filter>
    <filter id="filter260" in="00:00:07.167" out="00:00:07.267">
      <property name="start">1</property>
      <property name="level">1</property>
      <property name="mlt_service">brightness</property>
      <property name="shotcut:filter">fadeOutBrightness</property>
      <property name="alpha">0=1; 6=0</property>
    </filter>
  </producer>
  <tractor id="tractor17" title="Anonymous Submission" global_feed="1" in="00:00:00.000" out="00:00:00.100">
    <property name="shotcut:transition">lumaMix</property>
    <track producer="producer90" in="00:00:05.883" out="00:00:05.983"/>
    <track producer="producer91" in="00:00:05.883" out="00:00:05.983"/>
    <transition id="transition34" out="00:00:00.100">
      <property name="a_track">0</property>
      <property name="b_track">1</property>
      <property name="factory">loader</property>
      <property name="mlt_service">luma</property>
    </transition>
    <transition id="transition35" out="00:00:00.100">
      <property name="a_track">0</property>
      <property name="b_track">1</property>
      <property name="mlt_service">mix</property>
      <property name="start">-1</property>
      <property name="accepts_blanks">1</property>
    </transition>
  </tractor>
  <producer id="producer92" title="Anonymous Submission" in="00:00:00.000" out="00:00:07.267">
    <property name="length">00:20:00.000</property>
    <property name="eof">pause</property>
    <property name="resource">C:\Users\mandy.DOM-PC\lmms\projects\NLHS 16th/Final Output/Transparent Background.png</property>
    <property name="ttl">1</property>
    <property name="aspect_ratio">1</property>
    <property name="progressive">1</property>
    <property name="seekable">1</property>
    <property name="loop">1</property>
    <property name="mlt_service">pixbuf</property>
    <property name="global_feed">1</property>
    <property name="xml">was here</property>
    <property name="shotcut:hash">f8d356a56b67d1c42b86a91a1ec9134f</property>
    <filter id="filter108">
      <property name="argument">　　We stand side by side
　　　　　　 And side by side</property>
      <property name="geometry">0.00%/76.56%:100.00%x18.33%</property>
      <property name="family">微軟正黑體</property>
      <property name="size">165</property>
      <property name="weight">1200</property>
      <property name="style">bold</property>
      <property name="fgcolour">#ffffffff</property>
      <property name="bgcolour">#00000000</property>
      <property name="olcolour">#ff000000</property>
      <property name="pad">0</property>
      <property name="halign">left</property>
      <property name="valign">bottom</property>
      <property name="outline">0</property>
      <property name="mlt_service">dynamictext</property>
      <property name="shotcut:filter">dynamicText</property>
    </filter>
    <filter id="filter110" in="00:00:07.167" out="00:00:07.267">
      <property name="start">1</property>
      <property name="level">1</property>
      <property name="mlt_service">brightness</property>
      <property name="shotcut:filter">fadeOutBrightness</property>
      <property name="alpha">0=1; 6=0</property>
    </filter>
  </producer>
  <producer id="producer93" title="Anonymous Submission" in="00:00:00.000" out="00:00:03.850">
    <property name="length">00:20:00.000</property>
    <property name="eof">pause</property>
    <property name="resource">C:\Users\mandy.DOM-PC\lmms\projects\NLHS 16th/Final Output/Transparent Background.png</property>
    <property name="ttl">1</property>
    <property name="aspect_ratio">1</property>
    <property name="progressive">1</property>
    <property name="seekable">1</property>
    <property name="loop">1</property>
    <property name="mlt_service">pixbuf</property>
    <property name="global_feed">1</property>
    <property name="xml">was here</property>
    <property name="shotcut:hash">f8d356a56b67d1c42b86a91a1ec9134f</property>
    <filter id="filter264">
      <property name="argument">　　A dream is like building a castle
　　　　</property>
      <property name="geometry">0.00%/76.56%:100.00%x18.33%</property>
      <property name="family">微軟正黑體</property>
      <property name="size">165</property>
      <property name="weight">1200</property>
      <property name="style">bold</property>
      <property name="fgcolour">#ffffffff</property>
      <property name="bgcolour">#00000000</property>
      <property name="olcolour">#ff000000</property>
      <property name="pad">0</property>
      <property name="halign">left</property>
      <property name="valign">bottom</property>
      <property name="outline">0</property>
      <property name="mlt_service">dynamictext</property>
      <property name="shotcut:filter">dynamicText</property>
    </filter>
    <filter id="filter265" in="00:00:01.650" out="00:00:01.750">
      <property name="start">1</property>
      <property name="level">1</property>
      <property name="mlt_service">brightness</property>
      <property name="shotcut:filter">fadeInBrightness</property>
      <property name="alpha">0=0; 6=1</property>
    </filter>
  </producer>
  <producer id="producer94" title="Anonymous Submission" in="00:00:00.000" out="00:00:03.850">
    <property name="length">00:20:00.000</property>
    <property name="eof">pause</property>
    <property name="resource">C:\Users\mandy.DOM-PC\lmms\projects\NLHS 16th/Final Output/Transparent Background.png</property>
    <property name="ttl">1</property>
    <property name="aspect_ratio">1</property>
    <property name="progressive">1</property>
    <property name="seekable">1</property>
    <property name="loop">1</property>
    <property name="mlt_service">pixbuf</property>
    <property name="global_feed">1</property>
    <property name="xml">was here</property>
    <property name="shotcut:hash">f8d356a56b67d1c42b86a91a1ec9134f</property>
    <filter id="filter111">
      <property name="argument">　　A dream is like building a castle
　　　　</property>
      <property name="geometry">0.00%/76.56%:100.00%x18.33%</property>
      <property name="family">微軟正黑體</property>
      <property name="size">165</property>
      <property name="weight">1200</property>
      <property name="style">bold</property>
      <property name="fgcolour">#ffffffff</property>
      <property name="bgcolour">#00000000</property>
      <property name="olcolour">#ff000000</property>
      <property name="pad">0</property>
      <property name="halign">left</property>
      <property name="valign">bottom</property>
      <property name="outline">0</property>
      <property name="mlt_service">dynamictext</property>
      <property name="shotcut:filter">dynamicText</property>
    </filter>
    <filter id="filter113" in="00:00:01.650" out="00:00:01.750">
      <property name="start">1</property>
      <property name="level">1</property>
      <property name="mlt_service">brightness</property>
      <property name="shotcut:filter">fadeInBrightness</property>
      <property name="alpha">0=0; 6=1</property>
    </filter>
  </producer>
  <producer id="producer95" title="Anonymous Submission" in="00:00:00.000" out="00:00:05.850">
    <property name="length">00:20:00.000</property>
    <property name="eof">pause</property>
    <property name="resource">C:\Users\mandy.DOM-PC\lmms\projects\NLHS 16th/Final Output/Transparent Background.png</property>
    <property name="ttl">1</property>
    <property name="aspect_ratio">1</property>
    <property name="progressive">1</property>
    <property name="seekable">1</property>
    <property name="loop">1</property>
    <property name="mlt_service">pixbuf</property>
    <property name="global_feed">1</property>
    <property name="xml">was here</property>
    <property name="shotcut:hash">f8d356a56b67d1c42b86a91a1ec9134f</property>
    <filter id="filter267">
      <property name="argument">　　A dream is like building a castle
　　　　 that will become a city someday </property>
      <property name="geometry">0.00%/76.56%:100.00%x18.33%</property>
      <property name="family">微軟正黑體</property>
      <property name="size">165</property>
      <property name="weight">1200</property>
      <property name="style">bold</property>
      <property name="fgcolour">#ffffffff</property>
      <property name="bgcolour">#00000000</property>
      <property name="olcolour">#ff000000</property>
      <property name="pad">0</property>
      <property name="halign">left</property>
      <property name="valign">bottom</property>
      <property name="outline">0</property>
      <property name="mlt_service">dynamictext</property>
      <property name="shotcut:filter">dynamicText</property>
    </filter>
    <filter id="filter268" in="00:00:05.750" out="00:00:05.850">
      <property name="start">1</property>
      <property name="level">1</property>
      <property name="mlt_service">brightness</property>
      <property name="shotcut:filter">fadeOutBrightness</property>
      <property name="alpha">0=1; 6=0</property>
    </filter>
  </producer>
  <tractor id="tractor18" title="Anonymous Submission" global_feed="1" in="00:00:00.000" out="00:00:00.100">
    <property name="shotcut:transition">lumaMix</property>
    <track producer="producer94" in="00:00:03.867" out="00:00:03.967"/>
    <track producer="producer95" in="00:00:03.867" out="00:00:03.967"/>
    <transition id="transition36" out="00:00:00.100">
      <property name="a_track">0</property>
      <property name="b_track">1</property>
      <property name="factory">loader</property>
      <property name="mlt_service">luma</property>
    </transition>
    <transition id="transition37" out="00:00:00.100">
      <property name="a_track">0</property>
      <property name="b_track">1</property>
      <property name="mlt_service">mix</property>
      <property name="start">-1</property>
      <property name="accepts_blanks">1</property>
    </transition>
  </tractor>
  <producer id="producer96" title="Anonymous Submission" in="00:00:00.000" out="00:00:05.850">
    <property name="length">00:20:00.000</property>
    <property name="eof">pause</property>
    <property name="resource">C:\Users\mandy.DOM-PC\lmms\projects\NLHS 16th/Final Output/Transparent Background.png</property>
    <property name="ttl">1</property>
    <property name="aspect_ratio">1</property>
    <property name="progressive">1</property>
    <property name="seekable">1</property>
    <property name="loop">1</property>
    <property name="mlt_service">pixbuf</property>
    <property name="global_feed">1</property>
    <property name="xml">was here</property>
    <property name="shotcut:hash">f8d356a56b67d1c42b86a91a1ec9134f</property>
    <filter id="filter116">
      <property name="argument">　　A dream is like building a castle
　　　　 that will become a city someday </property>
      <property name="geometry">0.00%/76.56%:100.00%x18.33%</property>
      <property name="family">微軟正黑體</property>
      <property name="size">165</property>
      <property name="weight">1200</property>
      <property name="style">bold</property>
      <property name="fgcolour">#ffffffff</property>
      <property name="bgcolour">#00000000</property>
      <property name="olcolour">#ff000000</property>
      <property name="pad">0</property>
      <property name="halign">left</property>
      <property name="valign">bottom</property>
      <property name="outline">0</property>
      <property name="mlt_service">dynamictext</property>
      <property name="shotcut:filter">dynamicText</property>
    </filter>
    <filter id="filter119" in="00:00:05.750" out="00:00:05.850">
      <property name="start">1</property>
      <property name="level">1</property>
      <property name="mlt_service">brightness</property>
      <property name="shotcut:filter">fadeOutBrightness</property>
      <property name="alpha">0=1; 6=0</property>
    </filter>
  </producer>
  <producer id="producer97" title="Anonymous Submission" in="00:00:00.000" out="00:00:05.800">
    <property name="length">00:20:00.000</property>
    <property name="eof">pause</property>
    <property name="resource">C:\Users\mandy.DOM-PC\lmms\projects\NLHS 16th/Final Output/Transparent Background.png</property>
    <property name="ttl">1</property>
    <property name="aspect_ratio">1</property>
    <property name="progressive">1</property>
    <property name="seekable">1</property>
    <property name="loop">1</property>
    <property name="mlt_service">pixbuf</property>
    <property name="global_feed">1</property>
    <property name="xml">was here</property>
    <property name="shotcut:hash">f8d356a56b67d1c42b86a91a1ec9134f</property>
    <filter id="filter270">
      <property name="argument">　　We stand side by side
　　　　　　 </property>
      <property name="geometry">0.00%/76.56%:100.00%x18.33%</property>
      <property name="family">微軟正黑體</property>
      <property name="size">165</property>
      <property name="weight">1200</property>
      <property name="style">bold</property>
      <property name="fgcolour">#ffffffff</property>
      <property name="bgcolour">#00000000</property>
      <property name="olcolour">#ff000000</property>
      <property name="pad">0</property>
      <property name="halign">left</property>
      <property name="valign">bottom</property>
      <property name="outline">0</property>
      <property name="mlt_service">dynamictext</property>
      <property name="shotcut:filter">dynamicText</property>
    </filter>
    <filter id="filter271" in="00:00:03.950" out="00:00:04.050">
      <property name="start">1</property>
      <property name="level">1</property>
      <property name="mlt_service">brightness</property>
      <property name="shotcut:filter">fadeInBrightness</property>
      <property name="alpha">0=0; 6=1</property>
    </filter>
  </producer>
  <producer id="producer98" title="Anonymous Submission" in="00:00:00.000" out="00:00:05.800">
    <property name="length">00:20:00.000</property>
    <property name="eof">pause</property>
    <property name="resource">C:\Users\mandy.DOM-PC\lmms\projects\NLHS 16th/Final Output/Transparent Background.png</property>
    <property name="ttl">1</property>
    <property name="aspect_ratio">1</property>
    <property name="progressive">1</property>
    <property name="seekable">1</property>
    <property name="loop">1</property>
    <property name="mlt_service">pixbuf</property>
    <property name="global_feed">1</property>
    <property name="xml">was here</property>
    <property name="shotcut:hash">f8d356a56b67d1c42b86a91a1ec9134f</property>
    <filter id="filter122">
      <property name="argument">　　We stand side by side
　　　　　　 </property>
      <property name="geometry">0.00%/76.56%:100.00%x18.33%</property>
      <property name="family">微軟正黑體</property>
      <property name="size">165</property>
      <property name="weight">1200</property>
      <property name="style">bold</property>
      <property name="fgcolour">#ffffffff</property>
      <property name="bgcolour">#00000000</property>
      <property name="olcolour">#ff000000</property>
      <property name="pad">0</property>
      <property name="halign">left</property>
      <property name="valign">bottom</property>
      <property name="outline">0</property>
      <property name="mlt_service">dynamictext</property>
      <property name="shotcut:filter">dynamicText</property>
    </filter>
    <filter id="filter125" in="00:00:03.950" out="00:00:04.050">
      <property name="start">1</property>
      <property name="level">1</property>
      <property name="mlt_service">brightness</property>
      <property name="shotcut:filter">fadeInBrightness</property>
      <property name="alpha">0=0; 6=1</property>
    </filter>
  </producer>
  <producer id="producer99" title="Anonymous Submission" in="00:00:00.000" out="00:00:07.717">
    <property name="length">00:20:00.000</property>
    <property name="eof">pause</property>
    <property name="resource">C:\Users\mandy.DOM-PC\lmms\projects\NLHS 16th/Final Output/Transparent Background.png</property>
    <property name="ttl">1</property>
    <property name="aspect_ratio">1</property>
    <property name="progressive">1</property>
    <property name="seekable">1</property>
    <property name="loop">1</property>
    <property name="mlt_service">pixbuf</property>
    <property name="global_feed">1</property>
    <property name="xml">was here</property>
    <property name="shotcut:hash">f8d356a56b67d1c42b86a91a1ec9134f</property>
    <filter id="filter273">
      <property name="argument">　　We stand side by side
　　　　　　 And side by side</property>
      <property name="geometry">0.00%/76.56%:100.00%x18.33%</property>
      <property name="family">微軟正黑體</property>
      <property name="size">165</property>
      <property name="weight">1200</property>
      <property name="style">bold</property>
      <property name="fgcolour">#ffffffff</property>
      <property name="bgcolour">#00000000</property>
      <property name="olcolour">#ff000000</property>
      <property name="pad">0</property>
      <property name="halign">left</property>
      <property name="valign">bottom</property>
      <property name="outline">0</property>
      <property name="mlt_service">dynamictext</property>
      <property name="shotcut:filter">dynamicText</property>
    </filter>
    <filter id="filter274" in="00:00:07.617" out="00:00:07.717">
      <property name="start">1</property>
      <property name="level">1</property>
      <property name="mlt_service">brightness</property>
      <property name="shotcut:filter">fadeOutBrightness</property>
      <property name="alpha">0=1; 6=0</property>
    </filter>
  </producer>
  <tractor id="tractor19" title="Anonymous Submission" global_feed="1" in="00:00:00.000" out="00:00:00.100">
    <property name="shotcut:transition">lumaMix</property>
    <track producer="producer98" in="00:00:05.817" out="00:00:05.917"/>
    <track producer="producer99" in="00:00:05.817" out="00:00:05.917"/>
    <transition id="transition38" out="00:00:00.100">
      <property name="a_track">0</property>
      <property name="b_track">1</property>
      <property name="factory">loader</property>
      <property name="mlt_service">luma</property>
    </transition>
    <transition id="transition39" out="00:00:00.100">
      <property name="a_track">0</property>
      <property name="b_track">1</property>
      <property name="mlt_service">mix</property>
      <property name="start">-1</property>
      <property name="accepts_blanks">1</property>
    </transition>
  </tractor>
  <producer id="producer100" title="Anonymous Submission" in="00:00:00.000" out="00:00:07.717">
    <property name="length">00:20:00.000</property>
    <property name="eof">pause</property>
    <property name="resource">C:\Users\mandy.DOM-PC\lmms\projects\NLHS 16th/Final Output/Transparent Background.png</property>
    <property name="ttl">1</property>
    <property name="aspect_ratio">1</property>
    <property name="progressive">1</property>
    <property name="seekable">1</property>
    <property name="loop">1</property>
    <property name="mlt_service">pixbuf</property>
    <property name="global_feed">1</property>
    <property name="xml">was here</property>
    <property name="shotcut:hash">f8d356a56b67d1c42b86a91a1ec9134f</property>
    <filter id="filter126">
      <property name="argument">　　We stand side by side
　　　　　　 And side by side</property>
      <property name="geometry">0.00%/76.56%:100.00%x18.33%</property>
      <property name="family">微軟正黑體</property>
      <property name="size">165</property>
      <property name="weight">1200</property>
      <property name="style">bold</property>
      <property name="fgcolour">#ffffffff</property>
      <property name="bgcolour">#00000000</property>
      <property name="olcolour">#ff000000</property>
      <property name="pad">0</property>
      <property name="halign">left</property>
      <property name="valign">bottom</property>
      <property name="outline">0</property>
      <property name="mlt_service">dynamictext</property>
      <property name="shotcut:filter">dynamicText</property>
    </filter>
    <filter id="filter127" in="00:00:07.617" out="00:00:07.717">
      <property name="start">1</property>
      <property name="level">1</property>
      <property name="mlt_service">brightness</property>
      <property name="shotcut:filter">fadeOutBrightness</property>
      <property name="alpha">0=1; 6=0</property>
    </filter>
  </producer>
  <producer id="producer101" title="Anonymous Submission" in="00:00:00.000" out="00:00:05.583">
    <property name="length">00:20:00.000</property>
    <property name="eof">pause</property>
    <property name="resource">C:\Users\mandy.DOM-PC\lmms\projects\NLHS 16th/Final Output/Transparent Background.png</property>
    <property name="ttl">1</property>
    <property name="aspect_ratio">1</property>
    <property name="progressive">1</property>
    <property name="seekable">1</property>
    <property name="loop">1</property>
    <property name="mlt_service">pixbuf</property>
    <property name="global_feed">1</property>
    <property name="xml">was here</property>
    <property name="shotcut:hash">f8d356a56b67d1c42b86a91a1ec9134f</property>
    <filter id="filter278">
      <property name="argument">回過頭一看 　　　　　</property>
      <property name="geometry">0.19%/87.44%:99.50%x9.22%</property>
      <property name="family">微軟正黑體</property>
      <property name="size">83</property>
      <property name="weight">1200</property>
      <property name="style">bold</property>
      <property name="fgcolour">#ffffffff</property>
      <property name="bgcolour">#00000000</property>
      <property name="olcolour">#ff000000</property>
      <property name="pad">0</property>
      <property name="halign">center</property>
      <property name="valign">bottom</property>
      <property name="outline">0</property>
      <property name="mlt_service">dynamictext</property>
      <property name="shotcut:filter">dynamicText</property>
    </filter>
    <filter id="filter279" in="00:00:01.900" out="00:00:02.000">
      <property name="start">1</property>
      <property name="level">1</property>
      <property name="mlt_service">brightness</property>
      <property name="shotcut:filter">fadeInBrightness</property>
      <property name="alpha">0=0; 6=1</property>
    </filter>
  </producer>
  <producer id="producer102" title="Anonymous Submission" in="00:00:00.000" out="00:00:08.750">
    <property name="length">00:20:00.000</property>
    <property name="eof">pause</property>
    <property name="resource">C:\Users\mandy.DOM-PC\lmms\projects\NLHS 16th/Final Output/Transparent Background.png</property>
    <property name="ttl">1</property>
    <property name="aspect_ratio">1</property>
    <property name="progressive">1</property>
    <property name="seekable">1</property>
    <property name="loop">1</property>
    <property name="mlt_service">pixbuf</property>
    <property name="global_feed">1</property>
    <property name="xml">was here</property>
    <property name="shotcut:hash">f8d356a56b67d1c42b86a91a1ec9134f</property>
    <filter id="filter281">
      <property name="argument">回過頭一看 我並不孤單</property>
      <property name="geometry">0.19%/87.44%:99.50%x9.22%</property>
      <property name="family">微軟正黑體</property>
      <property name="size">83</property>
      <property name="weight">1200</property>
      <property name="style">bold</property>
      <property name="fgcolour">#ffffffff</property>
      <property name="bgcolour">#00000000</property>
      <property name="olcolour">#ff000000</property>
      <property name="pad">0</property>
      <property name="halign">center</property>
      <property name="valign">bottom</property>
      <property name="outline">0</property>
      <property name="mlt_service">dynamictext</property>
      <property name="shotcut:filter">dynamicText</property>
    </filter>
    <filter id="filter282" in="00:00:08.650" out="00:00:08.750">
      <property name="start">1</property>
      <property name="level">1</property>
      <property name="mlt_service">brightness</property>
      <property name="shotcut:filter">fadeOutBrightness</property>
      <property name="alpha">0=1; 6=0</property>
    </filter>
  </producer>
  <tractor id="tractor20" title="Anonymous Submission" global_feed="1" in="00:00:00.000" out="00:00:00.100">
    <property name="shotcut:transition">lumaMix</property>
    <track producer="producer101" in="00:00:05.600" out="00:00:05.700"/>
    <track producer="producer102" in="00:00:05.500" out="00:00:05.600"/>
    <transition id="transition40" out="00:00:00.100">
      <property name="a_track">0</property>
      <property name="b_track">1</property>
      <property name="factory">loader</property>
      <property name="mlt_service">luma</property>
    </transition>
    <transition id="transition41" out="00:00:00.100">
      <property name="a_track">0</property>
      <property name="b_track">1</property>
      <property name="mlt_service">mix</property>
      <property name="start">-1</property>
      <property name="accepts_blanks">1</property>
    </transition>
  </tractor>
  <producer id="producer103" title="Anonymous Submission" in="00:00:00.000" out="00:00:05.683">
    <property name="length">00:20:00.000</property>
    <property name="eof">pause</property>
    <property name="resource">C:\Users\mandy.DOM-PC\lmms\projects\NLHS 16th/Final Output/Transparent Background.png</property>
    <property name="ttl">1</property>
    <property name="aspect_ratio">1</property>
    <property name="progressive">1</property>
    <property name="seekable">1</property>
    <property name="loop">1</property>
    <property name="mlt_service">pixbuf</property>
    <property name="global_feed">1</property>
    <property name="xml">was here</property>
    <property name="shotcut:hash">f8d356a56b67d1c42b86a91a1ec9134f</property>
    <filter id="filter284">
      <property name="argument">我們一齊前進 　　　　　　</property>
      <property name="geometry">0.19%/87.44%:99.50%x9.22%</property>
      <property name="family">微軟正黑體</property>
      <property name="size">83</property>
      <property name="weight">1200</property>
      <property name="style">bold</property>
      <property name="fgcolour">#ffffffff</property>
      <property name="bgcolour">#00000000</property>
      <property name="olcolour">#ff000000</property>
      <property name="pad">0</property>
      <property name="halign">center</property>
      <property name="valign">bottom</property>
      <property name="outline">0</property>
      <property name="mlt_service">dynamictext</property>
      <property name="shotcut:filter">dynamicText</property>
    </filter>
    <filter id="filter285" in="00:00:01.783" out="00:00:01.883">
      <property name="start">1</property>
      <property name="level">1</property>
      <property name="mlt_service">brightness</property>
      <property name="shotcut:filter">fadeInBrightness</property>
      <property name="alpha">0=0; 6=1</property>
    </filter>
  </producer>
  <producer id="producer104" title="Anonymous Submission" in="00:00:00.000" out="00:00:11.933">
    <property name="length">00:20:00.000</property>
    <property name="eof">pause</property>
    <property name="resource">C:\Users\mandy.DOM-PC\lmms\projects\NLHS 16th/Final Output/Transparent Background.png</property>
    <property name="ttl">1</property>
    <property name="aspect_ratio">1</property>
    <property name="progressive">1</property>
    <property name="seekable">1</property>
    <property name="loop">1</property>
    <property name="mlt_service">pixbuf</property>
    <property name="global_feed">1</property>
    <property name="xml">was here</property>
    <property name="shotcut:hash">f8d356a56b67d1c42b86a91a1ec9134f</property>
    <filter id="filter287">
      <property name="argument">我們一齊前進 創造無限回憶</property>
      <property name="geometry">0.19%/87.44%:99.50%x9.22%</property>
      <property name="family">微軟正黑體</property>
      <property name="size">83</property>
      <property name="weight">1200</property>
      <property name="style">bold</property>
      <property name="fgcolour">#ffffffff</property>
      <property name="bgcolour">#00000000</property>
      <property name="olcolour">#ff000000</property>
      <property name="pad">0</property>
      <property name="halign">center</property>
      <property name="valign">bottom</property>
      <property name="outline">0</property>
      <property name="mlt_service">dynamictext</property>
      <property name="shotcut:filter">dynamicText</property>
    </filter>
    <filter id="filter288" in="00:00:11.833" out="00:00:11.933">
      <property name="start">1</property>
      <property name="level">1</property>
      <property name="mlt_service">brightness</property>
      <property name="shotcut:filter">fadeOutBrightness</property>
      <property name="alpha">0=1; 6=0</property>
    </filter>
  </producer>
  <tractor id="tractor21" title="Anonymous Submission" global_feed="1" in="00:00:00.000" out="00:00:00.100">
    <property name="shotcut:transition">lumaMix</property>
    <track producer="producer103" in="00:00:05.700" out="00:00:05.800"/>
    <track producer="producer104" in="00:00:05.700" out="00:00:05.800"/>
    <transition id="transition42" out="00:00:00.100">
      <property name="a_track">0</property>
      <property name="b_track">1</property>
      <property name="factory">loader</property>
      <property name="mlt_service">luma</property>
    </transition>
    <transition id="transition43" out="00:00:00.100">
      <property name="a_track">0</property>
      <property name="b_track">1</property>
      <property name="mlt_service">mix</property>
      <property name="start">-1</property>
      <property name="accepts_blanks">1</property>
    </transition>
  </tractor>
  <playlist id="playlist3">
    <property name="shotcut:video">1</property>
    <property name="shotcut:name">V2</property>
    <blank length="00:00:01.850"/>
    <entry producer="producer12" in="00:00:01.917" out="00:00:05.650"/>
    <entry producer="producer13" in="00:00:01.867" out="00:00:05.600"/>
    <entry producer="producer14" in="00:00:01.817" out="00:00:05.567"/>
    <entry producer="producer5" in="00:00:01.867" out="00:00:05.600"/>
    <blank length="00:00:14.983"/>
    <entry producer="producer15" in="00:00:01.917" out="00:00:05.617"/>
    <blank length="00:00:00.033"/>
    <entry producer="producer16" in="00:00:01.917" out="00:00:05.633"/>
    <blank length="00:00:00.033"/>
    <entry producer="producer17" in="00:00:01.917" out="00:00:05.633"/>
    <blank length="00:00:00.033"/>
    <entry producer="producer18" in="00:00:01.917" out="00:00:05.617"/>
    <blank length="00:00:00.033"/>
    <entry producer="producer19" in="00:00:01.867" out="00:00:05.433"/>
    <blank length="00:00:00.067"/>
    <entry producer="producer20" in="00:00:02.067" out="00:00:05.467"/>
    <blank length="00:00:00.167"/>
    <entry producer="producer21" in="00:00:01.917" out="00:00:05.617"/>
    <blank length="00:00:00.183"/>
    <entry producer="producer22" in="00:00:01.900" out="00:00:05.500"/>
    <blank length="00:00:00.183"/>
    <entry producer="producer23" in="00:00:01.900" out="00:00:05.250"/>
    <entry producer="tractor0" in="00:00:00.000" out="00:00:00.100"/>
    <entry producer="producer7" in="00:00:01.733" out="00:00:05.500"/>
    <blank length="00:00:00.283"/>
    <entry producer="producer25" in="00:00:02.050" out="00:00:05.367"/>
    <entry producer="tractor1" in="00:00:00.000" out="00:00:00.100"/>
    <entry producer="producer9" in="00:00:01.850" out="00:00:03.933"/>
    <entry producer="tractor2" in="00:00:00.000" out="00:00:00.100"/>
    <entry producer="producer11" in="00:00:01.617" out="00:00:03.367"/>
    <blank length="00:00:00.050"/>
    <entry producer="producer28" in="00:00:01.733" out="00:00:05.450"/>
    <entry producer="tractor3" in="00:00:00.000" out="00:00:00.100"/>
    <entry producer="producer29" in="00:00:02.083" out="00:00:05.583"/>
    <blank length="00:00:00.133"/>
    <entry producer="producer30" in="00:00:01.800" out="00:00:05.100"/>
    <entry producer="tractor4" in="00:00:00.000" out="00:00:00.100"/>
    <entry producer="producer33" in="00:00:01.617" out="00:00:03.067"/>
    <entry producer="tractor5" in="00:00:00.000" out="00:00:00.100"/>
    <entry producer="producer36" in="00:00:01.733" out="00:00:03.967"/>
    <entry producer="producer37" in="00:00:01.850" out="00:00:03.733"/>
    <entry producer="tractor6" in="00:00:00.000" out="00:00:00.100"/>
    <entry producer="producer40" in="00:00:03.867" out="00:00:05.783"/>
    <entry producer="producer41" in="00:00:03.967" out="00:00:05.900"/>
    <entry producer="tractor7" in="00:00:00.000" out="00:00:00.100"/>
    <entry producer="producer44" in="00:00:05.983" out="00:00:07.267"/>
    <entry producer="producer45" in="00:00:01.800" out="00:00:03.983"/>
    <entry producer="tractor8" in="00:00:00.000" out="00:00:00.100"/>
    <entry producer="producer48" in="00:00:04.117" out="00:00:05.933"/>
    <blank length="00:00:00.017"/>
    <entry producer="producer49" in="00:00:04.050" out="00:00:05.933"/>
    <entry producer="tractor9" in="00:00:00.000" out="00:00:00.100"/>
    <entry producer="producer52" in="00:00:06.067" out="00:00:07.717"/>
    <blank length="00:00:30.033"/>
    <entry producer="producer53" in="00:00:01.917" out="00:00:05.617"/>
    <blank length="00:00:00.033"/>
    <entry producer="producer54" in="00:00:01.917" out="00:00:05.633"/>
    <blank length="00:00:00.033"/>
    <entry producer="producer55" in="00:00:01.917" out="00:00:05.633"/>
    <blank length="00:00:00.017"/>
    <entry producer="producer56" in="00:00:01.917" out="00:00:05.600"/>
    <blank length="00:00:00.017"/>
    <entry producer="producer57" in="00:00:01.917" out="00:00:05.667"/>
    <entry producer="producer58" in="00:00:01.917" out="00:00:05.650"/>
    <entry producer="producer59" in="00:00:01.917" out="00:00:05.650"/>
    <entry producer="producer60" in="00:00:01.900" out="00:00:05.583"/>
    <blank length="00:00:00.017"/>
    <entry producer="producer61" in="00:00:01.900" out="00:00:05.633"/>
    <blank length="00:00:00.017"/>
    <entry producer="producer62" in="00:00:01.900" out="00:00:05.650"/>
    <blank length="00:00:00.017"/>
    <entry producer="producer63" in="00:00:01.900" out="00:00:05.133"/>
    <blank length="00:00:00.017"/>
    <entry producer="producer64" in="00:00:01.900" out="00:00:06.117"/>
    <entry producer="producer65" in="00:00:01.900" out="00:00:05.233"/>
    <entry producer="tractor10" in="00:00:00.000" out="00:00:00.100"/>
    <entry producer="producer68" in="00:00:01.717" out="00:00:05.700"/>
    <blank length="00:00:00.033"/>
    <entry producer="producer69" in="00:00:02.067" out="00:00:05.367"/>
    <entry producer="tractor11" in="00:00:00.000" out="00:00:00.100"/>
    <entry producer="producer72" in="00:00:01.850" out="00:00:03.983"/>
    <entry producer="tractor12" in="00:00:00.000" out="00:00:00.100"/>
    <entry producer="producer75" in="00:00:01.617" out="00:00:03.417"/>
    <blank length="00:00:00.017"/>
    <entry producer="producer76" in="00:00:01.700" out="00:00:04.967"/>
    <entry producer="tractor13" in="00:00:00.000" out="00:00:00.100"/>
    <entry producer="producer77" in="00:00:01.600" out="00:00:05.683"/>
    <entry producer="producer78" in="00:00:01.767" out="00:00:05.050"/>
    <entry producer="tractor14" in="00:00:00.000" out="00:00:00.100"/>
    <entry producer="producer81" in="00:00:01.567" out="00:00:03.033"/>
    <entry producer="tractor15" in="00:00:00.000" out="00:00:00.100"/>
    <entry producer="producer84" in="00:00:01.700" out="00:00:03.750"/>
    <entry producer="producer85" in="00:00:01.633" out="00:00:03.700"/>
    <entry producer="tractor16" in="00:00:00.000" out="00:00:00.100"/>
    <entry producer="producer88" in="00:00:03.833" out="00:00:05.933"/>
    <entry producer="producer89" in="00:00:04.100" out="00:00:05.867"/>
    <entry producer="tractor17" in="00:00:00.000" out="00:00:00.100"/>
    <entry producer="producer92" in="00:00:06.000" out="00:00:07.267"/>
    <blank length="00:00:00.017"/>
    <entry producer="producer93" in="00:00:01.650" out="00:00:03.850"/>
    <entry producer="tractor18" in="00:00:00.000" out="00:00:00.100"/>
    <entry producer="producer96" in="00:00:03.983" out="00:00:05.850"/>
    <blank length="00:00:00.017"/>
    <entry producer="producer97" in="00:00:03.967" out="00:00:05.800"/>
    <entry producer="tractor19" in="00:00:00.000" out="00:00:00.100"/>
    <entry producer="producer100" in="00:00:05.933" out="00:00:07.717"/>
    <blank length="00:00:29.933"/>
    <entry producer="producer101" in="00:00:01.900" out="00:00:05.583"/>
    <entry producer="tractor20" in="00:00:00.000" out="00:00:00.100"/>
    <entry producer="producer102" in="00:00:05.617" out="00:00:08.750"/>
    <entry producer="producer103" in="00:00:01.783" out="00:00:05.683"/>
    <entry producer="tractor21" in="00:00:00.000" out="00:00:00.100"/>
    <entry producer="producer104" in="00:00:05.817" out="00:00:11.933"/>
  </playlist>
  <tractor id="tractor22" title="Shotcut version 17.05.03" global_feed="1" in="00:00:00.000" out="00:04:39.367">
    <property name="shotcut">1</property>
    <property name="shotcut:scaleFactor">2.25097</property>
    <track producer="background"/>
    <track producer="playlist0" hide="audio"/>
    <track producer="playlist2" hide="video"/>
    <track producer="playlist3" hide="audio"/>
    <transition id="transition44">
      <property name="a_track">0</property>
      <property name="b_track">1</property>
      <property name="mlt_service">mix</property>
      <property name="always_active">1</property>
      <property name="sum">1</property>
    </transition>
    <transition id="transition45">
      <property name="a_track">0</property>
      <property name="b_track">1</property>
      <property name="version">0.9</property>
      <property name="mlt_service">frei0r.cairoblend</property>
      <property name="disable">1</property>
      <property name="1">normal</property>
    </transition>
    <transition id="transition46">
      <property name="a_track">0</property>
      <property name="b_track">2</property>
      <property name="mlt_service">mix</property>
      <property name="always_active">1</property>
      <property name="sum">1</property>
    </transition>
    <transition id="transition47">
      <property name="a_track">0</property>
      <property name="b_track">3</property>
      <property name="mlt_service">mix</property>
      <property name="always_active">1</property>
      <property name="sum">1</property>
    </transition>
    <transition id="transition48">
      <property name="a_track">1</property>
      <property name="b_track">3</property>
      <property name="version">0.9</property>
      <property name="mlt_service">frei0r.cairoblend</property>
      <property name="disable">0</property>
      <property name="1">normal</property>
    </transition>
  </tractor>
</mlt>
