<?xml version="1.0"?>
<!DOCTYPE lmms-project>
<lmms-project creator="LMMS" creatorversion="1.2.0-rc2" version="1.0" type="song">
  <head mastervol="100" masterpitch="0" timesig_denominator="4" timesig_numerator="4">
    <bpm id="5493374" value="128" scale_type="linear"/>
  </head>
  <song>
    <trackcontainer maximized="0" x="12" height="714" y="4" minimized="0" width="1450" type="song" visible="1">
      <track name="TOUHOU INSTRUMENT + DRUM KIT" solo="0" muted="0" type="0">
        <instrumenttrack vol="100" usemasterpitch="1" pitch="0" pitchrange="1" pan="0" basenote="57" fxch="0">
          <instrument name="sf2player">
            <sf2player reverbOn="0" reverbDamping="0" chorusSpeed="0.3" chorusDepth="8" bank="128" chorusNum="3" src="D:/mandy/Documents/Rest Programs/midi/TOUHOU INSTRUMENT + DRUM KIT.sf2" reverbRoomSize="0.2" reverbWidth="0.5" chorusLevel="2" patch="8" gain="1" chorusOn="0" reverbLevel="0.9"/>
          </instrument>
          <eldata fres="0.5" ftype="0" fwet="0" fcut="14000">
            <elvol latt="0" userwavefile="" syncmode="0" x100="0" pdel="0" lamt="0" ctlenvamt="0" lshp="0" lspd="0.1" att="0" hold="0.5" amt="0" lpdel="0" rel="0.1" sustain="0.5" dec="0.5" lspd_numerator="4" lspd_denominator="4"/>
            <elcut latt="0" userwavefile="" syncmode="0" x100="0" pdel="0" lamt="0" ctlenvamt="0" lshp="0" lspd="0.1" att="0" hold="0.5" amt="0" lpdel="0" rel="0.1" sustain="0.5" dec="0.5" lspd_numerator="4" lspd_denominator="4"/>
            <elres latt="0" userwavefile="" syncmode="0" x100="0" pdel="0" lamt="0" ctlenvamt="0" lshp="0" lspd="0.1" att="0" hold="0.5" amt="0" lpdel="0" rel="0.1" sustain="0.5" dec="0.5" lspd_numerator="4" lspd_denominator="4"/>
          </eldata>
          <chordcreator chord="0" chord-enabled="0" chordrange="1"/>
          <arpeggiator arpgate="100" syncmode="0" arpcycle="0" arptime_denominator="4" arptime="100" arptime_numerator="4" arpmiss="0" arpmode="0" arprange="1" arpdir="0" arpskip="0" arp-enabled="0" arp="0"/>
          <midiport outputcontroller="0" outputprogram="1" inputcontroller="0" fixedoutputvelocity="-1" writable="1" basevelocity="63" readable="0" inputchannel="0" outputchannel="10" fixedoutputnote="-1" outports="" fixedinputvelocity="-1"/>
          <fxchain enabled="0" numofeffects="0"/>
        </instrumenttrack>
        <pattern name="FPC_Kick_Gretc_001.wav" muted="0" steps="16" pos="1728" type="0">
          <note vol="157" len="-192" key="1" pos="0" pan="0"/>
          <note vol="157" len="-192" key="1" pos="72" pan="0"/>
          <note vol="157" len="-192" key="32" pos="96" pan="0"/>
          <note vol="157" len="-192" key="32" pos="120" pan="0"/>
          <note vol="157" len="-192" key="1" pos="192" pan="0"/>
          <note vol="157" len="-192" key="1" pos="240" pan="0"/>
          <note vol="157" len="-192" key="32" pos="312" pan="0"/>
          <note vol="157" len="-192" key="34" pos="336" pan="0"/>
          <note vol="157" len="-192" key="1" pos="384" pan="0"/>
          <note vol="157" len="-192" key="1" pos="456" pan="0"/>
          <note vol="157" len="-192" key="32" pos="480" pan="0"/>
          <note vol="157" len="-192" key="32" pos="504" pan="0"/>
          <note vol="157" len="-192" key="1" pos="576" pan="0"/>
          <note vol="157" len="-192" key="1" pos="624" pan="0"/>
          <note vol="157" len="-192" key="32" pos="696" pan="0"/>
          <note vol="157" len="-192" key="1" pos="696" pan="0"/>
          <note vol="157" len="-192" key="32" pos="720" pan="0"/>
          <note vol="157" len="-192" key="34" pos="744" pan="0"/>
          <note vol="157" len="-192" key="1" pos="768" pan="0"/>
          <note vol="157" len="-192" key="1" pos="840" pan="0"/>
          <note vol="157" len="-192" key="32" pos="864" pan="0"/>
          <note vol="157" len="-192" key="32" pos="888" pan="0"/>
          <note vol="157" len="-192" key="1" pos="960" pan="0"/>
          <note vol="157" len="-192" key="1" pos="1008" pan="0"/>
          <note vol="157" len="-192" key="32" pos="1056" pan="0"/>
          <note vol="157" len="-192" key="34" pos="1080" pan="0"/>
          <note vol="157" len="-192" key="1" pos="1152" pan="0"/>
          <note vol="157" len="-192" key="1" pos="1224" pan="0"/>
          <note vol="157" len="-192" key="32" pos="1248" pan="0"/>
          <note vol="157" len="-192" key="32" pos="1272" pan="0"/>
          <note vol="157" len="-192" key="1" pos="1344" pan="0"/>
          <note vol="157" len="-192" key="1" pos="1392" pan="0"/>
          <note vol="157" len="-192" key="32" pos="1440" pan="0"/>
          <note vol="157" len="-192" key="1" pos="1464" pan="0"/>
          <note vol="157" len="-192" key="32" pos="1464" pan="0"/>
          <note vol="157" len="-192" key="34" pos="1488" pan="0"/>
        </pattern>
        <pattern name="TOUHOU INSTRUMENT + DRUM KIT" muted="0" steps="16" pos="3264" type="0">
          <note vol="157" len="-192" key="1" pos="0" pan="0"/>
          <note vol="157" len="-192" key="32" pos="24" pan="0"/>
          <note vol="157" len="-192" key="1" pos="48" pan="0"/>
          <note vol="157" len="-192" key="32" pos="72" pan="0"/>
          <note vol="157" len="-192" key="1" pos="96" pan="0"/>
          <note vol="157" len="-192" key="32" pos="120" pan="0"/>
          <note vol="157" len="-192" key="1" pos="144" pan="0"/>
          <note vol="157" len="-192" key="32" pos="168" pan="0"/>
          <note vol="157" len="-192" key="1" pos="192" pan="0"/>
          <note vol="157" len="-192" key="32" pos="216" pan="0"/>
          <note vol="157" len="-192" key="1" pos="240" pan="0"/>
          <note vol="157" len="-192" key="32" pos="264" pan="0"/>
          <note vol="157" len="-192" key="1" pos="288" pan="0"/>
          <note vol="157" len="-192" key="32" pos="312" pan="0"/>
          <note vol="157" len="-192" key="1" pos="336" pan="0"/>
          <note vol="157" len="-192" key="32" pos="360" pan="0"/>
          <note vol="157" len="-192" key="1" pos="384" pan="0"/>
          <note vol="157" len="-192" key="32" pos="408" pan="0"/>
          <note vol="157" len="-192" key="1" pos="432" pan="0"/>
          <note vol="157" len="-192" key="32" pos="456" pan="0"/>
          <note vol="157" len="-192" key="1" pos="480" pan="0"/>
          <note vol="157" len="-192" key="32" pos="504" pan="0"/>
          <note vol="157" len="-192" key="1" pos="528" pan="0"/>
          <note vol="157" len="-192" key="32" pos="552" pan="0"/>
          <note vol="157" len="-192" key="1" pos="576" pan="0"/>
          <note vol="157" len="-192" key="32" pos="600" pan="0"/>
          <note vol="157" len="-192" key="1" pos="624" pan="0"/>
          <note vol="157" len="-192" key="32" pos="648" pan="0"/>
          <note vol="157" len="-192" key="1" pos="672" pan="0"/>
          <note vol="157" len="-192" key="32" pos="696" pan="0"/>
          <note vol="157" len="-192" key="34" pos="696" pan="0"/>
          <note vol="157" len="-192" key="1" pos="720" pan="0"/>
          <note vol="157" len="-192" key="32" pos="744" pan="0"/>
          <note vol="157" len="-192" key="1" pos="768" pan="0"/>
          <note vol="157" len="-192" key="32" pos="792" pan="0"/>
          <note vol="157" len="-192" key="1" pos="816" pan="0"/>
          <note vol="157" len="-192" key="32" pos="840" pan="0"/>
          <note vol="157" len="-192" key="1" pos="864" pan="0"/>
          <note vol="157" len="-192" key="32" pos="888" pan="0"/>
          <note vol="157" len="-192" key="1" pos="912" pan="0"/>
          <note vol="157" len="-192" key="32" pos="936" pan="0"/>
          <note vol="157" len="-192" key="1" pos="960" pan="0"/>
          <note vol="157" len="-192" key="32" pos="984" pan="0"/>
          <note vol="157" len="-192" key="1" pos="1008" pan="0"/>
          <note vol="157" len="-192" key="32" pos="1032" pan="0"/>
          <note vol="157" len="-192" key="1" pos="1056" pan="0"/>
          <note vol="157" len="-192" key="32" pos="1080" pan="0"/>
          <note vol="157" len="-192" key="1" pos="1104" pan="0"/>
          <note vol="157" len="-192" key="32" pos="1128" pan="0"/>
          <note vol="157" len="-192" key="1" pos="1152" pan="0"/>
          <note vol="157" len="-192" key="32" pos="1176" pan="0"/>
          <note vol="157" len="-192" key="1" pos="1200" pan="0"/>
          <note vol="157" len="-192" key="32" pos="1224" pan="0"/>
          <note vol="157" len="-192" key="1" pos="1248" pan="0"/>
          <note vol="157" len="-192" key="32" pos="1272" pan="0"/>
          <note vol="157" len="-192" key="1" pos="1296" pan="0"/>
          <note vol="157" len="-192" key="32" pos="1320" pan="0"/>
          <note vol="157" len="-192" key="1" pos="1344" pan="0"/>
          <note vol="157" len="-192" key="32" pos="1368" pan="0"/>
          <note vol="157" len="-192" key="1" pos="1392" pan="0"/>
          <note vol="157" len="-192" key="32" pos="1416" pan="0"/>
          <note vol="157" len="-192" key="1" pos="1440" pan="0"/>
          <note vol="127" len="-192" key="26" pos="1452" pan="0"/>
          <note vol="157" len="-192" key="34" pos="1464" pan="0"/>
          <note vol="157" len="-192" key="32" pos="1464" pan="0"/>
          <note vol="157" len="-192" key="1" pos="1488" pan="0"/>
          <note vol="127" len="-192" key="26" pos="1500" pan="0"/>
          <note vol="157" len="-192" key="32" pos="1512" pan="0"/>
          <note vol="127" len="-192" key="26" pos="1512" pan="0"/>
        </pattern>
        <pattern name="TOUHOU INSTRUMENT + DRUM KIT" muted="0" steps="16" pos="4800" type="0">
          <note vol="157" len="-192" key="1" pos="0" pan="0"/>
          <note vol="157" len="-192" key="32" pos="24" pan="0"/>
          <note vol="157" len="-192" key="26" pos="48" pan="0"/>
          <note vol="157" len="-192" key="1" pos="48" pan="0"/>
          <note vol="157" len="-192" key="32" pos="72" pan="0"/>
          <note vol="157" len="-192" key="1" pos="96" pan="0"/>
          <note vol="157" len="-192" key="32" pos="120" pan="0"/>
          <note vol="157" len="-192" key="1" pos="144" pan="0"/>
          <note vol="157" len="-192" key="26" pos="144" pan="0"/>
          <note vol="157" len="-192" key="32" pos="168" pan="0"/>
          <note vol="157" len="-192" key="1" pos="192" pan="0"/>
          <note vol="157" len="-192" key="32" pos="216" pan="0"/>
          <note vol="157" len="-192" key="26" pos="240" pan="0"/>
          <note vol="157" len="-192" key="1" pos="240" pan="0"/>
          <note vol="157" len="-192" key="32" pos="264" pan="0"/>
          <note vol="157" len="-192" key="1" pos="288" pan="0"/>
          <note vol="157" len="-192" key="32" pos="312" pan="0"/>
          <note vol="157" len="-192" key="1" pos="336" pan="0"/>
          <note vol="157" len="-192" key="26" pos="336" pan="0"/>
          <note vol="157" len="-192" key="32" pos="360" pan="0"/>
          <note vol="157" len="-192" key="1" pos="384" pan="0"/>
          <note vol="157" len="-192" key="32" pos="408" pan="0"/>
          <note vol="157" len="-192" key="1" pos="432" pan="0"/>
          <note vol="157" len="-192" key="26" pos="432" pan="0"/>
          <note vol="157" len="-192" key="32" pos="456" pan="0"/>
          <note vol="157" len="-192" key="1" pos="480" pan="0"/>
          <note vol="157" len="-192" key="32" pos="504" pan="0"/>
          <note vol="157" len="-192" key="1" pos="528" pan="0"/>
          <note vol="157" len="-192" key="26" pos="528" pan="0"/>
          <note vol="157" len="-192" key="32" pos="552" pan="0"/>
          <note vol="157" len="-192" key="1" pos="576" pan="0"/>
          <note vol="157" len="-192" key="32" pos="600" pan="0"/>
          <note vol="157" len="-192" key="1" pos="624" pan="0"/>
          <note vol="157" len="-192" key="26" pos="624" pan="0"/>
          <note vol="157" len="-192" key="32" pos="648" pan="0"/>
          <note vol="157" len="-192" key="1" pos="672" pan="0"/>
          <note vol="157" len="-192" key="34" pos="696" pan="0"/>
          <note vol="157" len="-192" key="32" pos="696" pan="0"/>
          <note vol="157" len="-192" key="26" pos="720" pan="0"/>
          <note vol="157" len="-192" key="1" pos="720" pan="0"/>
          <note vol="127" len="-192" key="26" pos="744" pan="0"/>
          <note vol="157" len="-192" key="32" pos="744" pan="0"/>
          <note vol="157" len="-192" key="40" pos="768" pan="0"/>
          <note vol="157" len="-192" key="1" pos="768" pan="0"/>
          <note vol="157" len="-192" key="32" pos="792" pan="0"/>
          <note vol="157" len="-192" key="26" pos="816" pan="0"/>
          <note vol="157" len="-192" key="1" pos="816" pan="0"/>
          <note vol="157" len="-192" key="42" pos="840" pan="0"/>
          <note vol="157" len="-192" key="32" pos="840" pan="0"/>
          <note vol="157" len="-192" key="1" pos="864" pan="0"/>
          <note vol="157" len="-192" key="32" pos="888" pan="0"/>
          <note vol="157" len="-192" key="40" pos="912" pan="0"/>
          <note vol="157" len="-192" key="26" pos="912" pan="0"/>
          <note vol="157" len="-192" key="1" pos="912" pan="0"/>
          <note vol="157" len="-192" key="32" pos="936" pan="0"/>
          <note vol="157" len="-192" key="40" pos="960" pan="0"/>
          <note vol="157" len="-192" key="1" pos="960" pan="0"/>
          <note vol="157" len="-192" key="32" pos="984" pan="0"/>
          <note vol="157" len="-192" key="26" pos="1008" pan="0"/>
          <note vol="157" len="-192" key="1" pos="1008" pan="0"/>
          <note vol="157" len="-192" key="42" pos="1032" pan="0"/>
          <note vol="157" len="-192" key="32" pos="1032" pan="0"/>
          <note vol="157" len="-192" key="1" pos="1056" pan="0"/>
          <note vol="157" len="-192" key="32" pos="1080" pan="0"/>
          <note vol="157" len="-192" key="40" pos="1104" pan="0"/>
          <note vol="157" len="-192" key="45" pos="1104" pan="0"/>
          <note vol="157" len="-192" key="26" pos="1104" pan="0"/>
          <note vol="157" len="-192" key="1" pos="1104" pan="0"/>
          <note vol="157" len="-192" key="32" pos="1128" pan="0"/>
          <note vol="157" len="-192" key="1" pos="1152" pan="0"/>
          <note vol="157" len="-192" key="32" pos="1176" pan="0"/>
          <note vol="157" len="-192" key="26" pos="1200" pan="0"/>
          <note vol="157" len="-192" key="1" pos="1200" pan="0"/>
          <note vol="157" len="-192" key="32" pos="1224" pan="0"/>
          <note vol="157" len="-192" key="26" pos="1248" pan="0"/>
          <note vol="157" len="-192" key="1" pos="1248" pan="0"/>
          <note vol="157" len="-192" key="32" pos="1272" pan="0"/>
          <note vol="157" len="-192" key="26" pos="1296" pan="0"/>
          <note vol="157" len="-192" key="1" pos="1296" pan="0"/>
          <note vol="157" len="-192" key="32" pos="1320" pan="0"/>
          <note vol="157" len="-192" key="1" pos="1344" pan="0"/>
          <note vol="157" len="-192" key="32" pos="1368" pan="0"/>
          <note vol="157" len="-192" key="26" pos="1392" pan="0"/>
          <note vol="157" len="-192" key="1" pos="1392" pan="0"/>
          <note vol="157" len="-192" key="32" pos="1416" pan="0"/>
          <note vol="157" len="-192" key="26" pos="1440" pan="0"/>
          <note vol="157" len="-192" key="1" pos="1440" pan="0"/>
          <note vol="157" len="-192" key="34" pos="1464" pan="0"/>
          <note vol="157" len="-192" key="32" pos="1464" pan="0"/>
          <note vol="157" len="-192" key="26" pos="1488" pan="0"/>
          <note vol="157" len="-192" key="1" pos="1488" pan="0"/>
          <note vol="157" len="-192" key="32" pos="1512" pan="0"/>
          <note vol="127" len="-192" key="26" pos="1512" pan="0"/>
        </pattern>
        <pattern name="TOUHOU INSTRUMENT + DRUM KIT" muted="0" steps="16" pos="6336" type="0">
          <note vol="157" len="-192" key="45" pos="0" pan="0"/>
          <note vol="157" len="-192" key="57" pos="0" pan="0"/>
          <note vol="157" len="-192" key="43" pos="0" pan="0"/>
          <note vol="157" len="-192" key="1" pos="0" pan="0"/>
          <note vol="157" len="-192" key="32" pos="24" pan="0"/>
          <note vol="157" len="-192" key="26" pos="48" pan="0"/>
          <note vol="157" len="-192" key="1" pos="48" pan="0"/>
          <note vol="157" len="-192" key="32" pos="72" pan="0"/>
          <note vol="157" len="-192" key="1" pos="96" pan="0"/>
          <note vol="157" len="-192" key="32" pos="120" pan="0"/>
          <note vol="157" len="-192" key="1" pos="144" pan="0"/>
          <note vol="157" len="-192" key="26" pos="144" pan="0"/>
          <note vol="157" len="-192" key="32" pos="168" pan="0"/>
          <note vol="157" len="-192" key="1" pos="192" pan="0"/>
          <note vol="157" len="-192" key="32" pos="216" pan="0"/>
          <note vol="157" len="-192" key="1" pos="240" pan="0"/>
          <note vol="157" len="-192" key="26" pos="240" pan="0"/>
          <note vol="157" len="-192" key="32" pos="264" pan="0"/>
          <note vol="157" len="-192" key="1" pos="288" pan="0"/>
          <note vol="157" len="-192" key="32" pos="312" pan="0"/>
          <note vol="157" len="-192" key="1" pos="336" pan="0"/>
          <note vol="157" len="-192" key="26" pos="336" pan="0"/>
          <note vol="157" len="-192" key="32" pos="360" pan="0"/>
          <note vol="157" len="-192" key="1" pos="384" pan="0"/>
          <note vol="157" len="-192" key="32" pos="408" pan="0"/>
          <note vol="157" len="-192" key="26" pos="432" pan="0"/>
          <note vol="157" len="-192" key="1" pos="432" pan="0"/>
          <note vol="157" len="-192" key="32" pos="456" pan="0"/>
          <note vol="157" len="-192" key="1" pos="480" pan="0"/>
          <note vol="157" len="-192" key="32" pos="504" pan="0"/>
          <note vol="157" len="-192" key="26" pos="528" pan="0"/>
          <note vol="157" len="-192" key="1" pos="528" pan="0"/>
          <note vol="157" len="-192" key="32" pos="552" pan="0"/>
          <note vol="157" len="-192" key="1" pos="576" pan="0"/>
          <note vol="157" len="-192" key="32" pos="600" pan="0"/>
          <note vol="157" len="-192" key="1" pos="624" pan="0"/>
          <note vol="157" len="-192" key="26" pos="624" pan="0"/>
          <note vol="157" len="-192" key="32" pos="648" pan="0"/>
          <note vol="157" len="-192" key="1" pos="672" pan="0"/>
          <note vol="157" len="-192" key="32" pos="696" pan="0"/>
          <note vol="157" len="-192" key="34" pos="696" pan="0"/>
          <note vol="157" len="-192" key="26" pos="720" pan="0"/>
          <note vol="157" len="-192" key="1" pos="720" pan="0"/>
          <note vol="127" len="-192" key="26" pos="744" pan="0"/>
          <note vol="157" len="-192" key="32" pos="744" pan="0"/>
          <note vol="157" len="-192" key="1" pos="768" pan="0"/>
          <note vol="127" len="-192" key="40" pos="768" pan="0"/>
          <note vol="157" len="-192" key="32" pos="792" pan="0"/>
          <note vol="157" len="-192" key="26" pos="816" pan="0"/>
          <note vol="157" len="-192" key="1" pos="816" pan="0"/>
          <note vol="157" len="-192" key="32" pos="840" pan="0"/>
          <note vol="157" len="-192" key="1" pos="864" pan="0"/>
          <note vol="157" len="-192" key="32" pos="888" pan="0"/>
          <note vol="157" len="-192" key="26" pos="912" pan="0"/>
          <note vol="157" len="-192" key="1" pos="912" pan="0"/>
          <note vol="157" len="-192" key="32" pos="936" pan="0"/>
          <note vol="157" len="-192" key="1" pos="960" pan="0"/>
          <note vol="157" len="-192" key="32" pos="984" pan="0"/>
          <note vol="157" len="-192" key="26" pos="1008" pan="0"/>
          <note vol="157" len="-192" key="1" pos="1008" pan="0"/>
          <note vol="157" len="-192" key="32" pos="1032" pan="0"/>
          <note vol="157" len="-192" key="1" pos="1056" pan="0"/>
          <note vol="157" len="-192" key="32" pos="1080" pan="0"/>
          <note vol="157" len="-192" key="26" pos="1104" pan="0"/>
          <note vol="157" len="-192" key="1" pos="1104" pan="0"/>
          <note vol="157" len="-192" key="32" pos="1128" pan="0"/>
          <note vol="157" len="-192" key="37" pos="1152" pan="0"/>
          <note vol="157" len="-192" key="1" pos="1152" pan="0"/>
          <note vol="157" len="-192" key="32" pos="1176" pan="0"/>
          <note vol="157" len="-192" key="26" pos="1200" pan="0"/>
          <note vol="157" len="-192" key="1" pos="1200" pan="0"/>
          <note vol="157" len="-192" key="32" pos="1224" pan="0"/>
          <note vol="127" len="-192" key="40" pos="1224" pan="0"/>
          <note vol="157" len="-192" key="26" pos="1248" pan="0"/>
          <note vol="157" len="-192" key="1" pos="1248" pan="0"/>
          <note vol="157" len="-192" key="32" pos="1272" pan="0"/>
          <note vol="157" len="-192" key="26" pos="1296" pan="0"/>
          <note vol="157" len="-192" key="1" pos="1296" pan="0"/>
          <note vol="157" len="-192" key="32" pos="1320" pan="0"/>
          <note vol="157" len="-192" key="37" pos="1344" pan="0"/>
          <note vol="157" len="-192" key="1" pos="1344" pan="0"/>
          <note vol="157" len="-192" key="32" pos="1368" pan="0"/>
          <note vol="157" len="-192" key="38" pos="1368" pan="0"/>
          <note vol="157" len="-192" key="38" pos="1380" pan="0"/>
          <note vol="157" len="-192" key="38" pos="1392" pan="0"/>
          <note vol="157" len="-192" key="1" pos="1392" pan="0"/>
          <note vol="157" len="-192" key="26" pos="1392" pan="0"/>
          <note vol="127" len="-192" key="40" pos="1416" pan="0"/>
          <note vol="157" len="-192" key="36" pos="1416" pan="0"/>
          <note vol="157" len="-192" key="32" pos="1416" pan="0"/>
          <note vol="157" len="-192" key="36" pos="1428" pan="0"/>
          <note vol="157" len="-192" key="1" pos="1440" pan="0"/>
          <note vol="157" len="-192" key="26" pos="1440" pan="0"/>
          <note vol="157" len="-192" key="36" pos="1440" pan="0"/>
          <note vol="157" len="-192" key="36" pos="1452" pan="0"/>
          <note vol="157" len="-192" key="34" pos="1464" pan="0"/>
          <note vol="157" len="-192" key="32" pos="1464" pan="0"/>
          <note vol="157" len="-192" key="33" pos="1476" pan="0"/>
          <note vol="157" len="-192" key="1" pos="1488" pan="0"/>
          <note vol="157" len="-192" key="26" pos="1488" pan="0"/>
          <note vol="157" len="-192" key="33" pos="1488" pan="0"/>
          <note vol="157" len="-192" key="33" pos="1500" pan="0"/>
          <note vol="157" len="-192" key="33" pos="1512" pan="0"/>
          <note vol="157" len="-192" key="32" pos="1512" pan="0"/>
          <note vol="127" len="-192" key="26" pos="1512" pan="0"/>
          <note vol="127" len="-192" key="26" pos="1524" pan="0"/>
          <note vol="157" len="-192" key="33" pos="1524" pan="0"/>
          <note vol="157" len="-192" key="43" pos="1536" pan="0"/>
          <note vol="157" len="-192" key="45" pos="1536" pan="0"/>
          <note vol="157" len="-192" key="1" pos="1536" pan="0"/>
          <note vol="157" len="-192" key="32" pos="1560" pan="0"/>
          <note vol="157" len="-192" key="26" pos="1584" pan="0"/>
          <note vol="157" len="-192" key="1" pos="1584" pan="0"/>
          <note vol="157" len="-192" key="32" pos="1608" pan="0"/>
          <note vol="157" len="-192" key="1" pos="1632" pan="0"/>
          <note vol="157" len="-192" key="32" pos="1656" pan="0"/>
          <note vol="157" len="-192" key="1" pos="1680" pan="0"/>
          <note vol="157" len="-192" key="26" pos="1680" pan="0"/>
          <note vol="157" len="-192" key="32" pos="1704" pan="0"/>
          <note vol="157" len="-192" key="1" pos="1728" pan="0"/>
          <note vol="157" len="-192" key="32" pos="1752" pan="0"/>
          <note vol="157" len="-192" key="26" pos="1776" pan="0"/>
          <note vol="157" len="-192" key="1" pos="1776" pan="0"/>
          <note vol="157" len="-192" key="32" pos="1800" pan="0"/>
          <note vol="157" len="-192" key="1" pos="1824" pan="0"/>
          <note vol="157" len="-192" key="32" pos="1848" pan="0"/>
          <note vol="157" len="-192" key="1" pos="1872" pan="0"/>
          <note vol="157" len="-192" key="26" pos="1872" pan="0"/>
          <note vol="157" len="-192" key="32" pos="1896" pan="0"/>
          <note vol="157" len="-192" key="1" pos="1920" pan="0"/>
          <note vol="157" len="-192" key="32" pos="1944" pan="0"/>
          <note vol="157" len="-192" key="26" pos="1968" pan="0"/>
          <note vol="157" len="-192" key="1" pos="1968" pan="0"/>
          <note vol="157" len="-192" key="32" pos="1992" pan="0"/>
          <note vol="157" len="-192" key="1" pos="2016" pan="0"/>
          <note vol="157" len="-192" key="32" pos="2040" pan="0"/>
          <note vol="157" len="-192" key="1" pos="2064" pan="0"/>
          <note vol="157" len="-192" key="26" pos="2064" pan="0"/>
          <note vol="157" len="-192" key="32" pos="2088" pan="0"/>
          <note vol="157" len="-192" key="1" pos="2112" pan="0"/>
          <note vol="157" len="-192" key="32" pos="2136" pan="0"/>
          <note vol="157" len="-192" key="1" pos="2160" pan="0"/>
          <note vol="157" len="-192" key="26" pos="2160" pan="0"/>
          <note vol="157" len="-192" key="32" pos="2184" pan="0"/>
          <note vol="157" len="-192" key="1" pos="2208" pan="0"/>
          <note vol="157" len="-192" key="32" pos="2232" pan="0"/>
          <note vol="157" len="-192" key="34" pos="2232" pan="0"/>
          <note vol="157" len="-192" key="26" pos="2256" pan="0"/>
          <note vol="157" len="-192" key="1" pos="2256" pan="0"/>
          <note vol="127" len="-192" key="26" pos="2280" pan="0"/>
          <note vol="157" len="-192" key="32" pos="2280" pan="0"/>
          <note vol="127" len="-192" key="40" pos="2304" pan="0"/>
          <note vol="157" len="-192" key="1" pos="2304" pan="0"/>
          <note vol="157" len="-192" key="32" pos="2328" pan="0"/>
          <note vol="157" len="-192" key="1" pos="2352" pan="0"/>
          <note vol="157" len="-192" key="26" pos="2352" pan="0"/>
          <note vol="157" len="-192" key="32" pos="2376" pan="0"/>
          <note vol="157" len="-192" key="1" pos="2400" pan="0"/>
          <note vol="157" len="-192" key="32" pos="2424" pan="0"/>
          <note vol="157" len="-192" key="1" pos="2448" pan="0"/>
          <note vol="157" len="-192" key="26" pos="2448" pan="0"/>
          <note vol="157" len="-192" key="32" pos="2472" pan="0"/>
          <note vol="157" len="-192" key="1" pos="2496" pan="0"/>
          <note vol="157" len="-192" key="32" pos="2520" pan="0"/>
          <note vol="157" len="-192" key="1" pos="2544" pan="0"/>
          <note vol="157" len="-192" key="26" pos="2544" pan="0"/>
          <note vol="157" len="-192" key="32" pos="2568" pan="0"/>
          <note vol="157" len="-192" key="1" pos="2592" pan="0"/>
          <note vol="157" len="-192" key="32" pos="2616" pan="0"/>
          <note vol="157" len="-192" key="26" pos="2640" pan="0"/>
          <note vol="157" len="-192" key="1" pos="2640" pan="0"/>
          <note vol="157" len="-192" key="32" pos="2664" pan="0"/>
          <note vol="157" len="-192" key="37" pos="2688" pan="0"/>
          <note vol="128" len="-192" key="26" pos="2688" pan="0"/>
          <note vol="157" len="-192" key="1" pos="2688" pan="0"/>
          <note vol="157" len="-192" key="32" pos="2712" pan="0"/>
          <note vol="157" len="-192" key="1" pos="2736" pan="0"/>
          <note vol="157" len="-192" key="26" pos="2736" pan="0"/>
          <note vol="127" len="-192" key="40" pos="2760" pan="0"/>
          <note vol="157" len="-192" key="32" pos="2760" pan="0"/>
          <note vol="157" len="-192" key="1" pos="2784" pan="0"/>
          <note vol="128" len="-192" key="26" pos="2784" pan="0"/>
          <note vol="157" len="-192" key="32" pos="2808" pan="0"/>
          <note vol="157" len="-192" key="1" pos="2832" pan="0"/>
          <note vol="157" len="-192" key="26" pos="2832" pan="0"/>
          <note vol="157" len="-192" key="32" pos="2856" pan="0"/>
          <note vol="157" len="-192" key="37" pos="2880" pan="0"/>
          <note vol="157" len="-192" key="1" pos="2880" pan="0"/>
          <note vol="128" len="-192" key="26" pos="2880" pan="0"/>
          <note vol="157" len="-192" key="32" pos="2904" pan="0"/>
          <note vol="157" len="-192" key="38" pos="2904" pan="0"/>
          <note vol="128" len="-192" key="26" pos="2904" pan="0"/>
          <note vol="157" len="-192" key="38" pos="2916" pan="0"/>
          <note vol="157" len="-192" key="1" pos="2928" pan="0"/>
          <note vol="157" len="-192" key="26" pos="2928" pan="0"/>
          <note vol="127" len="-192" key="40" pos="2952" pan="0"/>
          <note vol="128" len="-192" key="26" pos="2952" pan="0"/>
          <note vol="157" len="-192" key="32" pos="2952" pan="0"/>
          <note vol="157" len="-192" key="36" pos="2952" pan="0"/>
          <note vol="157" len="-192" key="36" pos="2964" pan="0"/>
          <note vol="128" len="-192" key="26" pos="2976" pan="0"/>
          <note vol="157" len="-192" key="1" pos="2976" pan="0"/>
          <note vol="157" len="-192" key="36" pos="2988" pan="0"/>
          <note vol="128" len="-192" key="26" pos="3000" pan="0"/>
          <note vol="157" len="-192" key="32" pos="3000" pan="0"/>
          <note vol="157" len="-192" key="33" pos="3012" pan="0"/>
          <note vol="128" len="-192" key="26" pos="3012" pan="0"/>
          <note vol="157" len="-192" key="1" pos="3024" pan="0"/>
          <note vol="157" len="-192" key="26" pos="3024" pan="0"/>
          <note vol="157" len="-192" key="33" pos="3036" pan="0"/>
          <note vol="127" len="-192" key="26" pos="3036" pan="0"/>
          <note vol="157" len="-192" key="33" pos="3048" pan="0"/>
          <note vol="128" len="-192" key="26" pos="3048" pan="0"/>
          <note vol="157" len="-192" key="32" pos="3048" pan="0"/>
          <note vol="157" len="-192" key="33" pos="3060" pan="0"/>
        </pattern>
        <pattern name="TOUHOU INSTRUMENT + DRUM KIT" muted="0" steps="16" pos="9408" type="0">
          <note vol="157" len="-192" key="32" pos="0" pan="0"/>
          <note vol="157" len="-192" key="32" pos="36" pan="0"/>
          <note vol="157" len="-192" key="32" pos="48" pan="0"/>
          <note vol="157" len="-192" key="32" pos="72" pan="0"/>
          <note vol="157" len="-192" key="32" pos="84" pan="0"/>
          <note vol="157" len="-192" key="32" pos="96" pan="0"/>
          <note vol="157" len="-192" key="27" pos="96" pan="0"/>
          <note vol="157" len="-192" key="32" pos="108" pan="0"/>
          <note vol="157" len="-192" key="32" pos="144" pan="0"/>
          <note vol="157" len="-192" key="32" pos="168" pan="0"/>
          <note vol="157" len="-192" key="32" pos="180" pan="0"/>
          <note vol="157" len="-192" key="32" pos="192" pan="0"/>
          <note vol="157" len="-192" key="32" pos="228" pan="0"/>
          <note vol="157" len="-192" key="32" pos="240" pan="0"/>
          <note vol="157" len="-192" key="32" pos="264" pan="0"/>
          <note vol="157" len="-192" key="32" pos="276" pan="0"/>
          <note vol="157" len="-192" key="27" pos="288" pan="0"/>
          <note vol="157" len="-192" key="32" pos="288" pan="0"/>
          <note vol="157" len="-192" key="32" pos="336" pan="0"/>
          <note vol="157" len="-192" key="32" pos="348" pan="0"/>
          <note vol="157" len="-192" key="32" pos="360" pan="0"/>
          <note vol="157" len="-192" key="32" pos="372" pan="0"/>
          <note vol="157" len="-192" key="32" pos="384" pan="0"/>
          <note vol="157" len="-192" key="32" pos="408" pan="0"/>
          <note vol="157" len="-192" key="32" pos="420" pan="0"/>
          <note vol="157" len="-192" key="32" pos="432" pan="0"/>
          <note vol="157" len="-192" key="32" pos="456" pan="0"/>
          <note vol="157" len="-192" key="32" pos="468" pan="0"/>
          <note vol="157" len="-192" key="27" pos="480" pan="0"/>
          <note vol="157" len="-192" key="32" pos="504" pan="0"/>
          <note vol="157" len="-192" key="32" pos="528" pan="0"/>
          <note vol="157" len="-192" key="32" pos="576" pan="0"/>
          <note vol="157" len="-192" key="32" pos="600" pan="0"/>
          <note vol="157" len="-192" key="32" pos="612" pan="0"/>
          <note vol="157" len="-192" key="32" pos="624" pan="0"/>
          <note vol="157" len="-192" key="32" pos="648" pan="0"/>
          <note vol="157" len="-192" key="32" pos="660" pan="0"/>
          <note vol="157" len="-192" key="27" pos="672" pan="0"/>
          <note vol="157" len="-192" key="32" pos="696" pan="0"/>
          <note vol="157" len="-192" key="32" pos="720" pan="0"/>
          <note vol="157" len="-192" key="32" pos="732" pan="0"/>
          <note vol="157" len="-192" key="32" pos="744" pan="0"/>
          <note vol="157" len="-192" key="27" pos="744" pan="0"/>
          <note vol="157" len="-192" key="32" pos="756" pan="0"/>
          <note vol="157" len="-192" key="32" pos="768" pan="0"/>
          <note vol="157" len="-192" key="32" pos="804" pan="0"/>
          <note vol="157" len="-192" key="32" pos="816" pan="0"/>
          <note vol="157" len="-192" key="32" pos="840" pan="0"/>
          <note vol="157" len="-192" key="32" pos="852" pan="0"/>
          <note vol="157" len="-192" key="32" pos="864" pan="0"/>
          <note vol="157" len="-192" key="27" pos="864" pan="0"/>
          <note vol="157" len="-192" key="32" pos="912" pan="0"/>
          <note vol="157" len="-192" key="32" pos="936" pan="0"/>
          <note vol="157" len="-192" key="32" pos="948" pan="0"/>
          <note vol="157" len="-192" key="32" pos="960" pan="0"/>
          <note vol="157" len="-192" key="32" pos="996" pan="0"/>
          <note vol="157" len="-192" key="32" pos="1008" pan="0"/>
          <note vol="157" len="-192" key="32" pos="1032" pan="0"/>
          <note vol="157" len="-192" key="32" pos="1044" pan="0"/>
          <note vol="157" len="-192" key="27" pos="1056" pan="0"/>
          <note vol="157" len="-192" key="32" pos="1056" pan="0"/>
          <note vol="157" len="-192" key="32" pos="1104" pan="0"/>
          <note vol="157" len="-192" key="32" pos="1128" pan="0"/>
          <note vol="157" len="-192" key="32" pos="1140" pan="0"/>
          <note vol="157" len="-192" key="32" pos="1152" pan="0"/>
          <note vol="157" len="-192" key="32" pos="1176" pan="0"/>
          <note vol="157" len="-192" key="32" pos="1188" pan="0"/>
          <note vol="157" len="-192" key="32" pos="1200" pan="0"/>
          <note vol="157" len="-192" key="32" pos="1224" pan="0"/>
          <note vol="157" len="-192" key="32" pos="1236" pan="0"/>
          <note vol="157" len="-192" key="27" pos="1248" pan="0"/>
          <note vol="157" len="-192" key="32" pos="1272" pan="0"/>
          <note vol="157" len="-192" key="32" pos="1296" pan="0"/>
          <note vol="157" len="-192" key="32" pos="1320" pan="0"/>
          <note vol="157" len="-192" key="32" pos="1344" pan="0"/>
          <note vol="157" len="-192" key="32" pos="1368" pan="0"/>
          <note vol="157" len="-192" key="32" pos="1380" pan="0"/>
          <note vol="157" len="-192" key="32" pos="1392" pan="0"/>
          <note vol="157" len="-192" key="32" pos="1416" pan="0"/>
          <note vol="157" len="-192" key="32" pos="1428" pan="0"/>
          <note vol="157" len="-192" key="27" pos="1440" pan="0"/>
          <note vol="157" len="-192" key="32" pos="1464" pan="0"/>
          <note vol="157" len="-192" key="32" pos="1488" pan="0"/>
          <note vol="157" len="-192" key="32" pos="1512" pan="0"/>
          <note vol="157" len="-192" key="27" pos="1512" pan="0"/>
        </pattern>
        <pattern name="FPC_Kick_Gretc_001.wav" muted="0" steps="16" pos="10944" type="0">
          <note vol="157" len="-192" key="1" pos="0" pan="0"/>
          <note vol="157" len="-192" key="1" pos="72" pan="0"/>
          <note vol="157" len="-192" key="34" pos="96" pan="0"/>
          <note vol="157" len="-192" key="32" pos="120" pan="0"/>
          <note vol="157" len="-192" key="1" pos="192" pan="0"/>
          <note vol="157" len="-192" key="1" pos="264" pan="0"/>
          <note vol="157" len="-192" key="32" pos="276" pan="0"/>
          <note vol="157" len="-192" key="34" pos="288" pan="0"/>
          <note vol="157" len="-192" key="32" pos="312" pan="0"/>
          <note vol="157" len="-192" key="32" pos="324" pan="0"/>
          <note vol="157" len="-192" key="1" pos="384" pan="0"/>
          <note vol="157" len="-192" key="1" pos="456" pan="0"/>
          <note vol="157" len="-192" key="32" pos="456" pan="0"/>
          <note vol="157" len="-192" key="32" pos="468" pan="0"/>
          <note vol="157" len="-192" key="32" pos="480" pan="0"/>
          <note vol="157" len="-192" key="32" pos="492" pan="0"/>
          <note vol="157" len="-192" key="32" pos="528" pan="0"/>
          <note vol="157" len="-192" key="32" pos="540" pan="0"/>
          <note vol="157" len="-192" key="32" pos="552" pan="0"/>
          <note vol="157" len="-192" key="1" pos="576" pan="0"/>
          <note vol="157" len="-192" key="34" pos="624" pan="0"/>
          <note vol="157" len="-192" key="1" pos="624" pan="0"/>
          <note vol="157" len="-192" key="32" pos="648" pan="0"/>
          <note vol="157" len="-192" key="32" pos="660" pan="0"/>
          <note vol="157" len="-192" key="32" pos="672" pan="0"/>
          <note vol="157" len="-192" key="32" pos="684" pan="0"/>
          <note vol="157" len="-192" key="34" pos="696" pan="0"/>
          <note vol="157" len="-192" key="1" pos="696" pan="0"/>
          <note vol="157" len="-192" key="1" pos="768" pan="0"/>
          <note vol="157" len="-192" key="1" pos="840" pan="0"/>
          <note vol="157" len="-192" key="32" pos="852" pan="0"/>
          <note vol="157" len="-192" key="34" pos="864" pan="0"/>
          <note vol="157" len="-192" key="34" pos="888" pan="0"/>
          <note vol="157" len="-192" key="34" pos="912" pan="0"/>
          <note vol="157" len="-192" key="34" pos="936" pan="0"/>
          <note vol="157" len="-192" key="1" pos="960" pan="0"/>
          <note vol="157" len="-192" key="34" pos="1032" pan="0"/>
          <note vol="157" len="-192" key="1" pos="1032" pan="0"/>
          <note vol="157" len="-192" key="32" pos="1056" pan="0"/>
          <note vol="157" len="-192" key="32" pos="1068" pan="0"/>
          <note vol="157" len="-192" key="32" pos="1080" pan="0"/>
          <note vol="157" len="-192" key="32" pos="1092" pan="0"/>
          <note vol="157" len="-192" key="1" pos="1152" pan="0"/>
          <note vol="157" len="-192" key="1" pos="1224" pan="0"/>
          <note vol="157" len="-192" key="34" pos="1248" pan="0"/>
          <note vol="157" len="-192" key="1" pos="1344" pan="0"/>
          <note vol="157" len="-192" key="1" pos="1392" pan="0"/>
          <note vol="157" len="-192" key="1" pos="1464" pan="0"/>
          <note vol="157" len="-192" key="32" pos="1488" pan="0"/>
          <note vol="157" len="-192" key="32" pos="1500" pan="0"/>
          <note vol="157" len="-192" key="32" pos="1512" pan="0"/>
          <note vol="157" len="-192" key="32" pos="1524" pan="0"/>
        </pattern>
        <pattern name="TOUHOU INSTRUMENT + DRUM KIT" muted="0" steps="16" pos="18624" type="0">
          <note vol="157" len="-192" key="45" pos="0" pan="0"/>
          <note vol="157" len="-192" key="43" pos="0" pan="0"/>
          <note vol="157" len="-192" key="1" pos="0" pan="0"/>
          <note vol="157" len="-192" key="32" pos="24" pan="0"/>
          <note vol="157" len="-192" key="1" pos="48" pan="0"/>
          <note vol="157" len="-192" key="26" pos="48" pan="0"/>
          <note vol="157" len="-192" key="32" pos="72" pan="0"/>
          <note vol="157" len="-192" key="1" pos="96" pan="0"/>
          <note vol="157" len="-192" key="32" pos="120" pan="0"/>
          <note vol="157" len="-192" key="1" pos="144" pan="0"/>
          <note vol="157" len="-192" key="26" pos="144" pan="0"/>
          <note vol="157" len="-192" key="32" pos="168" pan="0"/>
          <note vol="157" len="-192" key="1" pos="192" pan="0"/>
          <note vol="157" len="-192" key="32" pos="216" pan="0"/>
          <note vol="157" len="-192" key="1" pos="240" pan="0"/>
          <note vol="157" len="-192" key="26" pos="240" pan="0"/>
          <note vol="157" len="-192" key="32" pos="264" pan="0"/>
          <note vol="157" len="-192" key="1" pos="288" pan="0"/>
          <note vol="157" len="-192" key="32" pos="312" pan="0"/>
          <note vol="157" len="-192" key="1" pos="336" pan="0"/>
          <note vol="157" len="-192" key="26" pos="336" pan="0"/>
          <note vol="157" len="-192" key="32" pos="360" pan="0"/>
          <note vol="157" len="-192" key="1" pos="384" pan="0"/>
          <note vol="157" len="-192" key="32" pos="408" pan="0"/>
          <note vol="157" len="-192" key="26" pos="432" pan="0"/>
          <note vol="157" len="-192" key="1" pos="432" pan="0"/>
          <note vol="157" len="-192" key="32" pos="456" pan="0"/>
          <note vol="157" len="-192" key="1" pos="480" pan="0"/>
          <note vol="157" len="-192" key="32" pos="504" pan="0"/>
          <note vol="157" len="-192" key="1" pos="528" pan="0"/>
          <note vol="157" len="-192" key="26" pos="528" pan="0"/>
          <note vol="157" len="-192" key="32" pos="552" pan="0"/>
          <note vol="157" len="-192" key="1" pos="576" pan="0"/>
          <note vol="157" len="-192" key="32" pos="600" pan="0"/>
          <note vol="157" len="-192" key="26" pos="624" pan="0"/>
          <note vol="157" len="-192" key="1" pos="624" pan="0"/>
          <note vol="157" len="-192" key="32" pos="648" pan="0"/>
          <note vol="157" len="-192" key="1" pos="672" pan="0"/>
          <note vol="157" len="-192" key="32" pos="696" pan="0"/>
          <note vol="157" len="-192" key="34" pos="696" pan="0"/>
          <note vol="157" len="-192" key="26" pos="720" pan="0"/>
          <note vol="157" len="-192" key="1" pos="720" pan="0"/>
          <note vol="157" len="-192" key="32" pos="744" pan="0"/>
          <note vol="127" len="-192" key="26" pos="744" pan="0"/>
          <note vol="157" len="-192" key="1" pos="768" pan="0"/>
          <note vol="127" len="-192" key="40" pos="768" pan="0"/>
          <note vol="157" len="-192" key="32" pos="792" pan="0"/>
          <note vol="157" len="-192" key="1" pos="816" pan="0"/>
          <note vol="157" len="-192" key="26" pos="816" pan="0"/>
          <note vol="157" len="-192" key="32" pos="840" pan="0"/>
          <note vol="157" len="-192" key="1" pos="864" pan="0"/>
          <note vol="157" len="-192" key="32" pos="888" pan="0"/>
          <note vol="157" len="-192" key="26" pos="912" pan="0"/>
          <note vol="157" len="-192" key="1" pos="912" pan="0"/>
          <note vol="157" len="-192" key="32" pos="936" pan="0"/>
          <note vol="157" len="-192" key="1" pos="960" pan="0"/>
          <note vol="157" len="-192" key="32" pos="984" pan="0"/>
          <note vol="157" len="-192" key="1" pos="1008" pan="0"/>
          <note vol="157" len="-192" key="26" pos="1008" pan="0"/>
          <note vol="157" len="-192" key="32" pos="1032" pan="0"/>
          <note vol="157" len="-192" key="1" pos="1056" pan="0"/>
          <note vol="157" len="-192" key="32" pos="1080" pan="0"/>
          <note vol="157" len="-192" key="1" pos="1104" pan="0"/>
          <note vol="157" len="-192" key="26" pos="1104" pan="0"/>
          <note vol="157" len="-192" key="32" pos="1128" pan="0"/>
          <note vol="157" len="-192" key="37" pos="1152" pan="0"/>
          <note vol="157" len="-192" key="1" pos="1152" pan="0"/>
          <note vol="157" len="-192" key="32" pos="1176" pan="0"/>
          <note vol="157" len="-192" key="1" pos="1200" pan="0"/>
          <note vol="157" len="-192" key="26" pos="1200" pan="0"/>
          <note vol="157" len="-192" key="32" pos="1224" pan="0"/>
          <note vol="157" len="-192" key="26" pos="1248" pan="0"/>
          <note vol="157" len="-192" key="1" pos="1248" pan="0"/>
          <note vol="157" len="-192" key="32" pos="1272" pan="0"/>
          <note vol="157" len="-192" key="26" pos="1296" pan="0"/>
          <note vol="157" len="-192" key="1" pos="1296" pan="0"/>
          <note vol="157" len="-192" key="32" pos="1320" pan="0"/>
          <note vol="157" len="-192" key="1" pos="1344" pan="0"/>
          <note vol="157" len="-192" key="37" pos="1344" pan="0"/>
          <note vol="157" len="-192" key="32" pos="1368" pan="0"/>
          <note vol="157" len="-192" key="38" pos="1368" pan="0"/>
          <note vol="157" len="-192" key="38" pos="1380" pan="0"/>
          <note vol="157" len="-192" key="1" pos="1392" pan="0"/>
          <note vol="157" len="-192" key="26" pos="1392" pan="0"/>
          <note vol="157" len="-192" key="38" pos="1392" pan="0"/>
          <note vol="157" len="-192" key="32" pos="1416" pan="0"/>
          <note vol="157" len="-192" key="36" pos="1416" pan="0"/>
          <note vol="157" len="-192" key="36" pos="1428" pan="0"/>
          <note vol="157" len="-192" key="26" pos="1440" pan="0"/>
          <note vol="157" len="-192" key="36" pos="1440" pan="0"/>
          <note vol="157" len="-192" key="1" pos="1440" pan="0"/>
          <note vol="157" len="-192" key="36" pos="1452" pan="0"/>
          <note vol="157" len="-192" key="32" pos="1464" pan="0"/>
          <note vol="157" len="-192" key="34" pos="1464" pan="0"/>
          <note vol="157" len="-192" key="33" pos="1476" pan="0"/>
          <note vol="157" len="-192" key="26" pos="1488" pan="0"/>
          <note vol="157" len="-192" key="33" pos="1488" pan="0"/>
          <note vol="157" len="-192" key="1" pos="1488" pan="0"/>
          <note vol="157" len="-192" key="33" pos="1500" pan="0"/>
          <note vol="157" len="-192" key="32" pos="1512" pan="0"/>
          <note vol="157" len="-192" key="33" pos="1512" pan="0"/>
          <note vol="127" len="-192" key="26" pos="1512" pan="0"/>
          <note vol="127" len="-192" key="26" pos="1524" pan="0"/>
          <note vol="157" len="-192" key="33" pos="1524" pan="0"/>
          <note vol="157" len="-192" key="45" pos="1536" pan="0"/>
          <note vol="157" len="-192" key="1" pos="1536" pan="0"/>
          <note vol="157" len="-192" key="43" pos="1536" pan="0"/>
          <note vol="157" len="-192" key="32" pos="1560" pan="0"/>
          <note vol="157" len="-192" key="1" pos="1584" pan="0"/>
          <note vol="157" len="-192" key="26" pos="1584" pan="0"/>
          <note vol="157" len="-192" key="32" pos="1608" pan="0"/>
          <note vol="157" len="-192" key="1" pos="1632" pan="0"/>
          <note vol="157" len="-192" key="32" pos="1656" pan="0"/>
          <note vol="157" len="-192" key="1" pos="1680" pan="0"/>
          <note vol="157" len="-192" key="26" pos="1680" pan="0"/>
          <note vol="157" len="-192" key="32" pos="1704" pan="0"/>
          <note vol="157" len="-192" key="1" pos="1728" pan="0"/>
          <note vol="157" len="-192" key="32" pos="1752" pan="0"/>
          <note vol="157" len="-192" key="1" pos="1776" pan="0"/>
          <note vol="157" len="-192" key="26" pos="1776" pan="0"/>
          <note vol="157" len="-192" key="32" pos="1800" pan="0"/>
          <note vol="157" len="-192" key="1" pos="1824" pan="0"/>
          <note vol="157" len="-192" key="32" pos="1848" pan="0"/>
          <note vol="157" len="-192" key="1" pos="1872" pan="0"/>
          <note vol="157" len="-192" key="26" pos="1872" pan="0"/>
          <note vol="157" len="-192" key="32" pos="1896" pan="0"/>
          <note vol="157" len="-192" key="1" pos="1920" pan="0"/>
          <note vol="157" len="-192" key="32" pos="1944" pan="0"/>
          <note vol="157" len="-192" key="26" pos="1968" pan="0"/>
          <note vol="157" len="-192" key="1" pos="1968" pan="0"/>
          <note vol="157" len="-192" key="32" pos="1992" pan="0"/>
          <note vol="157" len="-192" key="1" pos="2016" pan="0"/>
          <note vol="157" len="-192" key="32" pos="2040" pan="0"/>
          <note vol="157" len="-192" key="26" pos="2064" pan="0"/>
          <note vol="157" len="-192" key="1" pos="2064" pan="0"/>
          <note vol="157" len="-192" key="32" pos="2088" pan="0"/>
          <note vol="157" len="-192" key="1" pos="2112" pan="0"/>
          <note vol="157" len="-192" key="32" pos="2136" pan="0"/>
          <note vol="157" len="-192" key="1" pos="2160" pan="0"/>
          <note vol="157" len="-192" key="26" pos="2160" pan="0"/>
          <note vol="157" len="-192" key="32" pos="2184" pan="0"/>
          <note vol="157" len="-192" key="1" pos="2208" pan="0"/>
          <note vol="157" len="-192" key="34" pos="2232" pan="0"/>
          <note vol="157" len="-192" key="32" pos="2232" pan="0"/>
          <note vol="157" len="-192" key="26" pos="2256" pan="0"/>
          <note vol="157" len="-192" key="1" pos="2256" pan="0"/>
          <note vol="127" len="-192" key="26" pos="2280" pan="0"/>
          <note vol="157" len="-192" key="32" pos="2280" pan="0"/>
          <note vol="127" len="-192" key="40" pos="2304" pan="0"/>
          <note vol="157" len="-192" key="1" pos="2304" pan="0"/>
          <note vol="157" len="-192" key="32" pos="2328" pan="0"/>
          <note vol="157" len="-192" key="1" pos="2352" pan="0"/>
          <note vol="157" len="-192" key="26" pos="2352" pan="0"/>
          <note vol="157" len="-192" key="32" pos="2376" pan="0"/>
          <note vol="157" len="-192" key="1" pos="2400" pan="0"/>
          <note vol="157" len="-192" key="32" pos="2424" pan="0"/>
          <note vol="157" len="-192" key="1" pos="2448" pan="0"/>
          <note vol="157" len="-192" key="26" pos="2448" pan="0"/>
          <note vol="157" len="-192" key="32" pos="2472" pan="0"/>
          <note vol="157" len="-192" key="1" pos="2496" pan="0"/>
          <note vol="157" len="-192" key="32" pos="2520" pan="0"/>
          <note vol="157" len="-192" key="1" pos="2544" pan="0"/>
          <note vol="157" len="-192" key="26" pos="2544" pan="0"/>
          <note vol="157" len="-192" key="32" pos="2568" pan="0"/>
          <note vol="157" len="-192" key="1" pos="2592" pan="0"/>
          <note vol="157" len="-192" key="32" pos="2616" pan="0"/>
          <note vol="157" len="-192" key="1" pos="2640" pan="0"/>
          <note vol="157" len="-192" key="26" pos="2640" pan="0"/>
          <note vol="157" len="-192" key="32" pos="2664" pan="0"/>
          <note vol="157" len="-192" key="1" pos="2688" pan="0"/>
          <note vol="128" len="-192" key="26" pos="2688" pan="0"/>
          <note vol="157" len="-192" key="37" pos="2688" pan="0"/>
          <note vol="157" len="-192" key="32" pos="2712" pan="0"/>
          <note vol="157" len="-192" key="1" pos="2736" pan="0"/>
          <note vol="157" len="-192" key="26" pos="2736" pan="0"/>
          <note vol="127" len="-192" key="40" pos="2760" pan="0"/>
          <note vol="157" len="-192" key="32" pos="2760" pan="0"/>
          <note vol="128" len="-192" key="26" pos="2784" pan="0"/>
          <note vol="157" len="-192" key="1" pos="2784" pan="0"/>
          <note vol="157" len="-192" key="32" pos="2808" pan="0"/>
          <note vol="157" len="-192" key="26" pos="2832" pan="0"/>
          <note vol="157" len="-192" key="1" pos="2832" pan="0"/>
          <note vol="157" len="-192" key="32" pos="2856" pan="0"/>
          <note vol="128" len="-192" key="26" pos="2880" pan="0"/>
          <note vol="157" len="-192" key="1" pos="2880" pan="0"/>
          <note vol="157" len="-192" key="37" pos="2880" pan="0"/>
          <note vol="157" len="-192" key="38" pos="2904" pan="0"/>
          <note vol="157" len="-192" key="32" pos="2904" pan="0"/>
          <note vol="128" len="-192" key="26" pos="2904" pan="0"/>
          <note vol="157" len="-192" key="38" pos="2916" pan="0"/>
          <note vol="157" len="-192" key="26" pos="2928" pan="0"/>
          <note vol="157" len="-192" key="1" pos="2928" pan="0"/>
          <note vol="128" len="-192" key="26" pos="2952" pan="0"/>
          <note vol="157" len="-192" key="36" pos="2952" pan="0"/>
          <note vol="157" len="-192" key="32" pos="2952" pan="0"/>
          <note vol="127" len="-192" key="40" pos="2952" pan="0"/>
          <note vol="157" len="-192" key="36" pos="2964" pan="0"/>
          <note vol="128" len="-192" key="26" pos="2976" pan="0"/>
          <note vol="157" len="-192" key="1" pos="2976" pan="0"/>
          <note vol="157" len="-192" key="36" pos="2988" pan="0"/>
          <note vol="128" len="-192" key="26" pos="3000" pan="0"/>
          <note vol="157" len="-192" key="32" pos="3000" pan="0"/>
          <note vol="128" len="-192" key="26" pos="3012" pan="0"/>
          <note vol="157" len="-192" key="33" pos="3012" pan="0"/>
          <note vol="157" len="-192" key="26" pos="3024" pan="0"/>
          <note vol="157" len="-192" key="1" pos="3024" pan="0"/>
          <note vol="127" len="-192" key="26" pos="3036" pan="0"/>
          <note vol="157" len="-192" key="33" pos="3036" pan="0"/>
          <note vol="128" len="-192" key="26" pos="3048" pan="0"/>
          <note vol="157" len="-192" key="32" pos="3048" pan="0"/>
          <note vol="157" len="-192" key="33" pos="3048" pan="0"/>
          <note vol="157" len="-192" key="33" pos="3060" pan="0"/>
        </pattern>
        <pattern name="TOUHOU INSTRUMENT + DRUM KIT" muted="0" steps="16" pos="21696" type="0">
          <note vol="157" len="-192" key="32" pos="0" pan="0"/>
          <note vol="157" len="-192" key="32" pos="36" pan="0"/>
          <note vol="157" len="-192" key="32" pos="48" pan="0"/>
          <note vol="157" len="-192" key="32" pos="72" pan="0"/>
          <note vol="157" len="-192" key="32" pos="84" pan="0"/>
          <note vol="157" len="-192" key="27" pos="96" pan="0"/>
          <note vol="157" len="-192" key="32" pos="96" pan="0"/>
          <note vol="157" len="-192" key="32" pos="108" pan="0"/>
          <note vol="157" len="-192" key="32" pos="144" pan="0"/>
          <note vol="157" len="-192" key="32" pos="168" pan="0"/>
          <note vol="157" len="-192" key="32" pos="180" pan="0"/>
          <note vol="157" len="-192" key="32" pos="192" pan="0"/>
          <note vol="157" len="-192" key="32" pos="228" pan="0"/>
          <note vol="157" len="-192" key="32" pos="240" pan="0"/>
          <note vol="157" len="-192" key="32" pos="264" pan="0"/>
          <note vol="157" len="-192" key="32" pos="276" pan="0"/>
          <note vol="157" len="-192" key="27" pos="288" pan="0"/>
          <note vol="157" len="-192" key="32" pos="288" pan="0"/>
          <note vol="157" len="-192" key="32" pos="336" pan="0"/>
          <note vol="157" len="-192" key="32" pos="348" pan="0"/>
          <note vol="157" len="-192" key="32" pos="360" pan="0"/>
          <note vol="157" len="-192" key="32" pos="372" pan="0"/>
          <note vol="157" len="-192" key="32" pos="384" pan="0"/>
          <note vol="157" len="-192" key="32" pos="408" pan="0"/>
          <note vol="157" len="-192" key="32" pos="420" pan="0"/>
          <note vol="157" len="-192" key="32" pos="432" pan="0"/>
          <note vol="157" len="-192" key="32" pos="456" pan="0"/>
          <note vol="157" len="-192" key="32" pos="468" pan="0"/>
          <note vol="157" len="-192" key="27" pos="480" pan="0"/>
          <note vol="157" len="-192" key="32" pos="504" pan="0"/>
          <note vol="157" len="-192" key="32" pos="528" pan="0"/>
          <note vol="157" len="-192" key="32" pos="576" pan="0"/>
          <note vol="157" len="-192" key="32" pos="600" pan="0"/>
          <note vol="157" len="-192" key="32" pos="612" pan="0"/>
          <note vol="157" len="-192" key="32" pos="624" pan="0"/>
          <note vol="157" len="-192" key="32" pos="648" pan="0"/>
          <note vol="157" len="-192" key="32" pos="660" pan="0"/>
          <note vol="157" len="-192" key="27" pos="672" pan="0"/>
          <note vol="157" len="-192" key="32" pos="696" pan="0"/>
          <note vol="157" len="-192" key="32" pos="720" pan="0"/>
          <note vol="157" len="-192" key="32" pos="732" pan="0"/>
          <note vol="157" len="-192" key="27" pos="744" pan="0"/>
          <note vol="157" len="-192" key="32" pos="744" pan="0"/>
          <note vol="157" len="-192" key="32" pos="756" pan="0"/>
          <note vol="157" len="-192" key="32" pos="768" pan="0"/>
          <note vol="157" len="-192" key="32" pos="804" pan="0"/>
          <note vol="157" len="-192" key="32" pos="816" pan="0"/>
          <note vol="157" len="-192" key="32" pos="840" pan="0"/>
          <note vol="157" len="-192" key="32" pos="852" pan="0"/>
          <note vol="157" len="-192" key="27" pos="864" pan="0"/>
          <note vol="157" len="-192" key="32" pos="864" pan="0"/>
          <note vol="157" len="-192" key="32" pos="912" pan="0"/>
          <note vol="157" len="-192" key="32" pos="936" pan="0"/>
          <note vol="157" len="-192" key="32" pos="948" pan="0"/>
          <note vol="157" len="-192" key="32" pos="960" pan="0"/>
          <note vol="157" len="-192" key="32" pos="996" pan="0"/>
          <note vol="157" len="-192" key="32" pos="1008" pan="0"/>
          <note vol="157" len="-192" key="32" pos="1032" pan="0"/>
          <note vol="157" len="-192" key="32" pos="1044" pan="0"/>
          <note vol="157" len="-192" key="27" pos="1056" pan="0"/>
          <note vol="157" len="-192" key="32" pos="1056" pan="0"/>
          <note vol="157" len="-192" key="32" pos="1104" pan="0"/>
          <note vol="157" len="-192" key="32" pos="1128" pan="0"/>
          <note vol="157" len="-192" key="32" pos="1140" pan="0"/>
          <note vol="157" len="-192" key="32" pos="1152" pan="0"/>
          <note vol="157" len="-192" key="32" pos="1176" pan="0"/>
          <note vol="157" len="-192" key="32" pos="1188" pan="0"/>
          <note vol="157" len="-192" key="32" pos="1200" pan="0"/>
          <note vol="157" len="-192" key="32" pos="1224" pan="0"/>
          <note vol="157" len="-192" key="32" pos="1236" pan="0"/>
          <note vol="157" len="-192" key="27" pos="1248" pan="0"/>
          <note vol="157" len="-192" key="32" pos="1272" pan="0"/>
          <note vol="157" len="-192" key="32" pos="1296" pan="0"/>
          <note vol="157" len="-192" key="32" pos="1320" pan="0"/>
          <note vol="157" len="-192" key="32" pos="1344" pan="0"/>
          <note vol="157" len="-192" key="32" pos="1368" pan="0"/>
          <note vol="157" len="-192" key="32" pos="1380" pan="0"/>
          <note vol="157" len="-192" key="32" pos="1392" pan="0"/>
          <note vol="157" len="-192" key="32" pos="1416" pan="0"/>
          <note vol="157" len="-192" key="32" pos="1428" pan="0"/>
          <note vol="157" len="-192" key="27" pos="1440" pan="0"/>
          <note vol="157" len="-192" key="32" pos="1464" pan="0"/>
          <note vol="157" len="-192" key="32" pos="1488" pan="0"/>
          <note vol="157" len="-192" key="32" pos="1512" pan="0"/>
          <note vol="157" len="-192" key="27" pos="1512" pan="0"/>
        </pattern>
        <pattern name="TOUHOU INSTRUMENT + DRUM KIT" muted="0" steps="16" pos="23232" type="0">
          <note vol="157" len="-192" key="1" pos="0" pan="0"/>
          <note vol="157" len="-192" key="32" pos="0" pan="0"/>
          <note vol="157" len="-192" key="32" pos="24" pan="0"/>
          <note vol="157" len="-192" key="34" pos="72" pan="0"/>
          <note vol="157" len="-192" key="1" pos="72" pan="0"/>
          <note vol="157" len="-192" key="32" pos="96" pan="0"/>
          <note vol="157" len="-192" key="32" pos="120" pan="0"/>
          <note vol="157" len="-192" key="32" pos="144" pan="0"/>
          <note vol="157" len="-192" key="1" pos="144" pan="0"/>
          <note vol="157" len="-192" key="1" pos="192" pan="0"/>
          <note vol="157" len="-192" key="32" pos="216" pan="0"/>
          <note vol="157" len="-192" key="1" pos="264" pan="0"/>
          <note vol="157" len="-192" key="34" pos="288" pan="0"/>
          <note vol="157" len="-192" key="32" pos="336" pan="0"/>
          <note vol="157" len="-192" key="34" pos="360" pan="0"/>
          <note vol="157" len="-192" key="1" pos="384" pan="0"/>
          <note vol="157" len="-192" key="32" pos="408" pan="0"/>
          <note vol="157" len="-192" key="32" pos="432" pan="0"/>
          <note vol="157" len="-192" key="1" pos="456" pan="0"/>
          <note vol="157" len="-192" key="34" pos="480" pan="0"/>
          <note vol="157" len="-192" key="32" pos="504" pan="0"/>
          <note vol="157" len="-192" key="1" pos="528" pan="0"/>
          <note vol="157" len="-192" key="32" pos="552" pan="0"/>
          <note vol="157" len="-192" key="1" pos="576" pan="0"/>
          <note vol="157" len="-192" key="1" pos="624" pan="0"/>
          <note vol="157" len="-192" key="34" pos="624" pan="0"/>
          <note vol="157" len="-192" key="32" pos="696" pan="0"/>
          <note vol="157" len="-192" key="1" pos="696" pan="0"/>
          <note vol="157" len="-192" key="32" pos="720" pan="0"/>
          <note vol="157" len="-192" key="34" pos="744" pan="0"/>
          <note vol="157" len="-192" key="32" pos="768" pan="0"/>
          <note vol="157" len="-192" key="1" pos="768" pan="0"/>
          <note vol="157" len="-192" key="32" pos="792" pan="0"/>
          <note vol="157" len="-192" key="1" pos="840" pan="0"/>
          <note vol="157" len="-192" key="34" pos="840" pan="0"/>
          <note vol="157" len="-192" key="32" pos="864" pan="0"/>
          <note vol="157" len="-192" key="32" pos="888" pan="0"/>
          <note vol="157" len="-192" key="1" pos="912" pan="0"/>
          <note vol="157" len="-192" key="32" pos="912" pan="0"/>
          <note vol="157" len="-192" key="1" pos="960" pan="0"/>
          <note vol="157" len="-192" key="32" pos="984" pan="0"/>
          <note vol="157" len="-192" key="1" pos="1032" pan="0"/>
          <note vol="157" len="-192" key="34" pos="1056" pan="0"/>
          <note vol="157" len="-192" key="32" pos="1104" pan="0"/>
          <note vol="157" len="-192" key="34" pos="1128" pan="0"/>
          <note vol="157" len="-192" key="1" pos="1152" pan="0"/>
          <note vol="157" len="-192" key="32" pos="1176" pan="0"/>
          <note vol="157" len="-192" key="32" pos="1200" pan="0"/>
          <note vol="157" len="-192" key="1" pos="1224" pan="0"/>
          <note vol="157" len="-192" key="34" pos="1248" pan="0"/>
          <note vol="157" len="-192" key="32" pos="1272" pan="0"/>
          <note vol="157" len="-192" key="1" pos="1296" pan="0"/>
          <note vol="157" len="-192" key="32" pos="1320" pan="0"/>
          <note vol="157" len="-192" key="1" pos="1344" pan="0"/>
          <note vol="157" len="-192" key="32" pos="1344" pan="0"/>
          <note vol="157" len="-192" key="32" pos="1368" pan="0"/>
          <note vol="157" len="-192" key="1" pos="1392" pan="0"/>
          <note vol="157" len="-192" key="34" pos="1392" pan="0"/>
          <note vol="157" len="-192" key="32" pos="1440" pan="0"/>
          <note vol="157" len="-192" key="32" pos="1464" pan="0"/>
          <note vol="157" len="-192" key="1" pos="1464" pan="0"/>
          <note vol="157" len="-192" key="34" pos="1488" pan="0"/>
        </pattern>
        <pattern name="FPC_Kick_Gretc_001.wav" muted="0" steps="16" pos="12480" type="0">
          <note vol="157" len="-192" key="1" pos="0" pan="0"/>
          <note vol="157" len="-192" key="1" pos="48" pan="0"/>
          <note vol="157" len="-192" key="34" pos="96" pan="0"/>
          <note vol="157" len="-192" key="1" pos="96" pan="0"/>
          <note vol="157" len="-192" key="32" pos="120" pan="0"/>
          <note vol="157" len="-192" key="1" pos="144" pan="0"/>
          <note vol="157" len="-192" key="1" pos="192" pan="0"/>
          <note vol="157" len="-192" key="1" pos="240" pan="0"/>
          <note vol="157" len="-192" key="32" pos="276" pan="0"/>
          <note vol="157" len="-192" key="34" pos="288" pan="0"/>
          <note vol="157" len="-192" key="1" pos="288" pan="0"/>
          <note vol="157" len="-192" key="32" pos="312" pan="0"/>
          <note vol="157" len="-192" key="32" pos="324" pan="0"/>
          <note vol="157" len="-192" key="1" pos="336" pan="0"/>
          <note vol="157" len="-192" key="1" pos="384" pan="0"/>
          <note vol="157" len="-192" key="1" pos="432" pan="0"/>
          <note vol="157" len="-192" key="32" pos="456" pan="0"/>
          <note vol="157" len="-192" key="32" pos="468" pan="0"/>
          <note vol="157" len="-192" key="32" pos="480" pan="0"/>
          <note vol="157" len="-192" key="1" pos="480" pan="0"/>
          <note vol="157" len="-192" key="32" pos="492" pan="0"/>
          <note vol="157" len="-192" key="32" pos="528" pan="0"/>
          <note vol="157" len="-192" key="1" pos="528" pan="0"/>
          <note vol="157" len="-192" key="32" pos="540" pan="0"/>
          <note vol="157" len="-192" key="32" pos="552" pan="0"/>
          <note vol="157" len="-192" key="1" pos="576" pan="0"/>
          <note vol="157" len="-192" key="34" pos="624" pan="0"/>
          <note vol="157" len="-192" key="1" pos="624" pan="0"/>
          <note vol="157" len="-192" key="32" pos="648" pan="0"/>
          <note vol="157" len="-192" key="32" pos="660" pan="0"/>
          <note vol="157" len="-192" key="32" pos="672" pan="0"/>
          <note vol="157" len="-192" key="1" pos="672" pan="0"/>
          <note vol="157" len="-192" key="32" pos="684" pan="0"/>
          <note vol="157" len="-192" key="34" pos="696" pan="0"/>
          <note vol="157" len="-192" key="1" pos="720" pan="0"/>
          <note vol="157" len="-192" key="1" pos="768" pan="0"/>
          <note vol="157" len="-192" key="1" pos="816" pan="0"/>
          <note vol="157" len="-192" key="32" pos="852" pan="0"/>
          <note vol="157" len="-192" key="1" pos="864" pan="0"/>
          <note vol="157" len="-192" key="34" pos="864" pan="0"/>
          <note vol="157" len="-192" key="34" pos="888" pan="0"/>
          <note vol="157" len="-192" key="1" pos="912" pan="0"/>
          <note vol="157" len="-192" key="34" pos="912" pan="0"/>
          <note vol="157" len="-192" key="34" pos="936" pan="0"/>
          <note vol="157" len="-192" key="1" pos="960" pan="0"/>
          <note vol="157" len="-192" key="1" pos="1008" pan="0"/>
          <note vol="157" len="-192" key="34" pos="1032" pan="0"/>
          <note vol="157" len="-192" key="1" pos="1056" pan="0"/>
          <note vol="157" len="-192" key="32" pos="1056" pan="0"/>
          <note vol="157" len="-192" key="32" pos="1068" pan="0"/>
          <note vol="157" len="-192" key="32" pos="1080" pan="0"/>
          <note vol="157" len="-192" key="32" pos="1092" pan="0"/>
          <note vol="157" len="-192" key="1" pos="1104" pan="0"/>
          <note vol="157" len="-192" key="1" pos="1152" pan="0"/>
          <note vol="157" len="-192" key="1" pos="1200" pan="0"/>
          <note vol="157" len="-192" key="34" pos="1248" pan="0"/>
          <note vol="157" len="-192" key="1" pos="1248" pan="0"/>
          <note vol="157" len="-192" key="1" pos="1296" pan="0"/>
          <note vol="157" len="-192" key="32" pos="1296" pan="0"/>
          <note vol="157" len="-192" key="32" pos="1308" pan="0"/>
          <note vol="157" len="-192" key="32" pos="1320" pan="0"/>
          <note vol="157" len="-192" key="32" pos="1332" pan="0"/>
          <note vol="157" len="-192" key="1" pos="1344" pan="0"/>
          <note vol="157" len="-192" key="1" pos="1392" pan="0"/>
          <note vol="157" len="-192" key="32" pos="1428" pan="0"/>
          <note vol="157" len="-192" key="1" pos="1440" pan="0"/>
          <note vol="157" len="-192" key="34" pos="1440" pan="0"/>
          <note vol="127" len="-192" key="26" pos="1452" pan="0"/>
          <note vol="157" len="-192" key="32" pos="1464" pan="0"/>
          <note vol="157" len="-192" key="34" pos="1476" pan="0"/>
          <note vol="157" len="-192" key="1" pos="1488" pan="0"/>
          <note vol="127" len="-192" key="26" pos="1500" pan="0"/>
          <note vol="157" len="-192" key="32" pos="1500" pan="0"/>
          <note vol="157" len="-192" key="34" pos="1512" pan="0"/>
          <note vol="127" len="-192" key="26" pos="1512" pan="0"/>
        </pattern>
        <pattern name="TOUHOU INSTRUMENT + DRUM KIT" muted="0" steps="16" pos="14016" type="0">
          <note vol="157" len="-192" key="1" pos="0" pan="0"/>
          <note vol="157" len="-192" key="32" pos="24" pan="0"/>
          <note vol="157" len="-192" key="1" pos="48" pan="0"/>
          <note vol="157" len="-192" key="26" pos="48" pan="0"/>
          <note vol="157" len="-192" key="32" pos="72" pan="0"/>
          <note vol="157" len="-192" key="1" pos="96" pan="0"/>
          <note vol="157" len="-192" key="32" pos="120" pan="0"/>
          <note vol="157" len="-192" key="1" pos="144" pan="0"/>
          <note vol="157" len="-192" key="26" pos="144" pan="0"/>
          <note vol="157" len="-192" key="32" pos="168" pan="0"/>
          <note vol="157" len="-192" key="1" pos="192" pan="0"/>
          <note vol="157" len="-192" key="32" pos="216" pan="0"/>
          <note vol="157" len="-192" key="1" pos="240" pan="0"/>
          <note vol="157" len="-192" key="26" pos="240" pan="0"/>
          <note vol="157" len="-192" key="32" pos="264" pan="0"/>
          <note vol="157" len="-192" key="1" pos="288" pan="0"/>
          <note vol="157" len="-192" key="32" pos="312" pan="0"/>
          <note vol="157" len="-192" key="26" pos="336" pan="0"/>
          <note vol="157" len="-192" key="1" pos="336" pan="0"/>
          <note vol="157" len="-192" key="32" pos="360" pan="0"/>
          <note vol="157" len="-192" key="1" pos="384" pan="0"/>
          <note vol="157" len="-192" key="32" pos="408" pan="0"/>
          <note vol="157" len="-192" key="26" pos="432" pan="0"/>
          <note vol="157" len="-192" key="1" pos="432" pan="0"/>
          <note vol="157" len="-192" key="32" pos="456" pan="0"/>
          <note vol="157" len="-192" key="1" pos="480" pan="0"/>
          <note vol="157" len="-192" key="32" pos="504" pan="0"/>
          <note vol="157" len="-192" key="1" pos="528" pan="0"/>
          <note vol="157" len="-192" key="26" pos="528" pan="0"/>
          <note vol="157" len="-192" key="32" pos="552" pan="0"/>
          <note vol="157" len="-192" key="1" pos="576" pan="0"/>
          <note vol="157" len="-192" key="32" pos="600" pan="0"/>
          <note vol="157" len="-192" key="1" pos="624" pan="0"/>
          <note vol="157" len="-192" key="26" pos="624" pan="0"/>
          <note vol="157" len="-192" key="32" pos="648" pan="0"/>
          <note vol="157" len="-192" key="1" pos="672" pan="0"/>
          <note vol="157" len="-192" key="32" pos="696" pan="0"/>
          <note vol="157" len="-192" key="34" pos="696" pan="0"/>
          <note vol="157" len="-192" key="1" pos="720" pan="0"/>
          <note vol="157" len="-192" key="26" pos="720" pan="0"/>
          <note vol="127" len="-192" key="26" pos="744" pan="0"/>
          <note vol="157" len="-192" key="32" pos="744" pan="0"/>
          <note vol="157" len="-192" key="1" pos="768" pan="0"/>
          <note vol="157" len="-192" key="32" pos="792" pan="0"/>
          <note vol="157" len="-192" key="26" pos="816" pan="0"/>
          <note vol="157" len="-192" key="1" pos="816" pan="0"/>
          <note vol="157" len="-192" key="32" pos="840" pan="0"/>
          <note vol="157" len="-192" key="1" pos="864" pan="0"/>
          <note vol="157" len="-192" key="32" pos="888" pan="0"/>
          <note vol="157" len="-192" key="1" pos="912" pan="0"/>
          <note vol="157" len="-192" key="26" pos="912" pan="0"/>
          <note vol="157" len="-192" key="32" pos="936" pan="0"/>
          <note vol="157" len="-192" key="1" pos="960" pan="0"/>
          <note vol="157" len="-192" key="32" pos="984" pan="0"/>
          <note vol="157" len="-192" key="1" pos="1008" pan="0"/>
          <note vol="157" len="-192" key="26" pos="1008" pan="0"/>
          <note vol="157" len="-192" key="32" pos="1032" pan="0"/>
          <note vol="157" len="-192" key="1" pos="1056" pan="0"/>
          <note vol="157" len="-192" key="32" pos="1080" pan="0"/>
          <note vol="157" len="-192" key="1" pos="1104" pan="0"/>
          <note vol="157" len="-192" key="26" pos="1104" pan="0"/>
          <note vol="157" len="-192" key="32" pos="1128" pan="0"/>
          <note vol="157" len="-192" key="1" pos="1152" pan="0"/>
          <note vol="157" len="-192" key="32" pos="1176" pan="0"/>
          <note vol="157" len="-192" key="1" pos="1200" pan="0"/>
          <note vol="157" len="-192" key="26" pos="1200" pan="0"/>
          <note vol="157" len="-192" key="32" pos="1224" pan="0"/>
          <note vol="157" len="-192" key="1" pos="1248" pan="0"/>
          <note vol="157" len="-192" key="32" pos="1272" pan="0"/>
          <note vol="157" len="-192" key="1" pos="1296" pan="0"/>
          <note vol="157" len="-192" key="26" pos="1296" pan="0"/>
          <note vol="157" len="-192" key="32" pos="1320" pan="0"/>
          <note vol="157" len="-192" key="1" pos="1344" pan="0"/>
          <note vol="157" len="-192" key="32" pos="1368" pan="0"/>
          <note vol="157" len="-192" key="1" pos="1392" pan="0"/>
          <note vol="157" len="-192" key="26" pos="1392" pan="0"/>
          <note vol="157" len="-192" key="32" pos="1416" pan="0"/>
          <note vol="157" len="-192" key="1" pos="1440" pan="0"/>
          <note vol="157" len="-192" key="34" pos="1464" pan="0"/>
          <note vol="157" len="-192" key="32" pos="1464" pan="0"/>
          <note vol="127" len="-192" key="26" pos="1464" pan="0"/>
          <note vol="157" len="-192" key="1" pos="1488" pan="0"/>
          <note vol="157" len="-192" key="26" pos="1488" pan="0"/>
          <note vol="127" len="-192" key="26" pos="1512" pan="0"/>
          <note vol="157" len="-192" key="32" pos="1512" pan="0"/>
          <note vol="127" len="-192" key="26" pos="1524" pan="0"/>
        </pattern>
        <pattern name="TOUHOU INSTRUMENT + DRUM KIT" muted="0" steps="16" pos="15552" type="0">
          <note vol="157" len="-192" key="1" pos="0" pan="0"/>
          <note vol="157" len="-192" key="32" pos="24" pan="0"/>
          <note vol="157" len="-192" key="1" pos="48" pan="0"/>
          <note vol="157" len="-192" key="26" pos="48" pan="0"/>
          <note vol="157" len="-192" key="32" pos="72" pan="0"/>
          <note vol="157" len="-192" key="1" pos="96" pan="0"/>
          <note vol="157" len="-192" key="32" pos="120" pan="0"/>
          <note vol="157" len="-192" key="1" pos="144" pan="0"/>
          <note vol="157" len="-192" key="26" pos="144" pan="0"/>
          <note vol="157" len="-192" key="32" pos="168" pan="0"/>
          <note vol="157" len="-192" key="1" pos="192" pan="0"/>
          <note vol="157" len="-192" key="32" pos="216" pan="0"/>
          <note vol="157" len="-192" key="1" pos="240" pan="0"/>
          <note vol="157" len="-192" key="26" pos="240" pan="0"/>
          <note vol="157" len="-192" key="32" pos="264" pan="0"/>
          <note vol="157" len="-192" key="1" pos="288" pan="0"/>
          <note vol="157" len="-192" key="32" pos="312" pan="0"/>
          <note vol="157" len="-192" key="26" pos="336" pan="0"/>
          <note vol="157" len="-192" key="1" pos="336" pan="0"/>
          <note vol="157" len="-192" key="32" pos="360" pan="0"/>
          <note vol="157" len="-192" key="1" pos="384" pan="0"/>
          <note vol="157" len="-192" key="32" pos="408" pan="0"/>
          <note vol="157" len="-192" key="26" pos="432" pan="0"/>
          <note vol="157" len="-192" key="1" pos="432" pan="0"/>
          <note vol="157" len="-192" key="32" pos="456" pan="0"/>
          <note vol="157" len="-192" key="1" pos="480" pan="0"/>
          <note vol="157" len="-192" key="32" pos="504" pan="0"/>
          <note vol="157" len="-192" key="1" pos="528" pan="0"/>
          <note vol="157" len="-192" key="26" pos="528" pan="0"/>
          <note vol="157" len="-192" key="32" pos="552" pan="0"/>
          <note vol="157" len="-192" key="1" pos="576" pan="0"/>
          <note vol="157" len="-192" key="32" pos="600" pan="0"/>
          <note vol="157" len="-192" key="1" pos="624" pan="0"/>
          <note vol="157" len="-192" key="26" pos="624" pan="0"/>
          <note vol="157" len="-192" key="32" pos="648" pan="0"/>
          <note vol="157" len="-192" key="1" pos="672" pan="0"/>
          <note vol="157" len="-192" key="32" pos="696" pan="0"/>
          <note vol="157" len="-192" key="34" pos="696" pan="0"/>
          <note vol="157" len="-192" key="1" pos="720" pan="0"/>
          <note vol="157" len="-192" key="26" pos="720" pan="0"/>
          <note vol="127" len="-192" key="26" pos="744" pan="0"/>
          <note vol="157" len="-192" key="32" pos="744" pan="0"/>
          <note vol="157" len="-192" key="1" pos="768" pan="0"/>
          <note vol="157" len="-192" key="32" pos="792" pan="0"/>
          <note vol="157" len="-192" key="26" pos="816" pan="0"/>
          <note vol="157" len="-192" key="1" pos="816" pan="0"/>
          <note vol="157" len="-192" key="32" pos="840" pan="0"/>
          <note vol="157" len="-192" key="1" pos="864" pan="0"/>
          <note vol="157" len="-192" key="32" pos="888" pan="0"/>
          <note vol="157" len="-192" key="1" pos="912" pan="0"/>
          <note vol="157" len="-192" key="26" pos="912" pan="0"/>
          <note vol="157" len="-192" key="32" pos="936" pan="0"/>
          <note vol="157" len="-192" key="1" pos="960" pan="0"/>
          <note vol="157" len="-192" key="32" pos="984" pan="0"/>
          <note vol="157" len="-192" key="1" pos="1008" pan="0"/>
          <note vol="157" len="-192" key="26" pos="1008" pan="0"/>
          <note vol="157" len="-192" key="32" pos="1032" pan="0"/>
          <note vol="157" len="-192" key="1" pos="1056" pan="0"/>
          <note vol="157" len="-192" key="32" pos="1080" pan="0"/>
          <note vol="157" len="-192" key="45" pos="1104" pan="0"/>
          <note vol="157" len="-192" key="1" pos="1104" pan="0"/>
          <note vol="157" len="-192" key="26" pos="1104" pan="0"/>
          <note vol="157" len="-192" key="32" pos="1128" pan="0"/>
          <note vol="157" len="-192" key="37" pos="1152" pan="0"/>
          <note vol="157" len="-192" key="1" pos="1152" pan="0"/>
          <note vol="157" len="-192" key="32" pos="1176" pan="0"/>
          <note vol="157" len="-192" key="1" pos="1200" pan="0"/>
          <note vol="157" len="-192" key="26" pos="1200" pan="0"/>
          <note vol="157" len="-192" key="40" pos="1224" pan="0"/>
          <note vol="157" len="-192" key="32" pos="1224" pan="0"/>
          <note vol="157" len="-192" key="1" pos="1248" pan="0"/>
          <note vol="157" len="-192" key="26" pos="1248" pan="0"/>
          <note vol="157" len="-192" key="32" pos="1272" pan="0"/>
          <note vol="157" len="-192" key="37" pos="1296" pan="0"/>
          <note vol="157" len="-192" key="1" pos="1296" pan="0"/>
          <note vol="157" len="-192" key="26" pos="1296" pan="0"/>
          <note vol="157" len="-192" key="32" pos="1320" pan="0"/>
          <note vol="157" len="-192" key="37" pos="1344" pan="0"/>
          <note vol="157" len="-192" key="1" pos="1344" pan="0"/>
          <note vol="157" len="-192" key="32" pos="1368" pan="0"/>
          <note vol="157" len="-192" key="1" pos="1392" pan="0"/>
          <note vol="157" len="-192" key="26" pos="1392" pan="0"/>
          <note vol="157" len="-192" key="40" pos="1416" pan="0"/>
          <note vol="157" len="-192" key="32" pos="1416" pan="0"/>
          <note vol="157" len="-192" key="26" pos="1440" pan="0"/>
          <note vol="157" len="-192" key="1" pos="1440" pan="0"/>
          <note vol="157" len="-192" key="34" pos="1464" pan="0"/>
          <note vol="157" len="-192" key="32" pos="1464" pan="0"/>
          <note vol="157" len="-192" key="37" pos="1488" pan="0"/>
          <note vol="157" len="-192" key="1" pos="1488" pan="0"/>
          <note vol="157" len="-192" key="26" pos="1488" pan="0"/>
          <note vol="157" len="-192" key="32" pos="1512" pan="0"/>
          <note vol="127" len="-192" key="26" pos="1512" pan="0"/>
        </pattern>
        <pattern name="TOUHOU INSTRUMENT + DRUM KIT" muted="0" steps="16" pos="17088" type="0">
          <note vol="157" len="-192" key="43" pos="0" pan="0"/>
          <note vol="157" len="-192" key="45" pos="0" pan="0"/>
          <note vol="157" len="-192" key="13" pos="0" pan="0"/>
          <note vol="157" len="-192" key="32" pos="24" pan="0"/>
          <note vol="157" len="-192" key="13" pos="48" pan="0"/>
          <note vol="157" len="-192" key="26" pos="48" pan="0"/>
          <note vol="157" len="-192" key="32" pos="72" pan="0"/>
          <note vol="157" len="-192" key="13" pos="96" pan="0"/>
          <note vol="157" len="-192" key="32" pos="120" pan="0"/>
          <note vol="157" len="-192" key="13" pos="144" pan="0"/>
          <note vol="157" len="-192" key="26" pos="144" pan="0"/>
          <note vol="157" len="-192" key="32" pos="168" pan="0"/>
          <note vol="157" len="-192" key="13" pos="192" pan="0"/>
          <note vol="157" len="-192" key="32" pos="216" pan="0"/>
          <note vol="157" len="-192" key="26" pos="240" pan="0"/>
          <note vol="157" len="-192" key="13" pos="240" pan="0"/>
          <note vol="157" len="-192" key="32" pos="264" pan="0"/>
          <note vol="157" len="-192" key="13" pos="288" pan="0"/>
          <note vol="157" len="-192" key="32" pos="312" pan="0"/>
          <note vol="157" len="-192" key="13" pos="336" pan="0"/>
          <note vol="157" len="-192" key="26" pos="336" pan="0"/>
          <note vol="157" len="-192" key="32" pos="360" pan="0"/>
          <note vol="157" len="-192" key="13" pos="384" pan="0"/>
          <note vol="157" len="-192" key="32" pos="408" pan="0"/>
          <note vol="157" len="-192" key="13" pos="432" pan="0"/>
          <note vol="157" len="-192" key="26" pos="432" pan="0"/>
          <note vol="157" len="-192" key="32" pos="456" pan="0"/>
          <note vol="157" len="-192" key="13" pos="480" pan="0"/>
          <note vol="157" len="-192" key="32" pos="504" pan="0"/>
          <note vol="157" len="-192" key="26" pos="528" pan="0"/>
          <note vol="157" len="-192" key="13" pos="528" pan="0"/>
          <note vol="157" len="-192" key="32" pos="552" pan="0"/>
          <note vol="157" len="-192" key="13" pos="576" pan="0"/>
          <note vol="157" len="-192" key="32" pos="600" pan="0"/>
          <note vol="157" len="-192" key="26" pos="624" pan="0"/>
          <note vol="157" len="-192" key="13" pos="624" pan="0"/>
          <note vol="157" len="-192" key="32" pos="648" pan="0"/>
          <note vol="157" len="-192" key="13" pos="672" pan="0"/>
          <note vol="157" len="-192" key="34" pos="696" pan="0"/>
          <note vol="157" len="-192" key="32" pos="696" pan="0"/>
          <note vol="157" len="-192" key="13" pos="720" pan="0"/>
          <note vol="157" len="-192" key="26" pos="720" pan="0"/>
          <note vol="157" len="-192" key="32" pos="744" pan="0"/>
          <note vol="157" len="-192" key="26" pos="744" pan="0"/>
          <note vol="157" len="-192" key="13" pos="768" pan="0"/>
          <note vol="157" len="-192" key="32" pos="792" pan="0"/>
          <note vol="157" len="-192" key="13" pos="816" pan="0"/>
          <note vol="157" len="-192" key="26" pos="816" pan="0"/>
          <note vol="157" len="-192" key="32" pos="840" pan="0"/>
          <note vol="157" len="-192" key="13" pos="864" pan="0"/>
          <note vol="157" len="-192" key="32" pos="888" pan="0"/>
          <note vol="157" len="-192" key="26" pos="912" pan="0"/>
          <note vol="157" len="-192" key="13" pos="912" pan="0"/>
          <note vol="157" len="-192" key="32" pos="936" pan="0"/>
          <note vol="157" len="-192" key="13" pos="960" pan="0"/>
          <note vol="157" len="-192" key="32" pos="984" pan="0"/>
          <note vol="157" len="-192" key="13" pos="1008" pan="0"/>
          <note vol="157" len="-192" key="26" pos="1008" pan="0"/>
          <note vol="157" len="-192" key="32" pos="1032" pan="0"/>
          <note vol="157" len="-192" key="13" pos="1056" pan="0"/>
          <note vol="157" len="-192" key="32" pos="1080" pan="0"/>
          <note vol="157" len="-192" key="13" pos="1104" pan="0"/>
          <note vol="157" len="-192" key="26" pos="1104" pan="0"/>
          <note vol="157" len="-192" key="32" pos="1128" pan="0"/>
          <note vol="157" len="-192" key="13" pos="1152" pan="0"/>
          <note vol="157" len="-192" key="26" pos="1152" pan="0"/>
          <note vol="157" len="-192" key="32" pos="1176" pan="0"/>
          <note vol="157" len="-192" key="13" pos="1200" pan="0"/>
          <note vol="157" len="-192" key="26" pos="1200" pan="0"/>
          <note vol="157" len="-192" key="32" pos="1224" pan="0"/>
          <note vol="157" len="-192" key="13" pos="1248" pan="0"/>
          <note vol="157" len="-192" key="26" pos="1248" pan="0"/>
          <note vol="157" len="-192" key="32" pos="1272" pan="0"/>
          <note vol="157" len="-192" key="13" pos="1296" pan="0"/>
          <note vol="157" len="-192" key="26" pos="1296" pan="0"/>
          <note vol="157" len="-192" key="32" pos="1320" pan="0"/>
          <note vol="157" len="-192" key="13" pos="1344" pan="0"/>
          <note vol="157" len="-192" key="32" pos="1368" pan="0"/>
          <note vol="157" len="-192" key="13" pos="1392" pan="0"/>
          <note vol="157" len="-192" key="26" pos="1392" pan="0"/>
          <note vol="157" len="-192" key="32" pos="1416" pan="0"/>
          <note vol="157" len="-192" key="13" pos="1440" pan="0"/>
          <note vol="157" len="-192" key="26" pos="1440" pan="0"/>
          <note vol="157" len="-192" key="32" pos="1464" pan="0"/>
          <note vol="157" len="-192" key="34" pos="1464" pan="0"/>
          <note vol="128" len="-192" key="26" pos="1464" pan="0"/>
          <note vol="128" len="-192" key="26" pos="1476" pan="0"/>
          <note vol="157" len="-192" key="13" pos="1488" pan="0"/>
          <note vol="157" len="-192" key="26" pos="1488" pan="0"/>
          <note vol="128" len="-192" key="26" pos="1500" pan="0"/>
          <note vol="128" len="-192" key="26" pos="1512" pan="0"/>
          <note vol="157" len="-192" key="32" pos="1512" pan="0"/>
          <note vol="128" len="-192" key="26" pos="1524" pan="0"/>
        </pattern>
        <pattern name="TOUHOU INSTRUMENT + DRUM KIT" muted="0" steps="16" pos="24768" type="0">
          <note vol="157" len="-192" key="1" pos="0" pan="0"/>
          <note vol="157" len="-192" key="32" pos="0" pan="0"/>
          <note vol="157" len="-192" key="32" pos="24" pan="0"/>
          <note vol="157" len="-192" key="34" pos="72" pan="0"/>
          <note vol="157" len="-192" key="1" pos="72" pan="0"/>
          <note vol="157" len="-192" key="32" pos="96" pan="0"/>
          <note vol="157" len="-192" key="32" pos="120" pan="0"/>
          <note vol="157" len="-192" key="32" pos="144" pan="0"/>
          <note vol="157" len="-192" key="1" pos="192" pan="0"/>
          <note vol="157" len="-192" key="32" pos="216" pan="0"/>
          <note vol="157" len="-192" key="1" pos="264" pan="0"/>
          <note vol="157" len="-192" key="34" pos="288" pan="0"/>
          <note vol="157" len="-192" key="32" pos="336" pan="0"/>
          <note vol="157" len="-192" key="34" pos="360" pan="0"/>
          <note vol="157" len="-192" key="1" pos="384" pan="0"/>
          <note vol="157" len="-192" key="32" pos="408" pan="0"/>
          <note vol="157" len="-192" key="32" pos="432" pan="0"/>
          <note vol="157" len="-192" key="1" pos="456" pan="0"/>
          <note vol="157" len="-192" key="34" pos="480" pan="0"/>
          <note vol="157" len="-192" key="32" pos="504" pan="0"/>
          <note vol="157" len="-192" key="32" pos="552" pan="0"/>
          <note vol="157" len="-192" key="1" pos="576" pan="0"/>
          <note vol="157" len="-192" key="1" pos="624" pan="0"/>
          <note vol="157" len="-192" key="34" pos="624" pan="0"/>
          <note vol="157" len="-192" key="32" pos="696" pan="0"/>
          <note vol="157" len="-192" key="1" pos="696" pan="0"/>
          <note vol="157" len="-192" key="32" pos="720" pan="0"/>
          <note vol="157" len="-192" key="34" pos="744" pan="0"/>
          <note vol="157" len="-192" key="32" pos="768" pan="0"/>
          <note vol="157" len="-192" key="1" pos="768" pan="0"/>
          <note vol="157" len="-192" key="32" pos="792" pan="0"/>
          <note vol="157" len="-192" key="34" pos="840" pan="0"/>
          <note vol="157" len="-192" key="1" pos="840" pan="0"/>
          <note vol="157" len="-192" key="32" pos="864" pan="0"/>
          <note vol="157" len="-192" key="32" pos="888" pan="0"/>
          <note vol="157" len="-192" key="32" pos="912" pan="0"/>
          <note vol="157" len="-192" key="1" pos="960" pan="0"/>
          <note vol="157" len="-192" key="32" pos="984" pan="0"/>
          <note vol="157" len="-192" key="1" pos="1032" pan="0"/>
          <note vol="157" len="-192" key="34" pos="1056" pan="0"/>
          <note vol="157" len="-192" key="32" pos="1104" pan="0"/>
          <note vol="157" len="-192" key="34" pos="1128" pan="0"/>
          <note vol="157" len="-192" key="1" pos="1152" pan="0"/>
          <note vol="157" len="-192" key="32" pos="1176" pan="0"/>
          <note vol="157" len="-192" key="32" pos="1200" pan="0"/>
          <note vol="157" len="-192" key="1" pos="1224" pan="0"/>
          <note vol="157" len="-192" key="34" pos="1248" pan="0"/>
          <note vol="157" len="-192" key="32" pos="1272" pan="0"/>
          <note vol="157" len="-192" key="32" pos="1320" pan="0"/>
          <note vol="157" len="-192" key="1" pos="1344" pan="0"/>
          <note vol="157" len="-192" key="32" pos="1344" pan="0"/>
          <note vol="157" len="-192" key="32" pos="1368" pan="0"/>
          <note vol="157" len="-192" key="1" pos="1392" pan="0"/>
          <note vol="157" len="-192" key="34" pos="1392" pan="0"/>
          <note vol="157" len="-192" key="32" pos="1440" pan="0"/>
          <note vol="157" len="-192" key="32" pos="1464" pan="0"/>
          <note vol="157" len="-192" key="1" pos="1464" pan="0"/>
          <note vol="157" len="-192" key="34" pos="1488" pan="0"/>
        </pattern>
      </track>
      <track name="Sub Bass" solo="0" muted="0" type="0">
        <instrumenttrack vol="100" usemasterpitch="1" pitch="0" pitchrange="1" pan="0" basenote="57" fxch="0">
          <instrument name="zynaddsubfx">
            <zynaddsubfx forwardmidicc="1" fmgain="127" filterq="64" bandwidth="64" resbandwidth="64" rescenterfreq="64" portamento="127" filterfreq="127" modifiedcontrollers="65,74,">
              <ZynAddSubFX-data ZynAddSubFX-author="Nasca Octavian Paul" version-major="2" version-revision="1" version-minor="4">
                <INFORMATION/>
                <BASE_PARAMETERS>
                  <par name="max_midi_parts" value="16"/>
                  <par name="max_kit_items_per_instrument" value="16"/>
                  <par name="max_system_effects" value="4"/>
                  <par name="max_insertion_effects" value="8"/>
                  <par name="max_instrument_effects" value="3"/>
                  <par name="max_addsynth_voices" value="8"/>
                </BASE_PARAMETERS>
                <MASTER>
                  <par name="volume" value="80"/>
                  <par name="key_shift" value="64"/>
                  <par_bool name="nrpn_receive" value="yes"/>
                  <MICROTONAL>
                    <string name="name">12tET</string>
                    <string name="comment">Equal Temperament 12 notes per octave</string>
                    <par_bool name="invert_up_down" value="no"/>
                    <par name="invert_up_down_center" value="60"/>
                    <par_bool name="enabled" value="no"/>
                    <par name="global_fine_detune" value="64"/>
                    <par name="a_note" value="69"/>
                    <par_real name="a_freq" value="440"/>
                  </MICROTONAL>
                  <PART id="0">
                    <par_bool name="enabled" value="yes"/>
                    <par name="volume" value="96"/>
                    <par name="panning" value="64"/>
                    <par name="min_key" value="0"/>
                    <par name="max_key" value="127"/>
                    <par name="key_shift" value="64"/>
                    <par name="rcv_chn" value="0"/>
                    <par name="velocity_sensing" value="64"/>
                    <par name="velocity_offset" value="64"/>
                    <par_bool name="note_on" value="yes"/>
                    <par_bool name="poly_mode" value="yes"/>
                    <par name="legato_mode" value="0"/>
                    <par name="key_limit" value="0"/>
                    <INSTRUMENT>
                      <INFO>
                        <string name="name"/>
                        <string name="author"/>
                        <string name="comments"/>
                        <par name="type" value="0"/>
                      </INFO>
                      <INSTRUMENT_KIT>
                        <par name="kit_mode" value="0"/>
                        <par_bool name="drum_mode" value="no"/>
                        <INSTRUMENT_KIT_ITEM id="0">
                          <par_bool name="enabled" value="yes"/>
                          <string name="name"/>
                          <par_bool name="muted" value="no"/>
                          <par name="min_key" value="0"/>
                          <par name="max_key" value="127"/>
                          <par name="send_to_instrument_effect" value="0"/>
                          <par_bool name="add_enabled" value="yes"/>
                          <ADD_SYNTH_PARAMETERS>
                            <par_bool name="stereo" value="yes"/>
                            <AMPLITUDE_PARAMETERS>
                              <par name="volume" value="85"/>
                              <par name="panning" value="64"/>
                              <par name="velocity_sensing" value="64"/>
                              <par name="punch_strength" value="0"/>
                              <par name="punch_time" value="60"/>
                              <par name="punch_stretch" value="64"/>
                              <par name="punch_velocity_sensing" value="72"/>
                              <par name="harmonic_randomness_grouping" value="0"/>
                              <AMPLITUDE_ENVELOPE>
                                <par_bool name="free_mode" value="yes"/>
                                <par name="env_points" value="4"/>
                                <par name="env_sustain" value="2"/>
                                <par name="env_stretch" value="64"/>
                                <par_bool name="forced_release" value="yes"/>
                                <par_bool name="linear_envelope" value="no"/>
                                <par name="A_dt" value="0"/>
                                <par name="D_dt" value="40"/>
                                <par name="R_dt" value="25"/>
                                <par name="A_val" value="64"/>
                                <par name="D_val" value="64"/>
                                <par name="S_val" value="127"/>
                                <par name="R_val" value="64"/>
                                <POINT id="0">
                                  <par name="val" value="0"/>
                                </POINT>
                                <POINT id="1">
                                  <par name="dt" value="1"/>
                                  <par name="val" value="127"/>
                                </POINT>
                                <POINT id="2">
                                  <par name="dt" value="50"/>
                                  <par name="val" value="127"/>
                                </POINT>
                                <POINT id="3">
                                  <par name="dt" value="20"/>
                                  <par name="val" value="0"/>
                                </POINT>
                              </AMPLITUDE_ENVELOPE>
                              <AMPLITUDE_LFO>
                                <par_real name="freq" value="0.629921"/>
                                <par name="intensity" value="0"/>
                                <par name="start_phase" value="64"/>
                                <par name="lfo_type" value="0"/>
                                <par name="randomness_amplitude" value="0"/>
                                <par name="randomness_frequency" value="0"/>
                                <par name="delay" value="0"/>
                                <par name="stretch" value="64"/>
                                <par_bool name="continous" value="no"/>
                              </AMPLITUDE_LFO>
                            </AMPLITUDE_PARAMETERS>
                            <FREQUENCY_PARAMETERS>
                              <par name="detune" value="8192"/>
                              <par name="coarse_detune" value="15360"/>
                              <par name="detune_type" value="1"/>
                              <par name="bandwidth" value="64"/>
                              <FREQUENCY_ENVELOPE>
                                <par_bool name="free_mode" value="no"/>
                                <par name="env_points" value="3"/>
                                <par name="env_sustain" value="1"/>
                                <par name="env_stretch" value="0"/>
                                <par_bool name="forced_release" value="no"/>
                                <par_bool name="linear_envelope" value="no"/>
                                <par name="A_dt" value="50"/>
                                <par name="D_dt" value="10"/>
                                <par name="R_dt" value="60"/>
                                <par name="A_val" value="64"/>
                                <par name="D_val" value="64"/>
                                <par name="S_val" value="64"/>
                                <par name="R_val" value="64"/>
                              </FREQUENCY_ENVELOPE>
                              <FREQUENCY_LFO>
                                <par_real name="freq" value="0.551181"/>
                                <par name="intensity" value="0"/>
                                <par name="start_phase" value="64"/>
                                <par name="lfo_type" value="0"/>
                                <par name="randomness_amplitude" value="0"/>
                                <par name="randomness_frequency" value="0"/>
                                <par name="delay" value="0"/>
                                <par name="stretch" value="64"/>
                                <par_bool name="continous" value="no"/>
                              </FREQUENCY_LFO>
                            </FREQUENCY_PARAMETERS>
                            <FILTER_PARAMETERS>
                              <par name="velocity_sensing_amplitude" value="64"/>
                              <par name="velocity_sensing" value="64"/>
                              <FILTER>
                                <par name="category" value="0"/>
                                <par name="type" value="2"/>
                                <par name="freq" value="94"/>
                                <par name="q" value="40"/>
                                <par name="stages" value="0"/>
                                <par name="freq_track" value="64"/>
                                <par name="gain" value="64"/>
                              </FILTER>
                              <FILTER_ENVELOPE>
                                <par_bool name="free_mode" value="no"/>
                                <par name="env_points" value="4"/>
                                <par name="env_sustain" value="2"/>
                                <par name="env_stretch" value="0"/>
                                <par_bool name="forced_release" value="yes"/>
                                <par_bool name="linear_envelope" value="no"/>
                                <par name="A_dt" value="40"/>
                                <par name="D_dt" value="70"/>
                                <par name="R_dt" value="60"/>
                                <par name="A_val" value="64"/>
                                <par name="D_val" value="64"/>
                                <par name="S_val" value="64"/>
                                <par name="R_val" value="64"/>
                              </FILTER_ENVELOPE>
                              <FILTER_LFO>
                                <par_real name="freq" value="0.629921"/>
                                <par name="intensity" value="0"/>
                                <par name="start_phase" value="64"/>
                                <par name="lfo_type" value="0"/>
                                <par name="randomness_amplitude" value="0"/>
                                <par name="randomness_frequency" value="0"/>
                                <par name="delay" value="0"/>
                                <par name="stretch" value="64"/>
                                <par_bool name="continous" value="no"/>
                              </FILTER_LFO>
                            </FILTER_PARAMETERS>
                            <RESONANCE>
                              <par_bool name="enabled" value="no"/>
                            </RESONANCE>
                            <VOICE id="0">
                              <par_bool name="enabled" value="yes"/>
                              <par name="type" value="0"/>
                              <par name="unison_size" value="1"/>
                              <par name="unison_frequency_spread" value="29"/>
                              <par name="unison_stereo_spread" value="64"/>
                              <par name="unison_vibratto" value="64"/>
                              <par name="unison_vibratto_speed" value="64"/>
                              <par name="unison_invert_phase" value="0"/>
                              <par name="unison_phase_randomness" value="64"/>
                              <par name="delay" value="0"/>
                              <par_bool name="resonance" value="yes"/>
                              <par name="ext_oscil" value="-1"/>
                              <par name="ext_fm_oscil" value="-1"/>
                              <par name="oscil_phase" value="64"/>
                              <par name="oscil_fm_phase" value="64"/>
                              <par_bool name="filter_enabled" value="no"/>
                              <par_bool name="filter_bypass" value="no"/>
                              <par name="fm_enabled" value="0"/>
                              <OSCIL>
                                <par name="harmonic_mag_type" value="0"/>
                                <par name="base_function" value="0"/>
                                <par name="base_function_par" value="0"/>
                                <par name="base_function_modulation" value="0"/>
                                <par name="base_function_modulation_par1" value="64"/>
                                <par name="base_function_modulation_par2" value="64"/>
                                <par name="base_function_modulation_par3" value="32"/>
                                <par name="modulation" value="0"/>
                                <par name="modulation_par1" value="64"/>
                                <par name="modulation_par2" value="64"/>
                                <par name="modulation_par3" value="32"/>
                                <par name="wave_shaping" value="64"/>
                                <par name="wave_shaping_function" value="0"/>
                                <par name="filter_type" value="0"/>
                                <par name="filter_par1" value="64"/>
                                <par name="filter_par2" value="64"/>
                                <par name="filter_before_wave_shaping" value="0"/>
                                <par name="spectrum_adjust_type" value="0"/>
                                <par name="spectrum_adjust_par" value="64"/>
                                <par name="rand" value="64"/>
                                <par name="amp_rand_type" value="0"/>
                                <par name="amp_rand_power" value="64"/>
                                <par name="harmonic_shift" value="0"/>
                                <par_bool name="harmonic_shift_first" value="no"/>
                                <par name="adaptive_harmonics" value="0"/>
                                <par name="adaptive_harmonics_base_frequency" value="128"/>
                                <par name="adaptive_harmonics_power" value="100"/>
                                <HARMONICS>
                                  <HARMONIC id="1">
                                    <par name="mag" value="127"/>
                                    <par name="phase" value="64"/>
                                  </HARMONIC>
                                </HARMONICS>
                              </OSCIL>
                              <AMPLITUDE_PARAMETERS>
                                <par name="panning" value="64"/>
                                <par name="volume" value="100"/>
                                <par_bool name="volume_minus" value="no"/>
                                <par name="velocity_sensing" value="127"/>
                                <par_bool name="amp_envelope_enabled" value="no"/>
                                <par_bool name="amp_lfo_enabled" value="no"/>
                              </AMPLITUDE_PARAMETERS>
                              <FREQUENCY_PARAMETERS>
                                <par_bool name="fixed_freq" value="no"/>
                                <par name="fixed_freq_et" value="0"/>
                                <par name="detune" value="8192"/>
                                <par name="coarse_detune" value="0"/>
                                <par name="detune_type" value="0"/>
                                <par_bool name="freq_envelope_enabled" value="no"/>
                                <par_bool name="freq_lfo_enabled" value="no"/>
                              </FREQUENCY_PARAMETERS>
                            </VOICE>
                            <VOICE id="1">
                              <par_bool name="enabled" value="yes"/>
                              <par name="type" value="0"/>
                              <par name="unison_size" value="1"/>
                              <par name="unison_frequency_spread" value="29"/>
                              <par name="unison_stereo_spread" value="64"/>
                              <par name="unison_vibratto" value="64"/>
                              <par name="unison_vibratto_speed" value="64"/>
                              <par name="unison_invert_phase" value="0"/>
                              <par name="unison_phase_randomness" value="64"/>
                              <par name="delay" value="0"/>
                              <par_bool name="resonance" value="yes"/>
                              <par name="ext_oscil" value="-1"/>
                              <par name="ext_fm_oscil" value="-1"/>
                              <par name="oscil_phase" value="64"/>
                              <par name="oscil_fm_phase" value="64"/>
                              <par_bool name="filter_enabled" value="no"/>
                              <par_bool name="filter_bypass" value="no"/>
                              <par name="fm_enabled" value="0"/>
                              <OSCIL>
                                <par name="harmonic_mag_type" value="0"/>
                                <par name="base_function" value="13"/>
                                <par name="base_function_par" value="80"/>
                                <par name="base_function_modulation" value="0"/>
                                <par name="base_function_modulation_par1" value="64"/>
                                <par name="base_function_modulation_par2" value="64"/>
                                <par name="base_function_modulation_par3" value="32"/>
                                <par name="modulation" value="0"/>
                                <par name="modulation_par1" value="64"/>
                                <par name="modulation_par2" value="64"/>
                                <par name="modulation_par3" value="32"/>
                                <par name="wave_shaping" value="64"/>
                                <par name="wave_shaping_function" value="0"/>
                                <par name="filter_type" value="0"/>
                                <par name="filter_par1" value="64"/>
                                <par name="filter_par2" value="64"/>
                                <par name="filter_before_wave_shaping" value="0"/>
                                <par name="spectrum_adjust_type" value="0"/>
                                <par name="spectrum_adjust_par" value="64"/>
                                <par name="rand" value="64"/>
                                <par name="amp_rand_type" value="0"/>
                                <par name="amp_rand_power" value="64"/>
                                <par name="harmonic_shift" value="0"/>
                                <par_bool name="harmonic_shift_first" value="no"/>
                                <par name="adaptive_harmonics" value="0"/>
                                <par name="adaptive_harmonics_base_frequency" value="128"/>
                                <par name="adaptive_harmonics_power" value="100"/>
                                <HARMONICS>
                                  <HARMONIC id="1">
                                    <par name="mag" value="127"/>
                                    <par name="phase" value="64"/>
                                  </HARMONIC>
                                </HARMONICS>
                              </OSCIL>
                              <AMPLITUDE_PARAMETERS>
                                <par name="panning" value="64"/>
                                <par name="volume" value="127"/>
                                <par_bool name="volume_minus" value="no"/>
                                <par name="velocity_sensing" value="127"/>
                                <par_bool name="amp_envelope_enabled" value="no"/>
                                <par_bool name="amp_lfo_enabled" value="no"/>
                              </AMPLITUDE_PARAMETERS>
                              <FREQUENCY_PARAMETERS>
                                <par_bool name="fixed_freq" value="no"/>
                                <par name="fixed_freq_et" value="0"/>
                                <par name="detune" value="8192"/>
                                <par name="coarse_detune" value="0"/>
                                <par name="detune_type" value="0"/>
                                <par_bool name="freq_envelope_enabled" value="no"/>
                                <par_bool name="freq_lfo_enabled" value="no"/>
                              </FREQUENCY_PARAMETERS>
                            </VOICE>
                            <VOICE id="2">
                              <par_bool name="enabled" value="no"/>
                            </VOICE>
                            <VOICE id="3">
                              <par_bool name="enabled" value="no"/>
                            </VOICE>
                            <VOICE id="4">
                              <par_bool name="enabled" value="no"/>
                            </VOICE>
                            <VOICE id="5">
                              <par_bool name="enabled" value="no"/>
                            </VOICE>
                            <VOICE id="6">
                              <par_bool name="enabled" value="no"/>
                            </VOICE>
                            <VOICE id="7">
                              <par_bool name="enabled" value="no"/>
                            </VOICE>
                          </ADD_SYNTH_PARAMETERS>
                          <par_bool name="sub_enabled" value="no"/>
                          <par_bool name="pad_enabled" value="no"/>
                        </INSTRUMENT_KIT_ITEM>
                        <INSTRUMENT_KIT_ITEM id="1">
                          <par_bool name="enabled" value="no"/>
                        </INSTRUMENT_KIT_ITEM>
                        <INSTRUMENT_KIT_ITEM id="2">
                          <par_bool name="enabled" value="no"/>
                        </INSTRUMENT_KIT_ITEM>
                        <INSTRUMENT_KIT_ITEM id="3">
                          <par_bool name="enabled" value="no"/>
                        </INSTRUMENT_KIT_ITEM>
                        <INSTRUMENT_KIT_ITEM id="4">
                          <par_bool name="enabled" value="no"/>
                        </INSTRUMENT_KIT_ITEM>
                        <INSTRUMENT_KIT_ITEM id="5">
                          <par_bool name="enabled" value="no"/>
                        </INSTRUMENT_KIT_ITEM>
                        <INSTRUMENT_KIT_ITEM id="6">
                          <par_bool name="enabled" value="no"/>
                        </INSTRUMENT_KIT_ITEM>
                        <INSTRUMENT_KIT_ITEM id="7">
                          <par_bool name="enabled" value="no"/>
                        </INSTRUMENT_KIT_ITEM>
                        <INSTRUMENT_KIT_ITEM id="8">
                          <par_bool name="enabled" value="no"/>
                        </INSTRUMENT_KIT_ITEM>
                        <INSTRUMENT_KIT_ITEM id="9">
                          <par_bool name="enabled" value="no"/>
                        </INSTRUMENT_KIT_ITEM>
                        <INSTRUMENT_KIT_ITEM id="10">
                          <par_bool name="enabled" value="no"/>
                        </INSTRUMENT_KIT_ITEM>
                        <INSTRUMENT_KIT_ITEM id="11">
                          <par_bool name="enabled" value="no"/>
                        </INSTRUMENT_KIT_ITEM>
                        <INSTRUMENT_KIT_ITEM id="12">
                          <par_bool name="enabled" value="no"/>
                        </INSTRUMENT_KIT_ITEM>
                        <INSTRUMENT_KIT_ITEM id="13">
                          <par_bool name="enabled" value="no"/>
                        </INSTRUMENT_KIT_ITEM>
                        <INSTRUMENT_KIT_ITEM id="14">
                          <par_bool name="enabled" value="no"/>
                        </INSTRUMENT_KIT_ITEM>
                        <INSTRUMENT_KIT_ITEM id="15">
                          <par_bool name="enabled" value="no"/>
                        </INSTRUMENT_KIT_ITEM>
                      </INSTRUMENT_KIT>
                      <INSTRUMENT_EFFECTS>
                        <INSTRUMENT_EFFECT id="0">
                          <EFFECT>
                            <par name="type" value="3"/>
                            <par name="preset" value="0"/>
                            <EFFECT_PARAMETERS>
                              <par_no id="0">
                                <par name="par" value="64"/>
                              </par_no>
                              <par_no id="1">
                                <par name="par" value="64"/>
                              </par_no>
                              <par_no id="2">
                                <par name="par" value="50"/>
                              </par_no>
                              <par_no id="5">
                                <par name="par" value="90"/>
                              </par_no>
                              <par_no id="6">
                                <par name="par" value="40"/>
                              </par_no>
                              <par_no id="7">
                                <par name="par" value="85"/>
                              </par_no>
                              <par_no id="8">
                                <par name="par" value="64"/>
                              </par_no>
                              <par_no id="9">
                                <par name="par" value="119"/>
                              </par_no>
                            </EFFECT_PARAMETERS>
                          </EFFECT>
                          <par name="route" value="0"/>
                          <par_bool name="bypass" value="no"/>
                        </INSTRUMENT_EFFECT>
                        <INSTRUMENT_EFFECT id="1">
                          <EFFECT>
                            <par name="type" value="7"/>
                            <par name="preset" value="0"/>
                            <EFFECT_PARAMETERS>
                              <par_no id="0">
                                <par name="par" value="64"/>
                              </par_no>
                              <par_no id="10">
                                <par name="par" value="7"/>
                              </par_no>
                              <par_no id="12">
                                <par name="par" value="76"/>
                              </par_no>
                              <par_no id="13">
                                <par name="par" value="28"/>
                              </par_no>
                              <par_no id="15">
                                <par name="par" value="3"/>
                              </par_no>
                              <par_no id="16">
                                <par name="par" value="43"/>
                              </par_no>
                              <par_no id="17">
                                <par name="par" value="64"/>
                              </par_no>
                              <par_no id="18">
                                <par name="par" value="66"/>
                              </par_no>
                              <par_no id="19">
                                <par name="par" value="2"/>
                              </par_no>
                              <par_no id="21">
                                <par name="par" value="64"/>
                              </par_no>
                              <par_no id="22">
                                <par name="par" value="64"/>
                              </par_no>
                              <par_no id="23">
                                <par name="par" value="64"/>
                              </par_no>
                              <par_no id="26">
                                <par name="par" value="64"/>
                              </par_no>
                              <par_no id="27">
                                <par name="par" value="64"/>
                              </par_no>
                              <par_no id="28">
                                <par name="par" value="64"/>
                              </par_no>
                              <par_no id="31">
                                <par name="par" value="64"/>
                              </par_no>
                              <par_no id="32">
                                <par name="par" value="64"/>
                              </par_no>
                              <par_no id="33">
                                <par name="par" value="64"/>
                              </par_no>
                              <par_no id="36">
                                <par name="par" value="64"/>
                              </par_no>
                              <par_no id="37">
                                <par name="par" value="64"/>
                              </par_no>
                              <par_no id="38">
                                <par name="par" value="64"/>
                              </par_no>
                              <par_no id="41">
                                <par name="par" value="64"/>
                              </par_no>
                              <par_no id="42">
                                <par name="par" value="64"/>
                              </par_no>
                              <par_no id="43">
                                <par name="par" value="64"/>
                              </par_no>
                              <par_no id="46">
                                <par name="par" value="64"/>
                              </par_no>
                              <par_no id="47">
                                <par name="par" value="64"/>
                              </par_no>
                              <par_no id="48">
                                <par name="par" value="64"/>
                              </par_no>
                            </EFFECT_PARAMETERS>
                          </EFFECT>
                          <par name="route" value="0"/>
                          <par_bool name="bypass" value="no"/>
                        </INSTRUMENT_EFFECT>
                        <INSTRUMENT_EFFECT id="2">
                          <EFFECT>
                            <par name="type" value="0"/>
                          </EFFECT>
                          <par name="route" value="0"/>
                          <par_bool name="bypass" value="no"/>
                        </INSTRUMENT_EFFECT>
                      </INSTRUMENT_EFFECTS>
                    </INSTRUMENT>
                    <CONTROLLER>
                      <par name="pitchwheel_bendrange" value="100"/>
                      <par_bool name="expression_receive" value="yes"/>
                      <par name="panning_depth" value="64"/>
                      <par name="filter_cutoff_depth" value="64"/>
                      <par name="filter_q_depth" value="64"/>
                      <par name="bandwidth_depth" value="64"/>
                      <par name="mod_wheel_depth" value="80"/>
                      <par_bool name="mod_wheel_exponential" value="no"/>
                      <par_bool name="fm_amp_receive" value="yes"/>
                      <par_bool name="volume_receive" value="yes"/>
                      <par_bool name="sustain_receive" value="yes"/>
                      <par_bool name="portamento_receive" value="yes"/>
                      <par name="portamento_time" value="64"/>
                      <par name="portamento_pitchthresh" value="3"/>
                      <par name="portamento_pitchthreshtype" value="1"/>
                      <par name="portamento_portamento" value="1"/>
                      <par name="portamento_updowntimestretch" value="64"/>
                      <par name="portamento_proportional" value="0"/>
                      <par name="portamento_proprate" value="80"/>
                      <par name="portamento_propdepth" value="90"/>
                      <par name="resonance_center_depth" value="64"/>
                      <par name="resonance_bandwidth_depth" value="64"/>
                    </CONTROLLER>
                  </PART>
                  <PART id="1">
                    <par_bool name="enabled" value="no"/>
                  </PART>
                  <PART id="2">
                    <par_bool name="enabled" value="no"/>
                  </PART>
                  <PART id="3">
                    <par_bool name="enabled" value="no"/>
                  </PART>
                  <PART id="4">
                    <par_bool name="enabled" value="no"/>
                  </PART>
                  <PART id="5">
                    <par_bool name="enabled" value="no"/>
                  </PART>
                  <PART id="6">
                    <par_bool name="enabled" value="no"/>
                  </PART>
                  <PART id="7">
                    <par_bool name="enabled" value="no"/>
                  </PART>
                  <PART id="8">
                    <par_bool name="enabled" value="no"/>
                  </PART>
                  <PART id="9">
                    <par_bool name="enabled" value="no"/>
                  </PART>
                  <PART id="10">
                    <par_bool name="enabled" value="no"/>
                  </PART>
                  <PART id="11">
                    <par_bool name="enabled" value="no"/>
                  </PART>
                  <PART id="12">
                    <par_bool name="enabled" value="no"/>
                  </PART>
                  <PART id="13">
                    <par_bool name="enabled" value="no"/>
                  </PART>
                  <PART id="14">
                    <par_bool name="enabled" value="no"/>
                  </PART>
                  <PART id="15">
                    <par_bool name="enabled" value="no"/>
                  </PART>
                  <SYSTEM_EFFECTS>
                    <SYSTEM_EFFECT id="0">
                      <EFFECT>
                        <par name="type" value="0"/>
                      </EFFECT>
                      <VOLUME id="0">
                        <par name="vol" value="0"/>
                      </VOLUME>
                      <VOLUME id="1">
                        <par name="vol" value="0"/>
                      </VOLUME>
                      <VOLUME id="2">
                        <par name="vol" value="0"/>
                      </VOLUME>
                      <VOLUME id="3">
                        <par name="vol" value="0"/>
                      </VOLUME>
                      <VOLUME id="4">
                        <par name="vol" value="0"/>
                      </VOLUME>
                      <VOLUME id="5">
                        <par name="vol" value="0"/>
                      </VOLUME>
                      <VOLUME id="6">
                        <par name="vol" value="0"/>
                      </VOLUME>
                      <VOLUME id="7">
                        <par name="vol" value="0"/>
                      </VOLUME>
                      <VOLUME id="8">
                        <par name="vol" value="0"/>
                      </VOLUME>
                      <VOLUME id="9">
                        <par name="vol" value="0"/>
                      </VOLUME>
                      <VOLUME id="10">
                        <par name="vol" value="0"/>
                      </VOLUME>
                      <VOLUME id="11">
                        <par name="vol" value="0"/>
                      </VOLUME>
                      <VOLUME id="12">
                        <par name="vol" value="0"/>
                      </VOLUME>
                      <VOLUME id="13">
                        <par name="vol" value="0"/>
                      </VOLUME>
                      <VOLUME id="14">
                        <par name="vol" value="0"/>
                      </VOLUME>
                      <VOLUME id="15">
                        <par name="vol" value="0"/>
                      </VOLUME>
                      <SENDTO id="1">
                        <par name="send_vol" value="0"/>
                      </SENDTO>
                      <SENDTO id="2">
                        <par name="send_vol" value="0"/>
                      </SENDTO>
                      <SENDTO id="3">
                        <par name="send_vol" value="0"/>
                      </SENDTO>
                    </SYSTEM_EFFECT>
                    <SYSTEM_EFFECT id="1">
                      <EFFECT>
                        <par name="type" value="0"/>
                      </EFFECT>
                      <VOLUME id="0">
                        <par name="vol" value="0"/>
                      </VOLUME>
                      <VOLUME id="1">
                        <par name="vol" value="0"/>
                      </VOLUME>
                      <VOLUME id="2">
                        <par name="vol" value="0"/>
                      </VOLUME>
                      <VOLUME id="3">
                        <par name="vol" value="0"/>
                      </VOLUME>
                      <VOLUME id="4">
                        <par name="vol" value="0"/>
                      </VOLUME>
                      <VOLUME id="5">
                        <par name="vol" value="0"/>
                      </VOLUME>
                      <VOLUME id="6">
                        <par name="vol" value="0"/>
                      </VOLUME>
                      <VOLUME id="7">
                        <par name="vol" value="0"/>
                      </VOLUME>
                      <VOLUME id="8">
                        <par name="vol" value="0"/>
                      </VOLUME>
                      <VOLUME id="9">
                        <par name="vol" value="0"/>
                      </VOLUME>
                      <VOLUME id="10">
                        <par name="vol" value="0"/>
                      </VOLUME>
                      <VOLUME id="11">
                        <par name="vol" value="0"/>
                      </VOLUME>
                      <VOLUME id="12">
                        <par name="vol" value="0"/>
                      </VOLUME>
                      <VOLUME id="13">
                        <par name="vol" value="0"/>
                      </VOLUME>
                      <VOLUME id="14">
                        <par name="vol" value="0"/>
                      </VOLUME>
                      <VOLUME id="15">
                        <par name="vol" value="0"/>
                      </VOLUME>
                      <SENDTO id="2">
                        <par name="send_vol" value="0"/>
                      </SENDTO>
                      <SENDTO id="3">
                        <par name="send_vol" value="0"/>
                      </SENDTO>
                    </SYSTEM_EFFECT>
                    <SYSTEM_EFFECT id="2">
                      <EFFECT>
                        <par name="type" value="0"/>
                      </EFFECT>
                      <VOLUME id="0">
                        <par name="vol" value="0"/>
                      </VOLUME>
                      <VOLUME id="1">
                        <par name="vol" value="0"/>
                      </VOLUME>
                      <VOLUME id="2">
                        <par name="vol" value="0"/>
                      </VOLUME>
                      <VOLUME id="3">
                        <par name="vol" value="0"/>
                      </VOLUME>
                      <VOLUME id="4">
                        <par name="vol" value="0"/>
                      </VOLUME>
                      <VOLUME id="5">
                        <par name="vol" value="0"/>
                      </VOLUME>
                      <VOLUME id="6">
                        <par name="vol" value="0"/>
                      </VOLUME>
                      <VOLUME id="7">
                        <par name="vol" value="0"/>
                      </VOLUME>
                      <VOLUME id="8">
                        <par name="vol" value="0"/>
                      </VOLUME>
                      <VOLUME id="9">
                        <par name="vol" value="0"/>
                      </VOLUME>
                      <VOLUME id="10">
                        <par name="vol" value="0"/>
                      </VOLUME>
                      <VOLUME id="11">
                        <par name="vol" value="0"/>
                      </VOLUME>
                      <VOLUME id="12">
                        <par name="vol" value="0"/>
                      </VOLUME>
                      <VOLUME id="13">
                        <par name="vol" value="0"/>
                      </VOLUME>
                      <VOLUME id="14">
                        <par name="vol" value="0"/>
                      </VOLUME>
                      <VOLUME id="15">
                        <par name="vol" value="0"/>
                      </VOLUME>
                      <SENDTO id="3">
                        <par name="send_vol" value="0"/>
                      </SENDTO>
                    </SYSTEM_EFFECT>
                    <SYSTEM_EFFECT id="3">
                      <EFFECT>
                        <par name="type" value="0"/>
                      </EFFECT>
                      <VOLUME id="0">
                        <par name="vol" value="0"/>
                      </VOLUME>
                      <VOLUME id="1">
                        <par name="vol" value="0"/>
                      </VOLUME>
                      <VOLUME id="2">
                        <par name="vol" value="0"/>
                      </VOLUME>
                      <VOLUME id="3">
                        <par name="vol" value="0"/>
                      </VOLUME>
                      <VOLUME id="4">
                        <par name="vol" value="0"/>
                      </VOLUME>
                      <VOLUME id="5">
                        <par name="vol" value="0"/>
                      </VOLUME>
                      <VOLUME id="6">
                        <par name="vol" value="0"/>
                      </VOLUME>
                      <VOLUME id="7">
                        <par name="vol" value="0"/>
                      </VOLUME>
                      <VOLUME id="8">
                        <par name="vol" value="0"/>
                      </VOLUME>
                      <VOLUME id="9">
                        <par name="vol" value="0"/>
                      </VOLUME>
                      <VOLUME id="10">
                        <par name="vol" value="0"/>
                      </VOLUME>
                      <VOLUME id="11">
                        <par name="vol" value="0"/>
                      </VOLUME>
                      <VOLUME id="12">
                        <par name="vol" value="0"/>
                      </VOLUME>
                      <VOLUME id="13">
                        <par name="vol" value="0"/>
                      </VOLUME>
                      <VOLUME id="14">
                        <par name="vol" value="0"/>
                      </VOLUME>
                      <VOLUME id="15">
                        <par name="vol" value="0"/>
                      </VOLUME>
                    </SYSTEM_EFFECT>
                  </SYSTEM_EFFECTS>
                  <INSERTION_EFFECTS>
                    <INSERTION_EFFECT id="0">
                      <par name="part" value="-1"/>
                      <EFFECT>
                        <par name="type" value="0"/>
                      </EFFECT>
                    </INSERTION_EFFECT>
                    <INSERTION_EFFECT id="1">
                      <par name="part" value="-1"/>
                      <EFFECT>
                        <par name="type" value="0"/>
                      </EFFECT>
                    </INSERTION_EFFECT>
                    <INSERTION_EFFECT id="2">
                      <par name="part" value="-1"/>
                      <EFFECT>
                        <par name="type" value="0"/>
                      </EFFECT>
                    </INSERTION_EFFECT>
                    <INSERTION_EFFECT id="3">
                      <par name="part" value="-1"/>
                      <EFFECT>
                        <par name="type" value="0"/>
                      </EFFECT>
                    </INSERTION_EFFECT>
                    <INSERTION_EFFECT id="4">
                      <par name="part" value="-1"/>
                      <EFFECT>
                        <par name="type" value="0"/>
                      </EFFECT>
                    </INSERTION_EFFECT>
                    <INSERTION_EFFECT id="5">
                      <par name="part" value="-1"/>
                      <EFFECT>
                        <par name="type" value="0"/>
                      </EFFECT>
                    </INSERTION_EFFECT>
                    <INSERTION_EFFECT id="6">
                      <par name="part" value="-1"/>
                      <EFFECT>
                        <par name="type" value="0"/>
                      </EFFECT>
                    </INSERTION_EFFECT>
                    <INSERTION_EFFECT id="7">
                      <par name="part" value="-1"/>
                      <EFFECT>
                        <par name="type" value="0"/>
                      </EFFECT>
                    </INSERTION_EFFECT>
                  </INSERTION_EFFECTS>
                </MASTER>
              </ZynAddSubFX-data>
            </zynaddsubfx>
          </instrument>
          <eldata fres="0.5" ftype="0" fwet="0" fcut="14000">
            <elvol latt="0" userwavefile="" syncmode="0" x100="0" pdel="0" lamt="0" ctlenvamt="0" lshp="0" lspd="0.1" att="0" hold="0.5" amt="0" lpdel="0" rel="0.1" sustain="0.5" dec="0.5" lspd_numerator="4" lspd_denominator="4"/>
            <elcut latt="0" userwavefile="" syncmode="0" x100="0" pdel="0" lamt="0" ctlenvamt="0" lshp="0" lspd="0.1" att="0" hold="0.5" amt="0" lpdel="0" rel="0.1" sustain="0.5" dec="0.5" lspd_numerator="4" lspd_denominator="4"/>
            <elres latt="0" userwavefile="" syncmode="0" x100="0" pdel="0" lamt="0" ctlenvamt="0" lshp="0" lspd="0.1" att="0" hold="0.5" amt="0" lpdel="0" rel="0.1" sustain="0.5" dec="0.5" lspd_numerator="4" lspd_denominator="4"/>
          </eldata>
          <chordcreator chord="0" chord-enabled="0" chordrange="1"/>
          <arpeggiator arpgate="100" syncmode="0" arpcycle="0" arptime_denominator="4" arptime="100" arptime_numerator="4" arpmiss="0" arpmode="0" arprange="1" arpdir="0" arpskip="0" arp-enabled="0" arp="0"/>
          <midiport outputcontroller="0" outputprogram="1" inputcontroller="0" fixedoutputvelocity="-1" writable="1" basevelocity="63" readable="0" inputchannel="0" outputchannel="6" fixedoutputnote="-1" outports="" fixedinputvelocity="-1"/>
          <fxchain enabled="0" numofeffects="0"/>
        </instrumenttrack>
        <pattern name="Sub Bass" muted="0" steps="16" pos="9408" type="1">
          <note vol="166" len="192" key="36" pos="0" pan="0"/>
          <note vol="166" len="192" key="36" pos="192" pan="0"/>
          <note vol="166" len="192" key="38" pos="384" pan="0"/>
          <note vol="166" len="192" key="40" pos="576" pan="0"/>
          <note vol="166" len="192" key="36" pos="768" pan="0"/>
          <note vol="166" len="192" key="36" pos="960" pan="0"/>
          <note vol="166" len="192" key="38" pos="1152" pan="0"/>
          <note vol="166" len="192" key="40" pos="1344" pan="0"/>
        </pattern>
        <pattern name="Sub Bass" muted="0" steps="16" pos="21696" type="1">
          <note vol="166" len="192" key="36" pos="0" pan="0"/>
          <note vol="166" len="192" key="36" pos="192" pan="0"/>
          <note vol="166" len="192" key="38" pos="384" pan="0"/>
          <note vol="166" len="192" key="40" pos="576" pan="0"/>
          <note vol="166" len="192" key="36" pos="768" pan="0"/>
          <note vol="166" len="192" key="36" pos="960" pan="0"/>
          <note vol="166" len="192" key="38" pos="1152" pan="0"/>
          <note vol="166" len="192" key="40" pos="1344" pan="0"/>
        </pattern>
      </track>
      <track name="808 Kick.wav" solo="0" muted="0" type="0">
        <instrumenttrack vol="100" usemasterpitch="1" pitch="0" pitchrange="1" pan="0" basenote="57" fxch="0">
          <instrument name="audiofileprocessor">
            <audiofileprocessor sframe="0" stutter="0" reversed="0" looped="0" src="Packs/Drums/Kicks/808 Kick.wav" eframe="1" lframe="0" interp="1" amp="62"/>
          </instrument>
          <eldata fres="0.5" ftype="0" fwet="0" fcut="14000">
            <elvol latt="0" userwavefile="" syncmode="0" x100="0" pdel="0" lamt="0" ctlenvamt="0" lshp="0" lspd="0.1" att="0" hold="0.5" amt="0" lpdel="0" rel="0.1" sustain="0.5" dec="0.5" lspd_numerator="4" lspd_denominator="4"/>
            <elcut latt="0" userwavefile="" syncmode="0" x100="0" pdel="0" lamt="0" ctlenvamt="0" lshp="0" lspd="0.1" att="0" hold="0.5" amt="0" lpdel="0" rel="0.1" sustain="0.5" dec="0.5" lspd_numerator="4" lspd_denominator="4"/>
            <elres latt="0" userwavefile="" syncmode="0" x100="0" pdel="0" lamt="0" ctlenvamt="0" lshp="0" lspd="0.1" att="0" hold="0.5" amt="0" lpdel="0" rel="0.1" sustain="0.5" dec="0.5" lspd_numerator="4" lspd_denominator="4"/>
          </eldata>
          <chordcreator chord="0" chord-enabled="0" chordrange="1"/>
          <arpeggiator arpgate="100" syncmode="0" arpcycle="0" arptime_denominator="4" arptime="100" arptime_numerator="4" arpmiss="0" arpmode="0" arprange="1" arpdir="0" arpskip="0" arp-enabled="0" arp="0"/>
          <midiport outputcontroller="0" outputprogram="1" inputcontroller="0" fixedoutputvelocity="-1" writable="1" basevelocity="63" readable="0" inputchannel="0" outputchannel="5" fixedoutputnote="-1" outports="" fixedinputvelocity="-1"/>
          <fxchain enabled="0" numofeffects="0"/>
        </instrumenttrack>
        <pattern name="TOUHOU INSTRUMENT + DRUM KIT" muted="0" steps="16" pos="9408" type="1">
          <note vol="157" len="-192" key="55" pos="0" pan="0"/>
          <note vol="157" len="-192" key="55" pos="72" pan="0"/>
          <note vol="157" len="-192" key="55" pos="144" pan="0"/>
          <note vol="157" len="-192" key="55" pos="192" pan="0"/>
          <note vol="157" len="-192" key="55" pos="264" pan="0"/>
          <note vol="157" len="-192" key="55" pos="336" pan="0"/>
          <note vol="127" len="-192" key="55" pos="372" pan="0"/>
          <note vol="157" len="72" key="59" pos="384" pan="0">
            <automationpattern>
              <detuning tens="1" len="192" name="Note detuning" pos="0" mute="0" prog="2">
                <time value="-4" pos="0"/>
                <time value="0" pos="24"/>
                <object id="18453"/>
              </detuning>
            </automationpattern>
          </note>
          <note vol="157" len="-192" key="59" pos="456" pan="0"/>
          <note vol="157" len="-192" key="59" pos="528" pan="0"/>
          <note vol="127" len="-192" key="59" pos="564" pan="0"/>
          <note vol="157" len="72" key="60" pos="576" pan="0">
            <automationpattern>
              <detuning tens="1" len="192" name="Note detuning" pos="0" mute="0" prog="2">
                <time value="-1" pos="0"/>
                <time value="0" pos="24"/>
                <object id="14928"/>
              </detuning>
            </automationpattern>
          </note>
          <note vol="157" len="-192" key="60" pos="648" pan="0"/>
          <note vol="157" len="24" key="64" pos="696" pan="0">
            <automationpattern>
              <detuning tens="1" len="192" name="Note detuning" pos="0" mute="0" prog="2">
                <time value="-4" pos="0"/>
                <time value="0" pos="24"/>
                <object id="16269"/>
              </detuning>
            </automationpattern>
          </note>
          <note vol="157" len="48" key="55" pos="720" pan="0">
            <automationpattern>
              <detuning tens="1" len="192" name="Note detuning" pos="0" mute="0" prog="2">
                <time value="9" pos="0"/>
                <time value="0" pos="36"/>
                <object id="28126"/>
              </detuning>
            </automationpattern>
          </note>
          <note vol="157" len="-192" key="55" pos="768" pan="0"/>
          <note vol="157" len="-192" key="55" pos="840" pan="0"/>
          <note vol="157" len="-192" key="55" pos="912" pan="0"/>
          <note vol="157" len="-192" key="55" pos="960" pan="0"/>
          <note vol="157" len="-192" key="55" pos="1032" pan="0"/>
          <note vol="157" len="-192" key="55" pos="1104" pan="0"/>
          <note vol="127" len="-192" key="55" pos="1140" pan="0"/>
          <note vol="157" len="72" key="59" pos="1152" pan="0">
            <automationpattern>
              <detuning tens="1" len="192" name="Note detuning" pos="0" mute="0" prog="2">
                <time value="-4" pos="0"/>
                <time value="0" pos="24"/>
                <object id="6956"/>
              </detuning>
            </automationpattern>
          </note>
          <note vol="157" len="-192" key="59" pos="1224" pan="0"/>
          <note vol="157" len="-192" key="59" pos="1296" pan="0"/>
          <note vol="127" len="-192" key="59" pos="1332" pan="0"/>
          <note vol="157" len="72" key="60" pos="1344" pan="0">
            <automationpattern>
              <detuning tens="1" len="192" name="Note detuning" pos="0" mute="0" prog="2">
                <time value="-1" pos="0"/>
                <time value="0" pos="24"/>
                <object id="9081"/>
              </detuning>
            </automationpattern>
          </note>
          <note vol="157" len="-192" key="60" pos="1416" pan="0"/>
          <note vol="157" len="24" key="64" pos="1464" pan="0">
            <automationpattern>
              <detuning tens="1" len="192" name="Note detuning" pos="0" mute="0" prog="2">
                <time value="-4" pos="0"/>
                <time value="0" pos="24"/>
                <object id="26187"/>
              </detuning>
            </automationpattern>
          </note>
          <note vol="157" len="48" key="55" pos="1488" pan="0">
            <automationpattern>
              <detuning tens="1" len="192" name="Note detuning" pos="0" mute="0" prog="2">
                <time value="9" pos="0"/>
                <time value="0" pos="36"/>
                <object id="2836"/>
              </detuning>
            </automationpattern>
          </note>
        </pattern>
        <pattern name="TOUHOU INSTRUMENT + DRUM KIT" muted="0" steps="16" pos="21696" type="1">
          <note vol="157" len="-192" key="55" pos="0" pan="0"/>
          <note vol="157" len="-192" key="55" pos="72" pan="0"/>
          <note vol="157" len="-192" key="55" pos="144" pan="0"/>
          <note vol="157" len="-192" key="55" pos="192" pan="0"/>
          <note vol="157" len="-192" key="55" pos="264" pan="0"/>
          <note vol="157" len="-192" key="55" pos="336" pan="0"/>
          <note vol="127" len="-192" key="55" pos="372" pan="0"/>
          <note vol="157" len="72" key="59" pos="384" pan="0">
            <automationpattern>
              <detuning tens="1" len="192" name="Note detuning" pos="0" mute="0" prog="2">
                <time value="-4" pos="0"/>
                <time value="0" pos="24"/>
                <object id="11128"/>
              </detuning>
            </automationpattern>
          </note>
          <note vol="157" len="-192" key="59" pos="456" pan="0"/>
          <note vol="157" len="-192" key="59" pos="528" pan="0"/>
          <note vol="127" len="-192" key="59" pos="564" pan="0"/>
          <note vol="157" len="72" key="60" pos="576" pan="0">
            <automationpattern>
              <detuning tens="1" len="192" name="Note detuning" pos="0" mute="0" prog="2">
                <time value="-1" pos="0"/>
                <time value="0" pos="24"/>
                <object id="13541"/>
              </detuning>
            </automationpattern>
          </note>
          <note vol="157" len="-192" key="60" pos="648" pan="0"/>
          <note vol="157" len="24" key="64" pos="696" pan="0">
            <automationpattern>
              <detuning tens="1" len="192" name="Note detuning" pos="0" mute="0" prog="2">
                <time value="-4" pos="0"/>
                <time value="0" pos="24"/>
                <object id="14331"/>
              </detuning>
            </automationpattern>
          </note>
          <note vol="157" len="48" key="55" pos="720" pan="0">
            <automationpattern>
              <detuning tens="1" len="192" name="Note detuning" pos="0" mute="0" prog="2">
                <time value="9" pos="0"/>
                <time value="0" pos="36"/>
                <object id="16543"/>
              </detuning>
            </automationpattern>
          </note>
          <note vol="157" len="-192" key="55" pos="768" pan="0"/>
          <note vol="157" len="-192" key="55" pos="840" pan="0"/>
          <note vol="157" len="-192" key="55" pos="912" pan="0"/>
          <note vol="157" len="-192" key="55" pos="960" pan="0"/>
          <note vol="157" len="-192" key="55" pos="1032" pan="0"/>
          <note vol="157" len="-192" key="55" pos="1104" pan="0"/>
          <note vol="127" len="-192" key="55" pos="1140" pan="0"/>
          <note vol="157" len="72" key="59" pos="1152" pan="0">
            <automationpattern>
              <detuning tens="1" len="192" name="Note detuning" pos="0" mute="0" prog="2">
                <time value="-4" pos="0"/>
                <time value="0" pos="24"/>
                <object id="3527"/>
              </detuning>
            </automationpattern>
          </note>
          <note vol="157" len="-192" key="59" pos="1224" pan="0"/>
          <note vol="157" len="-192" key="59" pos="1296" pan="0"/>
          <note vol="127" len="-192" key="59" pos="1332" pan="0"/>
          <note vol="157" len="72" key="60" pos="1344" pan="0">
            <automationpattern>
              <detuning tens="1" len="192" name="Note detuning" pos="0" mute="0" prog="2">
                <time value="-1" pos="0"/>
                <time value="0" pos="24"/>
                <object id="14803"/>
              </detuning>
            </automationpattern>
          </note>
          <note vol="157" len="-192" key="60" pos="1416" pan="0"/>
          <note vol="157" len="24" key="64" pos="1464" pan="0">
            <automationpattern>
              <detuning tens="1" len="192" name="Note detuning" pos="0" mute="0" prog="2">
                <time value="-4" pos="0"/>
                <time value="0" pos="24"/>
                <object id="756"/>
              </detuning>
            </automationpattern>
          </note>
          <note vol="157" len="48" key="55" pos="1488" pan="0">
            <automationpattern>
              <detuning tens="1" len="192" name="Note detuning" pos="0" mute="0" prog="2">
                <time value="9" pos="0"/>
                <time value="0" pos="36"/>
                <object id="28068"/>
              </detuning>
            </automationpattern>
          </note>
        </pattern>
      </track>
      <track name="Cello" solo="0" muted="0" type="0">
        <instrumenttrack vol="100" usemasterpitch="1" pitch="0" pitchrange="1" pan="0" basenote="57" fxch="0">
          <instrument name="sf2player">
            <sf2player reverbOn="0" reverbDamping="0" chorusSpeed="0.3" chorusDepth="8" bank="0" chorusNum="3" src="D:/mandy/Documents/Rest Programs/midi/TOUHOU INSTRUMENT + DRUM KIT.sf2" reverbRoomSize="0.2" reverbWidth="0.5" chorusLevel="2" patch="42" gain="1" chorusOn="0" reverbLevel="0.9"/>
          </instrument>
          <eldata fres="0.5" ftype="0" fwet="0" fcut="14000">
            <elvol latt="0" userwavefile="" syncmode="0" x100="0" pdel="0" lamt="0" ctlenvamt="0" lshp="0" lspd="0.1" att="0" hold="0.5" amt="0" lpdel="0" rel="0.1" sustain="0.5" dec="0.5" lspd_numerator="4" lspd_denominator="4"/>
            <elcut latt="0" userwavefile="" syncmode="0" x100="0" pdel="0" lamt="0" ctlenvamt="0" lshp="0" lspd="0.1" att="0" hold="0.5" amt="0" lpdel="0" rel="0.1" sustain="0.5" dec="0.5" lspd_numerator="4" lspd_denominator="4"/>
            <elres latt="0" userwavefile="" syncmode="0" x100="0" pdel="0" lamt="0" ctlenvamt="0" lshp="0" lspd="0.1" att="0" hold="0.5" amt="0" lpdel="0" rel="0.1" sustain="0.5" dec="0.5" lspd_numerator="4" lspd_denominator="4"/>
          </eldata>
          <chordcreator chord="0" chord-enabled="0" chordrange="1"/>
          <arpeggiator arpgate="100" syncmode="0" arpcycle="0" arptime_denominator="4" arptime="100" arptime_numerator="4" arpmiss="0" arpmode="0" arprange="1" arpdir="0" arpskip="0" arp-enabled="0" arp="0"/>
          <midiport outputcontroller="0" outputprogram="1" inputcontroller="0" fixedoutputvelocity="-1" writable="1" basevelocity="63" readable="0" inputchannel="0" outputchannel="4" fixedoutputnote="-1" outports="" fixedinputvelocity="-1"/>
          <fxchain enabled="0" numofeffects="0"/>
        </instrumenttrack>
        <pattern name="Cello" muted="0" steps="16" pos="1728" type="1">
          <note vol="160" len="192" key="26" pos="0" pan="0"/>
          <note vol="166" len="192" key="28" pos="192" pan="0"/>
          <note vol="171" len="192" key="31" pos="384" pan="0"/>
          <note vol="161" len="96" key="31" pos="576" pan="0"/>
          <note vol="158" len="96" key="24" pos="672" pan="0"/>
          <note vol="164" len="192" key="26" pos="768" pan="0"/>
          <note vol="171" len="192" key="28" pos="960" pan="0"/>
          <note vol="173" len="192" key="31" pos="1152" pan="0"/>
          <note vol="171" len="96" key="26" pos="1344" pan="0"/>
          <note vol="160" len="96" key="24" pos="1440" pan="0"/>
        </pattern>
        <pattern name="Cello" muted="0" steps="16" pos="3264" type="1">
          <note vol="142" len="192" key="24" pos="0" pan="0"/>
          <note vol="159" len="96" key="31" pos="192" pan="0"/>
          <note vol="155" len="96" key="29" pos="288" pan="0"/>
          <note vol="148" len="192" key="28" pos="384" pan="0"/>
          <note vol="146" len="192" key="24" pos="576" pan="0"/>
          <note vol="153" len="192" key="26" pos="768" pan="0"/>
          <note vol="158" len="96" key="29" pos="960" pan="0"/>
          <note vol="164" len="96" key="31" pos="1056" pan="0"/>
          <note vol="153" len="192" key="29" pos="1152" pan="0"/>
          <note vol="148" len="192" key="24" pos="1344" pan="0"/>
        </pattern>
        <pattern name="Cello" muted="0" steps="16" pos="10944" type="1">
          <note vol="152" len="192" key="41" pos="0" pan="0"/>
          <note vol="164" len="192" key="40" pos="192" pan="0"/>
          <note vol="153" len="192" key="36" pos="384" pan="0"/>
          <note vol="147" len="96" key="33" pos="576" pan="0"/>
          <note vol="154" len="48" key="38" pos="672" pan="0"/>
          <note vol="163" len="48" key="40" pos="720" pan="0"/>
          <note vol="162" len="192" key="41" pos="768" pan="0"/>
          <note vol="166" len="192" key="43" pos="960" pan="0"/>
          <note vol="162" len="192" key="41" pos="1152" pan="0"/>
          <note vol="154" len="192" key="36" pos="1344" pan="0"/>
        </pattern>
        <pattern name="Cello" muted="0" steps="16" pos="12480" type="1">
          <note vol="152" len="192" key="41" pos="0" pan="0"/>
          <note vol="164" len="192" key="40" pos="192" pan="0"/>
          <note vol="153" len="192" key="36" pos="384" pan="0"/>
          <note vol="147" len="96" key="33" pos="576" pan="0"/>
          <note vol="154" len="48" key="38" pos="672" pan="0"/>
          <note vol="163" len="48" key="40" pos="720" pan="0"/>
          <note vol="162" len="192" key="41" pos="768" pan="0"/>
          <note vol="166" len="192" key="43" pos="960" pan="0"/>
          <note vol="162" len="192" key="41" pos="1152" pan="0"/>
          <note vol="154" len="192" key="36" pos="1344" pan="0"/>
        </pattern>
        <pattern name="Cello" muted="0" steps="16" pos="4800" type="1">
          <note vol="157" len="192" key="31" pos="0" pan="0"/>
          <note vol="168" len="96" key="31" pos="192" pan="0"/>
          <note vol="168" len="96" key="28" pos="288" pan="0"/>
          <note vol="155" len="192" key="26" pos="384" pan="0"/>
          <note vol="165" len="96" key="31" pos="576" pan="0"/>
          <note vol="159" len="48" key="26" pos="672" pan="0"/>
          <note vol="163" len="48" key="28" pos="720" pan="0"/>
          <note vol="160" len="192" key="31" pos="768" pan="0"/>
          <note vol="165" len="96" key="31" pos="960" pan="0"/>
          <note vol="165" len="96" key="28" pos="1056" pan="0"/>
          <note vol="162" len="144" key="24" pos="1152" pan="0"/>
          <note vol="162" len="48" key="28" pos="1296" pan="0"/>
          <note vol="160" len="144" key="24" pos="1344" pan="0"/>
          <note vol="160" len="48" key="28" pos="1488" pan="0"/>
        </pattern>
        <pattern name="Cello" muted="0" steps="16" pos="17088" type="1">
          <note vol="157" len="192" key="24" pos="0" pan="0"/>
          <note vol="168" len="192" key="24" pos="192" pan="0"/>
          <note vol="155" len="192" key="28" pos="384" pan="0"/>
          <note vol="167" len="96" key="31" pos="576" pan="0"/>
          <note vol="161" len="48" key="26" pos="672" pan="0"/>
          <note vol="166" len="48" key="28" pos="720" pan="0"/>
          <note vol="161" len="192" key="24" pos="768" pan="0"/>
          <note vol="166" len="192" key="24" pos="960" pan="0"/>
          <note vol="160" len="192" key="26" pos="1152" pan="0"/>
          <note vol="153" len="192" key="28" pos="1344" pan="0"/>
        </pattern>
        <pattern name="Cello" muted="0" steps="16" pos="23232" type="1">
          <note vol="163" len="192" key="41" pos="0" pan="0"/>
          <note vol="169" len="96" key="43" pos="192" pan="0"/>
          <note vol="162" len="96" key="40" pos="288" pan="0"/>
          <note vol="162" len="192" key="36" pos="384" pan="0"/>
          <note vol="162" len="96" key="31" pos="576" pan="0"/>
          <note vol="168" len="48" key="38" pos="672" pan="0"/>
          <note vol="162" len="48" key="40" pos="720" pan="0"/>
          <note vol="167" len="192" key="41" pos="768" pan="0"/>
          <note vol="164" len="192" key="43" pos="960" pan="0"/>
          <note vol="169" len="144" key="36" pos="1152" pan="0"/>
          <note vol="164" len="48" key="35" pos="1296" pan="0"/>
          <note vol="160" len="192" key="33" pos="1344" pan="0"/>
        </pattern>
        <pattern name="Cello" muted="0" steps="16" pos="6336" type="1">
          <note vol="159" len="96" key="31" pos="0" pan="0"/>
          <note vol="168" len="96" key="36" pos="96" pan="0"/>
          <note vol="168" len="192" key="40" pos="192" pan="0"/>
          <note vol="168" len="96" key="41" pos="384" pan="0"/>
          <note vol="165" len="96" key="40" pos="480" pan="0"/>
          <note vol="158" len="192" key="38" pos="576" pan="0"/>
          <note vol="158" len="192" key="31" pos="768" pan="0"/>
          <note vol="160" len="96" key="31" pos="960" pan="0"/>
          <note vol="166" len="96" key="35" pos="1056" pan="0"/>
          <note vol="166" len="192" key="36" pos="1152" pan="0"/>
          <note vol="167" len="192" key="38" pos="1344" pan="0"/>
          <note vol="157" len="96" key="31" pos="1536" pan="0"/>
          <note vol="167" len="96" key="36" pos="1632" pan="0"/>
          <note vol="167" len="192" key="40" pos="1728" pan="0"/>
          <note vol="164" len="96" key="40" pos="1920" pan="0"/>
          <note vol="163" len="96" key="41" pos="2016" pan="0"/>
          <note vol="158" len="192" key="43" pos="2112" pan="0"/>
          <note vol="160" len="192" key="29" pos="2304" pan="0"/>
          <note vol="149" len="96" key="31" pos="2496" pan="0"/>
          <note vol="160" len="96" key="33" pos="2592" pan="0"/>
          <note vol="152" len="96" key="36" pos="2688" pan="0"/>
          <note vol="161" len="96" key="40" pos="2784" pan="0"/>
          <note vol="153" len="192" key="36" pos="2880" pan="0"/>
        </pattern>
        <pattern name="Cello" muted="0" steps="16" pos="14016" type="1">
          <note vol="142" len="192" key="24" pos="0" pan="0"/>
          <note vol="159" len="96" key="31" pos="192" pan="0"/>
          <note vol="155" len="96" key="29" pos="288" pan="0"/>
          <note vol="148" len="192" key="28" pos="384" pan="0"/>
          <note vol="146" len="192" key="24" pos="576" pan="0"/>
          <note vol="153" len="192" key="26" pos="768" pan="0"/>
          <note vol="158" len="96" key="29" pos="960" pan="0"/>
          <note vol="164" len="96" key="31" pos="1056" pan="0"/>
          <note vol="153" len="192" key="29" pos="1152" pan="0"/>
          <note vol="148" len="192" key="24" pos="1344" pan="0"/>
        </pattern>
        <pattern name="Cello" muted="0" steps="16" pos="15552" type="1">
          <note vol="157" len="192" key="31" pos="0" pan="0"/>
          <note vol="168" len="96" key="31" pos="192" pan="0"/>
          <note vol="168" len="96" key="28" pos="288" pan="0"/>
          <note vol="155" len="192" key="26" pos="384" pan="0"/>
          <note vol="165" len="96" key="31" pos="576" pan="0"/>
          <note vol="159" len="48" key="26" pos="672" pan="0"/>
          <note vol="163" len="48" key="28" pos="720" pan="0"/>
          <note vol="160" len="192" key="31" pos="768" pan="0"/>
          <note vol="165" len="96" key="31" pos="960" pan="0"/>
          <note vol="165" len="96" key="28" pos="1056" pan="0"/>
          <note vol="162" len="144" key="24" pos="1152" pan="0"/>
          <note vol="162" len="48" key="28" pos="1296" pan="0"/>
          <note vol="160" len="144" key="24" pos="1344" pan="0"/>
          <note vol="160" len="48" key="28" pos="1488" pan="0"/>
        </pattern>
        <pattern name="Cello" muted="0" steps="16" pos="18624" type="1">
          <note vol="159" len="96" key="31" pos="0" pan="0"/>
          <note vol="168" len="96" key="36" pos="96" pan="0"/>
          <note vol="168" len="192" key="40" pos="192" pan="0"/>
          <note vol="168" len="96" key="41" pos="384" pan="0"/>
          <note vol="165" len="96" key="40" pos="480" pan="0"/>
          <note vol="158" len="192" key="38" pos="576" pan="0"/>
          <note vol="158" len="192" key="31" pos="768" pan="0"/>
          <note vol="160" len="96" key="31" pos="960" pan="0"/>
          <note vol="166" len="96" key="35" pos="1056" pan="0"/>
          <note vol="166" len="192" key="36" pos="1152" pan="0"/>
          <note vol="167" len="192" key="38" pos="1344" pan="0"/>
          <note vol="157" len="96" key="31" pos="1536" pan="0"/>
          <note vol="167" len="96" key="36" pos="1632" pan="0"/>
          <note vol="167" len="192" key="40" pos="1728" pan="0"/>
          <note vol="164" len="96" key="40" pos="1920" pan="0"/>
          <note vol="163" len="96" key="41" pos="2016" pan="0"/>
          <note vol="158" len="192" key="43" pos="2112" pan="0"/>
          <note vol="160" len="192" key="29" pos="2304" pan="0"/>
          <note vol="149" len="96" key="31" pos="2496" pan="0"/>
          <note vol="160" len="96" key="33" pos="2592" pan="0"/>
          <note vol="152" len="96" key="36" pos="2688" pan="0"/>
          <note vol="161" len="96" key="40" pos="2784" pan="0"/>
          <note vol="153" len="192" key="36" pos="2880" pan="0"/>
        </pattern>
        <pattern name="Cello" muted="0" steps="16" pos="24768" type="1">
          <note vol="163" len="192" key="41" pos="0" pan="0"/>
          <note vol="169" len="96" key="43" pos="192" pan="0"/>
          <note vol="162" len="96" key="40" pos="288" pan="0"/>
          <note vol="162" len="192" key="36" pos="384" pan="0"/>
          <note vol="162" len="96" key="31" pos="576" pan="0"/>
          <note vol="168" len="48" key="38" pos="672" pan="0"/>
          <note vol="162" len="48" key="40" pos="720" pan="0"/>
          <note vol="167" len="192" key="41" pos="768" pan="0"/>
          <note vol="164" len="192" key="43" pos="960" pan="0"/>
          <note vol="169" len="144" key="36" pos="1152" pan="0"/>
          <note vol="164" len="48" key="35" pos="1296" pan="0"/>
          <note vol="160" len="192" key="33" pos="1344" pan="0"/>
        </pattern>
        <pattern name="Cello" muted="0" steps="16" pos="26304" type="1">
          <note vol="125" len="192" key="33" pos="0" pan="0"/>
          <note vol="129" len="192" key="36" pos="192" pan="0"/>
          <note vol="129" len="192" key="31" pos="384" pan="0"/>
          <note vol="104" len="192" key="28" pos="576" pan="0"/>
          <note vol="114" len="192" key="33" pos="768" pan="0"/>
          <note vol="129" len="192" key="36" pos="960" pan="0"/>
          <note vol="112" len="192" key="31" pos="1152" pan="0"/>
          <note vol="100" len="192" key="28" pos="1344" pan="0"/>
        </pattern>
      </track>
      <track name="Grand Piano" solo="0" muted="0" type="0">
        <instrumenttrack vol="100" usemasterpitch="1" pitch="0" pitchrange="1" pan="0" basenote="57" fxch="0">
          <instrument name="sf2player">
            <sf2player reverbOn="0" reverbDamping="0" chorusSpeed="0.3" chorusDepth="8" bank="0" chorusNum="3" src="D:/mandy/Documents/Rest Programs/midi/TOUHOU INSTRUMENT + DRUM KIT.sf2" reverbRoomSize="0.2" reverbWidth="0.5" chorusLevel="2" patch="0" gain="1" chorusOn="0" reverbLevel="0.9"/>
          </instrument>
          <eldata fres="0.5" ftype="0" fwet="0" fcut="14000">
            <elvol latt="0" userwavefile="" syncmode="0" x100="0" pdel="0" lamt="0" ctlenvamt="0" lshp="0" lspd="0.1" att="0" hold="0.5" amt="0" lpdel="0" rel="0.1" sustain="0.5" dec="0.5" lspd_numerator="4" lspd_denominator="4"/>
            <elcut latt="0" userwavefile="" syncmode="0" x100="0" pdel="0" lamt="0" ctlenvamt="0" lshp="0" lspd="0.1" att="0" hold="0.5" amt="0" lpdel="0" rel="0.1" sustain="0.5" dec="0.5" lspd_numerator="4" lspd_denominator="4"/>
            <elres latt="0" userwavefile="" syncmode="0" x100="0" pdel="0" lamt="0" ctlenvamt="0" lshp="0" lspd="0.1" att="0" hold="0.5" amt="0" lpdel="0" rel="0.1" sustain="0.5" dec="0.5" lspd_numerator="4" lspd_denominator="4"/>
          </eldata>
          <chordcreator chord="0" chord-enabled="0" chordrange="1"/>
          <arpeggiator arpgate="100" syncmode="0" arpcycle="0" arptime_denominator="4" arptime="100" arptime_numerator="4" arpmiss="0" arpmode="0" arprange="1" arpdir="0" arpskip="0" arp-enabled="0" arp="0"/>
          <midiport outputcontroller="0" outputprogram="1" inputcontroller="0" fixedoutputvelocity="-1" writable="1" basevelocity="63" readable="0" inputchannel="0" outputchannel="3" fixedoutputnote="-1" outports="" fixedinputvelocity="-1"/>
          <fxchain enabled="0" numofeffects="0"/>
        </instrumenttrack>
        <pattern name="Grand Piano" muted="0" steps="16" pos="192" type="1">
          <note vol="172" len="24" key="62" pos="0" pan="0"/>
          <note vol="138" len="24" key="55" pos="24" pan="0"/>
          <note vol="155" len="24" key="57" pos="48" pan="0"/>
          <note vol="174" len="24" key="62" pos="72" pan="0"/>
          <note vol="144" len="24" key="55" pos="96" pan="0"/>
          <note vol="157" len="24" key="57" pos="120" pan="0"/>
          <note vol="170" len="24" key="62" pos="144" pan="0"/>
          <note vol="146" len="24" key="55" pos="168" pan="0"/>
          <note vol="163" len="24" key="57" pos="192" pan="0"/>
          <note vol="125" len="24" key="52" pos="216" pan="0"/>
          <note vol="129" len="24" key="50" pos="240" pan="0"/>
          <note vol="138" len="24" key="52" pos="264" pan="0"/>
          <note vol="112" len="24" key="48" pos="288" pan="0"/>
          <note vol="140" len="24" key="52" pos="312" pan="0"/>
          <note vol="153" len="24" key="53" pos="336" pan="0"/>
          <note vol="119" len="24" key="52" pos="360" pan="0"/>
          <note vol="161" len="24" key="55" pos="384" pan="0"/>
          <note vol="114" len="24" key="48" pos="408" pan="0"/>
          <note vol="136" len="24" key="50" pos="432" pan="0"/>
          <note vol="163" len="24" key="55" pos="456" pan="0"/>
          <note vol="148" len="24" key="48" pos="480" pan="0"/>
          <note vol="161" len="24" key="53" pos="504" pan="0"/>
          <note vol="168" len="24" key="55" pos="528" pan="0"/>
          <note vol="157" len="24" key="53" pos="552" pan="0"/>
          <note vol="163" len="24" key="47" pos="576" pan="0"/>
          <note vol="123" len="24" key="43" pos="600" pan="0"/>
          <note vol="108" len="24" key="45" pos="624" pan="0"/>
          <note vol="114" len="24" key="47" pos="648" pan="0"/>
          <note vol="127" len="24" key="48" pos="672" pan="0"/>
          <note vol="129" len="24" key="50" pos="696" pan="0"/>
          <note vol="140" len="24" key="53" pos="720" pan="0"/>
          <note vol="129" len="24" key="55" pos="744" pan="0"/>
          <note vol="165" len="24" key="62" pos="768" pan="0"/>
          <note vol="131" len="24" key="55" pos="792" pan="0"/>
          <note vol="155" len="24" key="57" pos="816" pan="0"/>
          <note vol="178" len="24" key="62" pos="840" pan="0"/>
          <note vol="140" len="24" key="55" pos="864" pan="0"/>
          <note vol="155" len="24" key="57" pos="888" pan="0"/>
          <note vol="178" len="24" key="62" pos="912" pan="0"/>
          <note vol="144" len="24" key="55" pos="936" pan="0"/>
          <note vol="185" len="24" key="64" pos="960" pan="0"/>
          <note vol="153" len="24" key="60" pos="984" pan="0"/>
          <note vol="127" len="24" key="55" pos="1008" pan="0"/>
          <note vol="140" len="24" key="52" pos="1032" pan="0"/>
          <note vol="125" len="24" key="48" pos="1056" pan="0"/>
          <note vol="140" len="24" key="52" pos="1080" pan="0"/>
          <note vol="159" len="24" key="53" pos="1104" pan="0"/>
          <note vol="146" len="24" key="52" pos="1128" pan="0"/>
          <note vol="172" len="24" key="55" pos="1152" pan="0"/>
          <note vol="142" len="24" key="48" pos="1176" pan="0"/>
          <note vol="151" len="24" key="50" pos="1200" pan="0"/>
          <note vol="180" len="24" key="55" pos="1224" pan="0"/>
          <note vol="155" len="24" key="48" pos="1248" pan="0"/>
          <note vol="146" len="24" key="53" pos="1272" pan="0"/>
          <note vol="153" len="24" key="55" pos="1296" pan="0"/>
          <note vol="163" len="24" key="53" pos="1320" pan="0"/>
          <note vol="151" len="24" key="47" pos="1344" pan="0"/>
          <note vol="117" len="24" key="43" pos="1368" pan="0"/>
          <note vol="110" len="24" key="45" pos="1392" pan="0"/>
          <note vol="127" len="24" key="47" pos="1416" pan="0"/>
          <note vol="140" len="24" key="48" pos="1440" pan="0"/>
          <note vol="140" len="24" key="50" pos="1464" pan="0"/>
          <note vol="148" len="24" key="55" pos="1488" pan="0"/>
          <note vol="125" len="24" key="57" pos="1512" pan="0"/>
        </pattern>
        <pattern name="Grand Piano" muted="0" steps="16" pos="1728" type="1">
          <note vol="172" len="24" key="62" pos="0" pan="0"/>
          <note vol="172" len="180" key="26" pos="0" pan="-2"/>
          <note vol="142" len="24" key="31" pos="24" pan="0"/>
          <note vol="138" len="24" key="55" pos="24" pan="0"/>
          <note vol="153" len="132" key="38" pos="48" pan="0"/>
          <note vol="155" len="24" key="57" pos="48" pan="0"/>
          <note vol="170" len="108" key="31" pos="72" pan="0"/>
          <note vol="174" len="24" key="62" pos="72" pan="0"/>
          <note vol="144" len="24" key="55" pos="96" pan="0"/>
          <note vol="157" len="24" key="57" pos="120" pan="0"/>
          <note vol="170" len="24" key="62" pos="144" pan="0"/>
          <note vol="146" len="24" key="55" pos="168" pan="0"/>
          <note vol="157" len="180" key="28" pos="192" pan="0"/>
          <note vol="163" len="24" key="57" pos="192" pan="0"/>
          <note vol="127" len="156" key="31" pos="216" pan="0"/>
          <note vol="125" len="24" key="52" pos="216" pan="0"/>
          <note vol="142" len="132" key="36" pos="240" pan="0"/>
          <note vol="129" len="24" key="50" pos="240" pan="0"/>
          <note vol="138" len="24" key="52" pos="264" pan="0"/>
          <note vol="112" len="24" key="48" pos="288" pan="0"/>
          <note vol="140" len="24" key="52" pos="312" pan="0"/>
          <note vol="153" len="24" key="53" pos="336" pan="0"/>
          <note vol="119" len="24" key="52" pos="360" pan="0"/>
          <note vol="157" len="180" key="24" pos="384" pan="0"/>
          <note vol="161" len="24" key="55" pos="384" pan="0"/>
          <note vol="112" len="156" key="31" pos="408" pan="0"/>
          <note vol="114" len="24" key="48" pos="408" pan="0"/>
          <note vol="136" len="24" key="50" pos="432" pan="0"/>
          <note vol="131" len="132" key="36" pos="432" pan="0"/>
          <note vol="163" len="24" key="55" pos="456" pan="0"/>
          <note vol="148" len="24" key="48" pos="480" pan="0"/>
          <note vol="161" len="24" key="53" pos="504" pan="0"/>
          <note vol="168" len="24" key="55" pos="528" pan="0"/>
          <note vol="157" len="24" key="53" pos="552" pan="0"/>
          <note vol="163" len="24" key="47" pos="576" pan="0"/>
          <note vol="151" len="84" key="26" pos="576" pan="0"/>
          <note vol="123" len="60" key="31" pos="600" pan="0"/>
          <note vol="123" len="24" key="43" pos="600" pan="0"/>
          <note vol="142" len="36" key="35" pos="624" pan="0"/>
          <note vol="108" len="24" key="45" pos="624" pan="0"/>
          <note vol="114" len="24" key="47" pos="648" pan="0"/>
          <note vol="142" len="84" key="24" pos="672" pan="0"/>
          <note vol="127" len="24" key="48" pos="672" pan="0"/>
          <note vol="127" len="60" key="31" pos="696" pan="0"/>
          <note vol="129" len="24" key="50" pos="696" pan="0"/>
          <note vol="146" len="24" key="36" pos="720" pan="0"/>
          <note vol="140" len="24" key="53" pos="720" pan="0"/>
          <note vol="129" len="24" key="55" pos="744" pan="0"/>
          <note vol="151" len="12" key="38" pos="744" pan="0"/>
          <note vol="168" len="180" key="26" pos="768" pan="0"/>
          <note vol="165" len="24" key="62" pos="768" pan="0"/>
          <note vol="131" len="24" key="55" pos="792" pan="0"/>
          <note vol="148" len="24" key="31" pos="792" pan="0"/>
          <note vol="157" len="132" key="38" pos="816" pan="0"/>
          <note vol="155" len="24" key="57" pos="816" pan="0"/>
          <note vol="178" len="24" key="62" pos="840" pan="0"/>
          <note vol="140" len="108" key="31" pos="840" pan="0"/>
          <note vol="140" len="24" key="55" pos="864" pan="0"/>
          <note vol="155" len="24" key="57" pos="888" pan="0"/>
          <note vol="178" len="24" key="62" pos="912" pan="0"/>
          <note vol="144" len="24" key="55" pos="936" pan="0"/>
          <note vol="168" len="180" key="24" pos="960" pan="0"/>
          <note vol="185" len="24" key="64" pos="960" pan="0"/>
          <note vol="151" len="156" key="29" pos="984" pan="0"/>
          <note vol="153" len="24" key="60" pos="984" pan="0"/>
          <note vol="127" len="24" key="55" pos="1008" pan="0"/>
          <note vol="142" len="132" key="36" pos="1008" pan="0"/>
          <note vol="140" len="24" key="52" pos="1032" pan="0"/>
          <note vol="125" len="24" key="48" pos="1056" pan="0"/>
          <note vol="140" len="24" key="52" pos="1080" pan="0"/>
          <note vol="159" len="24" key="53" pos="1104" pan="0"/>
          <note vol="146" len="24" key="52" pos="1128" pan="0"/>
          <note vol="168" len="180" key="24" pos="1152" pan="0"/>
          <note vol="172" len="24" key="55" pos="1152" pan="0"/>
          <note vol="148" len="156" key="31" pos="1176" pan="0"/>
          <note vol="142" len="24" key="48" pos="1176" pan="0"/>
          <note vol="151" len="24" key="50" pos="1200" pan="0"/>
          <note vol="165" len="132" key="36" pos="1200" pan="0"/>
          <note vol="180" len="24" key="55" pos="1224" pan="0"/>
          <note vol="155" len="24" key="48" pos="1248" pan="0"/>
          <note vol="148" len="24" key="53" pos="1272" pan="0"/>
          <note vol="165" len="24" key="55" pos="1296" pan="0"/>
          <note vol="144" len="24" key="53" pos="1320" pan="0"/>
          <note vol="151" len="24" key="47" pos="1344" pan="0"/>
          <note vol="161" len="84" key="26" pos="1344" pan="0"/>
          <note vol="123" len="60" key="31" pos="1368" pan="0"/>
          <note vol="117" len="24" key="43" pos="1368" pan="0"/>
          <note vol="114" len="36" key="35" pos="1392" pan="0"/>
          <note vol="110" len="24" key="45" pos="1392" pan="0"/>
          <note vol="127" len="24" key="47" pos="1416" pan="0"/>
          <note vol="140" len="24" key="48" pos="1440" pan="0"/>
          <note vol="151" len="84" key="24" pos="1440" pan="0"/>
          <note vol="134" len="60" key="31" pos="1464" pan="0"/>
          <note vol="140" len="24" key="53" pos="1464" pan="0"/>
          <note vol="136" len="24" key="36" pos="1488" pan="0"/>
          <note vol="148" len="24" key="55" pos="1488" pan="0"/>
          <note vol="129" len="12" key="38" pos="1512" pan="0"/>
          <note vol="125" len="24" key="59" pos="1512" pan="0"/>
        </pattern>
        <pattern name="Grand Piano" muted="0" steps="16" pos="3264" type="1">
          <note vol="162" len="156" key="24" pos="0" pan="0"/>
          <note vol="145" len="156" key="29" pos="24" pan="0"/>
          <note vol="145" len="132" key="36" pos="48" pan="0"/>
          <note vol="152" len="108" key="41" pos="72" pan="0"/>
          <note vol="161" len="204" key="24" pos="168" pan="0"/>
          <note vol="146" len="156" key="31" pos="216" pan="0"/>
          <note vol="150" len="132" key="36" pos="240" pan="0"/>
          <note vol="171" len="24" key="43" pos="264" pan="0"/>
          <note vol="159" len="24" key="41" pos="288" pan="0"/>
          <note vol="148" len="60" key="40" pos="312" pan="0"/>
          <note vol="157" len="156" key="24" pos="384" pan="0"/>
          <note vol="138" len="156" key="31" pos="408" pan="0"/>
          <note vol="145" len="132" key="36" pos="432" pan="0"/>
          <note vol="145" len="108" key="40" pos="456" pan="0"/>
          <note vol="161" len="108" key="24" pos="552" pan="0"/>
          <note vol="152" len="60" key="28" pos="600" pan="0"/>
          <note vol="139" len="36" key="36" pos="624" pan="0"/>
          <note vol="146" len="12" key="40" pos="648" pan="0"/>
          <note vol="159" len="84" key="28" pos="672" pan="0"/>
          <note vol="134" len="60" key="31" pos="696" pan="0"/>
          <note vol="143" len="36" key="36" pos="720" pan="0"/>
          <note vol="129" len="12" key="38" pos="744" pan="0"/>
          <note vol="161" len="180" key="26" pos="768" pan="0"/>
          <note vol="141" len="156" key="29" pos="792" pan="0"/>
          <note vol="155" len="132" key="33" pos="816" pan="0"/>
          <note vol="145" len="108" key="36" pos="840" pan="0"/>
          <note vol="153" len="180" key="26" pos="960" pan="0"/>
          <note vol="143" len="156" key="29" pos="984" pan="0"/>
          <note vol="155" len="132" key="33" pos="1008" pan="0"/>
          <note vol="148" len="24" key="36" pos="1032" pan="0"/>
          <note vol="173" len="84" key="38" pos="1056" pan="0"/>
          <note vol="169" len="180" key="24" pos="1152" pan="0"/>
          <note vol="157" len="156" key="29" pos="1176" pan="0"/>
          <note vol="171" len="132" key="33" pos="1200" pan="0"/>
          <note vol="166" len="108" key="36" pos="1224" pan="0"/>
          <note vol="168" len="180" key="24" pos="1344" pan="0"/>
          <note vol="153" len="156" key="28" pos="1368" pan="0"/>
          <note vol="155" len="60" key="31" pos="1392" pan="0"/>
          <note vol="169" len="36" key="36" pos="1416" pan="0"/>
          <note vol="166" len="24" key="35" pos="1464" pan="0"/>
          <note vol="146" len="36" key="31" pos="1488" pan="0"/>
        </pattern>
        <pattern name="Grand Piano" muted="0" steps="16" pos="4800" type="1">
          <note vol="168" len="180" key="24" pos="0" pan="0"/>
          <note vol="148" len="156" key="31" pos="24" pan="0"/>
          <note vol="155" len="132" key="36" pos="48" pan="0"/>
          <note vol="152" len="36" key="24" pos="192" pan="0"/>
          <note vol="156" len="156" key="31" pos="216" pan="0"/>
          <note vol="152" len="132" key="24" pos="240" pan="0"/>
          <note vol="166" len="108" key="36" pos="264" pan="0"/>
          <note vol="164" len="180" key="23" pos="384" pan="0"/>
          <note vol="152" len="156" key="31" pos="408" pan="0"/>
          <note vol="159" len="132" key="38" pos="432" pan="0"/>
          <note vol="161" len="180" key="23" pos="576" pan="0"/>
          <note vol="146" len="156" key="31" pos="600" pan="0"/>
          <note vol="161" len="24" key="40" pos="624" pan="0"/>
          <note vol="155" len="108" key="38" pos="648" pan="0"/>
          <note vol="164" len="180" key="24" pos="768" pan="0"/>
          <note vol="146" len="156" key="31" pos="792" pan="0"/>
          <note vol="162" len="132" key="36" pos="816" pan="0"/>
          <note vol="146" len="36" key="24" pos="960" pan="0"/>
          <note vol="151" len="156" key="31" pos="984" pan="0"/>
          <note vol="145" len="120" key="24" pos="1008" pan="0"/>
          <note vol="157" len="108" key="36" pos="1032" pan="0"/>
          <note vol="175" len="60" key="28" pos="1152" pan="0"/>
          <note vol="161" len="60" key="24" pos="1152" pan="0"/>
          <note vol="168" len="60" key="28" pos="1224" pan="0"/>
          <note vol="150" len="60" key="24" pos="1224" pan="0"/>
          <note vol="176" len="36" key="29" pos="1296" pan="0"/>
          <note vol="171" len="36" key="24" pos="1296" pan="0"/>
          <note vol="169" len="60" key="28" pos="1344" pan="0"/>
          <note vol="162" len="60" key="24" pos="1344" pan="0"/>
          <note vol="168" len="60" key="28" pos="1416" pan="0"/>
          <note vol="155" len="60" key="24" pos="1416" pan="0"/>
          <note vol="123" len="36" key="19" pos="1488" pan="0"/>
          <note vol="152" len="36" key="24" pos="1488" pan="0"/>
        </pattern>
        <pattern name="Grand Piano" muted="0" steps="16" pos="17088" type="1">
          <note vol="161" len="181" key="24" pos="0" pan="0"/>
          <note vol="145" len="37" key="31" pos="24" pan="0"/>
          <note vol="168" len="37" key="36" pos="48" pan="0"/>
          <note vol="156" len="37" key="31" pos="72" pan="0"/>
          <note vol="172" len="37" key="36" pos="96" pan="0"/>
          <note vol="158" len="37" key="31" pos="120" pan="0"/>
          <note vol="169" len="37" key="36" pos="144" pan="0"/>
          <note vol="158" len="13" key="31" pos="168" pan="0"/>
          <note vol="165" len="181" key="24" pos="192" pan="0"/>
          <note vol="158" len="37" key="31" pos="216" pan="0"/>
          <note vol="169" len="37" key="36" pos="240" pan="0"/>
          <note vol="159" len="37" key="31" pos="264" pan="0"/>
          <note vol="173" len="37" key="36" pos="288" pan="0"/>
          <note vol="152" len="37" key="31" pos="312" pan="0"/>
          <note vol="169" len="37" key="36" pos="336" pan="0"/>
          <note vol="152" len="13" key="31" pos="360" pan="0"/>
          <note vol="158" len="181" key="24" pos="384" pan="0"/>
          <note vol="145" len="37" key="31" pos="408" pan="0"/>
          <note vol="169" len="37" key="36" pos="432" pan="0"/>
          <note vol="158" len="37" key="31" pos="456" pan="0"/>
          <note vol="172" len="37" key="40" pos="480" pan="0"/>
          <note vol="156" len="37" key="31" pos="504" pan="0"/>
          <note vol="169" len="37" key="36" pos="528" pan="0"/>
          <note vol="156" len="13" key="35" pos="552" pan="0"/>
          <note vol="163" len="181" key="26" pos="576" pan="0"/>
          <note vol="159" len="37" key="31" pos="600" pan="0"/>
          <note vol="173" len="37" key="35" pos="624" pan="0"/>
          <note vol="158" len="37" key="31" pos="648" pan="0"/>
          <note vol="173" len="37" key="35" pos="672" pan="0"/>
          <note vol="161" len="37" key="31" pos="696" pan="0"/>
          <note vol="169" len="37" key="35" pos="720" pan="0"/>
          <note vol="155" len="13" key="36" pos="744" pan="0"/>
          <note vol="169" len="181" key="24" pos="768" pan="0"/>
          <note vol="154" len="37" key="31" pos="792" pan="0"/>
          <note vol="163" len="37" key="36" pos="816" pan="0"/>
          <note vol="150" len="37" key="31" pos="840" pan="0"/>
          <note vol="170" len="37" key="36" pos="864" pan="0"/>
          <note vol="158" len="37" key="31" pos="888" pan="0"/>
          <note vol="169" len="37" key="36" pos="912" pan="0"/>
          <note vol="155" len="13" key="31" pos="936" pan="0"/>
          <note vol="166" len="181" key="24" pos="960" pan="0"/>
          <note vol="156" len="37" key="31" pos="984" pan="0"/>
          <note vol="169" len="37" key="36" pos="1008" pan="0"/>
          <note vol="158" len="37" key="31" pos="1032" pan="0"/>
          <note vol="175" len="37" key="36" pos="1056" pan="0"/>
          <note vol="161" len="37" key="31" pos="1080" pan="0"/>
          <note vol="169" len="37" key="36" pos="1104" pan="0"/>
          <note vol="158" len="13" key="38" pos="1128" pan="0"/>
          <note vol="172" len="181" key="26" pos="1152" pan="0"/>
          <note vol="165" len="37" key="31" pos="1176" pan="0"/>
          <note vol="177" len="37" key="38" pos="1200" pan="0"/>
          <note vol="166" len="37" key="31" pos="1224" pan="0"/>
          <note vol="179" len="37" key="38" pos="1248" pan="0"/>
          <note vol="168" len="37" key="31" pos="1272" pan="0"/>
          <note vol="181" len="37" key="38" pos="1296" pan="0"/>
          <note vol="165" len="13" key="40" pos="1320" pan="0"/>
          <note vol="170" len="181" key="28" pos="1344" pan="0"/>
          <note vol="161" len="37" key="31" pos="1368" pan="0"/>
          <note vol="176" len="37" key="40" pos="1392" pan="0"/>
          <note vol="162" len="37" key="31" pos="1416" pan="0"/>
          <note vol="179" len="37" key="40" pos="1440" pan="0"/>
          <note vol="161" len="37" key="31" pos="1464" pan="0"/>
          <note vol="175" len="37" key="40" pos="1488" pan="0"/>
          <note vol="161" len="13" key="31" pos="1512" pan="0"/>
        </pattern>
        <pattern name="Grand Piano" muted="0" steps="16" pos="26304" type="1">
          <note vol="164" len="157" key="21" pos="0" pan="0"/>
          <note vol="152" len="157" key="28" pos="24" pan="0"/>
          <note vol="159" len="133" key="33" pos="48" pan="0"/>
          <note vol="161" len="205" key="21" pos="168" pan="0"/>
          <note vol="148" len="157" key="28" pos="216" pan="0"/>
          <note vol="153" len="133" key="33" pos="240" pan="0"/>
          <note vol="166" len="157" key="24" pos="384" pan="0"/>
          <note vol="153" len="157" key="31" pos="408" pan="0"/>
          <note vol="164" len="133" key="36" pos="432" pan="0"/>
          <note vol="171" len="205" key="24" pos="552" pan="0"/>
          <note vol="162" len="157" key="31" pos="600" pan="0"/>
          <note vol="169" len="133" key="36" pos="624" pan="0"/>
          <note vol="164" len="157" key="21" pos="768" pan="0"/>
          <note vol="152" len="157" key="28" pos="792" pan="0"/>
          <note vol="164" len="133" key="33" pos="816" pan="0"/>
          <note vol="164" len="205" key="21" pos="936" pan="0"/>
          <note vol="153" len="157" key="28" pos="984" pan="0"/>
          <note vol="157" len="133" key="36" pos="1008" pan="0"/>
          <note vol="157" len="181" key="24" pos="1152" pan="0"/>
          <note vol="145" len="157" key="31" pos="1176" pan="0"/>
          <note vol="164" len="133" key="43" pos="1200" pan="0"/>
          <note vol="157" len="190" key="24" pos="1344" pan="0"/>
          <note vol="152" len="178" key="31" pos="1355" pan="0"/>
          <note vol="156" len="169" key="36" pos="1367" pan="0"/>
          <note vol="163" len="13" key="38" pos="1376" pan="0"/>
          <note vol="160" len="142" key="40" pos="1386" pan="0"/>
        </pattern>
        <pattern name="Grand Piano" muted="0" steps="16" pos="10944" type="1">
          <note vol="148" len="60" key="29" pos="0" pan="0"/>
          <note vol="151" len="24" key="53" pos="0" pan="0"/>
          <note vol="154" len="24" key="57" pos="24" pan="0"/>
          <note vol="150" len="60" key="36" pos="24" pan="0"/>
          <note vol="154" len="24" key="60" pos="48" pan="0"/>
          <note vol="145" len="60" key="41" pos="48" pan="0"/>
          <note vol="166" len="24" key="53" pos="72" pan="0"/>
          <note vol="158" len="60" key="29" pos="72" pan="0"/>
          <note vol="183" len="24" key="64" pos="96" pan="0"/>
          <note vol="165" len="48" key="36" pos="96" pan="0"/>
          <note vol="161" len="24" key="41" pos="120" pan="0"/>
          <note vol="166" len="24" key="53" pos="120" pan="0"/>
          <note vol="158" len="60" key="43" pos="144" pan="0"/>
          <note vol="173" len="24" key="62" pos="144" pan="0"/>
          <note vol="146" len="60" key="41" pos="168" pan="0"/>
          <note vol="167" len="24" key="55" pos="168" pan="0"/>
          <note vol="174" len="24" key="52" pos="192" pan="0"/>
          <note vol="157" len="180" key="28" pos="192" pan="0"/>
          <note vol="167" len="24" key="55" pos="216" pan="0"/>
          <note vol="151" len="24" key="35" pos="216" pan="0"/>
          <note vol="161" len="24" key="62" pos="240" pan="0"/>
          <note vol="154" len="132" key="36" pos="240" pan="0"/>
          <note vol="155" len="24" key="64" pos="264" pan="0"/>
          <note vol="160" len="48" key="40" pos="264" pan="0"/>
          <note vol="170" len="24" key="50" pos="288" pan="0"/>
          <note vol="164" len="48" key="41" pos="288" pan="0"/>
          <note vol="151" len="48" key="40" pos="312" pan="0"/>
          <note vol="142" len="24" key="52" pos="312" pan="0"/>
          <note vol="151" len="24" key="60" pos="336" pan="0"/>
          <note vol="140" len="36" key="38" pos="336" pan="0"/>
          <note vol="153" len="12" key="31" pos="360" pan="0"/>
          <note vol="154" len="24" key="48" pos="360" pan="0"/>
          <note vol="168" len="24" key="60" pos="384" pan="0"/>
          <note vol="147" len="180" key="24" pos="384" pan="0"/>
          <note vol="152" len="24" key="52" pos="408" pan="0"/>
          <note vol="140" len="156" key="31" pos="408" pan="0"/>
          <note vol="144" len="132" key="35" pos="432" pan="0"/>
          <note vol="154" len="24" key="48" pos="432" pan="0"/>
          <note vol="144" len="24" key="47" pos="456" pan="0"/>
          <note vol="150" len="24" key="50" pos="480" pan="0"/>
          <note vol="145" len="24" key="52" pos="504" pan="0"/>
          <note vol="138" len="24" key="53" pos="528" pan="0"/>
          <note vol="148" len="24" key="60" pos="552" pan="0"/>
          <note vol="147" len="96" key="21" pos="576" pan="0"/>
          <note vol="152" len="24" key="45" pos="576" pan="0"/>
          <note vol="150" len="24" key="47" pos="600" pan="0"/>
          <note vol="136" len="84" key="28" pos="600" pan="0"/>
          <note vol="142" len="24" key="48" pos="624" pan="0"/>
          <note vol="140" len="72" key="33" pos="624" pan="0"/>
          <note vol="149" len="24" key="52" pos="648" pan="0"/>
          <note vol="162" len="24" key="57" pos="672" pan="0"/>
          <note vol="147" len="60" key="28" pos="696" pan="0"/>
          <note vol="155" len="24" key="52" pos="696" pan="0"/>
          <note vol="152" len="36" key="33" pos="720" pan="0"/>
          <note vol="151" len="24" key="48" pos="720" pan="0"/>
          <note vol="148" len="12" key="31" pos="744" pan="0"/>
          <note vol="154" len="24" key="47" pos="744" pan="0"/>
          <note vol="141" len="180" key="29" pos="768" pan="0"/>
          <note vol="156" len="24" key="53" pos="768" pan="0"/>
          <note vol="144" len="36" key="33" pos="792" pan="0"/>
          <note vol="154" len="24" key="57" pos="792" pan="0"/>
          <note vol="163" len="24" key="59" pos="816" pan="0"/>
          <note vol="159" len="36" key="36" pos="816" pan="0"/>
          <note vol="170" len="24" key="64" pos="840" pan="0"/>
          <note vol="162" len="108" key="33" pos="840" pan="0"/>
          <note vol="161" len="84" key="36" pos="864" pan="0"/>
          <note vol="159" len="24" key="62" pos="864" pan="0"/>
          <note vol="188" len="24" key="60" pos="888" pan="0"/>
          <note vol="168" len="60" key="41" pos="888" pan="0"/>
          <note vol="162" len="24" key="62" pos="912" pan="0"/>
          <note vol="166" len="24" key="55" pos="936" pan="0"/>
          <note vol="166" len="180" key="31" pos="960" pan="0"/>
          <note vol="151" len="24" key="52" pos="960" pan="0"/>
          <note vol="170" len="24" key="55" pos="984" pan="0"/>
          <note vol="168" len="156" key="36" pos="984" pan="0"/>
          <note vol="171" len="60" key="41" pos="1008" pan="0"/>
          <note vol="180" len="24" key="60" pos="1008" pan="0"/>
          <note vol="167" len="108" key="43" pos="1032" pan="0"/>
          <note vol="191" len="24" key="67" pos="1032" pan="0"/>
          <note vol="182" len="24" key="65" pos="1056" pan="0"/>
          <note vol="167" len="24" key="60" pos="1080" pan="0"/>
          <note vol="186" len="24" key="64" pos="1104" pan="0"/>
          <note vol="155" len="24" key="55" pos="1128" pan="0"/>
          <note vol="169" len="24" key="60" pos="1152" pan="0"/>
          <note vol="151" len="180" key="26" pos="1152" pan="0"/>
          <note vol="160" len="156" key="33" pos="1176" pan="0"/>
          <note vol="156" len="24" key="53" pos="1176" pan="0"/>
          <note vol="152" len="132" key="38" pos="1200" pan="0"/>
          <note vol="146" len="24" key="52" pos="1200" pan="0"/>
          <note vol="139" len="24" key="53" pos="1224" pan="0"/>
          <note vol="143" len="24" key="50" pos="1248" pan="0"/>
          <note vol="153" len="24" key="55" pos="1272" pan="0"/>
          <note vol="152" len="24" key="57" pos="1296" pan="0"/>
          <note vol="158" len="24" key="64" pos="1320" pan="0"/>
          <note vol="172" len="24" key="60" pos="1344" pan="0"/>
          <note vol="162" len="108" key="24" pos="1344" pan="0"/>
          <note vol="152" len="84" key="31" pos="1368" pan="0"/>
          <note vol="164" len="24" key="59" pos="1368" pan="0"/>
          <note vol="157" len="60" key="36" pos="1392" pan="0"/>
          <note vol="155" len="24" key="60" pos="1392" pan="0"/>
          <note vol="163" len="25" key="64" pos="1416" pan="0"/>
          <note vol="173" len="25" key="65" pos="1440" pan="0"/>
          <note vol="160" len="24" key="64" pos="1464" pan="0"/>
          <note vol="148" len="60" key="24" pos="1464" pan="0"/>
          <note vol="159" len="36" key="28" pos="1488" pan="0"/>
          <note vol="162" len="24" key="60" pos="1488" pan="0"/>
          <note vol="149" len="24" key="59" pos="1512" pan="0"/>
          <note vol="142" len="12" key="36" pos="1512" pan="0"/>
        </pattern>
        <pattern name="Grand Piano" muted="0" steps="16" pos="12480" type="1">
          <note vol="148" len="60" key="29" pos="0" pan="0"/>
          <note vol="151" len="24" key="53" pos="0" pan="0"/>
          <note vol="154" len="24" key="57" pos="24" pan="0"/>
          <note vol="150" len="60" key="36" pos="24" pan="0"/>
          <note vol="154" len="24" key="60" pos="48" pan="0"/>
          <note vol="145" len="60" key="41" pos="48" pan="0"/>
          <note vol="158" len="60" key="29" pos="72" pan="0"/>
          <note vol="166" len="24" key="53" pos="72" pan="0"/>
          <note vol="165" len="48" key="36" pos="96" pan="0"/>
          <note vol="183" len="24" key="64" pos="96" pan="0"/>
          <note vol="166" len="24" key="55" pos="120" pan="0"/>
          <note vol="161" len="24" key="41" pos="120" pan="0"/>
          <note vol="173" len="24" key="62" pos="144" pan="0"/>
          <note vol="158" len="60" key="43" pos="144" pan="0"/>
          <note vol="179" len="24" key="67" pos="168" pan="0"/>
          <note vol="146" len="60" key="41" pos="168" pan="0"/>
          <note vol="157" len="180" key="28" pos="192" pan="0"/>
          <note vol="174" len="24" key="52" pos="192" pan="0"/>
          <note vol="167" len="24" key="55" pos="216" pan="0"/>
          <note vol="151" len="24" key="35" pos="216" pan="0"/>
          <note vol="161" len="24" key="62" pos="240" pan="0"/>
          <note vol="154" len="132" key="36" pos="240" pan="0"/>
          <note vol="155" len="24" key="64" pos="264" pan="0"/>
          <note vol="160" len="48" key="40" pos="264" pan="0"/>
          <note vol="164" len="48" key="41" pos="288" pan="0"/>
          <note vol="186" len="24" key="67" pos="288" pan="0"/>
          <note vol="142" len="24" key="52" pos="312" pan="0"/>
          <note vol="151" len="48" key="40" pos="312" pan="0"/>
          <note vol="151" len="24" key="60" pos="336" pan="0"/>
          <note vol="140" len="36" key="38" pos="336" pan="0"/>
          <note vol="153" len="12" key="31" pos="360" pan="0"/>
          <note vol="165" len="24" key="64" pos="360" pan="0"/>
          <note vol="147" len="180" key="24" pos="384" pan="0"/>
          <note vol="168" len="24" key="60" pos="384" pan="0"/>
          <note vol="140" len="156" key="31" pos="408" pan="0"/>
          <note vol="152" len="24" key="53" pos="408" pan="0"/>
          <note vol="154" len="24" key="52" pos="432" pan="0"/>
          <note vol="144" len="132" key="35" pos="432" pan="0"/>
          <note vol="144" len="24" key="47" pos="456" pan="0"/>
          <note vol="150" len="24" key="50" pos="480" pan="0"/>
          <note vol="145" len="24" key="52" pos="504" pan="0"/>
          <note vol="138" len="24" key="53" pos="528" pan="0"/>
          <note vol="148" len="24" key="60" pos="552" pan="0"/>
          <note vol="147" len="96" key="21" pos="576" pan="0"/>
          <note vol="152" len="24" key="45" pos="576" pan="0"/>
          <note vol="150" len="24" key="47" pos="600" pan="0"/>
          <note vol="136" len="84" key="28" pos="600" pan="0"/>
          <note vol="142" len="24" key="48" pos="624" pan="0"/>
          <note vol="140" len="72" key="33" pos="624" pan="0"/>
          <note vol="149" len="24" key="52" pos="648" pan="0"/>
          <note vol="162" len="24" key="57" pos="672" pan="0"/>
          <note vol="147" len="60" key="28" pos="696" pan="0"/>
          <note vol="155" len="24" key="52" pos="696" pan="0"/>
          <note vol="152" len="36" key="33" pos="720" pan="0"/>
          <note vol="168" len="24" key="60" pos="720" pan="0"/>
          <note vol="148" len="12" key="31" pos="744" pan="0"/>
          <note vol="163" len="24" key="52" pos="744" pan="0"/>
          <note vol="141" len="180" key="29" pos="768" pan="0"/>
          <note vol="156" len="24" key="53" pos="768" pan="0"/>
          <note vol="144" len="36" key="33" pos="792" pan="0"/>
          <note vol="154" len="24" key="57" pos="792" pan="0"/>
          <note vol="163" len="24" key="59" pos="816" pan="0"/>
          <note vol="158" len="36" key="36" pos="816" pan="0"/>
          <note vol="162" len="108" key="33" pos="840" pan="0"/>
          <note vol="170" len="24" key="64" pos="840" pan="0"/>
          <note vol="161" len="84" key="36" pos="864" pan="0"/>
          <note vol="159" len="24" key="62" pos="864" pan="0"/>
          <note vol="150" len="60" key="41" pos="888" pan="0"/>
          <note vol="188" len="24" key="60" pos="888" pan="0"/>
          <note vol="162" len="24" key="62" pos="912" pan="0"/>
          <note vol="166" len="24" key="67" pos="936" pan="0"/>
          <note vol="166" len="180" key="31" pos="960" pan="0"/>
          <note vol="151" len="24" key="52" pos="960" pan="0"/>
          <note vol="170" len="24" key="55" pos="984" pan="0"/>
          <note vol="168" len="156" key="36" pos="984" pan="0"/>
          <note vol="180" len="24" key="60" pos="1008" pan="0"/>
          <note vol="171" len="60" key="41" pos="1008" pan="0"/>
          <note vol="191" len="24" key="67" pos="1032" pan="0"/>
          <note vol="165" len="108" key="43" pos="1032" pan="0"/>
          <note vol="182" len="24" key="65" pos="1056" pan="0"/>
          <note vol="167" len="24" key="60" pos="1080" pan="0"/>
          <note vol="186" len="24" key="64" pos="1104" pan="0"/>
          <note vol="155" len="24" key="55" pos="1128" pan="0"/>
          <note vol="151" len="180" key="26" pos="1152" pan="0"/>
          <note vol="169" len="24" key="60" pos="1152" pan="0"/>
          <note vol="160" len="156" key="33" pos="1176" pan="0"/>
          <note vol="156" len="24" key="53" pos="1176" pan="0"/>
          <note vol="146" len="24" key="52" pos="1200" pan="0"/>
          <note vol="152" len="132" key="38" pos="1200" pan="0"/>
          <note vol="139" len="24" key="53" pos="1224" pan="0"/>
          <note vol="143" len="24" key="50" pos="1248" pan="0"/>
          <note vol="153" len="24" key="55" pos="1272" pan="0"/>
          <note vol="152" len="24" key="57" pos="1296" pan="0"/>
          <note vol="158" len="24" key="64" pos="1320" pan="0"/>
          <note vol="162" len="108" key="24" pos="1344" pan="0"/>
          <note vol="172" len="24" key="60" pos="1344" pan="0"/>
          <note vol="164" len="24" key="55" pos="1368" pan="0"/>
          <note vol="152" len="84" key="31" pos="1368" pan="0"/>
          <note vol="157" len="60" key="36" pos="1392" pan="0"/>
          <note vol="160" len="24" key="60" pos="1392" pan="0"/>
          <note vol="172" len="25" key="48" pos="1416" pan="0"/>
          <note vol="162" len="25" key="47" pos="1440" pan="0"/>
          <note vol="148" len="60" key="24" pos="1464" pan="0"/>
          <note vol="154" len="24" key="48" pos="1464" pan="0"/>
          <note vol="167" len="24" key="52" pos="1488" pan="0"/>
          <note vol="159" len="36" key="28" pos="1488" pan="0"/>
          <note vol="149" len="24" key="48" pos="1512" pan="0"/>
          <note vol="142" len="12" key="36" pos="1512" pan="0"/>
        </pattern>
        <pattern name="Grand Piano" muted="0" steps="16" pos="23232" type="1">
          <note vol="186" len="24" key="65" pos="0" pan="0"/>
          <note vol="174" len="60" key="24" pos="0" pan="0"/>
          <note vol="174" len="24" key="60" pos="24" pan="1"/>
          <note vol="169" len="48" key="29" pos="24" pan="0"/>
          <note vol="181" len="24" key="65" pos="48" pan="0"/>
          <note vol="161" len="48" key="33" pos="48" pan="0"/>
          <note vol="173" len="108" key="24" pos="72" pan="0"/>
          <note vol="178" len="24" key="60" pos="72" pan="0"/>
          <note vol="171" len="24" key="59" pos="96" pan="0"/>
          <note vol="161" len="84" key="26" pos="96" pan="0"/>
          <note vol="168" len="60" key="31" pos="120" pan="0"/>
          <note vol="178" len="24" key="59" pos="120" pan="0"/>
          <note vol="179" len="24" key="60" pos="144" pan="0"/>
          <note vol="162" len="36" key="38" pos="144" pan="0"/>
          <note vol="181" len="24" key="62" pos="168" pan="0"/>
          <note vol="170" len="24" key="60" pos="192" pan="0"/>
          <note vol="167" len="60" key="28" pos="192" pan="0"/>
          <note vol="158" len="36" key="31" pos="216" pan="0"/>
          <note vol="172" len="24" key="60" pos="216" pan="0"/>
          <note vol="164" len="36" key="40" pos="240" pan="0"/>
          <note vol="170" len="24" key="62" pos="240" pan="0"/>
          <note vol="170" len="108" key="28" pos="264" pan="0"/>
          <note vol="183" len="24" key="64" pos="264" pan="0"/>
          <note vol="170" len="24" key="40" pos="312" pan="0"/>
          <note vol="185" len="24" key="64" pos="312" pan="0"/>
          <note vol="170" len="24" key="62" pos="336" pan="0"/>
          <note vol="156" len="24" key="38" pos="336" pan="0"/>
          <note vol="160" len="12" key="36" pos="360" pan="0"/>
          <note vol="178" len="24" key="64" pos="360" pan="0"/>
          <note vol="183" len="24" key="62" pos="384" pan="0"/>
          <note vol="170" len="60" key="24" pos="384" pan="0"/>
          <note vol="163" len="36" key="29" pos="408" pan="0"/>
          <note vol="170" len="24" key="60" pos="408" pan="0"/>
          <note vol="166" len="36" key="33" pos="432" pan="0"/>
          <note vol="173" len="24" key="59" pos="432" pan="0"/>
          <note vol="161" len="108" key="24" pos="456" pan="0"/>
          <note vol="167" len="24" key="55" pos="456" pan="0"/>
          <note vol="171" len="24" key="59" pos="480" pan="0"/>
          <note vol="168" len="60" key="31" pos="504" pan="0"/>
          <note vol="177" len="24" key="55" pos="504" pan="0"/>
          <note vol="166" len="36" key="38" pos="528" pan="0"/>
          <note vol="171" len="24" key="60" pos="528" pan="0"/>
          <note vol="167" len="24" key="55" pos="552" pan="0"/>
          <note vol="179" len="180" key="28" pos="576" pan="0"/>
          <note vol="189" len="24" key="65" pos="576" pan="0"/>
          <note vol="181" len="24" key="64" pos="600" pan="0"/>
          <note vol="166" len="156" key="31" pos="600" pan="0"/>
          <note vol="171" len="132" key="38" pos="624" pan="0"/>
          <note vol="178" len="24" key="62" pos="624" pan="0"/>
          <note vol="169" len="48" key="40" pos="648" pan="0"/>
          <note vol="182" len="24" key="67" pos="648" pan="0"/>
          <note vol="179" len="24" key="43" pos="696" pan="0"/>
          <note vol="189" len="24" key="67" pos="696" pan="0"/>
          <note vol="182" len="24" key="65" pos="720" pan="0"/>
          <note vol="175" len="24" key="41" pos="720" pan="0"/>
          <note vol="181" len="24" key="64" pos="744" pan="0"/>
          <note vol="163" len="24" key="40" pos="744" pan="0"/>
          <note vol="185" len="24" key="67" pos="768" pan="0"/>
          <note vol="175" len="60" key="24" pos="768" pan="0"/>
          <note vol="171" len="24" key="60" pos="792" pan="0"/>
          <note vol="163" len="48" key="29" pos="792" pan="0"/>
          <note vol="184" len="24" key="67" pos="816" pan="0"/>
          <note vol="163" len="48" key="33" pos="816" pan="0"/>
          <note vol="167" len="108" key="24" pos="840" pan="0"/>
          <note vol="171" len="24" key="60" pos="840" pan="0"/>
          <note vol="162" len="84" key="26" pos="864" pan="0"/>
          <note vol="172" len="24" key="55" pos="864" pan="0"/>
          <note vol="167" len="60" key="31" pos="888" pan="0"/>
          <note vol="179" len="24" key="59" pos="888" pan="0"/>
          <note vol="170" len="24" key="60" pos="912" pan="0"/>
          <note vol="167" len="36" key="38" pos="912" pan="0"/>
          <note vol="184" len="24" key="62" pos="936" pan="0"/>
          <note vol="176" len="60" key="28" pos="960" pan="0"/>
          <note vol="185" len="24" key="60" pos="960" pan="0"/>
          <note vol="168" len="36" key="31" pos="984" pan="0"/>
          <note vol="177" len="24" key="62" pos="984" pan="0"/>
          <note vol="168" len="36" key="40" pos="1008" pan="0"/>
          <note vol="172" len="24" key="64" pos="1008" pan="0"/>
          <note vol="182" len="24" key="64" pos="1032" pan="0"/>
          <note vol="174" len="108" key="28" pos="1032" pan="0"/>
          <note vol="174" len="24" key="40" pos="1080" pan="0"/>
          <note vol="176" len="24" key="64" pos="1080" pan="0"/>
          <note vol="170" len="24" key="38" pos="1104" pan="0"/>
          <note vol="185" len="24" key="65" pos="1104" pan="0"/>
          <note vol="177" len="24" key="64" pos="1128" pan="0"/>
          <note vol="165" len="12" key="36" pos="1128" pan="0"/>
          <note vol="164" len="84" key="29" pos="1152" pan="0"/>
          <note vol="168" len="24" key="60" pos="1152" pan="0"/>
          <note vol="170" len="36" key="33" pos="1176" pan="0"/>
          <note vol="185" len="24" key="64" pos="1176" pan="0"/>
          <note vol="189" len="24" key="67" pos="1200" pan="0"/>
          <note vol="175" len="36" key="36" pos="1200" pan="0"/>
          <note vol="175" len="24" key="64" pos="1224" pan="0"/>
          <note vol="170" len="84" key="28" pos="1248" pan="0"/>
          <note vol="188" len="24" key="67" pos="1248" pan="0"/>
          <note vol="163" len="60" key="31" pos="1272" pan="0"/>
          <note vol="181" len="24" key="64" pos="1272" pan="0"/>
          <note vol="172" len="36" key="38" pos="1296" pan="0"/>
          <note vol="193" len="24" key="72" pos="1296" pan="0"/>
          <note vol="167" len="12" key="40" pos="1320" pan="0"/>
          <note vol="180" len="24" key="64" pos="1320" pan="0"/>
          <note vol="185" len="24" key="67" pos="1344" pan="0"/>
          <note vol="176" len="180" key="21" pos="1344" pan="0"/>
          <note vol="164" len="36" key="28" pos="1368" pan="0"/>
          <note vol="176" len="24" key="64" pos="1368" pan="0"/>
          <note vol="173" len="48" key="33" pos="1392" pan="0"/>
          <note vol="181" len="24" key="59" pos="1392" pan="0"/>
          <note vol="165" len="36" key="28" pos="1416" pan="0"/>
          <note vol="164" len="24" key="57" pos="1416" pan="0"/>
          <note vol="177" len="48" key="36" pos="1440" pan="0"/>
          <note vol="166" len="36" key="28" pos="1464" pan="0"/>
          <note vol="173" len="36" key="33" pos="1488" pan="0"/>
          <note vol="164" len="12" key="35" pos="1512" pan="0"/>
        </pattern>
        <pattern name="Grand Piano" muted="0" steps="16" pos="24768" type="1">
          <note vol="174" len="60" key="24" pos="0" pan="0"/>
          <note vol="169" len="48" key="29" pos="24" pan="0"/>
          <note vol="161" len="48" key="36" pos="48" pan="0"/>
          <note vol="173" len="108" key="24" pos="72" pan="0"/>
          <note vol="161" len="84" key="26" pos="96" pan="0"/>
          <note vol="168" len="60" key="31" pos="120" pan="0"/>
          <note vol="162" len="36" key="38" pos="144" pan="0"/>
          <note vol="167" len="60" key="28" pos="192" pan="0"/>
          <note vol="158" len="36" key="31" pos="216" pan="0"/>
          <note vol="164" len="36" key="40" pos="240" pan="0"/>
          <note vol="170" len="108" key="28" pos="264" pan="0"/>
          <note vol="170" len="24" key="40" pos="312" pan="0"/>
          <note vol="156" len="24" key="41" pos="336" pan="0"/>
          <note vol="160" len="12" key="43" pos="360" pan="0"/>
          <note vol="170" len="60" key="24" pos="384" pan="0"/>
          <note vol="163" len="36" key="29" pos="408" pan="0"/>
          <note vol="166" len="36" key="36" pos="432" pan="0"/>
          <note vol="161" len="108" key="24" pos="456" pan="0"/>
          <note vol="168" len="60" key="31" pos="504" pan="0"/>
          <note vol="166" len="36" key="38" pos="528" pan="0"/>
          <note vol="179" len="180" key="28" pos="576" pan="0"/>
          <note vol="166" len="156" key="31" pos="600" pan="0"/>
          <note vol="171" len="132" key="38" pos="624" pan="0"/>
          <note vol="169" len="48" key="40" pos="648" pan="0"/>
          <note vol="179" len="24" key="43" pos="696" pan="0"/>
          <note vol="175" len="24" key="41" pos="720" pan="0"/>
          <note vol="163" len="24" key="40" pos="744" pan="0"/>
          <note vol="175" len="60" key="24" pos="768" pan="0"/>
          <note vol="163" len="48" key="29" pos="792" pan="0"/>
          <note vol="163" len="48" key="36" pos="816" pan="0"/>
          <note vol="167" len="108" key="24" pos="840" pan="0"/>
          <note vol="162" len="84" key="26" pos="864" pan="0"/>
          <note vol="167" len="60" key="31" pos="888" pan="0"/>
          <note vol="167" len="36" key="38" pos="912" pan="0"/>
          <note vol="176" len="60" key="28" pos="960" pan="0"/>
          <note vol="168" len="36" key="31" pos="984" pan="0"/>
          <note vol="168" len="36" key="40" pos="1008" pan="0"/>
          <note vol="174" len="108" key="28" pos="1032" pan="0"/>
          <note vol="174" len="24" key="40" pos="1080" pan="0"/>
          <note vol="170" len="24" key="41" pos="1104" pan="0"/>
          <note vol="165" len="12" key="43" pos="1128" pan="0"/>
          <note vol="164" len="84" key="29" pos="1152" pan="0"/>
          <note vol="170" len="36" key="33" pos="1176" pan="0"/>
          <note vol="175" len="36" key="36" pos="1200" pan="0"/>
          <note vol="170" len="84" key="28" pos="1248" pan="0"/>
          <note vol="163" len="60" key="31" pos="1272" pan="0"/>
          <note vol="172" len="36" key="38" pos="1296" pan="0"/>
          <note vol="167" len="12" key="40" pos="1320" pan="0"/>
          <note vol="176" len="180" key="21" pos="1344" pan="0"/>
          <note vol="164" len="36" key="28" pos="1368" pan="0"/>
          <note vol="173" len="48" key="33" pos="1392" pan="0"/>
          <note vol="165" len="36" key="28" pos="1416" pan="0"/>
          <note vol="177" len="48" key="36" pos="1440" pan="0"/>
          <note vol="166" len="36" key="28" pos="1464" pan="0"/>
          <note vol="173" len="36" key="33" pos="1488" pan="0"/>
          <note vol="164" len="12" key="28" pos="1512" pan="0"/>
        </pattern>
        <pattern name="Grand Piano" muted="0" steps="16" pos="14016" type="1">
          <note vol="162" len="156" key="24" pos="0" pan="0"/>
          <note vol="145" len="156" key="29" pos="24" pan="0"/>
          <note vol="145" len="132" key="36" pos="48" pan="0"/>
          <note vol="152" len="108" key="41" pos="72" pan="0"/>
          <note vol="161" len="204" key="24" pos="168" pan="0"/>
          <note vol="146" len="156" key="31" pos="216" pan="0"/>
          <note vol="150" len="132" key="36" pos="240" pan="0"/>
          <note vol="171" len="24" key="43" pos="264" pan="0"/>
          <note vol="159" len="24" key="41" pos="288" pan="0"/>
          <note vol="148" len="60" key="40" pos="312" pan="0"/>
          <note vol="157" len="156" key="24" pos="384" pan="0"/>
          <note vol="138" len="156" key="31" pos="408" pan="0"/>
          <note vol="145" len="132" key="36" pos="432" pan="0"/>
          <note vol="145" len="108" key="40" pos="456" pan="0"/>
          <note vol="161" len="108" key="24" pos="552" pan="0"/>
          <note vol="152" len="60" key="28" pos="600" pan="0"/>
          <note vol="139" len="36" key="36" pos="624" pan="0"/>
          <note vol="146" len="12" key="40" pos="648" pan="0"/>
          <note vol="159" len="84" key="28" pos="672" pan="0"/>
          <note vol="134" len="60" key="31" pos="696" pan="0"/>
          <note vol="143" len="36" key="36" pos="720" pan="0"/>
          <note vol="129" len="12" key="38" pos="744" pan="0"/>
          <note vol="161" len="180" key="26" pos="768" pan="0"/>
          <note vol="141" len="156" key="29" pos="792" pan="0"/>
          <note vol="155" len="132" key="33" pos="816" pan="0"/>
          <note vol="145" len="108" key="36" pos="840" pan="0"/>
          <note vol="153" len="180" key="26" pos="960" pan="0"/>
          <note vol="143" len="156" key="29" pos="984" pan="0"/>
          <note vol="155" len="132" key="33" pos="1008" pan="0"/>
          <note vol="148" len="24" key="36" pos="1032" pan="0"/>
          <note vol="173" len="84" key="38" pos="1056" pan="0"/>
          <note vol="169" len="180" key="24" pos="1152" pan="0"/>
          <note vol="157" len="156" key="29" pos="1176" pan="0"/>
          <note vol="171" len="132" key="33" pos="1200" pan="0"/>
          <note vol="166" len="108" key="36" pos="1224" pan="0"/>
          <note vol="168" len="180" key="24" pos="1344" pan="0"/>
          <note vol="153" len="156" key="28" pos="1368" pan="0"/>
          <note vol="155" len="60" key="31" pos="1392" pan="0"/>
          <note vol="169" len="36" key="36" pos="1416" pan="0"/>
          <note vol="166" len="24" key="35" pos="1464" pan="0"/>
          <note vol="146" len="36" key="31" pos="1488" pan="0"/>
        </pattern>
        <pattern name="Grand Piano" muted="0" steps="16" pos="9408" type="1">
          <note vol="166" len="181" key="28" pos="0" pan="0"/>
          <note vol="153" len="157" key="31" pos="24" pan="0"/>
          <note vol="147" len="13" key="36" pos="48" pan="0"/>
          <note vol="162" len="13" key="36" pos="72" pan="0"/>
          <note vol="169" len="13" key="40" pos="72" pan="0"/>
          <note vol="172" len="13" key="40" pos="120" pan="0"/>
          <note vol="169" len="13" key="36" pos="120" pan="0"/>
          <note vol="162" len="13" key="36" pos="168" pan="0"/>
          <note vol="170" len="13" key="40" pos="168" pan="0"/>
          <note vol="166" len="181" key="28" pos="192" pan="0"/>
          <note vol="153" len="157" key="31" pos="216" pan="0"/>
          <note vol="147" len="13" key="36" pos="240" pan="0"/>
          <note vol="168" len="13" key="40" pos="264" pan="0"/>
          <note vol="158" len="13" key="36" pos="264" pan="0"/>
          <note vol="166" len="13" key="36" pos="312" pan="0"/>
          <note vol="173" len="13" key="40" pos="312" pan="0"/>
          <note vol="172" len="13" key="40" pos="360" pan="0"/>
          <note vol="162" len="13" key="36" pos="360" pan="0"/>
          <note vol="159" len="181" key="29" pos="384" pan="0"/>
          <note vol="136" len="37" key="31" pos="408" pan="0"/>
          <note vol="166" len="13" key="36" pos="456" pan="0"/>
          <note vol="161" len="13" key="31" pos="456" pan="0"/>
          <note vol="173" len="13" key="36" pos="504" pan="0"/>
          <note vol="166" len="13" key="31" pos="504" pan="0"/>
          <note vol="151" len="13" key="31" pos="552" pan="0"/>
          <note vol="163" len="13" key="36" pos="552" pan="0"/>
          <note vol="150" len="181" key="24" pos="576" pan="0"/>
          <note vol="159" len="157" key="31" pos="600" pan="0"/>
          <note vol="158" len="13" key="35" pos="648" pan="0"/>
          <note vol="172" len="13" key="38" pos="648" pan="0"/>
          <note vol="175" len="13" key="38" pos="696" pan="0"/>
          <note vol="170" len="13" key="35" pos="696" pan="0"/>
          <note vol="169" len="13" key="38" pos="744" pan="0"/>
          <note vol="158" len="13" key="35" pos="744" pan="0"/>
          <note vol="166" len="181" key="28" pos="768" pan="0"/>
          <note vol="153" len="157" key="31" pos="792" pan="0"/>
          <note vol="155" len="13" key="36" pos="816" pan="0"/>
          <note vol="155" len="13" key="36" pos="840" pan="0"/>
          <note vol="173" len="13" key="40" pos="840" pan="0"/>
          <note vol="173" len="13" key="36" pos="888" pan="0"/>
          <note vol="177" len="13" key="40" pos="888" pan="0"/>
          <note vol="175" len="13" key="40" pos="936" pan="0"/>
          <note vol="162" len="13" key="36" pos="936" pan="0"/>
          <note vol="162" len="181" key="28" pos="960" pan="0"/>
          <note vol="153" len="157" key="31" pos="984" pan="0"/>
          <note vol="147" len="13" key="36" pos="1008" pan="0"/>
          <note vol="165" len="13" key="36" pos="1032" pan="0"/>
          <note vol="172" len="13" key="40" pos="1032" pan="0"/>
          <note vol="176" len="13" key="40" pos="1080" pan="0"/>
          <note vol="168" len="13" key="36" pos="1080" pan="0"/>
          <note vol="158" len="13" key="36" pos="1128" pan="0"/>
          <note vol="169" len="13" key="40" pos="1128" pan="0"/>
          <note vol="159" len="181" key="29" pos="1152" pan="0"/>
          <note vol="138" len="37" key="31" pos="1176" pan="0"/>
          <note vol="162" len="13" key="36" pos="1224" pan="0"/>
          <note vol="152" len="13" key="31" pos="1224" pan="0"/>
          <note vol="173" len="13" key="36" pos="1272" pan="0"/>
          <note vol="166" len="13" key="31" pos="1272" pan="0"/>
          <note vol="166" len="13" key="36" pos="1320" pan="0"/>
          <note vol="155" len="13" key="31" pos="1320" pan="0"/>
          <note vol="156" len="181" key="24" pos="1344" pan="0"/>
          <note vol="148" len="37" key="31" pos="1368" pan="0"/>
          <note vol="170" len="13" key="36" pos="1416" pan="0"/>
          <note vol="158" len="13" key="31" pos="1416" pan="0"/>
          <note vol="165" len="13" key="31" pos="1464" pan="0"/>
          <note vol="175" len="13" key="36" pos="1464" pan="0"/>
          <note vol="163" len="13" key="36" pos="1512" pan="0"/>
          <note vol="145" len="13" key="31" pos="1512" pan="0"/>
        </pattern>
        <pattern name="Grand Piano" muted="0" steps="16" pos="21696" type="1">
          <note vol="166" len="181" key="28" pos="0" pan="0"/>
          <note vol="153" len="157" key="31" pos="24" pan="0"/>
          <note vol="147" len="13" key="36" pos="48" pan="0"/>
          <note vol="162" len="13" key="36" pos="72" pan="0"/>
          <note vol="169" len="13" key="40" pos="72" pan="0"/>
          <note vol="172" len="13" key="40" pos="120" pan="0"/>
          <note vol="169" len="13" key="36" pos="120" pan="0"/>
          <note vol="162" len="13" key="36" pos="168" pan="0"/>
          <note vol="170" len="13" key="40" pos="168" pan="0"/>
          <note vol="166" len="181" key="28" pos="192" pan="0"/>
          <note vol="153" len="157" key="31" pos="216" pan="0"/>
          <note vol="147" len="13" key="36" pos="240" pan="0"/>
          <note vol="168" len="13" key="40" pos="264" pan="0"/>
          <note vol="158" len="13" key="36" pos="264" pan="0"/>
          <note vol="166" len="13" key="36" pos="312" pan="0"/>
          <note vol="173" len="13" key="40" pos="312" pan="0"/>
          <note vol="172" len="13" key="40" pos="360" pan="0"/>
          <note vol="162" len="13" key="36" pos="360" pan="0"/>
          <note vol="159" len="181" key="29" pos="384" pan="0"/>
          <note vol="136" len="37" key="31" pos="408" pan="0"/>
          <note vol="166" len="13" key="36" pos="456" pan="0"/>
          <note vol="161" len="13" key="31" pos="456" pan="0"/>
          <note vol="173" len="13" key="36" pos="504" pan="0"/>
          <note vol="166" len="13" key="31" pos="504" pan="0"/>
          <note vol="151" len="13" key="31" pos="552" pan="0"/>
          <note vol="163" len="13" key="36" pos="552" pan="0"/>
          <note vol="150" len="181" key="24" pos="576" pan="0"/>
          <note vol="159" len="157" key="31" pos="600" pan="0"/>
          <note vol="158" len="13" key="35" pos="648" pan="0"/>
          <note vol="172" len="13" key="38" pos="648" pan="0"/>
          <note vol="175" len="13" key="38" pos="696" pan="0"/>
          <note vol="170" len="13" key="35" pos="696" pan="0"/>
          <note vol="169" len="13" key="38" pos="744" pan="0"/>
          <note vol="158" len="13" key="35" pos="744" pan="0"/>
          <note vol="166" len="181" key="28" pos="768" pan="0"/>
          <note vol="153" len="157" key="31" pos="792" pan="0"/>
          <note vol="155" len="13" key="36" pos="816" pan="0"/>
          <note vol="155" len="13" key="36" pos="840" pan="0"/>
          <note vol="173" len="13" key="40" pos="840" pan="0"/>
          <note vol="173" len="13" key="36" pos="888" pan="0"/>
          <note vol="177" len="13" key="40" pos="888" pan="0"/>
          <note vol="175" len="13" key="40" pos="936" pan="0"/>
          <note vol="162" len="13" key="36" pos="936" pan="0"/>
          <note vol="162" len="181" key="28" pos="960" pan="0"/>
          <note vol="153" len="157" key="31" pos="984" pan="0"/>
          <note vol="147" len="13" key="36" pos="1008" pan="0"/>
          <note vol="165" len="13" key="36" pos="1032" pan="0"/>
          <note vol="172" len="13" key="40" pos="1032" pan="0"/>
          <note vol="176" len="13" key="40" pos="1080" pan="0"/>
          <note vol="168" len="13" key="36" pos="1080" pan="0"/>
          <note vol="158" len="13" key="36" pos="1128" pan="0"/>
          <note vol="169" len="13" key="40" pos="1128" pan="0"/>
          <note vol="159" len="181" key="29" pos="1152" pan="0"/>
          <note vol="138" len="37" key="31" pos="1176" pan="0"/>
          <note vol="162" len="13" key="36" pos="1224" pan="0"/>
          <note vol="152" len="13" key="31" pos="1224" pan="0"/>
          <note vol="173" len="13" key="36" pos="1272" pan="0"/>
          <note vol="166" len="13" key="31" pos="1272" pan="0"/>
          <note vol="166" len="13" key="36" pos="1320" pan="0"/>
          <note vol="155" len="13" key="31" pos="1320" pan="0"/>
          <note vol="156" len="181" key="24" pos="1344" pan="0"/>
          <note vol="148" len="37" key="31" pos="1368" pan="0"/>
          <note vol="170" len="13" key="36" pos="1416" pan="0"/>
          <note vol="158" len="13" key="31" pos="1416" pan="0"/>
          <note vol="165" len="13" key="31" pos="1464" pan="0"/>
          <note vol="175" len="13" key="36" pos="1464" pan="0"/>
          <note vol="163" len="13" key="36" pos="1512" pan="0"/>
          <note vol="145" len="13" key="31" pos="1512" pan="0"/>
        </pattern>
        <pattern name="Grand Piano" muted="0" steps="16" pos="15552" type="1">
          <note vol="168" len="180" key="24" pos="0" pan="0"/>
          <note vol="148" len="156" key="31" pos="24" pan="0"/>
          <note vol="155" len="132" key="36" pos="48" pan="0"/>
          <note vol="152" len="36" key="24" pos="192" pan="0"/>
          <note vol="156" len="156" key="31" pos="216" pan="0"/>
          <note vol="152" len="132" key="24" pos="240" pan="0"/>
          <note vol="166" len="108" key="36" pos="264" pan="0"/>
          <note vol="164" len="180" key="23" pos="384" pan="0"/>
          <note vol="152" len="156" key="31" pos="408" pan="0"/>
          <note vol="159" len="132" key="38" pos="432" pan="0"/>
          <note vol="161" len="180" key="23" pos="576" pan="0"/>
          <note vol="146" len="156" key="31" pos="600" pan="0"/>
          <note vol="161" len="24" key="40" pos="624" pan="0"/>
          <note vol="155" len="108" key="38" pos="648" pan="0"/>
          <note vol="164" len="180" key="24" pos="768" pan="0"/>
          <note vol="146" len="156" key="31" pos="792" pan="0"/>
          <note vol="162" len="132" key="36" pos="816" pan="0"/>
          <note vol="146" len="36" key="24" pos="960" pan="0"/>
          <note vol="151" len="156" key="31" pos="984" pan="0"/>
          <note vol="145" len="120" key="24" pos="1008" pan="0"/>
          <note vol="157" len="108" key="36" pos="1032" pan="0"/>
          <note vol="175" len="60" key="28" pos="1152" pan="0"/>
          <note vol="161" len="60" key="24" pos="1152" pan="0"/>
          <note vol="168" len="60" key="28" pos="1224" pan="0"/>
          <note vol="150" len="60" key="24" pos="1224" pan="0"/>
          <note vol="176" len="36" key="29" pos="1296" pan="0"/>
          <note vol="171" len="36" key="24" pos="1296" pan="0"/>
          <note vol="169" len="60" key="28" pos="1344" pan="0"/>
          <note vol="162" len="60" key="24" pos="1344" pan="0"/>
          <note vol="168" len="60" key="28" pos="1416" pan="0"/>
          <note vol="155" len="60" key="24" pos="1416" pan="0"/>
          <note vol="123" len="36" key="19" pos="1488" pan="0"/>
          <note vol="152" len="36" key="24" pos="1488" pan="0"/>
        </pattern>
        <pattern name="Grand Piano" muted="0" steps="16" pos="6336" type="1">
          <note vol="168" len="180" key="24" pos="0" pan="0"/>
          <note vol="148" len="37" key="31" pos="24" pan="0"/>
          <note vol="157" len="37" key="36" pos="48" pan="0"/>
          <note vol="152" len="37" key="31" pos="72" pan="0"/>
          <note vol="165" len="37" key="36" pos="96" pan="0"/>
          <note vol="152" len="37" key="31" pos="120" pan="0"/>
          <note vol="158" len="37" key="36" pos="144" pan="0"/>
          <note vol="148" len="13" key="31" pos="168" pan="0"/>
          <note vol="166" len="181" key="24" pos="192" pan="0"/>
          <note vol="147" len="37" key="31" pos="216" pan="0"/>
          <note vol="158" len="49" key="36" pos="240" pan="0"/>
          <note vol="152" len="37" key="31" pos="264" pan="0"/>
          <note vol="166" len="49" key="40" pos="288" pan="0"/>
          <note vol="152" len="37" key="31" pos="312" pan="0"/>
          <note vol="159" len="37" key="36" pos="336" pan="0"/>
          <note vol="147" len="13" key="35" pos="360" pan="0"/>
          <note vol="162" len="181" key="26" pos="384" pan="0"/>
          <note vol="140" len="37" key="29" pos="408" pan="0"/>
          <note vol="154" len="49" key="33" pos="432" pan="0"/>
          <note vol="143" len="37" key="29" pos="456" pan="0"/>
          <note vol="161" len="49" key="36" pos="480" pan="0"/>
          <note vol="151" len="37" key="29" pos="504" pan="0"/>
          <note vol="154" len="37" key="33" pos="528" pan="0"/>
          <note vol="147" len="13" key="29" pos="552" pan="0"/>
          <note vol="153" len="181" key="23" pos="576" pan="0"/>
          <note vol="145" len="37" key="26" pos="600" pan="0"/>
          <note vol="145" len="49" key="31" pos="624" pan="0"/>
          <note vol="134" len="37" key="26" pos="648" pan="0"/>
          <note vol="145" len="49" key="35" pos="672" pan="0"/>
          <note vol="140" len="37" key="26" pos="696" pan="0"/>
          <note vol="145" len="37" key="31" pos="720" pan="0"/>
          <note vol="138" len="13" key="26" pos="744" pan="0"/>
          <note vol="155" len="181" key="19" pos="768" pan="0"/>
          <note vol="131" len="37" key="26" pos="792" pan="0"/>
          <note vol="147" len="37" key="31" pos="816" pan="0"/>
          <note vol="141" len="37" key="26" pos="840" pan="0"/>
          <note vol="151" len="37" key="31" pos="864" pan="0"/>
          <note vol="138" len="37" key="26" pos="888" pan="0"/>
          <note vol="145" len="37" key="31" pos="912" pan="0"/>
          <note vol="138" len="13" key="26" pos="936" pan="0"/>
          <note vol="161" len="181" key="19" pos="960" pan="0"/>
          <note vol="136" len="37" key="26" pos="984" pan="0"/>
          <note vol="145" len="49" key="31" pos="1008" pan="0"/>
          <note vol="140" len="37" key="26" pos="1032" pan="0"/>
          <note vol="155" len="49" key="35" pos="1056" pan="0"/>
          <note vol="144" len="37" key="26" pos="1080" pan="0"/>
          <note vol="147" len="37" key="31" pos="1104" pan="0"/>
          <note vol="140" len="13" key="36" pos="1128" pan="0"/>
          <note vol="169" len="181" key="24" pos="1152" pan="0"/>
          <note vol="152" len="37" key="29" pos="1176" pan="0"/>
          <note vol="159" len="49" key="36" pos="1200" pan="0"/>
          <note vol="156" len="37" key="29" pos="1224" pan="0"/>
          <note vol="169" len="49" key="40" pos="1248" pan="0"/>
          <note vol="154" len="37" key="29" pos="1272" pan="0"/>
          <note vol="161" len="37" key="36" pos="1296" pan="0"/>
          <note vol="158" len="13" key="29" pos="1320" pan="0"/>
          <note vol="178" len="181" key="26" pos="1344" pan="0"/>
          <note vol="156" len="37" key="31" pos="1368" pan="0"/>
          <note vol="168" len="49" key="38" pos="1392" pan="0"/>
          <note vol="159" len="37" key="31" pos="1416" pan="0"/>
          <note vol="175" len="49" key="43" pos="1440" pan="0"/>
          <note vol="163" len="37" key="31" pos="1464" pan="0"/>
          <note vol="170" len="37" key="38" pos="1488" pan="0"/>
          <note vol="159" len="13" key="36" pos="1512" pan="0"/>
          <note vol="166" len="180" key="24" pos="1536" pan="0"/>
          <note vol="151" len="37" key="31" pos="1560" pan="0"/>
          <note vol="159" len="37" key="36" pos="1584" pan="0"/>
          <note vol="150" len="37" key="31" pos="1608" pan="0"/>
          <note vol="168" len="37" key="36" pos="1632" pan="0"/>
          <note vol="155" len="37" key="31" pos="1656" pan="0"/>
          <note vol="162" len="37" key="36" pos="1680" pan="0"/>
          <note vol="151" len="13" key="31" pos="1704" pan="0"/>
          <note vol="168" len="181" key="24" pos="1728" pan="0"/>
          <note vol="151" len="37" key="31" pos="1752" pan="0"/>
          <note vol="165" len="49" key="36" pos="1776" pan="0"/>
          <note vol="154" len="37" key="31" pos="1800" pan="0"/>
          <note vol="173" len="49" key="40" pos="1824" pan="0"/>
          <note vol="156" len="37" key="31" pos="1848" pan="0"/>
          <note vol="168" len="37" key="36" pos="1872" pan="0"/>
          <note vol="150" len="13" key="31" pos="1896" pan="0"/>
          <note vol="159" len="181" key="24" pos="1920" pan="0"/>
          <note vol="143" len="37" key="28" pos="1944" pan="0"/>
          <note vol="154" len="49" key="36" pos="1968" pan="0"/>
          <note vol="147" len="37" key="28" pos="1992" pan="0"/>
          <note vol="161" len="49" key="40" pos="2016" pan="0"/>
          <note vol="150" len="37" key="28" pos="2040" pan="0"/>
          <note vol="159" len="37" key="36" pos="2064" pan="0"/>
          <note vol="143" len="13" key="28" pos="2088" pan="0"/>
          <note vol="173" len="181" key="28" pos="2112" pan="0"/>
          <note vol="148" len="37" key="31" pos="2136" pan="0"/>
          <note vol="162" len="49" key="36" pos="2160" pan="0"/>
          <note vol="150" len="37" key="31" pos="2184" pan="0"/>
          <note vol="163" len="49" key="40" pos="2208" pan="0"/>
          <note vol="151" len="37" key="31" pos="2232" pan="0"/>
          <note vol="159" len="37" key="36" pos="2256" pan="0"/>
          <note vol="151" len="13" key="35" pos="2280" pan="0"/>
          <note vol="164" len="181" key="26" pos="2304" pan="0"/>
          <note vol="144" len="37" key="29" pos="2328" pan="0"/>
          <note vol="152" len="49" key="33" pos="2352" pan="0"/>
          <note vol="150" len="37" key="29" pos="2376" pan="0"/>
          <note vol="165" len="49" key="36" pos="2400" pan="0"/>
          <note vol="154" len="37" key="29" pos="2424" pan="0"/>
          <note vol="159" len="37" key="33" pos="2448" pan="0"/>
          <note vol="148" len="13" key="35" pos="2472" pan="0"/>
          <note vol="175" len="61" key="26" pos="2496" pan="0"/>
          <note vol="162" len="37" key="31" pos="2520" pan="0"/>
          <note vol="169" len="13" key="35" pos="2544" pan="0"/>
          <note vol="171" len="121" key="28" pos="2568" pan="0"/>
          <note vol="152" len="61" key="31" pos="2616" pan="0"/>
          <note vol="175" len="37" key="36" pos="2640" pan="0"/>
          <note vol="165" len="13" key="40" pos="2664" pan="0"/>
          <note vol="162" len="181" key="26" pos="2688" pan="0"/>
          <note vol="148" len="37" key="29" pos="2712" pan="0"/>
          <note vol="158" len="49" key="36" pos="2736" pan="0"/>
          <note vol="154" len="37" key="29" pos="2760" pan="0"/>
          <note vol="168" len="49" key="40" pos="2784" pan="0"/>
          <note vol="155" len="37" key="29" pos="2808" pan="0"/>
          <note vol="159" len="37" key="36" pos="2832" pan="0"/>
          <note vol="148" len="13" key="31" pos="2856" pan="0"/>
          <note vol="166" len="181" key="24" pos="2880" pan="0"/>
          <note vol="152" len="37" key="31" pos="2904" pan="0"/>
          <note vol="169" len="49" key="36" pos="2928" pan="0"/>
          <note vol="161" len="37" key="31" pos="2952" pan="0"/>
          <note vol="176" len="49" key="40" pos="2976" pan="0"/>
          <note vol="162" len="37" key="31" pos="3000" pan="0"/>
          <note vol="166" len="37" key="36" pos="3024" pan="0"/>
          <note vol="150" len="13" key="31" pos="3048" pan="0"/>
        </pattern>
        <pattern name="Grand Piano" muted="0" steps="16" pos="18624" type="1">
          <note vol="168" len="180" key="24" pos="0" pan="0"/>
          <note vol="148" len="37" key="31" pos="24" pan="0"/>
          <note vol="157" len="37" key="36" pos="48" pan="0"/>
          <note vol="152" len="37" key="31" pos="72" pan="0"/>
          <note vol="165" len="37" key="36" pos="96" pan="0"/>
          <note vol="152" len="37" key="31" pos="120" pan="0"/>
          <note vol="158" len="37" key="36" pos="144" pan="0"/>
          <note vol="148" len="13" key="31" pos="168" pan="0"/>
          <note vol="166" len="181" key="24" pos="192" pan="0"/>
          <note vol="147" len="37" key="31" pos="216" pan="0"/>
          <note vol="158" len="49" key="36" pos="240" pan="0"/>
          <note vol="152" len="37" key="31" pos="264" pan="0"/>
          <note vol="166" len="49" key="40" pos="288" pan="0"/>
          <note vol="152" len="37" key="31" pos="312" pan="0"/>
          <note vol="159" len="37" key="36" pos="336" pan="0"/>
          <note vol="147" len="13" key="35" pos="360" pan="0"/>
          <note vol="162" len="181" key="26" pos="384" pan="0"/>
          <note vol="140" len="37" key="29" pos="408" pan="0"/>
          <note vol="154" len="49" key="33" pos="432" pan="0"/>
          <note vol="143" len="37" key="29" pos="456" pan="0"/>
          <note vol="161" len="49" key="36" pos="480" pan="0"/>
          <note vol="151" len="37" key="29" pos="504" pan="0"/>
          <note vol="154" len="37" key="33" pos="528" pan="0"/>
          <note vol="147" len="13" key="29" pos="552" pan="0"/>
          <note vol="153" len="181" key="23" pos="576" pan="0"/>
          <note vol="145" len="37" key="26" pos="600" pan="0"/>
          <note vol="145" len="49" key="31" pos="624" pan="0"/>
          <note vol="134" len="37" key="26" pos="648" pan="0"/>
          <note vol="145" len="49" key="35" pos="672" pan="0"/>
          <note vol="140" len="37" key="26" pos="696" pan="0"/>
          <note vol="145" len="37" key="31" pos="720" pan="0"/>
          <note vol="138" len="13" key="26" pos="744" pan="0"/>
          <note vol="155" len="181" key="19" pos="768" pan="0"/>
          <note vol="131" len="37" key="26" pos="792" pan="0"/>
          <note vol="147" len="37" key="31" pos="816" pan="0"/>
          <note vol="141" len="37" key="26" pos="840" pan="0"/>
          <note vol="151" len="37" key="31" pos="864" pan="0"/>
          <note vol="138" len="37" key="26" pos="888" pan="0"/>
          <note vol="145" len="37" key="31" pos="912" pan="0"/>
          <note vol="138" len="13" key="26" pos="936" pan="0"/>
          <note vol="161" len="181" key="19" pos="960" pan="0"/>
          <note vol="136" len="37" key="26" pos="984" pan="0"/>
          <note vol="145" len="49" key="31" pos="1008" pan="0"/>
          <note vol="140" len="37" key="26" pos="1032" pan="0"/>
          <note vol="155" len="49" key="35" pos="1056" pan="0"/>
          <note vol="144" len="37" key="26" pos="1080" pan="0"/>
          <note vol="147" len="37" key="31" pos="1104" pan="0"/>
          <note vol="140" len="13" key="36" pos="1128" pan="0"/>
          <note vol="169" len="181" key="24" pos="1152" pan="0"/>
          <note vol="152" len="37" key="29" pos="1176" pan="0"/>
          <note vol="159" len="49" key="36" pos="1200" pan="0"/>
          <note vol="156" len="37" key="29" pos="1224" pan="0"/>
          <note vol="169" len="49" key="40" pos="1248" pan="0"/>
          <note vol="154" len="37" key="29" pos="1272" pan="0"/>
          <note vol="161" len="37" key="36" pos="1296" pan="0"/>
          <note vol="158" len="13" key="29" pos="1320" pan="0"/>
          <note vol="178" len="181" key="26" pos="1344" pan="0"/>
          <note vol="156" len="37" key="31" pos="1368" pan="0"/>
          <note vol="168" len="49" key="38" pos="1392" pan="0"/>
          <note vol="159" len="37" key="31" pos="1416" pan="0"/>
          <note vol="175" len="49" key="43" pos="1440" pan="0"/>
          <note vol="163" len="37" key="31" pos="1464" pan="0"/>
          <note vol="170" len="37" key="38" pos="1488" pan="0"/>
          <note vol="159" len="13" key="36" pos="1512" pan="0"/>
          <note vol="166" len="180" key="24" pos="1536" pan="0"/>
          <note vol="151" len="37" key="31" pos="1560" pan="0"/>
          <note vol="159" len="37" key="36" pos="1584" pan="0"/>
          <note vol="150" len="37" key="31" pos="1608" pan="0"/>
          <note vol="168" len="37" key="36" pos="1632" pan="0"/>
          <note vol="155" len="37" key="31" pos="1656" pan="0"/>
          <note vol="162" len="37" key="36" pos="1680" pan="0"/>
          <note vol="151" len="13" key="31" pos="1704" pan="0"/>
          <note vol="168" len="181" key="24" pos="1728" pan="0"/>
          <note vol="151" len="37" key="31" pos="1752" pan="0"/>
          <note vol="165" len="49" key="36" pos="1776" pan="0"/>
          <note vol="154" len="37" key="31" pos="1800" pan="0"/>
          <note vol="173" len="49" key="40" pos="1824" pan="0"/>
          <note vol="156" len="37" key="31" pos="1848" pan="0"/>
          <note vol="168" len="37" key="36" pos="1872" pan="0"/>
          <note vol="150" len="13" key="31" pos="1896" pan="0"/>
          <note vol="159" len="181" key="24" pos="1920" pan="0"/>
          <note vol="143" len="37" key="28" pos="1944" pan="0"/>
          <note vol="154" len="49" key="36" pos="1968" pan="0"/>
          <note vol="147" len="37" key="28" pos="1992" pan="0"/>
          <note vol="161" len="49" key="40" pos="2016" pan="0"/>
          <note vol="150" len="37" key="28" pos="2040" pan="0"/>
          <note vol="159" len="37" key="36" pos="2064" pan="0"/>
          <note vol="143" len="13" key="28" pos="2088" pan="0"/>
          <note vol="173" len="181" key="28" pos="2112" pan="0"/>
          <note vol="148" len="37" key="31" pos="2136" pan="0"/>
          <note vol="162" len="49" key="36" pos="2160" pan="0"/>
          <note vol="150" len="37" key="31" pos="2184" pan="0"/>
          <note vol="163" len="49" key="40" pos="2208" pan="0"/>
          <note vol="151" len="37" key="31" pos="2232" pan="0"/>
          <note vol="159" len="37" key="36" pos="2256" pan="0"/>
          <note vol="151" len="13" key="35" pos="2280" pan="0"/>
          <note vol="164" len="181" key="26" pos="2304" pan="0"/>
          <note vol="144" len="37" key="29" pos="2328" pan="0"/>
          <note vol="152" len="49" key="33" pos="2352" pan="0"/>
          <note vol="150" len="37" key="29" pos="2376" pan="0"/>
          <note vol="165" len="49" key="36" pos="2400" pan="0"/>
          <note vol="154" len="37" key="29" pos="2424" pan="0"/>
          <note vol="159" len="37" key="33" pos="2448" pan="0"/>
          <note vol="148" len="13" key="35" pos="2472" pan="0"/>
          <note vol="175" len="61" key="26" pos="2496" pan="0"/>
          <note vol="162" len="37" key="31" pos="2520" pan="0"/>
          <note vol="169" len="13" key="35" pos="2544" pan="0"/>
          <note vol="171" len="121" key="28" pos="2568" pan="0"/>
          <note vol="152" len="61" key="31" pos="2616" pan="0"/>
          <note vol="175" len="37" key="36" pos="2640" pan="0"/>
          <note vol="165" len="13" key="40" pos="2664" pan="0"/>
          <note vol="162" len="181" key="26" pos="2688" pan="0"/>
          <note vol="148" len="37" key="29" pos="2712" pan="0"/>
          <note vol="158" len="49" key="36" pos="2736" pan="0"/>
          <note vol="154" len="37" key="29" pos="2760" pan="0"/>
          <note vol="168" len="49" key="40" pos="2784" pan="0"/>
          <note vol="155" len="37" key="29" pos="2808" pan="0"/>
          <note vol="159" len="37" key="36" pos="2832" pan="0"/>
          <note vol="148" len="13" key="31" pos="2856" pan="0"/>
          <note vol="166" len="181" key="24" pos="2880" pan="0"/>
          <note vol="152" len="37" key="31" pos="2904" pan="0"/>
          <note vol="169" len="49" key="36" pos="2928" pan="0"/>
          <note vol="161" len="37" key="31" pos="2952" pan="0"/>
          <note vol="176" len="49" key="40" pos="2976" pan="0"/>
          <note vol="162" len="37" key="31" pos="3000" pan="0"/>
          <note vol="166" len="37" key="36" pos="3024" pan="0"/>
          <note vol="150" len="13" key="31" pos="3048" pan="0"/>
        </pattern>
      </track>
      <track name="Supersaw Lead" solo="0" muted="0" type="0">
        <instrumenttrack vol="100" usemasterpitch="1" pitch="0" pitchrange="1" pan="0.1" basenote="57" fxch="0">
          <instrument name="zynaddsubfx">
            <zynaddsubfx forwardmidicc="1" fmgain="127" filterq="64" bandwidth="64" resbandwidth="64" rescenterfreq="64" portamento="0" filterfreq="43.1279" modifiedcontrollers="65,71,74,75,76,77,78,">
              <ZynAddSubFX-data ZynAddSubFX-author="Nasca Octavian Paul" version-major="2" version-revision="1" version-minor="4">
                <INFORMATION/>
                <BASE_PARAMETERS>
                  <par name="max_midi_parts" value="16"/>
                  <par name="max_kit_items_per_instrument" value="16"/>
                  <par name="max_system_effects" value="4"/>
                  <par name="max_insertion_effects" value="8"/>
                  <par name="max_instrument_effects" value="3"/>
                  <par name="max_addsynth_voices" value="8"/>
                </BASE_PARAMETERS>
                <MASTER>
                  <par name="volume" value="81"/>
                  <par name="key_shift" value="64"/>
                  <par_bool name="nrpn_receive" value="yes"/>
                  <MICROTONAL>
                    <string name="name">12tET</string>
                    <string name="comment">Equal Temperament 12 notes per octave</string>
                    <par_bool name="invert_up_down" value="no"/>
                    <par name="invert_up_down_center" value="60"/>
                    <par_bool name="enabled" value="no"/>
                    <par name="global_fine_detune" value="64"/>
                    <par name="a_note" value="69"/>
                    <par_real name="a_freq" value="440"/>
                  </MICROTONAL>
                  <PART id="0">
                    <par_bool name="enabled" value="yes"/>
                    <par name="volume" value="96"/>
                    <par name="panning" value="64"/>
                    <par name="min_key" value="0"/>
                    <par name="max_key" value="127"/>
                    <par name="key_shift" value="64"/>
                    <par name="rcv_chn" value="0"/>
                    <par name="velocity_sensing" value="64"/>
                    <par name="velocity_offset" value="64"/>
                    <par_bool name="note_on" value="yes"/>
                    <par_bool name="poly_mode" value="yes"/>
                    <par name="legato_mode" value="0"/>
                    <par name="key_limit" value="0"/>
                    <INSTRUMENT>
                      <INFO>
                        <string name="name"/>
                        <string name="author"/>
                        <string name="comments"/>
                        <par name="type" value="0"/>
                      </INFO>
                      <INSTRUMENT_KIT>
                        <par name="kit_mode" value="0"/>
                        <par_bool name="drum_mode" value="no"/>
                        <INSTRUMENT_KIT_ITEM id="0">
                          <par_bool name="enabled" value="yes"/>
                          <string name="name"/>
                          <par_bool name="muted" value="no"/>
                          <par name="min_key" value="0"/>
                          <par name="max_key" value="127"/>
                          <par name="send_to_instrument_effect" value="0"/>
                          <par_bool name="add_enabled" value="yes"/>
                          <ADD_SYNTH_PARAMETERS>
                            <par_bool name="stereo" value="yes"/>
                            <AMPLITUDE_PARAMETERS>
                              <par name="volume" value="110"/>
                              <par name="panning" value="64"/>
                              <par name="velocity_sensing" value="64"/>
                              <par name="punch_strength" value="0"/>
                              <par name="punch_time" value="60"/>
                              <par name="punch_stretch" value="64"/>
                              <par name="punch_velocity_sensing" value="72"/>
                              <par name="harmonic_randomness_grouping" value="0"/>
                              <AMPLITUDE_ENVELOPE>
                                <par_bool name="free_mode" value="yes"/>
                                <par name="env_points" value="3"/>
                                <par name="env_sustain" value="1"/>
                                <par name="env_stretch" value="0"/>
                                <par_bool name="forced_release" value="yes"/>
                                <par_bool name="linear_envelope" value="no"/>
                                <par name="A_dt" value="0"/>
                                <par name="D_dt" value="40"/>
                                <par name="R_dt" value="25"/>
                                <par name="A_val" value="64"/>
                                <par name="D_val" value="64"/>
                                <par name="S_val" value="127"/>
                                <par name="R_val" value="64"/>
                                <POINT id="0">
                                  <par name="val" value="127"/>
                                </POINT>
                                <POINT id="1">
                                  <par name="dt" value="0"/>
                                  <par name="val" value="127"/>
                                </POINT>
                                <POINT id="2">
                                  <par name="dt" value="51"/>
                                  <par name="val" value="127"/>
                                </POINT>
                              </AMPLITUDE_ENVELOPE>
                              <AMPLITUDE_LFO>
                                <par_real name="freq" value="0.629921"/>
                                <par name="intensity" value="0"/>
                                <par name="start_phase" value="64"/>
                                <par name="lfo_type" value="0"/>
                                <par name="randomness_amplitude" value="0"/>
                                <par name="randomness_frequency" value="0"/>
                                <par name="delay" value="0"/>
                                <par name="stretch" value="64"/>
                                <par_bool name="continous" value="no"/>
                              </AMPLITUDE_LFO>
                            </AMPLITUDE_PARAMETERS>
                            <FREQUENCY_PARAMETERS>
                              <par name="detune" value="8192"/>
                              <par name="coarse_detune" value="0"/>
                              <par name="detune_type" value="1"/>
                              <par name="bandwidth" value="64"/>
                              <FREQUENCY_ENVELOPE>
                                <par_bool name="free_mode" value="no"/>
                                <par name="env_points" value="3"/>
                                <par name="env_sustain" value="1"/>
                                <par name="env_stretch" value="0"/>
                                <par_bool name="forced_release" value="no"/>
                                <par_bool name="linear_envelope" value="no"/>
                                <par name="A_dt" value="50"/>
                                <par name="D_dt" value="10"/>
                                <par name="R_dt" value="60"/>
                                <par name="A_val" value="64"/>
                                <par name="D_val" value="64"/>
                                <par name="S_val" value="64"/>
                                <par name="R_val" value="64"/>
                              </FREQUENCY_ENVELOPE>
                              <FREQUENCY_LFO>
                                <par_real name="freq" value="0.551181"/>
                                <par name="intensity" value="0"/>
                                <par name="start_phase" value="64"/>
                                <par name="lfo_type" value="0"/>
                                <par name="randomness_amplitude" value="0"/>
                                <par name="randomness_frequency" value="0"/>
                                <par name="delay" value="0"/>
                                <par name="stretch" value="64"/>
                                <par_bool name="continous" value="no"/>
                              </FREQUENCY_LFO>
                            </FREQUENCY_PARAMETERS>
                            <FILTER_PARAMETERS>
                              <par name="velocity_sensing_amplitude" value="64"/>
                              <par name="velocity_sensing" value="64"/>
                              <FILTER>
                                <par name="category" value="0"/>
                                <par name="type" value="2"/>
                                <par name="freq" value="63"/>
                                <par name="q" value="20"/>
                                <par name="stages" value="4"/>
                                <par name="freq_track" value="64"/>
                                <par name="gain" value="64"/>
                              </FILTER>
                              <FILTER_ENVELOPE>
                                <par_bool name="free_mode" value="yes"/>
                                <par name="env_points" value="7"/>
                                <par name="env_sustain" value="2"/>
                                <par name="env_stretch" value="0"/>
                                <par_bool name="forced_release" value="yes"/>
                                <par_bool name="linear_envelope" value="no"/>
                                <par name="A_dt" value="12"/>
                                <par name="D_dt" value="70"/>
                                <par name="R_dt" value="53"/>
                                <par name="A_val" value="0"/>
                                <par name="D_val" value="127"/>
                                <par name="S_val" value="64"/>
                                <par name="R_val" value="0"/>
                                <POINT id="0">
                                  <par name="val" value="64"/>
                                </POINT>
                                <POINT id="1">
                                  <par name="dt" value="12"/>
                                  <par name="val" value="127"/>
                                </POINT>
                                <POINT id="2">
                                  <par name="dt" value="40"/>
                                  <par name="val" value="110"/>
                                </POINT>
                                <POINT id="3">
                                  <par name="dt" value="41"/>
                                  <par name="val" value="54"/>
                                </POINT>
                                <POINT id="4">
                                  <par name="dt" value="31"/>
                                  <par name="val" value="39"/>
                                </POINT>
                                <POINT id="5">
                                  <par name="dt" value="23"/>
                                  <par name="val" value="34"/>
                                </POINT>
                                <POINT id="6">
                                  <par name="dt" value="23"/>
                                  <par name="val" value="33"/>
                                </POINT>
                              </FILTER_ENVELOPE>
                              <FILTER_LFO>
                                <par_real name="freq" value="0.629921"/>
                                <par name="intensity" value="0"/>
                                <par name="start_phase" value="64"/>
                                <par name="lfo_type" value="0"/>
                                <par name="randomness_amplitude" value="0"/>
                                <par name="randomness_frequency" value="0"/>
                                <par name="delay" value="0"/>
                                <par name="stretch" value="64"/>
                                <par_bool name="continous" value="no"/>
                              </FILTER_LFO>
                            </FILTER_PARAMETERS>
                            <RESONANCE>
                              <par_bool name="enabled" value="no"/>
                            </RESONANCE>
                            <VOICE id="0">
                              <par_bool name="enabled" value="yes"/>
                              <par name="type" value="0"/>
                              <par name="unison_size" value="8"/>
                              <par name="unison_frequency_spread" value="65"/>
                              <par name="unison_stereo_spread" value="110"/>
                              <par name="unison_vibratto" value="10"/>
                              <par name="unison_vibratto_speed" value="64"/>
                              <par name="unison_invert_phase" value="0"/>
                              <par name="unison_phase_randomness" value="127"/>
                              <par name="delay" value="0"/>
                              <par_bool name="resonance" value="yes"/>
                              <par name="ext_oscil" value="-1"/>
                              <par name="ext_fm_oscil" value="-1"/>
                              <par name="oscil_phase" value="64"/>
                              <par name="oscil_fm_phase" value="64"/>
                              <par_bool name="filter_enabled" value="no"/>
                              <par_bool name="filter_bypass" value="no"/>
                              <par name="fm_enabled" value="0"/>
                              <OSCIL>
                                <par name="harmonic_mag_type" value="0"/>
                                <par name="base_function" value="4"/>
                                <par name="base_function_par" value="74"/>
                                <par name="base_function_modulation" value="1"/>
                                <par name="base_function_modulation_par1" value="0"/>
                                <par name="base_function_modulation_par2" value="0"/>
                                <par name="base_function_modulation_par3" value="0"/>
                                <par name="modulation" value="0"/>
                                <par name="modulation_par1" value="64"/>
                                <par name="modulation_par2" value="64"/>
                                <par name="modulation_par3" value="32"/>
                                <par name="wave_shaping" value="64"/>
                                <par name="wave_shaping_function" value="0"/>
                                <par name="filter_type" value="1"/>
                                <par name="filter_par1" value="127"/>
                                <par name="filter_par2" value="0"/>
                                <par name="filter_before_wave_shaping" value="0"/>
                                <par name="spectrum_adjust_type" value="0"/>
                                <par name="spectrum_adjust_par" value="64"/>
                                <par name="rand" value="64"/>
                                <par name="amp_rand_type" value="0"/>
                                <par name="amp_rand_power" value="64"/>
                                <par name="harmonic_shift" value="0"/>
                                <par_bool name="harmonic_shift_first" value="no"/>
                                <par name="adaptive_harmonics" value="0"/>
                                <par name="adaptive_harmonics_base_frequency" value="128"/>
                                <par name="adaptive_harmonics_power" value="100"/>
                                <HARMONICS>
                                  <HARMONIC id="1">
                                    <par name="mag" value="0"/>
                                    <par name="phase" value="64"/>
                                  </HARMONIC>
                                </HARMONICS>
                              </OSCIL>
                              <AMPLITUDE_PARAMETERS>
                                <par name="panning" value="64"/>
                                <par name="volume" value="100"/>
                                <par_bool name="volume_minus" value="no"/>
                                <par name="velocity_sensing" value="127"/>
                                <par_bool name="amp_envelope_enabled" value="yes"/>
                                <AMPLITUDE_ENVELOPE>
                                  <par_bool name="free_mode" value="no"/>
                                  <par name="env_points" value="4"/>
                                  <par name="env_sustain" value="2"/>
                                  <par name="env_stretch" value="0"/>
                                  <par_bool name="forced_release" value="yes"/>
                                  <par_bool name="linear_envelope" value="no"/>
                                  <par name="A_dt" value="12"/>
                                  <par name="D_dt" value="40"/>
                                  <par name="R_dt" value="51"/>
                                  <par name="A_val" value="64"/>
                                  <par name="D_val" value="64"/>
                                  <par name="S_val" value="114"/>
                                  <par name="R_val" value="64"/>
                                </AMPLITUDE_ENVELOPE>
                                <par_bool name="amp_lfo_enabled" value="no"/>
                              </AMPLITUDE_PARAMETERS>
                              <FREQUENCY_PARAMETERS>
                                <par_bool name="fixed_freq" value="no"/>
                                <par name="fixed_freq_et" value="0"/>
                                <par name="detune" value="8192"/>
                                <par name="coarse_detune" value="0"/>
                                <par name="detune_type" value="0"/>
                                <par_bool name="freq_envelope_enabled" value="no"/>
                                <par_bool name="freq_lfo_enabled" value="no"/>
                              </FREQUENCY_PARAMETERS>
                            </VOICE>
                            <VOICE id="1">
                              <par_bool name="enabled" value="yes"/>
                              <par name="type" value="0"/>
                              <par name="unison_size" value="8"/>
                              <par name="unison_frequency_spread" value="92"/>
                              <par name="unison_stereo_spread" value="110"/>
                              <par name="unison_vibratto" value="10"/>
                              <par name="unison_vibratto_speed" value="64"/>
                              <par name="unison_invert_phase" value="0"/>
                              <par name="unison_phase_randomness" value="127"/>
                              <par name="delay" value="0"/>
                              <par_bool name="resonance" value="yes"/>
                              <par name="ext_oscil" value="0"/>
                              <par name="ext_fm_oscil" value="-1"/>
                              <par name="oscil_phase" value="64"/>
                              <par name="oscil_fm_phase" value="64"/>
                              <par_bool name="filter_enabled" value="no"/>
                              <par_bool name="filter_bypass" value="no"/>
                              <par name="fm_enabled" value="0"/>
                              <OSCIL>
                                <par name="harmonic_mag_type" value="0"/>
                                <par name="base_function" value="4"/>
                                <par name="base_function_par" value="74"/>
                                <par name="base_function_modulation" value="1"/>
                                <par name="base_function_modulation_par1" value="0"/>
                                <par name="base_function_modulation_par2" value="0"/>
                                <par name="base_function_modulation_par3" value="0"/>
                                <par name="modulation" value="0"/>
                                <par name="modulation_par1" value="64"/>
                                <par name="modulation_par2" value="64"/>
                                <par name="modulation_par3" value="32"/>
                                <par name="wave_shaping" value="64"/>
                                <par name="wave_shaping_function" value="0"/>
                                <par name="filter_type" value="1"/>
                                <par name="filter_par1" value="111"/>
                                <par name="filter_par2" value="64"/>
                                <par name="filter_before_wave_shaping" value="0"/>
                                <par name="spectrum_adjust_type" value="0"/>
                                <par name="spectrum_adjust_par" value="64"/>
                                <par name="rand" value="64"/>
                                <par name="amp_rand_type" value="0"/>
                                <par name="amp_rand_power" value="64"/>
                                <par name="harmonic_shift" value="0"/>
                                <par_bool name="harmonic_shift_first" value="no"/>
                                <par name="adaptive_harmonics" value="0"/>
                                <par name="adaptive_harmonics_base_frequency" value="128"/>
                                <par name="adaptive_harmonics_power" value="100"/>
                                <HARMONICS>
                                  <HARMONIC id="1">
                                    <par name="mag" value="0"/>
                                    <par name="phase" value="64"/>
                                  </HARMONIC>
                                </HARMONICS>
                              </OSCIL>
                              <AMPLITUDE_PARAMETERS>
                                <par name="panning" value="64"/>
                                <par name="volume" value="100"/>
                                <par_bool name="volume_minus" value="no"/>
                                <par name="velocity_sensing" value="127"/>
                                <par_bool name="amp_envelope_enabled" value="yes"/>
                                <AMPLITUDE_ENVELOPE>
                                  <par_bool name="free_mode" value="no"/>
                                  <par name="env_points" value="4"/>
                                  <par name="env_sustain" value="2"/>
                                  <par name="env_stretch" value="0"/>
                                  <par_bool name="forced_release" value="yes"/>
                                  <par_bool name="linear_envelope" value="no"/>
                                  <par name="A_dt" value="12"/>
                                  <par name="D_dt" value="41"/>
                                  <par name="R_dt" value="51"/>
                                  <par name="A_val" value="64"/>
                                  <par name="D_val" value="64"/>
                                  <par name="S_val" value="114"/>
                                  <par name="R_val" value="64"/>
                                </AMPLITUDE_ENVELOPE>
                                <par_bool name="amp_lfo_enabled" value="no"/>
                              </AMPLITUDE_PARAMETERS>
                              <FREQUENCY_PARAMETERS>
                                <par_bool name="fixed_freq" value="no"/>
                                <par name="fixed_freq_et" value="0"/>
                                <par name="detune" value="8192"/>
                                <par name="coarse_detune" value="1024"/>
                                <par name="detune_type" value="0"/>
                                <par_bool name="freq_envelope_enabled" value="no"/>
                                <par_bool name="freq_lfo_enabled" value="no"/>
                              </FREQUENCY_PARAMETERS>
                            </VOICE>
                            <VOICE id="2">
                              <par_bool name="enabled" value="yes"/>
                              <par name="type" value="1"/>
                              <par name="unison_size" value="1"/>
                              <par name="unison_frequency_spread" value="60"/>
                              <par name="unison_stereo_spread" value="64"/>
                              <par name="unison_vibratto" value="64"/>
                              <par name="unison_vibratto_speed" value="64"/>
                              <par name="unison_invert_phase" value="0"/>
                              <par name="unison_phase_randomness" value="127"/>
                              <par name="delay" value="0"/>
                              <par_bool name="resonance" value="yes"/>
                              <par name="ext_oscil" value="-1"/>
                              <par name="ext_fm_oscil" value="-1"/>
                              <par name="oscil_phase" value="64"/>
                              <par name="oscil_fm_phase" value="64"/>
                              <par_bool name="filter_enabled" value="no"/>
                              <par_bool name="filter_bypass" value="no"/>
                              <par name="fm_enabled" value="0"/>
                              <OSCIL>
                                <par name="harmonic_mag_type" value="0"/>
                                <par name="base_function" value="0"/>
                                <par name="base_function_par" value="64"/>
                                <par name="base_function_modulation" value="0"/>
                                <par name="base_function_modulation_par1" value="64"/>
                                <par name="base_function_modulation_par2" value="64"/>
                                <par name="base_function_modulation_par3" value="32"/>
                                <par name="modulation" value="0"/>
                                <par name="modulation_par1" value="64"/>
                                <par name="modulation_par2" value="64"/>
                                <par name="modulation_par3" value="32"/>
                                <par name="wave_shaping" value="64"/>
                                <par name="wave_shaping_function" value="0"/>
                                <par name="filter_type" value="0"/>
                                <par name="filter_par1" value="64"/>
                                <par name="filter_par2" value="64"/>
                                <par name="filter_before_wave_shaping" value="0"/>
                                <par name="spectrum_adjust_type" value="0"/>
                                <par name="spectrum_adjust_par" value="64"/>
                                <par name="rand" value="64"/>
                                <par name="amp_rand_type" value="0"/>
                                <par name="amp_rand_power" value="64"/>
                                <par name="harmonic_shift" value="0"/>
                                <par_bool name="harmonic_shift_first" value="no"/>
                                <par name="adaptive_harmonics" value="0"/>
                                <par name="adaptive_harmonics_base_frequency" value="128"/>
                                <par name="adaptive_harmonics_power" value="100"/>
                                <HARMONICS>
                                  <HARMONIC id="1">
                                    <par name="mag" value="127"/>
                                    <par name="phase" value="64"/>
                                  </HARMONIC>
                                </HARMONICS>
                              </OSCIL>
                              <AMPLITUDE_PARAMETERS>
                                <par name="panning" value="0"/>
                                <par name="volume" value="31"/>
                                <par_bool name="volume_minus" value="no"/>
                                <par name="velocity_sensing" value="127"/>
                                <par_bool name="amp_envelope_enabled" value="yes"/>
                                <AMPLITUDE_ENVELOPE>
                                  <par_bool name="free_mode" value="no"/>
                                  <par name="env_points" value="4"/>
                                  <par name="env_sustain" value="2"/>
                                  <par name="env_stretch" value="0"/>
                                  <par_bool name="forced_release" value="yes"/>
                                  <par_bool name="linear_envelope" value="no"/>
                                  <par name="A_dt" value="12"/>
                                  <par name="D_dt" value="71"/>
                                  <par name="R_dt" value="51"/>
                                  <par name="A_val" value="64"/>
                                  <par name="D_val" value="64"/>
                                  <par name="S_val" value="96"/>
                                  <par name="R_val" value="64"/>
                                </AMPLITUDE_ENVELOPE>
                                <par_bool name="amp_lfo_enabled" value="no"/>
                              </AMPLITUDE_PARAMETERS>
                              <FREQUENCY_PARAMETERS>
                                <par_bool name="fixed_freq" value="no"/>
                                <par name="fixed_freq_et" value="0"/>
                                <par name="detune" value="8192"/>
                                <par name="coarse_detune" value="0"/>
                                <par name="detune_type" value="0"/>
                                <par_bool name="freq_envelope_enabled" value="no"/>
                                <par_bool name="freq_lfo_enabled" value="no"/>
                              </FREQUENCY_PARAMETERS>
                            </VOICE>
                            <VOICE id="3">
                              <par_bool name="enabled" value="yes"/>
                              <par name="type" value="1"/>
                              <par name="unison_size" value="1"/>
                              <par name="unison_frequency_spread" value="60"/>
                              <par name="unison_stereo_spread" value="64"/>
                              <par name="unison_vibratto" value="64"/>
                              <par name="unison_vibratto_speed" value="64"/>
                              <par name="unison_invert_phase" value="0"/>
                              <par name="unison_phase_randomness" value="127"/>
                              <par name="delay" value="0"/>
                              <par_bool name="resonance" value="yes"/>
                              <par name="ext_oscil" value="-1"/>
                              <par name="ext_fm_oscil" value="-1"/>
                              <par name="oscil_phase" value="64"/>
                              <par name="oscil_fm_phase" value="64"/>
                              <par_bool name="filter_enabled" value="no"/>
                              <par_bool name="filter_bypass" value="no"/>
                              <par name="fm_enabled" value="0"/>
                              <OSCIL>
                                <par name="harmonic_mag_type" value="0"/>
                                <par name="base_function" value="0"/>
                                <par name="base_function_par" value="64"/>
                                <par name="base_function_modulation" value="0"/>
                                <par name="base_function_modulation_par1" value="64"/>
                                <par name="base_function_modulation_par2" value="64"/>
                                <par name="base_function_modulation_par3" value="32"/>
                                <par name="modulation" value="0"/>
                                <par name="modulation_par1" value="64"/>
                                <par name="modulation_par2" value="64"/>
                                <par name="modulation_par3" value="32"/>
                                <par name="wave_shaping" value="64"/>
                                <par name="wave_shaping_function" value="0"/>
                                <par name="filter_type" value="0"/>
                                <par name="filter_par1" value="64"/>
                                <par name="filter_par2" value="64"/>
                                <par name="filter_before_wave_shaping" value="0"/>
                                <par name="spectrum_adjust_type" value="0"/>
                                <par name="spectrum_adjust_par" value="64"/>
                                <par name="rand" value="64"/>
                                <par name="amp_rand_type" value="0"/>
                                <par name="amp_rand_power" value="64"/>
                                <par name="harmonic_shift" value="0"/>
                                <par_bool name="harmonic_shift_first" value="no"/>
                                <par name="adaptive_harmonics" value="0"/>
                                <par name="adaptive_harmonics_base_frequency" value="128"/>
                                <par name="adaptive_harmonics_power" value="100"/>
                                <HARMONICS>
                                  <HARMONIC id="1">
                                    <par name="mag" value="127"/>
                                    <par name="phase" value="64"/>
                                  </HARMONIC>
                                </HARMONICS>
                              </OSCIL>
                              <AMPLITUDE_PARAMETERS>
                                <par name="panning" value="127"/>
                                <par name="volume" value="31"/>
                                <par_bool name="volume_minus" value="no"/>
                                <par name="velocity_sensing" value="127"/>
                                <par_bool name="amp_envelope_enabled" value="no"/>
                                <par_bool name="amp_lfo_enabled" value="no"/>
                              </AMPLITUDE_PARAMETERS>
                              <FREQUENCY_PARAMETERS>
                                <par_bool name="fixed_freq" value="no"/>
                                <par name="fixed_freq_et" value="0"/>
                                <par name="detune" value="8192"/>
                                <par name="coarse_detune" value="0"/>
                                <par name="detune_type" value="0"/>
                                <par_bool name="freq_envelope_enabled" value="no"/>
                                <par_bool name="freq_lfo_enabled" value="no"/>
                              </FREQUENCY_PARAMETERS>
                            </VOICE>
                            <VOICE id="4">
                              <par_bool name="enabled" value="no"/>
                            </VOICE>
                            <VOICE id="5">
                              <par_bool name="enabled" value="no"/>
                            </VOICE>
                            <VOICE id="6">
                              <par_bool name="enabled" value="no"/>
                            </VOICE>
                            <VOICE id="7">
                              <par_bool name="enabled" value="no"/>
                            </VOICE>
                          </ADD_SYNTH_PARAMETERS>
                          <par_bool name="sub_enabled" value="no"/>
                          <par_bool name="pad_enabled" value="no"/>
                        </INSTRUMENT_KIT_ITEM>
                        <INSTRUMENT_KIT_ITEM id="1">
                          <par_bool name="enabled" value="no"/>
                        </INSTRUMENT_KIT_ITEM>
                        <INSTRUMENT_KIT_ITEM id="2">
                          <par_bool name="enabled" value="no"/>
                        </INSTRUMENT_KIT_ITEM>
                        <INSTRUMENT_KIT_ITEM id="3">
                          <par_bool name="enabled" value="no"/>
                        </INSTRUMENT_KIT_ITEM>
                        <INSTRUMENT_KIT_ITEM id="4">
                          <par_bool name="enabled" value="no"/>
                        </INSTRUMENT_KIT_ITEM>
                        <INSTRUMENT_KIT_ITEM id="5">
                          <par_bool name="enabled" value="no"/>
                        </INSTRUMENT_KIT_ITEM>
                        <INSTRUMENT_KIT_ITEM id="6">
                          <par_bool name="enabled" value="no"/>
                        </INSTRUMENT_KIT_ITEM>
                        <INSTRUMENT_KIT_ITEM id="7">
                          <par_bool name="enabled" value="no"/>
                        </INSTRUMENT_KIT_ITEM>
                        <INSTRUMENT_KIT_ITEM id="8">
                          <par_bool name="enabled" value="no"/>
                        </INSTRUMENT_KIT_ITEM>
                        <INSTRUMENT_KIT_ITEM id="9">
                          <par_bool name="enabled" value="no"/>
                        </INSTRUMENT_KIT_ITEM>
                        <INSTRUMENT_KIT_ITEM id="10">
                          <par_bool name="enabled" value="no"/>
                        </INSTRUMENT_KIT_ITEM>
                        <INSTRUMENT_KIT_ITEM id="11">
                          <par_bool name="enabled" value="no"/>
                        </INSTRUMENT_KIT_ITEM>
                        <INSTRUMENT_KIT_ITEM id="12">
                          <par_bool name="enabled" value="no"/>
                        </INSTRUMENT_KIT_ITEM>
                        <INSTRUMENT_KIT_ITEM id="13">
                          <par_bool name="enabled" value="no"/>
                        </INSTRUMENT_KIT_ITEM>
                        <INSTRUMENT_KIT_ITEM id="14">
                          <par_bool name="enabled" value="no"/>
                        </INSTRUMENT_KIT_ITEM>
                        <INSTRUMENT_KIT_ITEM id="15">
                          <par_bool name="enabled" value="no"/>
                        </INSTRUMENT_KIT_ITEM>
                      </INSTRUMENT_KIT>
                      <INSTRUMENT_EFFECTS>
                        <INSTRUMENT_EFFECT id="0">
                          <EFFECT>
                            <par name="type" value="0"/>
                          </EFFECT>
                          <par name="route" value="0"/>
                          <par_bool name="bypass" value="no"/>
                        </INSTRUMENT_EFFECT>
                        <INSTRUMENT_EFFECT id="1">
                          <EFFECT>
                            <par name="type" value="0"/>
                          </EFFECT>
                          <par name="route" value="0"/>
                          <par_bool name="bypass" value="no"/>
                        </INSTRUMENT_EFFECT>
                        <INSTRUMENT_EFFECT id="2">
                          <EFFECT>
                            <par name="type" value="0"/>
                          </EFFECT>
                          <par name="route" value="0"/>
                          <par_bool name="bypass" value="no"/>
                        </INSTRUMENT_EFFECT>
                      </INSTRUMENT_EFFECTS>
                    </INSTRUMENT>
                    <CONTROLLER>
                      <par name="pitchwheel_bendrange" value="100"/>
                      <par_bool name="expression_receive" value="yes"/>
                      <par name="panning_depth" value="64"/>
                      <par name="filter_cutoff_depth" value="64"/>
                      <par name="filter_q_depth" value="64"/>
                      <par name="bandwidth_depth" value="64"/>
                      <par name="mod_wheel_depth" value="80"/>
                      <par_bool name="mod_wheel_exponential" value="no"/>
                      <par_bool name="fm_amp_receive" value="yes"/>
                      <par_bool name="volume_receive" value="yes"/>
                      <par_bool name="sustain_receive" value="yes"/>
                      <par_bool name="portamento_receive" value="yes"/>
                      <par name="portamento_time" value="64"/>
                      <par name="portamento_pitchthresh" value="3"/>
                      <par name="portamento_pitchthreshtype" value="1"/>
                      <par name="portamento_portamento" value="0"/>
                      <par name="portamento_updowntimestretch" value="64"/>
                      <par name="portamento_proportional" value="0"/>
                      <par name="portamento_proprate" value="80"/>
                      <par name="portamento_propdepth" value="90"/>
                      <par name="resonance_center_depth" value="64"/>
                      <par name="resonance_bandwidth_depth" value="64"/>
                    </CONTROLLER>
                  </PART>
                  <PART id="1">
                    <par_bool name="enabled" value="no"/>
                  </PART>
                  <PART id="2">
                    <par_bool name="enabled" value="no"/>
                  </PART>
                  <PART id="3">
                    <par_bool name="enabled" value="no"/>
                  </PART>
                  <PART id="4">
                    <par_bool name="enabled" value="no"/>
                  </PART>
                  <PART id="5">
                    <par_bool name="enabled" value="no"/>
                  </PART>
                  <PART id="6">
                    <par_bool name="enabled" value="no"/>
                  </PART>
                  <PART id="7">
                    <par_bool name="enabled" value="no"/>
                  </PART>
                  <PART id="8">
                    <par_bool name="enabled" value="no"/>
                  </PART>
                  <PART id="9">
                    <par_bool name="enabled" value="no"/>
                  </PART>
                  <PART id="10">
                    <par_bool name="enabled" value="no"/>
                  </PART>
                  <PART id="11">
                    <par_bool name="enabled" value="no"/>
                  </PART>
                  <PART id="12">
                    <par_bool name="enabled" value="no"/>
                  </PART>
                  <PART id="13">
                    <par_bool name="enabled" value="no"/>
                  </PART>
                  <PART id="14">
                    <par_bool name="enabled" value="no"/>
                  </PART>
                  <PART id="15">
                    <par_bool name="enabled" value="no"/>
                  </PART>
                  <SYSTEM_EFFECTS>
                    <SYSTEM_EFFECT id="0">
                      <EFFECT>
                        <par name="type" value="0"/>
                      </EFFECT>
                      <VOLUME id="0">
                        <par name="vol" value="0"/>
                      </VOLUME>
                      <VOLUME id="1">
                        <par name="vol" value="0"/>
                      </VOLUME>
                      <VOLUME id="2">
                        <par name="vol" value="0"/>
                      </VOLUME>
                      <VOLUME id="3">
                        <par name="vol" value="0"/>
                      </VOLUME>
                      <VOLUME id="4">
                        <par name="vol" value="0"/>
                      </VOLUME>
                      <VOLUME id="5">
                        <par name="vol" value="0"/>
                      </VOLUME>
                      <VOLUME id="6">
                        <par name="vol" value="0"/>
                      </VOLUME>
                      <VOLUME id="7">
                        <par name="vol" value="0"/>
                      </VOLUME>
                      <VOLUME id="8">
                        <par name="vol" value="0"/>
                      </VOLUME>
                      <VOLUME id="9">
                        <par name="vol" value="0"/>
                      </VOLUME>
                      <VOLUME id="10">
                        <par name="vol" value="0"/>
                      </VOLUME>
                      <VOLUME id="11">
                        <par name="vol" value="0"/>
                      </VOLUME>
                      <VOLUME id="12">
                        <par name="vol" value="0"/>
                      </VOLUME>
                      <VOLUME id="13">
                        <par name="vol" value="0"/>
                      </VOLUME>
                      <VOLUME id="14">
                        <par name="vol" value="0"/>
                      </VOLUME>
                      <VOLUME id="15">
                        <par name="vol" value="0"/>
                      </VOLUME>
                      <SENDTO id="1">
                        <par name="send_vol" value="0"/>
                      </SENDTO>
                      <SENDTO id="2">
                        <par name="send_vol" value="0"/>
                      </SENDTO>
                      <SENDTO id="3">
                        <par name="send_vol" value="0"/>
                      </SENDTO>
                    </SYSTEM_EFFECT>
                    <SYSTEM_EFFECT id="1">
                      <EFFECT>
                        <par name="type" value="0"/>
                      </EFFECT>
                      <VOLUME id="0">
                        <par name="vol" value="0"/>
                      </VOLUME>
                      <VOLUME id="1">
                        <par name="vol" value="0"/>
                      </VOLUME>
                      <VOLUME id="2">
                        <par name="vol" value="0"/>
                      </VOLUME>
                      <VOLUME id="3">
                        <par name="vol" value="0"/>
                      </VOLUME>
                      <VOLUME id="4">
                        <par name="vol" value="0"/>
                      </VOLUME>
                      <VOLUME id="5">
                        <par name="vol" value="0"/>
                      </VOLUME>
                      <VOLUME id="6">
                        <par name="vol" value="0"/>
                      </VOLUME>
                      <VOLUME id="7">
                        <par name="vol" value="0"/>
                      </VOLUME>
                      <VOLUME id="8">
                        <par name="vol" value="0"/>
                      </VOLUME>
                      <VOLUME id="9">
                        <par name="vol" value="0"/>
                      </VOLUME>
                      <VOLUME id="10">
                        <par name="vol" value="0"/>
                      </VOLUME>
                      <VOLUME id="11">
                        <par name="vol" value="0"/>
                      </VOLUME>
                      <VOLUME id="12">
                        <par name="vol" value="0"/>
                      </VOLUME>
                      <VOLUME id="13">
                        <par name="vol" value="0"/>
                      </VOLUME>
                      <VOLUME id="14">
                        <par name="vol" value="0"/>
                      </VOLUME>
                      <VOLUME id="15">
                        <par name="vol" value="0"/>
                      </VOLUME>
                      <SENDTO id="2">
                        <par name="send_vol" value="0"/>
                      </SENDTO>
                      <SENDTO id="3">
                        <par name="send_vol" value="0"/>
                      </SENDTO>
                    </SYSTEM_EFFECT>
                    <SYSTEM_EFFECT id="2">
                      <EFFECT>
                        <par name="type" value="0"/>
                      </EFFECT>
                      <VOLUME id="0">
                        <par name="vol" value="0"/>
                      </VOLUME>
                      <VOLUME id="1">
                        <par name="vol" value="0"/>
                      </VOLUME>
                      <VOLUME id="2">
                        <par name="vol" value="0"/>
                      </VOLUME>
                      <VOLUME id="3">
                        <par name="vol" value="0"/>
                      </VOLUME>
                      <VOLUME id="4">
                        <par name="vol" value="0"/>
                      </VOLUME>
                      <VOLUME id="5">
                        <par name="vol" value="0"/>
                      </VOLUME>
                      <VOLUME id="6">
                        <par name="vol" value="0"/>
                      </VOLUME>
                      <VOLUME id="7">
                        <par name="vol" value="0"/>
                      </VOLUME>
                      <VOLUME id="8">
                        <par name="vol" value="0"/>
                      </VOLUME>
                      <VOLUME id="9">
                        <par name="vol" value="0"/>
                      </VOLUME>
                      <VOLUME id="10">
                        <par name="vol" value="0"/>
                      </VOLUME>
                      <VOLUME id="11">
                        <par name="vol" value="0"/>
                      </VOLUME>
                      <VOLUME id="12">
                        <par name="vol" value="0"/>
                      </VOLUME>
                      <VOLUME id="13">
                        <par name="vol" value="0"/>
                      </VOLUME>
                      <VOLUME id="14">
                        <par name="vol" value="0"/>
                      </VOLUME>
                      <VOLUME id="15">
                        <par name="vol" value="0"/>
                      </VOLUME>
                      <SENDTO id="3">
                        <par name="send_vol" value="0"/>
                      </SENDTO>
                    </SYSTEM_EFFECT>
                    <SYSTEM_EFFECT id="3">
                      <EFFECT>
                        <par name="type" value="0"/>
                      </EFFECT>
                      <VOLUME id="0">
                        <par name="vol" value="0"/>
                      </VOLUME>
                      <VOLUME id="1">
                        <par name="vol" value="0"/>
                      </VOLUME>
                      <VOLUME id="2">
                        <par name="vol" value="0"/>
                      </VOLUME>
                      <VOLUME id="3">
                        <par name="vol" value="0"/>
                      </VOLUME>
                      <VOLUME id="4">
                        <par name="vol" value="0"/>
                      </VOLUME>
                      <VOLUME id="5">
                        <par name="vol" value="0"/>
                      </VOLUME>
                      <VOLUME id="6">
                        <par name="vol" value="0"/>
                      </VOLUME>
                      <VOLUME id="7">
                        <par name="vol" value="0"/>
                      </VOLUME>
                      <VOLUME id="8">
                        <par name="vol" value="0"/>
                      </VOLUME>
                      <VOLUME id="9">
                        <par name="vol" value="0"/>
                      </VOLUME>
                      <VOLUME id="10">
                        <par name="vol" value="0"/>
                      </VOLUME>
                      <VOLUME id="11">
                        <par name="vol" value="0"/>
                      </VOLUME>
                      <VOLUME id="12">
                        <par name="vol" value="0"/>
                      </VOLUME>
                      <VOLUME id="13">
                        <par name="vol" value="0"/>
                      </VOLUME>
                      <VOLUME id="14">
                        <par name="vol" value="0"/>
                      </VOLUME>
                      <VOLUME id="15">
                        <par name="vol" value="0"/>
                      </VOLUME>
                    </SYSTEM_EFFECT>
                  </SYSTEM_EFFECTS>
                  <INSERTION_EFFECTS>
                    <INSERTION_EFFECT id="0">
                      <par name="part" value="-1"/>
                      <EFFECT>
                        <par name="type" value="0"/>
                      </EFFECT>
                    </INSERTION_EFFECT>
                    <INSERTION_EFFECT id="1">
                      <par name="part" value="-1"/>
                      <EFFECT>
                        <par name="type" value="0"/>
                      </EFFECT>
                    </INSERTION_EFFECT>
                    <INSERTION_EFFECT id="2">
                      <par name="part" value="-1"/>
                      <EFFECT>
                        <par name="type" value="0"/>
                      </EFFECT>
                    </INSERTION_EFFECT>
                    <INSERTION_EFFECT id="3">
                      <par name="part" value="-1"/>
                      <EFFECT>
                        <par name="type" value="0"/>
                      </EFFECT>
                    </INSERTION_EFFECT>
                    <INSERTION_EFFECT id="4">
                      <par name="part" value="-1"/>
                      <EFFECT>
                        <par name="type" value="0"/>
                      </EFFECT>
                    </INSERTION_EFFECT>
                    <INSERTION_EFFECT id="5">
                      <par name="part" value="-1"/>
                      <EFFECT>
                        <par name="type" value="0"/>
                      </EFFECT>
                    </INSERTION_EFFECT>
                    <INSERTION_EFFECT id="6">
                      <par name="part" value="-1"/>
                      <EFFECT>
                        <par name="type" value="0"/>
                      </EFFECT>
                    </INSERTION_EFFECT>
                    <INSERTION_EFFECT id="7">
                      <par name="part" value="-1"/>
                      <EFFECT>
                        <par name="type" value="0"/>
                      </EFFECT>
                    </INSERTION_EFFECT>
                  </INSERTION_EFFECTS>
                </MASTER>
              </ZynAddSubFX-data>
            </zynaddsubfx>
          </instrument>
          <eldata fres="0.5" ftype="0" fwet="0" fcut="14000">
            <elvol latt="0" userwavefile="" syncmode="0" x100="0" pdel="0" lamt="0" ctlenvamt="0" lshp="0" lspd="0.1" att="0" hold="0.5" amt="0" lpdel="0" rel="0.1" sustain="0.5" dec="0.5" lspd_numerator="4" lspd_denominator="4"/>
            <elcut latt="0" userwavefile="" syncmode="0" x100="0" pdel="0" lamt="0" ctlenvamt="0" lshp="0" lspd="0.1" att="0" hold="0.5" amt="0" lpdel="0" rel="0.1" sustain="0.5" dec="0.5" lspd_numerator="4" lspd_denominator="4"/>
            <elres latt="0" userwavefile="" syncmode="0" x100="0" pdel="0" lamt="0" ctlenvamt="0" lshp="0" lspd="0.1" att="0" hold="0.5" amt="0" lpdel="0" rel="0.1" sustain="0.5" dec="0.5" lspd_numerator="4" lspd_denominator="4"/>
          </eldata>
          <chordcreator chord="0" chord-enabled="0" chordrange="1"/>
          <arpeggiator arpgate="100" syncmode="0" arpcycle="0" arptime_denominator="4" arptime="100" arptime_numerator="4" arpmiss="0" arpmode="0" arprange="1" arpdir="0" arpskip="0" arp-enabled="0" arp="0"/>
          <midiport outputcontroller="0" outputprogram="1" inputcontroller="0" fixedoutputvelocity="-1" writable="1" basevelocity="63" readable="0" inputchannel="0" outputchannel="1" fixedoutputnote="-1" outports="" fixedinputvelocity="-1"/>
          <fxchain enabled="0" numofeffects="0"/>
        </instrumenttrack>
        <pattern name="Supersaw Lead" muted="0" steps="16" pos="27840" type="0"/>
        <pattern name="Supersaw Lead" muted="0" steps="16" pos="24576" type="1">
          <note vol="179" len="24" key="57" pos="120" pan="0"/>
          <note vol="183" len="24" key="62" pos="144" pan="0"/>
          <note vol="183" len="24" key="64" pos="168" pan="0"/>
          <note vol="186" len="24" key="65" pos="192" pan="0"/>
          <note vol="174" len="24" key="60" pos="216" pan="1"/>
          <note vol="181" len="24" key="65" pos="240" pan="0"/>
          <note vol="178" len="24" key="60" pos="264" pan="0"/>
          <note vol="171" len="24" key="59" pos="288" pan="0"/>
          <note vol="178" len="12" key="59" pos="312" pan="0"/>
          <note vol="178" len="12" key="59" pos="324" pan="0"/>
          <note vol="179" len="24" key="60" pos="336" pan="0"/>
          <note vol="181" len="24" key="62" pos="360" pan="0"/>
          <note vol="170" len="24" key="60" pos="384" pan="0"/>
          <note vol="172" len="12" key="60" pos="408" pan="0"/>
          <note vol="172" len="12" key="60" pos="420" pan="0"/>
          <note vol="170" len="24" key="62" pos="432" pan="0"/>
          <note vol="183" len="24" key="64" pos="456" pan="0"/>
          <note vol="185" len="24" key="64" pos="504" pan="0"/>
          <note vol="170" len="24" key="62" pos="528" pan="0"/>
          <note vol="178" len="24" key="64" pos="552" pan="0"/>
          <note vol="183" len="24" key="62" pos="576" pan="0"/>
          <note vol="170" len="24" key="60" pos="600" pan="0"/>
          <note vol="173" len="24" key="59" pos="624" pan="0"/>
          <note vol="167" len="24" key="55" pos="648" pan="0"/>
          <note vol="171" len="24" key="59" pos="672" pan="0"/>
          <note vol="177" len="12" key="55" pos="696" pan="0"/>
          <note vol="177" len="12" key="55" pos="708" pan="0"/>
          <note vol="171" len="24" key="60" pos="720" pan="0"/>
          <note vol="167" len="24" key="55" pos="744" pan="0"/>
          <note vol="189" len="24" key="65" pos="768" pan="0"/>
          <note vol="181" len="24" key="64" pos="792" pan="0"/>
          <note vol="178" len="24" key="62" pos="816" pan="0"/>
          <note vol="182" len="24" key="67" pos="840" pan="0"/>
          <note vol="189" len="24" key="67" pos="888" pan="0"/>
          <note vol="182" len="24" key="65" pos="912" pan="0"/>
          <note vol="181" len="24" key="64" pos="936" pan="0"/>
          <note vol="185" len="24" key="67" pos="960" pan="0"/>
          <note vol="171" len="24" key="60" pos="984" pan="0"/>
          <note vol="184" len="24" key="67" pos="1008" pan="0"/>
          <note vol="171" len="24" key="60" pos="1032" pan="0"/>
          <note vol="172" len="24" key="55" pos="1056" pan="0"/>
          <note vol="179" len="12" key="59" pos="1080" pan="0"/>
          <note vol="179" len="12" key="59" pos="1092" pan="0"/>
          <note vol="170" len="24" key="60" pos="1104" pan="0"/>
          <note vol="184" len="24" key="62" pos="1128" pan="0"/>
          <note vol="185" len="24" key="60" pos="1152" pan="0"/>
          <note vol="177" len="12" key="62" pos="1176" pan="0"/>
          <note vol="177" len="12" key="62" pos="1188" pan="0"/>
          <note vol="172" len="24" key="64" pos="1200" pan="0"/>
          <note vol="182" len="24" key="64" pos="1224" pan="0"/>
          <note vol="176" len="24" key="64" pos="1272" pan="0"/>
          <note vol="189" len="24" key="65" pos="1296" pan="0"/>
          <note vol="177" len="24" key="64" pos="1320" pan="0"/>
          <note vol="168" len="24" key="60" pos="1344" pan="0"/>
          <note vol="185" len="24" key="64" pos="1368" pan="0"/>
          <note vol="189" len="24" key="67" pos="1392" pan="0"/>
          <note vol="175" len="24" key="64" pos="1416" pan="0"/>
          <note vol="188" len="24" key="67" pos="1440" pan="0"/>
          <note vol="181" len="24" key="64" pos="1464" pan="0"/>
          <note vol="193" len="24" key="72" pos="1488" pan="0"/>
          <note vol="180" len="12" key="64" pos="1512" pan="0"/>
          <note vol="180" len="12" key="64" pos="1524" pan="0"/>
          <note vol="185" len="24" key="64" pos="1536" pan="0"/>
          <note vol="176" len="24" key="55" pos="1560" pan="0"/>
          <note vol="181" len="24" key="59" pos="1584" pan="0"/>
          <note vol="164" len="48" key="57" pos="1608" pan="0"/>
        </pattern>
      </track>
      <track name="Main Melody" solo="0" muted="0" type="0">
        <instrumenttrack vol="100" usemasterpitch="1" pitch="0" pitchrange="2" pan="0" basenote="57" fxch="0">
          <instrument name="sf2player">
            <sf2player reverbOn="0" reverbDamping="0" chorusSpeed="0.3" chorusDepth="8" bank="0" chorusNum="3" src="D:/mandy/Documents/Rest Programs/midi/TOUHOU INSTRUMENT + DRUM KIT.sf2" reverbRoomSize="0.2" reverbWidth="0.5" chorusLevel="2" patch="0" gain="1" chorusOn="0" reverbLevel="0.9"/>
          </instrument>
          <eldata fres="0.5" ftype="0" fwet="0" fcut="14000">
            <elvol latt="0" userwavefile="" syncmode="0" x100="0" pdel="0" lamt="0" ctlenvamt="0" lshp="0" lspd="0.1" att="0" hold="0.5" amt="0" lpdel="0" rel="0.1" sustain="0.5" dec="0.5" lspd_numerator="4" lspd_denominator="4"/>
            <elcut latt="0" userwavefile="" syncmode="0" x100="0" pdel="0" lamt="0" ctlenvamt="0" lshp="0" lspd="0.1" att="0" hold="0.5" amt="0" lpdel="0" rel="0.1" sustain="0.5" dec="0.5" lspd_numerator="4" lspd_denominator="4"/>
            <elres latt="0" userwavefile="" syncmode="0" x100="0" pdel="0" lamt="0" ctlenvamt="0" lshp="0" lspd="0.1" att="0" hold="0.5" amt="0" lpdel="0" rel="0.1" sustain="0.5" dec="0.5" lspd_numerator="4" lspd_denominator="4"/>
          </eldata>
          <chordcreator chord="0" chord-enabled="0" chordrange="1"/>
          <arpeggiator arpgate="100" syncmode="0" arpcycle="0" arptime_denominator="4" arptime="100" arptime_numerator="4" arpmiss="0" arpmode="0" arprange="1" arpdir="0" arpskip="0" arp-enabled="0" arp="0"/>
          <midiport outputcontroller="0" outputprogram="1" inputcontroller="0" fixedoutputvelocity="-1" writable="1" basevelocity="63" readable="1" inports="" inputchannel="0" outputchannel="2" fixedoutputnote="-1" outports="" fixedinputvelocity="-1"/>
          <fxchain enabled="0" numofeffects="0"/>
        </instrumenttrack>
        <pattern name="Main Melody" muted="0" steps="16" pos="3264" type="1">
          <note vol="174" len="48" key="60" pos="0" pan="0"/>
          <note vol="183" len="48" key="65" pos="48" pan="0"/>
          <note vol="170" len="60" key="64" pos="96" pan="0"/>
          <note vol="176" len="24" key="60" pos="168" pan="0"/>
          <note vol="179" len="24" key="65" pos="192" pan="0"/>
          <note vol="166" len="36" key="64" pos="216" pan="0"/>
          <note vol="178" len="24" key="55" pos="264" pan="0"/>
          <note vol="172" len="48" key="67" pos="288" pan="0"/>
          <note vol="180" len="36" key="64" pos="336" pan="0"/>
          <note vol="169" len="48" key="55" pos="384" pan="0"/>
          <note vol="180" len="48" key="60" pos="432" pan="0"/>
          <note vol="170" len="60" key="59" pos="480" pan="0"/>
          <note vol="176" len="24" key="55" pos="552" pan="0"/>
          <note vol="177" len="24" key="60" pos="576" pan="0"/>
          <note vol="180" len="36" key="62" pos="600" pan="0"/>
          <note vol="178" len="24" key="60" pos="648" pan="0"/>
          <note vol="172" len="48" key="62" pos="672" pan="0"/>
          <note vol="177" len="36" key="55" pos="720" pan="0"/>
          <note vol="175" len="48" key="62" pos="768" pan="0"/>
          <note vol="182" len="48" key="64" pos="816" pan="0"/>
          <note vol="165" len="60" key="64" pos="864" pan="0"/>
          <note vol="170" len="24" key="67" pos="936" pan="0"/>
          <note vol="174" len="24" key="65" pos="960" pan="0"/>
          <note vol="189" len="36" key="64" pos="984" pan="0"/>
          <note vol="177" len="24" key="59" pos="1032" pan="0"/>
          <note vol="180" len="48" key="60" pos="1056" pan="0"/>
          <note vol="166" len="36" key="67" pos="1104" pan="0"/>
          <note vol="177" len="48" key="65" pos="1152" pan="0"/>
          <note vol="179" len="48" key="67" pos="1200" pan="0"/>
          <note vol="173" len="60" key="67" pos="1248" pan="0"/>
          <note vol="177" len="24" key="65" pos="1320" pan="0"/>
          <note vol="180" len="24" key="64" pos="1344" pan="0"/>
          <note vol="180" len="36" key="64" pos="1368" pan="0"/>
          <note vol="170" len="24" key="65" pos="1416" pan="0"/>
          <note vol="181" len="48" key="64" pos="1440" pan="0"/>
          <note vol="175" len="36" key="60" pos="1488" pan="0"/>
        </pattern>
        <pattern name="Main Melody" muted="0" steps="16" pos="4800" type="1">
          <note vol="183" len="24" key="67" pos="24" pan="0"/>
          <note vol="176" len="24" key="67" pos="48" pan="0"/>
          <note vol="167" len="24" key="64" pos="72" pan="0"/>
          <note vol="162" len="24" key="64" pos="96" pan="0"/>
          <note vol="166" len="24" key="62" pos="120" pan="0"/>
          <note vol="172" len="48" key="64" pos="144" pan="0"/>
          <note vol="182" len="24" key="67" pos="216" pan="0"/>
          <note vol="179" len="24" key="67" pos="240" pan="0"/>
          <note vol="167" len="24" key="60" pos="264" pan="0"/>
          <note vol="173" len="24" key="60" pos="288" pan="0"/>
          <note vol="170" len="24" key="65" pos="312" pan="0"/>
          <note vol="170" len="48" key="64" pos="336" pan="0"/>
          <note vol="166" len="24" key="62" pos="408" pan="0"/>
          <note vol="177" len="24" key="62" pos="432" pan="0"/>
          <note vol="180" len="24" key="64" pos="456" pan="0"/>
          <note vol="182" len="24" key="65" pos="480" pan="0"/>
          <note vol="172" len="24" key="62" pos="504" pan="0"/>
          <note vol="172" len="48" key="55" pos="528" pan="0"/>
          <note vol="178" len="24" key="65" pos="600" pan="0"/>
          <note vol="180" len="24" key="65" pos="624" pan="0"/>
          <note vol="169" len="24" key="64" pos="648" pan="0"/>
          <note vol="172" len="24" key="62" pos="672" pan="0"/>
          <note vol="176" len="24" key="64" pos="696" pan="0"/>
          <note vol="179" len="48" key="67" pos="720" pan="0"/>
          <note vol="176" len="24" key="67" pos="792" pan="0"/>
          <note vol="171" len="24" key="67" pos="816" pan="0"/>
          <note vol="174" len="24" key="64" pos="840" pan="0"/>
          <note vol="169" len="24" key="64" pos="864" pan="0"/>
          <note vol="169" len="24" key="62" pos="888" pan="0"/>
          <note vol="171" len="48" key="64" pos="912" pan="0"/>
          <note vol="176" len="24" key="67" pos="984" pan="0"/>
          <note vol="172" len="24" key="67" pos="1008" pan="0"/>
          <note vol="173" len="24" key="60" pos="1032" pan="0"/>
          <note vol="170" len="24" key="60" pos="1056" pan="0"/>
          <note vol="170" len="24" key="65" pos="1080" pan="0"/>
          <note vol="175" len="36" key="64" pos="1104" pan="0"/>
          <note vol="181" len="12" key="64" pos="1152" pan="0"/>
          <note vol="177" len="24" key="64" pos="1164" pan="0"/>
          <note vol="182" len="12" key="64" pos="1188" pan="0"/>
          <note vol="177" len="24" key="64" pos="1200" pan="0"/>
          <note vol="181" len="13" key="64" pos="1224" pan="0"/>
          <note vol="178" len="25" key="64" pos="1236" pan="0"/>
          <note vol="176" len="24" key="64" pos="1272" pan="0"/>
          <note vol="177" len="24" key="60" pos="1296" pan="0"/>
          <note vol="174" len="12" key="60" pos="1320" pan="0"/>
          <note vol="179" len="12" key="64" pos="1344" pan="0"/>
          <note vol="174" len="24" key="64" pos="1356" pan="0"/>
          <note vol="180" len="12" key="64" pos="1380" pan="0"/>
          <note vol="177" len="24" key="64" pos="1392" pan="0"/>
          <note vol="181" len="12" key="64" pos="1416" pan="0"/>
          <note vol="177" len="24" key="64" pos="1428" pan="0"/>
          <note vol="175" len="24" key="64" pos="1464" pan="0"/>
          <note vol="176" len="24" key="62" pos="1488" pan="0"/>
          <note vol="173" len="12" key="60" pos="1512" pan="0"/>
        </pattern>
        <pattern name="Main Melody" muted="0" steps="16" pos="15552" type="1">
          <note vol="179" len="24" key="67" pos="24" pan="0"/>
          <note vol="177" len="24" key="67" pos="48" pan="0"/>
          <note vol="172" len="24" key="64" pos="72" pan="0"/>
          <note vol="166" len="24" key="64" pos="96" pan="0"/>
          <note vol="166" len="24" key="62" pos="120" pan="0"/>
          <note vol="166" len="24" key="60" pos="144" pan="0"/>
          <note vol="166" len="24" key="64" pos="168" pan="0"/>
          <note vol="166" len="24" key="67" pos="216" pan="0"/>
          <note vol="166" len="24" key="67" pos="240" pan="0"/>
          <note vol="166" len="24" key="60" pos="264" pan="0"/>
          <note vol="166" len="24" key="60" pos="288" pan="0"/>
          <note vol="166" len="24" key="65" pos="312" pan="0"/>
          <note vol="166" len="24" key="62" pos="336" pan="0"/>
          <note vol="166" len="24" key="64" pos="360" pan="0"/>
          <note vol="166" len="24" key="62" pos="408" pan="0"/>
          <note vol="166" len="24" key="62" pos="432" pan="0"/>
          <note vol="166" len="24" key="64" pos="456" pan="0"/>
          <note vol="166" len="24" key="65" pos="480" pan="0"/>
          <note vol="166" len="24" key="64" pos="504" pan="0"/>
          <note vol="166" len="24" key="62" pos="528" pan="0"/>
          <note vol="166" len="24" key="55" pos="552" pan="0"/>
          <note vol="166" len="24" key="65" pos="600" pan="0"/>
          <note vol="166" len="24" key="65" pos="624" pan="0"/>
          <note vol="166" len="24" key="64" pos="648" pan="0"/>
          <note vol="166" len="24" key="62" pos="672" pan="0"/>
          <note vol="166" len="24" key="64" pos="696" pan="0"/>
          <note vol="166" len="24" key="65" pos="720" pan="0"/>
          <note vol="166" len="24" key="67" pos="744" pan="0"/>
          <note vol="166" len="24" key="67" pos="792" pan="0"/>
          <note vol="166" len="24" key="67" pos="816" pan="0"/>
          <note vol="166" len="24" key="64" pos="840" pan="0"/>
          <note vol="166" len="24" key="64" pos="864" pan="0"/>
          <note vol="166" len="24" key="62" pos="888" pan="0"/>
          <note vol="166" len="24" key="60" pos="912" pan="0"/>
          <note vol="166" len="24" key="64" pos="936" pan="0"/>
          <note vol="166" len="24" key="67" pos="984" pan="0"/>
          <note vol="166" len="24" key="67" pos="1008" pan="0"/>
          <note vol="166" len="24" key="60" pos="1032" pan="0"/>
          <note vol="166" len="24" key="60" pos="1056" pan="0"/>
          <note vol="166" len="24" key="65" pos="1080" pan="0"/>
          <note vol="166" len="24" key="62" pos="1104" pan="0"/>
          <note vol="166" len="24" key="64" pos="1128" pan="0"/>
          <note vol="166" len="12" key="64" pos="1152" pan="0"/>
          <note vol="166" len="24" key="64" pos="1164" pan="0"/>
          <note vol="166" len="12" key="64" pos="1188" pan="0"/>
          <note vol="166" len="24" key="64" pos="1200" pan="0"/>
          <note vol="166" len="13" key="64" pos="1224" pan="0"/>
          <note vol="166" len="25" key="64" pos="1236" pan="0"/>
          <note vol="166" len="24" key="64" pos="1272" pan="0"/>
          <note vol="170" len="24" key="60" pos="1296" pan="0"/>
          <note vol="170" len="24" key="60" pos="1320" pan="0"/>
          <note vol="173" len="12" key="64" pos="1344" pan="0"/>
          <note vol="173" len="24" key="64" pos="1356" pan="0"/>
          <note vol="177" len="12" key="64" pos="1380" pan="0"/>
          <note vol="179" len="24" key="64" pos="1392" pan="0"/>
          <note vol="179" len="12" key="64" pos="1416" pan="0"/>
          <note vol="179" len="24" key="64" pos="1428" pan="0"/>
          <note vol="182" len="24" key="64" pos="1464" pan="0"/>
          <note vol="182" len="24" key="62" pos="1488" pan="0"/>
          <note vol="182" len="12" key="60" pos="1512" pan="0"/>
        </pattern>
        <pattern name="Main Melody" muted="0" steps="16" pos="17088" type="1">
          <note vol="168" len="24" key="60" pos="0" pan="0"/>
          <note vol="168" len="24" key="67" pos="24" pan="0"/>
          <note vol="168" len="24" key="65" pos="48" pan="0"/>
          <note vol="168" len="36" key="64" pos="72" pan="0"/>
          <note vol="168" len="24" key="60" pos="120" pan="0"/>
          <note vol="168" len="24" key="60" pos="144" pan="0"/>
          <note vol="168" len="24" key="64" pos="168" pan="0"/>
          <note vol="168" len="24" key="64" pos="192" pan="0"/>
          <note vol="168" len="48" key="62" pos="216" pan="0"/>
          <note vol="168" len="72" key="64" pos="264" pan="0"/>
          <note vol="168" len="24" key="60" pos="384" pan="0"/>
          <note vol="168" len="24" key="62" pos="408" pan="0"/>
          <note vol="168" len="24" key="65" pos="432" pan="0"/>
          <note vol="168" len="36" key="64" pos="456" pan="0"/>
          <note vol="168" len="24" key="62" pos="504" pan="0"/>
          <note vol="168" len="24" key="62" pos="528" pan="0"/>
          <note vol="168" len="24" key="60" pos="552" pan="0"/>
          <note vol="168" len="24" key="60" pos="576" pan="0"/>
          <note vol="174" len="48" key="59" pos="600" pan="0"/>
          <note vol="174" len="72" key="55" pos="648" pan="0"/>
          <note vol="174" len="24" key="60" pos="768" pan="0"/>
          <note vol="174" len="24" key="67" pos="792" pan="0"/>
          <note vol="174" len="24" key="65" pos="816" pan="0"/>
          <note vol="174" len="36" key="64" pos="840" pan="0"/>
          <note vol="174" len="24" key="60" pos="888" pan="0"/>
          <note vol="174" len="24" key="60" pos="912" pan="0"/>
          <note vol="174" len="24" key="64" pos="936" pan="0"/>
          <note vol="174" len="24" key="64" pos="960" pan="0"/>
          <note vol="174" len="48" key="62" pos="984" pan="0"/>
          <note vol="174" len="24" key="60" pos="1032" pan="0"/>
          <note vol="174" len="24" key="62" pos="1056" pan="0"/>
          <note vol="174" len="36" key="64" pos="1080" pan="0"/>
          <note vol="174" len="24" key="62" pos="1128" pan="0"/>
          <note vol="174" len="48" key="62" pos="1152" pan="0"/>
          <note vol="174" len="24" key="59" pos="1200" pan="0"/>
          <note vol="174" len="24" key="60" pos="1224" pan="0"/>
          <note vol="174" len="24" key="64" pos="1248" pan="0"/>
          <note vol="174" len="36" key="65" pos="1272" pan="0"/>
          <note vol="174" len="24" key="64" pos="1320" pan="0"/>
          <note vol="174" len="48" key="64" pos="1344" pan="0"/>
          <note vol="174" len="24" key="59" pos="1392" pan="0"/>
          <note vol="174" len="24" key="60" pos="1416" pan="0"/>
          <note vol="174" len="24" key="65" pos="1440" pan="0"/>
          <note vol="174" len="60" key="67" pos="1464" pan="0"/>
        </pattern>
        <pattern name="Main Melody" muted="0" steps="16" pos="26304" type="1">
          <note vol="178" len="24" key="60" pos="0" pan="0"/>
          <note vol="178" len="48" key="62" pos="24" pan="0"/>
          <note vol="187" len="36" key="64" pos="72" pan="0"/>
          <note vol="177" len="48" key="59" pos="120" pan="0"/>
          <note vol="180" len="168" key="60" pos="168" pan="0"/>
          <note vol="178" len="24" key="60" pos="384" pan="0"/>
          <note vol="182" len="48" key="62" pos="408" pan="0"/>
          <note vol="178" len="36" key="64" pos="456" pan="0"/>
          <note vol="184" len="48" key="65" pos="504" pan="0"/>
          <note vol="179" len="120" key="64" pos="552" pan="0"/>
          <note vol="180" len="24" key="60" pos="720" pan="0"/>
          <note vol="182" len="24" key="60" pos="744" pan="0"/>
          <note vol="179" len="72" key="59" pos="768" pan="0"/>
          <note vol="179" len="60" key="57" pos="840" pan="0"/>
          <note vol="180" len="48" key="59" pos="912" pan="0"/>
          <note vol="184" len="96" key="60" pos="960" pan="0"/>
          <note vol="180" len="24" key="53" pos="1104" pan="0"/>
          <note vol="178" len="24" key="53" pos="1128" pan="0"/>
          <note vol="177" len="72" key="52" pos="1152" pan="0"/>
          <note vol="178" len="60" key="53" pos="1224" pan="0"/>
          <note vol="183" len="48" key="55" pos="1296" pan="0"/>
          <note vol="181" len="192" key="52" pos="1344" pan="0"/>
        </pattern>
        <pattern name="Main Melody" muted="0" steps="16" pos="6336" type="1">
          <note vol="185" len="48" key="67" pos="0" pan="0"/>
          <note vol="185" len="24" key="67" pos="48" pan="0"/>
          <note vol="181" len="24" key="65" pos="72" pan="0"/>
          <note vol="172" len="24" key="60" pos="96" pan="0"/>
          <note vol="172" len="36" key="60" pos="120" pan="0"/>
          <note vol="177" len="48" key="62" pos="168" pan="0"/>
          <note vol="183" len="48" key="60" pos="216" pan="0"/>
          <note vol="181" len="60" key="64" pos="264" pan="0"/>
          <note vol="174" len="24" key="62" pos="336" pan="0"/>
          <note vol="172" len="24" key="64" pos="360" pan="0"/>
          <note vol="179" len="24" key="65" pos="384" pan="0"/>
          <note vol="183" len="36" key="64" pos="408" pan="0"/>
          <note vol="178" len="48" key="65" pos="456" pan="0"/>
          <note vol="185" len="48" key="67" pos="504" pan="0"/>
          <note vol="188" len="48" key="67" pos="552" pan="0"/>
          <note vol="188" len="48" key="65" pos="600" pan="0"/>
          <note vol="176" len="96" key="62" pos="648" pan="0"/>
          <note vol="172" len="48" key="55" pos="768" pan="0"/>
          <note vol="181" len="48" key="59" pos="816" pan="0"/>
          <note vol="177" len="24" key="59" pos="864" pan="0"/>
          <note vol="181" len="36" key="60" pos="888" pan="0"/>
          <note vol="177" len="48" key="59" pos="936" pan="0"/>
          <note vol="182" len="48" key="60" pos="984" pan="0"/>
          <note vol="185" len="60" key="62" pos="1032" pan="0"/>
          <note vol="182" len="24" key="62" pos="1104" pan="0"/>
          <note vol="183" len="24" key="64" pos="1128" pan="0"/>
          <note vol="186" len="48" key="65" pos="1152" pan="0"/>
          <note vol="183" len="24" key="64" pos="1200" pan="0"/>
          <note vol="186" len="48" key="65" pos="1224" pan="0"/>
          <note vol="180" len="60" key="60" pos="1272" pan="0"/>
          <note vol="189" len="24" key="67" pos="1344" pan="0"/>
          <note vol="184" len="48" key="65" pos="1368" pan="0"/>
          <note vol="182" len="48" key="60" pos="1416" pan="0"/>
          <note vol="183" len="60" key="59" pos="1464" pan="0"/>
          <note vol="184" len="48" key="67" pos="1536" pan="0"/>
          <note vol="183" len="48" key="65" pos="1584" pan="0"/>
          <note vol="175" len="48" key="60" pos="1632" pan="0"/>
          <note vol="175" len="36" key="60" pos="1680" pan="0"/>
          <note vol="177" len="24" key="60" pos="1728" pan="0"/>
          <note vol="180" len="48" key="65" pos="1752" pan="0"/>
          <note vol="181" len="72" key="64" pos="1800" pan="0"/>
          <note vol="182" len="48" key="64" pos="1920" pan="0"/>
          <note vol="184" len="48" key="65" pos="1968" pan="0"/>
          <note vol="182" len="48" key="67" pos="2016" pan="0"/>
          <note vol="181" len="36" key="60" pos="2064" pan="0"/>
          <note vol="181" len="24" key="67" pos="2112" pan="0"/>
          <note vol="178" len="48" key="64" pos="2136" pan="0"/>
          <note vol="182" len="72" key="67" pos="2184" pan="0"/>
          <note vol="175" len="24" key="57" pos="2304" pan="0"/>
          <note vol="176" len="24" key="57" pos="2328" pan="0"/>
          <note vol="179" len="24" key="60" pos="2352" pan="0"/>
          <note vol="182" len="24" key="60" pos="2376" pan="0"/>
          <note vol="178" len="24" key="59" pos="2400" pan="0"/>
          <note vol="176" len="24" key="60" pos="2424" pan="0"/>
          <note vol="176" len="24" key="64" pos="2448" pan="0"/>
          <note vol="179" len="48" key="62" pos="2472" pan="0"/>
          <note vol="187" len="48" key="67" pos="2520" pan="0"/>
          <note vol="182" len="48" key="64" pos="2568" pan="0"/>
          <note vol="180" len="12" key="62" pos="2616" pan="0"/>
          <note vol="183" len="24" key="64" pos="2640" pan="0"/>
          <note vol="188" len="24" key="65" pos="2664" pan="0"/>
          <note vol="183" len="24" key="67" pos="2688" pan="0"/>
          <note vol="180" len="24" key="65" pos="2712" pan="0"/>
          <note vol="175" len="24" key="65" pos="2736" pan="0"/>
          <note vol="177" len="48" key="60" pos="2760" pan="0"/>
          <note vol="177" len="24" key="65" pos="2808" pan="0"/>
          <note vol="182" len="24" key="64" pos="2832" pan="0"/>
          <note vol="179" len="24" key="65" pos="2856" pan="0"/>
          <note vol="186" len="24" key="67" pos="2880" pan="0"/>
          <note vol="181" len="48" key="64" pos="2904" pan="0"/>
          <note vol="179" len="72" key="60" pos="2952" pan="0"/>
          <note vol="174" len="24" key="55" pos="3048" pan="0"/>
        </pattern>
        <pattern name="Main Melody" muted="0" steps="16" pos="14016" type="1">
          <note vol="177" len="48" key="60" pos="0" pan="0"/>
          <note vol="186" len="48" key="65" pos="48" pan="0"/>
          <note vol="170" len="60" key="64" pos="96" pan="0"/>
          <note vol="180" len="24" key="60" pos="168" pan="0"/>
          <note vol="175" len="24" key="65" pos="192" pan="0"/>
          <note vol="166" len="36" key="64" pos="216" pan="0"/>
          <note vol="177" len="24" key="55" pos="264" pan="0"/>
          <note vol="177" len="48" key="67" pos="288" pan="0"/>
          <note vol="180" len="36" key="64" pos="336" pan="0"/>
          <note vol="166" len="48" key="55" pos="384" pan="0"/>
          <note vol="180" len="48" key="60" pos="432" pan="0"/>
          <note vol="170" len="60" key="59" pos="480" pan="0"/>
          <note vol="176" len="24" key="55" pos="552" pan="0"/>
          <note vol="177" len="24" key="60" pos="576" pan="0"/>
          <note vol="180" len="36" key="62" pos="600" pan="0"/>
          <note vol="178" len="24" key="60" pos="648" pan="0"/>
          <note vol="172" len="48" key="62" pos="672" pan="0"/>
          <note vol="177" len="36" key="55" pos="720" pan="0"/>
          <note vol="175" len="48" key="62" pos="768" pan="0"/>
          <note vol="182" len="48" key="64" pos="816" pan="0"/>
          <note vol="165" len="60" key="64" pos="864" pan="0"/>
          <note vol="170" len="24" key="67" pos="936" pan="0"/>
          <note vol="172" len="24" key="65" pos="960" pan="0"/>
          <note vol="189" len="36" key="64" pos="984" pan="0"/>
          <note vol="177" len="24" key="59" pos="1032" pan="0"/>
          <note vol="180" len="48" key="60" pos="1056" pan="0"/>
          <note vol="166" len="36" key="67" pos="1104" pan="0"/>
          <note vol="177" len="48" key="65" pos="1152" pan="0"/>
          <note vol="179" len="48" key="67" pos="1200" pan="0"/>
          <note vol="173" len="60" key="67" pos="1248" pan="0"/>
          <note vol="179" len="24" key="65" pos="1320" pan="0"/>
          <note vol="180" len="24" key="64" pos="1344" pan="0"/>
          <note vol="180" len="36" key="64" pos="1368" pan="0"/>
          <note vol="170" len="24" key="65" pos="1416" pan="0"/>
          <note vol="181" len="48" key="64" pos="1440" pan="0"/>
          <note vol="175" len="36" key="60" pos="1488" pan="0"/>
        </pattern>
        <pattern name="Main Melody" muted="0" steps="16" pos="9408" type="1">
          <note vol="180" len="24" key="67" pos="0" pan="0"/>
          <note vol="174" len="24" key="67" pos="24" pan="0"/>
          <note vol="183" len="24" key="67" pos="48" pan="0"/>
          <note vol="172" len="24" key="67" pos="72" pan="0"/>
          <note vol="181" len="24" key="67" pos="96" pan="0"/>
          <note vol="173" len="24" key="67" pos="120" pan="0"/>
          <note vol="182" len="24" key="67" pos="144" pan="0"/>
          <note vol="174" len="24" key="64" pos="168" pan="0"/>
          <note vol="171" len="24" key="60" pos="192" pan="0"/>
          <note vol="172" len="24" key="64" pos="216" pan="0"/>
          <note vol="183" len="24" key="64" pos="240" pan="0"/>
          <note vol="173" len="12" key="64" pos="264" pan="0"/>
          <note vol="173" len="12" key="64" pos="276" pan="0"/>
          <note vol="184" len="24" key="64" pos="288" pan="0"/>
          <note vol="174" len="24" key="64" pos="312" pan="0"/>
          <note vol="185" len="24" key="64" pos="336" pan="0"/>
          <note vol="173" len="24" key="60" pos="360" pan="0"/>
          <note vol="171" len="12" key="60" pos="408" pan="0"/>
          <note vol="171" len="12" key="60" pos="420" pan="0"/>
          <note vol="177" len="24" key="62" pos="432" pan="0"/>
          <note vol="171" len="24" key="60" pos="456" pan="0"/>
          <note vol="179" len="72" key="64" pos="480" pan="0"/>
          <note vol="168" len="24" key="60" pos="600" pan="0"/>
          <note vol="177" len="24" key="62" pos="624" pan="0"/>
          <note vol="173" len="24" key="64" pos="648" pan="0"/>
          <note vol="180" len="60" key="64" pos="672" pan="0"/>
          <note vol="165" len="24" key="55" pos="744" pan="0"/>
          <note vol="178" len="24" key="67" pos="768" pan="0"/>
          <note vol="174" len="24" key="67" pos="792" pan="0"/>
          <note vol="183" len="24" key="67" pos="816" pan="0"/>
          <note vol="173" len="24" key="67" pos="840" pan="0"/>
          <note vol="179" len="24" key="67" pos="864" pan="0"/>
          <note vol="173" len="24" key="67" pos="888" pan="0"/>
          <note vol="182" len="24" key="67" pos="912" pan="0"/>
          <note vol="177" len="24" key="64" pos="936" pan="0"/>
          <note vol="175" len="24" key="60" pos="960" pan="0"/>
          <note vol="175" len="24" key="64" pos="984" pan="0"/>
          <note vol="184" len="24" key="64" pos="1008" pan="0"/>
          <note vol="171" len="12" key="64" pos="1032" pan="0"/>
          <note vol="171" len="12" key="64" pos="1044" pan="0"/>
          <note vol="180" len="24" key="64" pos="1056" pan="0"/>
          <note vol="173" len="24" key="64" pos="1080" pan="0"/>
          <note vol="181" len="24" key="64" pos="1104" pan="0"/>
          <note vol="172" len="24" key="60" pos="1128" pan="0"/>
          <note vol="168" len="12" key="60" pos="1176" pan="0"/>
          <note vol="168" len="12" key="60" pos="1188" pan="0"/>
          <note vol="174" len="24" key="62" pos="1200" pan="0"/>
          <note vol="171" len="24" key="60" pos="1224" pan="0"/>
          <note vol="178" len="72" key="64" pos="1248" pan="0"/>
          <note vol="168" len="24" key="60" pos="1368" pan="0"/>
          <note vol="175" len="24" key="62" pos="1392" pan="0"/>
          <note vol="172" len="24" key="64" pos="1416" pan="0"/>
          <note vol="177" len="72" key="64" pos="1440" pan="0"/>
        </pattern>
        <pattern name="Main Melody" muted="0" steps="16" pos="18624" type="1">
          <note vol="185" len="48" key="67" pos="0" pan="0"/>
          <note vol="185" len="24" key="67" pos="48" pan="0"/>
          <note vol="181" len="24" key="65" pos="72" pan="0"/>
          <note vol="172" len="24" key="60" pos="96" pan="0"/>
          <note vol="172" len="36" key="60" pos="120" pan="0"/>
          <note vol="177" len="48" key="62" pos="168" pan="0"/>
          <note vol="183" len="48" key="60" pos="216" pan="0"/>
          <note vol="181" len="60" key="64" pos="264" pan="0"/>
          <note vol="174" len="24" key="62" pos="336" pan="0"/>
          <note vol="172" len="24" key="64" pos="360" pan="0"/>
          <note vol="179" len="24" key="65" pos="384" pan="0"/>
          <note vol="183" len="36" key="64" pos="408" pan="0"/>
          <note vol="178" len="48" key="65" pos="456" pan="0"/>
          <note vol="185" len="48" key="67" pos="504" pan="0"/>
          <note vol="188" len="48" key="67" pos="552" pan="0"/>
          <note vol="188" len="48" key="65" pos="600" pan="0"/>
          <note vol="176" len="96" key="62" pos="648" pan="0"/>
          <note vol="172" len="48" key="55" pos="768" pan="0"/>
          <note vol="181" len="48" key="59" pos="816" pan="0"/>
          <note vol="177" len="24" key="59" pos="864" pan="0"/>
          <note vol="181" len="36" key="60" pos="888" pan="0"/>
          <note vol="177" len="48" key="59" pos="936" pan="0"/>
          <note vol="182" len="48" key="60" pos="984" pan="0"/>
          <note vol="185" len="60" key="62" pos="1032" pan="0"/>
          <note vol="182" len="24" key="62" pos="1104" pan="0"/>
          <note vol="183" len="24" key="64" pos="1128" pan="0"/>
          <note vol="186" len="48" key="65" pos="1152" pan="0"/>
          <note vol="183" len="24" key="64" pos="1200" pan="0"/>
          <note vol="186" len="48" key="65" pos="1224" pan="0"/>
          <note vol="180" len="60" key="60" pos="1272" pan="0"/>
          <note vol="189" len="24" key="67" pos="1344" pan="0"/>
          <note vol="184" len="48" key="65" pos="1368" pan="0"/>
          <note vol="182" len="48" key="60" pos="1416" pan="0"/>
          <note vol="183" len="60" key="59" pos="1464" pan="0"/>
          <note vol="184" len="48" key="67" pos="1536" pan="0"/>
          <note vol="183" len="48" key="65" pos="1584" pan="0"/>
          <note vol="175" len="48" key="60" pos="1632" pan="0"/>
          <note vol="175" len="36" key="60" pos="1680" pan="0"/>
          <note vol="177" len="24" key="60" pos="1728" pan="0"/>
          <note vol="180" len="48" key="65" pos="1752" pan="0"/>
          <note vol="181" len="72" key="64" pos="1800" pan="0"/>
          <note vol="182" len="48" key="64" pos="1920" pan="0"/>
          <note vol="184" len="48" key="65" pos="1968" pan="0"/>
          <note vol="182" len="48" key="67" pos="2016" pan="0"/>
          <note vol="181" len="36" key="60" pos="2064" pan="0"/>
          <note vol="181" len="24" key="67" pos="2112" pan="0"/>
          <note vol="178" len="48" key="64" pos="2136" pan="0"/>
          <note vol="182" len="72" key="67" pos="2184" pan="0"/>
          <note vol="175" len="24" key="57" pos="2304" pan="0"/>
          <note vol="176" len="24" key="57" pos="2328" pan="0"/>
          <note vol="179" len="24" key="60" pos="2352" pan="0"/>
          <note vol="182" len="24" key="60" pos="2376" pan="0"/>
          <note vol="178" len="24" key="59" pos="2400" pan="0"/>
          <note vol="176" len="24" key="60" pos="2424" pan="0"/>
          <note vol="176" len="24" key="64" pos="2448" pan="0"/>
          <note vol="179" len="48" key="62" pos="2472" pan="0"/>
          <note vol="187" len="48" key="67" pos="2520" pan="0"/>
          <note vol="182" len="48" key="64" pos="2568" pan="0"/>
          <note vol="180" len="12" key="62" pos="2616" pan="0"/>
          <note vol="183" len="24" key="64" pos="2640" pan="0"/>
          <note vol="188" len="24" key="65" pos="2664" pan="0"/>
          <note vol="183" len="24" key="67" pos="2688" pan="0"/>
          <note vol="180" len="24" key="65" pos="2712" pan="0"/>
          <note vol="175" len="24" key="65" pos="2736" pan="0"/>
          <note vol="177" len="48" key="60" pos="2760" pan="0"/>
          <note vol="177" len="24" key="65" pos="2808" pan="0"/>
          <note vol="182" len="24" key="64" pos="2832" pan="0"/>
          <note vol="179" len="24" key="65" pos="2856" pan="0"/>
          <note vol="186" len="24" key="67" pos="2880" pan="0"/>
          <note vol="181" len="48" key="64" pos="2904" pan="0"/>
          <note vol="179" len="72" key="60" pos="2952" pan="0"/>
          <note vol="174" len="24" key="55" pos="3048" pan="0"/>
        </pattern>
        <pattern name="" muted="0" steps="16" pos="21696" type="1">
          <note vol="180" len="24" key="67" pos="0" pan="0"/>
          <note vol="174" len="24" key="67" pos="24" pan="0"/>
          <note vol="183" len="24" key="67" pos="48" pan="0"/>
          <note vol="172" len="24" key="67" pos="72" pan="0"/>
          <note vol="181" len="24" key="67" pos="96" pan="0"/>
          <note vol="173" len="24" key="67" pos="120" pan="0"/>
          <note vol="182" len="24" key="67" pos="144" pan="0"/>
          <note vol="174" len="24" key="64" pos="168" pan="0"/>
          <note vol="171" len="24" key="60" pos="192" pan="0"/>
          <note vol="172" len="24" key="64" pos="216" pan="0"/>
          <note vol="183" len="24" key="64" pos="240" pan="0"/>
          <note vol="173" len="12" key="64" pos="264" pan="0"/>
          <note vol="173" len="12" key="64" pos="276" pan="0"/>
          <note vol="184" len="24" key="64" pos="288" pan="0"/>
          <note vol="174" len="24" key="64" pos="312" pan="0"/>
          <note vol="185" len="24" key="64" pos="336" pan="0"/>
          <note vol="173" len="24" key="60" pos="360" pan="0"/>
          <note vol="171" len="12" key="60" pos="408" pan="0"/>
          <note vol="171" len="12" key="60" pos="420" pan="0"/>
          <note vol="177" len="24" key="62" pos="432" pan="0"/>
          <note vol="171" len="24" key="60" pos="456" pan="0"/>
          <note vol="179" len="72" key="64" pos="480" pan="0"/>
          <note vol="168" len="24" key="60" pos="600" pan="0"/>
          <note vol="177" len="24" key="62" pos="624" pan="0"/>
          <note vol="173" len="24" key="64" pos="648" pan="0"/>
          <note vol="180" len="60" key="64" pos="672" pan="0"/>
          <note vol="165" len="24" key="55" pos="744" pan="0"/>
          <note vol="178" len="24" key="67" pos="768" pan="0"/>
          <note vol="174" len="24" key="67" pos="792" pan="0"/>
          <note vol="183" len="24" key="67" pos="816" pan="0"/>
          <note vol="173" len="24" key="67" pos="840" pan="0"/>
          <note vol="179" len="24" key="67" pos="864" pan="0"/>
          <note vol="173" len="24" key="67" pos="888" pan="0"/>
          <note vol="182" len="24" key="67" pos="912" pan="0"/>
          <note vol="177" len="24" key="64" pos="936" pan="0"/>
          <note vol="175" len="24" key="60" pos="960" pan="0"/>
          <note vol="175" len="24" key="64" pos="984" pan="0"/>
          <note vol="184" len="24" key="64" pos="1008" pan="0"/>
          <note vol="171" len="12" key="64" pos="1032" pan="0"/>
          <note vol="171" len="12" key="64" pos="1044" pan="0"/>
          <note vol="180" len="24" key="64" pos="1056" pan="0"/>
          <note vol="173" len="24" key="64" pos="1080" pan="0"/>
          <note vol="181" len="24" key="64" pos="1104" pan="0"/>
          <note vol="172" len="24" key="60" pos="1128" pan="0"/>
          <note vol="168" len="12" key="60" pos="1176" pan="0"/>
          <note vol="168" len="12" key="60" pos="1188" pan="0"/>
          <note vol="174" len="24" key="62" pos="1200" pan="0"/>
          <note vol="171" len="24" key="60" pos="1224" pan="0"/>
          <note vol="178" len="72" key="64" pos="1248" pan="0"/>
          <note vol="168" len="24" key="60" pos="1368" pan="0"/>
          <note vol="175" len="24" key="62" pos="1392" pan="0"/>
          <note vol="172" len="24" key="64" pos="1416" pan="0"/>
          <note vol="177" len="72" key="64" pos="1440" pan="0"/>
        </pattern>
      </track>
    </trackcontainer>
    <track name="" solo="0" muted="0" type="6">
      <automationtrack/>
      <automationpattern tens="1" len="192" name="Numerator" pos="0" mute="0" prog="0"/>
      <automationpattern tens="1" len="192" name="Denominator" pos="0" mute="0" prog="0"/>
      <automationpattern tens="1" len="192" name="" pos="0" mute="0" prog="0"/>
      <automationpattern tens="1" len="192" name="" pos="0" mute="0" prog="0"/>
      <automationpattern tens="1" len="192" name="" pos="0" mute="0" prog="0"/>
      <automationpattern tens="0" len="28032" name="" pos="0" mute="0" prog="2">
        <time value="128" pos="0"/>
        <time value="128" pos="27072"/>
        <time value="84" pos="27840"/>
        <object id="5493374"/>
      </automationpattern>
    </track>
    <fxmixer maximized="0" x="842" height="333" y="406" minimized="0" width="713" visible="1">
      <fxchannel volume="0.790232" soloed="0" name="Out" num="0" muted="0">
        <fxchain enabled="1" numofeffects="0"/>
        <connection>
          <muted>
            <Midicontroller outputcontroller="0" outputprogram="1" inputcontroller="37" fixedoutputvelocity="-1" writable="0" basevelocity="127" readable="1" name="MIDI ch1 ctrl37" inports="" inputchannel="1" outputchannel="1" fixedoutputnote="-1" type="2" fixedinputvelocity="-1"/>
          </muted>
        </connection>
      </fxchannel>
    </fxmixer>
    <ControllerRackView maximized="0" x="940" height="300" y="315" minimized="0" width="400" visible="0"/>
    <pianoroll maximized="1" x="52" height="480" y="61" minimized="0" width="640" visible="0"/>
    <automationeditor maximized="0" x="662" height="400" y="148" minimized="0" width="640" visible="0"/>
    <projectnotes maximized="1" x="88" height="400" y="81" minimized="0" width="640" visible="0"><![CDATA[<!DOCTYPE HTML PUBLIC "-//W3C//DTD HTML 4.0//EN" "http://www.w3.org/TR/REC-html40/strict.dtd">
<html><head><meta name="qrichtext" content="1" /><style type="text/css">
p, li { white-space: pre-wrap; }
</style></head><body style=" font-family:'PMingLiU'; font-size:9pt; font-weight:400; font-style:normal;">
<p style="-qt-paragraph-type:empty; margin-top:0px; margin-bottom:0px; margin-left:0px; margin-right:0px; -qt-block-indent:0; text-indent:0px;"><br /></p></body></html>]]></projectnotes>
    <timeline lpstate="1" lp0pos="0" lp1pos="28032"/>
    <controllers/>
  </song>
</lmms-project>
